<?xml version="1.0" standalone="no"?><!DOCTYPE svg PUBLIC "-//W3C//DTD SVG 1.1//EN" "http://www.w3.org/Graphics/SVG/1.1/DTD/svg11.dtd" ><svg xmlns="http://www.w3.org/2000/svg"><metadata></metadata><defs><font id="1.000;djr ;Bungee-Shade" horiz-adv-x="1517"><font-face font-family="Bungee Shade" font-weight="400" font-stretch="normal" units-per-em="1000" panose-1="0 0 0 0 0 0 0 0 0 0" ascent="860" descent="-140" x-height="0" bbox="-608 -916 1944 1636" underline-thickness="0" underline-position="0" unicode-range="U+0020-ff3e" /><missing-glyph horiz-adv-x="1100" d="M850 -159 l-728 0 q-24 0 -35 11 q-11 11 -11 35 l0 728 q0 13 3.5 22 q3.5 9 10.5 15 l129 109 q5 4 13.5 6.5 q8.5 2.5 18.5 2.5 l728 0 q24 0 35 -11 q11 -11 11 -35 l0 -728 q0 -13 -3.5 -22 q-3.5 -9 -10.5 -15 l-130 -108 q-4 -4 -12.5 -7 q-8.5 -3 -18.5 -3 ZM1015 -4 l0 728 q0 19 -8.5 27.5 q-8.5 8.5 -27.5 8.5 l-728 0 q-19 0 -27.5 -8.5 q-8.5 -8.5 -8.5 -27.5 l0 -728 q0 -19 8.5 -27.5 q8.5 -8.5 27.5 -8.5 l728 0 q19 0 27.5 8.5 q8.5 8.5 8.5 27.5 ZM235 -20 l0 760 l760 0 l0 -760 l-760 0 ZM985 -10 l0 740 l-740 0 l0 -740 l740 0 ZM965 10 l-700 0 l0 700 l700 0 l0 -700 ZM826 591 l-551 0 l0 -571 l551 0 l0 571 Z" /><glyph glyph-name="space" unicode=" " d="" /><glyph glyph-name="A" unicode="a" d="M285 303 l0 -31 l390 0 l0 31 q0 27 -4.5 50 q-4.5 23 -11.5 43 l-69 163 q-11 26 -23 43.5 q-12 17.5 -40 17.5 l-98 0 q-30 0 -42 -17.5 q-12 -17.5 -22 -42.5 l-64 -164 q-7 -20 -11.5 -43 q-4.5 -23 -4.5 -50 ZM445 510 q4 9 8.5 13 q4.5 4 10.5 4 l25 0 q6 0 10.5 -4 q4.5 -4 8.5 -13 l47 -152 l-157 0 l47 152 ZM675 90 l0 172 l-390 0 l0 -172 l-10 0 l0 213 q0 28 4.5 51.5 q4.5 23.5 12.5 45.5 l64 164 q11 28 25 47 q14 19 48 19 l98 0 q33 0 46.5 -19 q13.5 -19 25.5 -48 l69 -163 q8 -22 12.5 -45.5 q4.5 -23.5 4.5 -51.5 l0 -213 l-10 0 ZM388 36 l0 140 l177 0 l0 -140 q0 -19 9.5 -27.5 q9.5 -8.5 29.5 -8.5 l151 0 q19 0 27.5 8.5 q8.5 8.5 8.5 27.5 l0 264 q0 30 -9.5 69 q-9.5 39 -29.5 91 l-87 227 q-6 17 -18.5 25 q-12.5 8 -31.5 8 l-269 0 q-20 0 -32.5 -8 q-12.5 -8 -18.5 -25 l-87 -227 q-20 -52 -29.5 -91 q-9.5 -39 -9.5 -69 l0 -264 q0 -19 8.5 -27.5 q8.5 -8.5 27.5 -8.5 l147 0 q19 0 27.5 8.5 q8.5 8.5 8.5 27.5 ZM254 -109 q-4 -4 -12.5 -7 q-8.5 -3 -18.5 -3 l-147 0 q-24 0 -35 11 q-11 11 -11 35 l0 264 q0 31 9.5 70.5 q9.5 39.5 30.5 93.5 l86 226 q3 9 7.5 15.5 q4.5 6.5 9.5 11.5 l1 1 l128 107 q8 7 19 10.5 q11 3.5 25 3.5 l269 0 q23 0 37.5 -9.5 q14.5 -9.5 21.5 -29.5 l87 -227 q21 -54 30.5 -93.5 q9.5 -39.5 9.5 -70.5 l0 -264 q0 -13 -3.5 -22 q-3.5 -9 -10.5 -15 l-130 -108 q-4 -4 -12.5 -7 q-8.5 -3 -18.5 -3 l-151 0 q-25 0 -37 11.5 q-12 11.5 -12 34.5 l0 130 l-28 0 l0 -21 q0 -13 -3.5 -22 q-3.5 -9 -10.5 -15 l-130 -108 Z" /><glyph glyph-name="Agrave" unicode="à" d="M655 753 q17 -2 25.5 7 q8.5 9 8.5 26 l0 96 q0 19 -8.5 26.5 q-8.5 7.5 -27.5 9.5 l-349 43 q-17 2 -25.5 -7 q-8.5 -9 -8.5 -26 l0 -96 q0 -19 8.5 -26.5 q8.5 -7.5 27.5 -9.5 l349 -43 ZM360 867 l0 10 l239 -30 l0 -10 l-239 30 ZM285 303 l0 -31 l390 0 l0 31 q0 27 -4.5 50 q-4.5 23 -11.5 43 l-69 163 q-11 26 -23 43.5 q-12 17.5 -40 17.5 l-98 0 q-30 0 -42 -17.5 q-12 -17.5 -22 -42.5 l-64 -164 q-7 -20 -11.5 -43 q-4.5 -23 -4.5 -50 ZM445 510 q4 9 8.5 13 q4.5 4 10.5 4 l25 0 q6 0 10.5 -4 q4.5 -4 8.5 -13 l47 -152 l-157 0 l47 152 ZM675 90 l0 172 l-390 0 l0 -172 l-10 0 l0 213 q0 28 4.5 51.5 q4.5 23.5 12.5 45.5 l64 164 q11 28 25 47 q14 19 48 19 l98 0 q33 0 46.5 -19 q13.5 -19 25.5 -48 l69 -163 q8 -22 12.5 -45.5 q4.5 -23.5 4.5 -51.5 l0 -213 l-10 0 ZM388 36 l0 140 l177 0 l0 -140 q0 -19 9.5 -27.5 q9.5 -8.5 29.5 -8.5 l151 0 q19 0 27.5 8.5 q8.5 8.5 8.5 27.5 l0 264 q0 30 -9.5 69 q-9.5 39 -29.5 91 l-87 227 q-6 17 -18.5 25 q-12.5 8 -31.5 8 l-269 0 q-20 0 -32.5 -8 q-12.5 -8 -18.5 -25 l-87 -227 q-20 -52 -29.5 -91 q-9.5 -39 -9.5 -69 l0 -264 q0 -19 8.5 -27.5 q8.5 -8.5 27.5 -8.5 l147 0 q19 0 27.5 8.5 q8.5 8.5 8.5 27.5 ZM254 -109 q-4 -4 -12.5 -7 q-8.5 -3 -18.5 -3 l-147 0 q-24 0 -35 11 q-11 11 -11 35 l0 264 q0 31 9.5 70.5 q9.5 39.5 30.5 93.5 l86 226 q3 9 7.5 15.5 q4.5 6.5 9.5 11.5 l1 1 l71 59 l-69 9 q-24 3 -34.5 13 q-10.5 10 -10.5 33 l0 96 q0 13 3.5 21.5 q3.5 8.5 10.5 14.5 l129 109 q6 4 13.5 6 q7.5 2 17.5 1 l349 -43 q24 -3 34.5 -13 q10.5 -10 10.5 -33 l0 -96 q0 -13 -3.5 -21.5 q-3.5 -8.5 -10.5 -14.5 l-34 -28 q8 -5 13.5 -13 q5.5 -8 9.5 -18 l87 -227 q21 -54 30.5 -93.5 q9.5 -39.5 9.5 -70.5 l0 -264 q0 -13 -3.5 -22 q-3.5 -9 -10.5 -15 l-130 -108 q-4 -4 -12.5 -7 q-8.5 -3 -18.5 -3 l-151 0 q-25 0 -37 11.5 q-12 11.5 -12 34.5 l0 130 l-28 0 l0 -21 q0 -13 -3.5 -22 q-3.5 -9 -10.5 -15 l-130 -108 Z" /><glyph glyph-name="Aacute" unicode="á" d="M653 796 q19 2 27.5 9.5 q8.5 7.5 8.5 26.5 l0 96 q0 17 -8.5 26 q-8.5 9 -25.5 7 l-349 -43 q-19 -2 -27.5 -9.5 q-8.5 -7.5 -8.5 -26.5 l0 -96 q0 -17 8.5 -26 q8.5 -9 25.5 -7 l349 43 ZM360 847 l239 30 l0 -10 l-239 -30 l0 10 ZM285 303 l0 -31 l390 0 l0 31 q0 27 -4.5 50 q-4.5 23 -11.5 43 l-69 163 q-11 26 -23 43.5 q-12 17.5 -40 17.5 l-98 0 q-30 0 -42 -17.5 q-12 -17.5 -22 -42.5 l-64 -164 q-7 -20 -11.5 -43 q-4.5 -23 -4.5 -50 ZM445 510 q4 9 8.5 13 q4.5 4 10.5 4 l25 0 q6 0 10.5 -4 q4.5 -4 8.5 -13 l47 -152 l-157 0 l47 152 ZM675 90 l0 172 l-390 0 l0 -172 l-10 0 l0 213 q0 28 4.5 51.5 q4.5 23.5 12.5 45.5 l64 164 q11 28 25 47 q14 19 48 19 l98 0 q33 0 46.5 -19 q13.5 -19 25.5 -48 l69 -163 q8 -22 12.5 -45.5 q4.5 -23.5 4.5 -51.5 l0 -213 l-10 0 ZM388 36 l0 140 l177 0 l0 -140 q0 -19 9.5 -27.5 q9.5 -8.5 29.5 -8.5 l151 0 q19 0 27.5 8.5 q8.5 8.5 8.5 27.5 l0 264 q0 30 -9.5 69 q-9.5 39 -29.5 91 l-87 227 q-6 17 -18.5 25 q-12.5 8 -31.5 8 l-269 0 q-20 0 -32.5 -8 q-12.5 -8 -18.5 -25 l-87 -227 q-20 -52 -29.5 -91 q-9.5 -39 -9.5 -69 l0 -264 q0 -19 8.5 -27.5 q8.5 -8.5 27.5 -8.5 l147 0 q19 0 27.5 8.5 q8.5 8.5 8.5 27.5 ZM254 -109 q-4 -4 -12.5 -7 q-8.5 -3 -18.5 -3 l-147 0 q-24 0 -35 11 q-11 11 -11 35 l0 264 q0 31 9.5 70.5 q9.5 39.5 30.5 93.5 l86 226 q3 9 7.5 15.5 q4.5 6.5 9.5 11.5 l1 1 l35 29 l-33 -4 q-22 -3 -33.5 8.5 q-11.5 11.5 -11.5 34.5 l0 96 q0 13 3.5 21.5 q3.5 8.5 9.5 13.5 l130 109 q4 4 12.5 7 q8.5 3 18.5 4 l349 43 q22 3 33.5 -8.5 q11.5 -11.5 11.5 -34.5 l0 -96 q0 -13 -3.5 -22 q-3.5 -9 -10.5 -13 l-79 -67 l9 0 q23 0 37.5 -9.5 q14.5 -9.5 21.5 -29.5 l87 -227 q21 -54 30.5 -93.5 q9.5 -39.5 9.5 -70.5 l0 -264 q0 -13 -3.5 -22 q-3.5 -9 -10.5 -15 l-130 -108 q-4 -4 -12.5 -7 q-8.5 -3 -18.5 -3 l-151 0 q-25 0 -37 11.5 q-12 11.5 -12 34.5 l0 130 l-28 0 l0 -21 q0 -13 -3.5 -22 q-3.5 -9 -10.5 -15 l-130 -108 Z" /><glyph glyph-name="Acircumflex" unicode="â" d="M598 850 l-87 28 q-7 2 -14.5 4 q-7.5 2 -17.5 2 q-10 0 -17.5 -2 q-7.5 -2 -14.5 -4 l-87 -28 l0 11 l83 27 q9 2 17 4 q8 2 19 2 q11 0 19 -2 q8 -2 17 -4 l83 -27 l0 -11 ZM448 797 q17 4 31 4 q14 0 31 -4 l137 -40 q26 -8 34 -2 q8 6 8 33 l0 81 q0 27 -8.5 35 q-8.5 8 -33.5 18 l-137 50 q-7 3 -15 4 q-8 1 -17 1 q-9 -1 -19.5 -3 q-10.5 -2 -19.5 -6 l-128 -46 q-24 -10 -32.5 -18 q-8.5 -8 -8.5 -35 l0 -81 q0 -27 8 -33 q8 -6 33 2 l137 40 ZM285 303 l0 -31 l390 0 l0 31 q0 27 -4.5 50 q-4.5 23 -11.5 43 l-69 163 q-11 26 -23 43.5 q-12 17.5 -40 17.5 l-98 0 q-30 0 -42 -17.5 q-12 -17.5 -22 -42.5 l-64 -164 q-7 -20 -11.5 -43 q-4.5 -23 -4.5 -50 ZM445 510 q4 9 8.5 13 q4.5 4 10.5 4 l25 0 q6 0 10.5 -4 q4.5 -4 8.5 -13 l47 -152 l-157 0 l47 152 ZM675 90 l0 172 l-390 0 l0 -172 l-10 0 l0 213 q0 28 4.5 51.5 q4.5 23.5 12.5 45.5 l64 164 q11 28 25 47 q14 19 48 19 l98 0 q33 0 46.5 -19 q13.5 -19 25.5 -48 l69 -163 q8 -22 12.5 -45.5 q4.5 -23.5 4.5 -51.5 l0 -213 l-10 0 ZM388 36 l0 140 l177 0 l0 -140 q0 -19 9.5 -27.5 q9.5 -8.5 29.5 -8.5 l151 0 q19 0 27.5 8.5 q8.5 8.5 8.5 27.5 l0 264 q0 30 -9.5 69 q-9.5 39 -29.5 91 l-87 227 q-6 17 -18.5 25 q-12.5 8 -31.5 8 l-269 0 q-20 0 -32.5 -8 q-12.5 -8 -18.5 -25 l-87 -227 q-20 -52 -29.5 -91 q-9.5 -39 -9.5 -69 l0 -264 q0 -19 8.5 -27.5 q8.5 -8.5 27.5 -8.5 l147 0 q19 0 27.5 8.5 q8.5 8.5 8.5 27.5 ZM254 -109 q-4 -4 -12.5 -7 q-8.5 -3 -18.5 -3 l-147 0 q-24 0 -35 11 q-11 11 -11 35 l0 264 q0 31 9.5 70.5 q9.5 39.5 30.5 93.5 l86 226 q3 9 7.5 15.5 q4.5 6.5 9.5 11.5 l1 1 l48 40 l-37 -11 q-33 -10 -43.5 -2.5 q-10.5 7.5 -10.5 43.5 l0 81 q0 19 3.5 29 q3.5 10 10.5 17 l131 109 l-1 -1 q5 5 13.5 9 q8.5 4 19.5 8 l127 46 q10 4 21.5 6.5 q11.5 2.5 21.5 3.5 q10 0 19 -1 q9 -1 16 -5 l138 -50 q30 -11 39 -21 q9 -10 9 -41 l0 -81 q0 -16 -3 -26 q-3 -10 -7 -14 l-1 -1 l-33 -28 q6 -4 11 -11 q5 -7 8 -17 l87 -227 q21 -54 30.5 -93.5 q9.5 -39.5 9.5 -70.5 l0 -264 q0 -13 -3.5 -22 q-3.5 -9 -10.5 -15 l-130 -108 q-4 -4 -12.5 -7 q-8.5 -3 -18.5 -3 l-151 0 q-25 0 -37 11.5 q-12 11.5 -12 34.5 l0 130 l-28 0 l0 -21 q0 -13 -3.5 -22 q-3.5 -9 -10.5 -15 l-130 -108 Z" /><glyph glyph-name="Atilde" unicode="ã" d="M479 764 l16 -2 q30 -4 49.5 -6.5 q19.5 -2.5 35.5 -2.5 q16 0 32 3.5 q16 3.5 40 10.5 q17 7 26.5 14.5 q9.5 7.5 9.5 26.5 l0 101 q0 19 -9 25 q-9 6 -27 1 q-22 -7 -36 -11 q-14 -4 -28.5 -5 q-14.5 -1 -34 1 q-19.5 2 -52.5 7 l-22 3 l-17 2 q-30 4 -49.5 6.5 q-19.5 2.5 -35 2.5 q-15.5 0 -31.5 -3.5 q-16 -3.5 -40 -10.5 q-17 -7 -26.5 -14.5 q-9.5 -7.5 -9.5 -26.5 l0 -101 q0 -19 9 -25 q9 -6 27 -1 q20 6 34.5 9.5 q14.5 3.5 29.5 5 q15 1.5 34 0 q19 -1.5 47 -5.5 l28 -4 ZM598 841 l0 -10 q-20 -2 -43 0 q-23 2 -61 8 l-16 2 l-28 4 q-33 5 -53.5 6 q-20.5 1 -36.5 -2 l0 11 q17 2 37.5 0.5 q20.5 -1.5 54.5 -5.5 l28 -4 l16 -2 q38 -6 60 -8 q22 -2 42 0 ZM285 303 l0 -31 l390 0 l0 31 q0 27 -4.5 50 q-4.5 23 -11.5 43 l-69 163 q-11 26 -23 43.5 q-12 17.5 -40 17.5 l-98 0 q-30 0 -42 -17.5 q-12 -17.5 -22 -42.5 l-64 -164 q-7 -20 -11.5 -43 q-4.5 -23 -4.5 -50 ZM445 510 q4 9 8.5 13 q4.5 4 10.5 4 l25 0 q6 0 10.5 -4 q4.5 -4 8.5 -13 l47 -152 l-157 0 l47 152 ZM675 90 l0 172 l-390 0 l0 -172 l-10 0 l0 213 q0 28 4.5 51.5 q4.5 23.5 12.5 45.5 l64 164 q11 28 25 47 q14 19 48 19 l98 0 q33 0 46.5 -19 q13.5 -19 25.5 -48 l69 -163 q8 -22 12.5 -45.5 q4.5 -23.5 4.5 -51.5 l0 -213 l-10 0 ZM388 36 l0 140 l177 0 l0 -140 q0 -19 9.5 -27.5 q9.5 -8.5 29.5 -8.5 l151 0 q19 0 27.5 8.5 q8.5 8.5 8.5 27.5 l0 264 q0 30 -9.5 69 q-9.5 39 -29.5 91 l-87 227 q-6 17 -18.5 25 q-12.5 8 -31.5 8 l-269 0 q-20 0 -32.5 -8 q-12.5 -8 -18.5 -25 l-87 -227 q-20 -52 -29.5 -91 q-9.5 -39 -9.5 -69 l0 -264 q0 -19 8.5 -27.5 q8.5 -8.5 27.5 -8.5 l147 0 q19 0 27.5 8.5 q8.5 8.5 8.5 27.5 ZM254 -109 q-4 -4 -12.5 -7 q-8.5 -3 -18.5 -3 l-147 0 q-24 0 -35 11 q-11 11 -11 35 l0 264 q0 31 9.5 70.5 q9.5 39.5 30.5 93.5 l86 226 q3 9 7.5 15.5 q4.5 6.5 9.5 11.5 l1 1 l52 44 q-10 -2 -21 -5.5 q-11 -3.5 -25 -7.5 q-25 -7 -37 2 q-12 9 -12 34 l0 101 q0 13 3.5 21.5 q3.5 8.5 11.5 15.5 l129 108 q4 4 11.5 7.5 q7.5 3.5 15.5 6.5 l1 0 l0 1 q24 7 40.5 10.5 q16.5 3.5 33 3.5 q16.5 0 36 -2.5 q19.5 -2.5 50.5 -6.5 l17 -2 l22 -3 q32 -5 51 -7 q19 -2 33 -1 q14 1 28 5 q14 4 35 11 q25 7 37 -2 q12 -9 12 -34 l0 -101 q0 -13 -4 -21.5 q-4 -8.5 -11 -14.5 l-51 -43 q16 -3 26.5 -12.5 q10.5 -9.5 15.5 -25.5 l87 -227 q21 -54 30.5 -93.5 q9.5 -39.5 9.5 -70.5 l0 -264 q0 -13 -3.5 -22 q-3.5 -9 -10.5 -15 l-130 -108 q-4 -4 -12.5 -7 q-8.5 -3 -18.5 -3 l-151 0 q-25 0 -37 11.5 q-12 11.5 -12 34.5 l0 130 l-28 0 l0 -21 q0 -13 -3.5 -22 q-3.5 -9 -10.5 -15 l-130 -108 Z" /><glyph glyph-name="Adieresis" unicode="ä" d="M676 760 q17 0 25 8 q8 8 8 25 l0 121 q0 17 -8 25 q-8 8 -25 8 l-138 0 q-17 0 -25 -8 q-8 -8 -8 -25 l0 -121 q0 -17 8 -25 q8 -8 25 -8 l138 0 ZM418 760 q17 0 25 8 q8 8 8 25 l0 121 q0 17 -8 25 q-8 8 -25 8 l-138 0 q-17 0 -25.5 -8 q-8.5 -8 -8.5 -25 l0 -121 q0 -17 8.5 -25 q8.5 -8 25.5 -8 l138 0 ZM612 830 l-10 0 l0 47 l10 0 l0 -47 ZM354 830 l-10 0 l0 47 l10 0 l0 -47 ZM285 303 l0 -31 l390 0 l0 31 q0 27 -4.5 50 q-4.5 23 -11.5 43 l-69 163 q-11 26 -23 43.5 q-12 17.5 -40 17.5 l-98 0 q-30 0 -42 -17.5 q-12 -17.5 -22 -42.5 l-64 -164 q-7 -20 -11.5 -43 q-4.5 -23 -4.5 -50 ZM445 510 q4 9 8.5 13 q4.5 4 10.5 4 l25 0 q6 0 10.5 -4 q4.5 -4 8.5 -13 l47 -152 l-157 0 l47 152 ZM675 90 l0 172 l-390 0 l0 -172 l-10 0 l0 213 q0 28 4.5 51.5 q4.5 23.5 12.5 45.5 l64 164 q11 28 25 47 q14 19 48 19 l98 0 q33 0 46.5 -19 q13.5 -19 25.5 -48 l69 -163 q8 -22 12.5 -45.5 q4.5 -23.5 4.5 -51.5 l0 -213 l-10 0 ZM388 36 l0 140 l177 0 l0 -140 q0 -19 9.5 -27.5 q9.5 -8.5 29.5 -8.5 l151 0 q19 0 27.5 8.5 q8.5 8.5 8.5 27.5 l0 264 q0 30 -9.5 69 q-9.5 39 -29.5 91 l-87 227 q-6 17 -18.5 25 q-12.5 8 -31.5 8 l-269 0 q-20 0 -32.5 -8 q-12.5 -8 -18.5 -25 l-87 -227 q-20 -52 -29.5 -91 q-9.5 -39 -9.5 -69 l0 -264 q0 -19 8.5 -27.5 q8.5 -8.5 27.5 -8.5 l147 0 q19 0 27.5 8.5 q8.5 8.5 8.5 27.5 ZM254 -109 q-4 -4 -12.5 -7 q-8.5 -3 -18.5 -3 l-147 0 q-24 0 -35 11 q-11 11 -11 35 l0 264 q0 31 9.5 70.5 q9.5 39.5 30.5 93.5 l86 226 q3 9 7.5 15.5 q4.5 6.5 9.5 11.5 l1 1 l38 32 l-61 0 q-22 0 -33 10.5 q-11 10.5 -11 32.5 l0 121 q0 13 3.5 21 q3.5 8 9.5 13 l129 109 q5 4 13 6.5 q8 2.5 18 2.5 l138 0 q22 0 32.5 -10.5 q10.5 -10.5 10.5 -32.5 l0 -6 l47 40 q5 4 12.5 6.5 q7.5 2.5 17.5 2.5 l138 0 q22 0 32.5 -10.5 q10.5 -10.5 10.5 -32.5 l0 -121 q0 -12 -3.5 -20.5 q-3.5 -8.5 -9.5 -13.5 l-50 -41 q6 -4 10.5 -11 q4.5 -7 7.5 -16 l87 -227 q21 -54 30.5 -93.5 q9.5 -39.5 9.5 -70.5 l0 -264 q0 -13 -3.5 -22 q-3.5 -9 -10.5 -15 l-130 -108 q-4 -4 -12.5 -7 q-8.5 -3 -18.5 -3 l-151 0 q-25 0 -37 11.5 q-12 11.5 -12 34.5 l0 130 l-28 0 l0 -21 q0 -13 -3.5 -22 q-3.5 -9 -10.5 -15 l-130 -108 Z" /><glyph glyph-name="Aring" unicode="å" d="M340 760 l0 45 q0 22 5.5 41 q5.5 19 20.5 32 q15 13 43 20.5 q28 7.5 72 7.5 q89 0 116 -28.5 q27 -28.5 27 -72.5 l0 -45 q0 -45 -27 -72.5 q-27 -27.5 -116 -27.5 q-44 0 -72 7 q-28 7 -43 20.5 q-15 13.5 -20.5 32 q-5.5 18.5 -5.5 40.5 ZM481 896 q-80 0 -105.5 -24.5 q-25.5 -24.5 -25.5 -66.5 l0 -45 q0 -42 25.5 -66 q25.5 -24 105.5 -24 q80 0 106.5 24 q26.5 24 26.5 66 l0 45 q0 41 -26.5 66 q-26.5 25 -106.5 25 ZM540 764 q0 -22 -11 -32.5 q-11 -10.5 -48 -10.5 q-37 0 -47 10.5 q-10 10.5 -10 32.5 l0 35 q0 19 10 29.5 q10 10.5 47 10.5 q37 0 48 -10.5 q11 -10.5 11 -29.5 l0 -35 ZM285 303 l0 -31 l390 0 l0 31 q0 27 -4.5 50 q-4.5 23 -11.5 43 l-69 163 q-11 26 -23 43.5 q-12 17.5 -40 17.5 l-98 0 q-30 0 -42 -17.5 q-12 -17.5 -22 -42.5 l-64 -164 q-7 -20 -11.5 -43 q-4.5 -23 -4.5 -50 ZM445 510 q3 9 8 13 q5 4 11 4 l25 0 q6 0 11 -4 q5 -4 8 -13 l47 -152 l-157 0 l47 152 ZM675 90 l0 172 l-390 0 l0 -172 l-10 0 l0 213 q0 28 4.5 51.5 q4.5 23.5 12.5 45.5 l64 164 q11 28 25 47 q14 19 48 19 l98 0 q33 0 46.5 -19 q13.5 -19 25.5 -48 l69 -163 q8 -22 12.5 -45.5 q4.5 -23.5 4.5 -51.5 l0 -213 l-10 0 ZM388 36 l0 140 l177 0 l0 -140 q0 -19 9.5 -27.5 q9.5 -8.5 29.5 -8.5 l151 0 q19 0 27.5 8.5 q8.5 8.5 8.5 27.5 l0 264 q0 30 -9.5 69 q-9.5 39 -29.5 91 l-84 220 q16 18 22.5 41 q6.5 23 6.5 50 l0 58 q0 32 -9.5 58.5 q-9.5 26.5 -34 45 q-24.5 18.5 -66.5 29 q-42 10.5 -107 10.5 q-65 0 -107 -10.5 q-42 -10.5 -66.5 -29 q-24.5 -18.5 -34 -45 q-9.5 -26.5 -9.5 -58.5 l0 -58 q0 -27 6.5 -50 q6.5 -23 22.5 -41 l-84 -220 q-20 -52 -29.5 -91 q-9.5 -39 -9.5 -69 l0 -264 q0 -19 8.5 -27.5 q8.5 -8.5 27.5 -8.5 l147 0 q19 0 27.5 8.5 q8.5 8.5 8.5 27.5 ZM384 -1 l-130 -108 q-4 -4 -12.5 -7 q-8.5 -3 -18.5 -3 l-147 0 q-24 0 -35 11 q-11 11 -11 35 l0 264 q0 31 9.5 70.5 q9.5 39.5 30.5 93.5 l82 214 q-15 19 -21.5 42.5 q-6.5 23.5 -6.5 50.5 l0 58 q0 33 9 61 q9 28 34 48 l130 109 q25 20 69.5 32 q44.5 12 113.5 12 q69 0 113.5 -11.5 q44.5 -11.5 69.5 -31.5 q25 -20 34.5 -48.5 q9.5 -28.5 9.5 -61.5 l0 -58 q0 -27 -6.5 -50.5 q-6.5 -23.5 -21.5 -42.5 l82 -214 q21 -54 30.5 -93.5 q9.5 -39.5 9.5 -70.5 l0 -264 q0 -13 -3.5 -22 q-3.5 -9 -10.5 -15 l-130 -108 q-4 -4 -12.5 -7 q-8.5 -3 -18.5 -3 l-151 0 q-25 0 -37 11.5 q-12 11.5 -12 34.5 l0 130 l-28 0 l0 -21 q0 -13 -3.5 -22 q-3.5 -9 -10.5 -15 Z" /><glyph glyph-name="Amacron" unicode="&#x100;" d="M653 760 q19 0 27.5 8.5 q8.5 8.5 8.5 27.5 l0 93 q0 19 -8.5 27.5 q-8.5 8.5 -27.5 8.5 l-347 0 q-19 0 -27.5 -8.5 q-8.5 -8.5 -8.5 -27.5 l0 -93 q0 -19 8.5 -27.5 q8.5 -8.5 27.5 -8.5 l347 0 ZM360 847 l239 0 l0 -10 l-239 0 l0 10 ZM285 303 l0 -31 l390 0 l0 31 q0 27 -4.5 50 q-4.5 23 -11.5 43 l-69 163 q-11 26 -23 43.5 q-12 17.5 -40 17.5 l-98 0 q-30 0 -42 -17.5 q-12 -17.5 -22 -42.5 l-64 -164 q-7 -20 -11.5 -43 q-4.5 -23 -4.5 -50 ZM445 510 q4 9 8.5 13 q4.5 4 10.5 4 l25 0 q6 0 10.5 -4 q4.5 -4 8.5 -13 l47 -152 l-157 0 l47 152 ZM675 90 l0 172 l-390 0 l0 -172 l-10 0 l0 213 q0 28 4.5 51.5 q4.5 23.5 12.5 45.5 l64 164 q11 28 25 47 q14 19 48 19 l98 0 q33 0 46.5 -19 q13.5 -19 25.5 -48 l69 -163 q8 -22 12.5 -45.5 q4.5 -23.5 4.5 -51.5 l0 -213 l-10 0 ZM388 36 l0 140 l177 0 l0 -140 q0 -19 9.5 -27.5 q9.5 -8.5 29.5 -8.5 l151 0 q19 0 27.5 8.5 q8.5 8.5 8.5 27.5 l0 264 q0 30 -9.5 69 q-9.5 39 -29.5 91 l-87 227 q-6 17 -18.5 25 q-12.5 8 -31.5 8 l-269 0 q-20 0 -32.5 -8 q-12.5 -8 -18.5 -25 l-87 -227 q-20 -52 -29.5 -91 q-9.5 -39 -9.5 -69 l0 -264 q0 -19 8.5 -27.5 q8.5 -8.5 27.5 -8.5 l147 0 q19 0 27.5 8.5 q8.5 8.5 8.5 27.5 ZM254 -109 q-4 -4 -12.5 -7 q-8.5 -3 -18.5 -3 l-147 0 q-24 0 -35 11 q-11 11 -11 35 l0 264 q0 31 9.5 70.5 q9.5 39.5 30.5 93.5 l86 226 q3 9 7.5 15.5 q4.5 6.5 9.5 11.5 l1 1 l38 32 l-35 0 q-24 0 -35 11 q-11 11 -11 35 l0 93 q0 13 3.5 22 q3.5 9 10.5 15 l129 109 q5 4 13.5 6.5 q8.5 2.5 18.5 2.5 l347 0 q24 0 35 -11 q11 -11 11 -35 l0 -93 q0 -13 -3.5 -22 q-3.5 -9 -10.5 -15 l-40 -34 q10 -4 17.5 -12.5 q7.5 -8.5 11.5 -21.5 l87 -227 q21 -54 30.5 -93.5 q9.5 -39.5 9.5 -70.5 l0 -264 q0 -13 -3.5 -22 q-3.5 -9 -10.5 -15 l-130 -108 q-4 -4 -12.5 -7 q-8.5 -3 -18.5 -3 l-151 0 q-25 0 -37 11.5 q-12 11.5 -12 34.5 l0 130 l-28 0 l0 -21 q0 -13 -3.5 -22 q-3.5 -9 -10.5 -15 l-130 -108 Z" /><glyph glyph-name="Abreve" unicode="&#x102;" d="M697 897 l0 44 q0 19 -8.5 27.5 q-8.5 8.5 -27.5 8.5 l-91 0 q-17 0 -23.5 -6.5 q-6.5 -6.5 -6.5 -24.5 l0 -21 q0 -14 -11 -23.5 q-11 -9.5 -48 -9.5 q-37 0 -47 9.5 q-10 9.5 -10 23.5 l0 21 q0 18 -6.5 24.5 q-6.5 6.5 -22.5 6.5 l-96 0 q-19 0 -27.5 -8.5 q-8.5 -8.5 -8.5 -27.5 l0 -44 q0 -32 9.5 -58.5 q9.5 -26.5 34 -45 q24.5 -18.5 66.5 -29 q42 -10.5 107 -10.5 q65 0 107 10.5 q42 10.5 66.5 29 q24.5 18.5 34 45 q9.5 26.5 9.5 58.5 ZM614 907 l10 0 l0 -9 q0 -14 -5.5 -28.5 q-5.5 -14.5 -20.5 -26 q-15 -11.5 -44 -18.5 q-29 -7 -75 -7 q-46 0 -74 7 q-28 7 -42.5 18.5 q-14.5 11.5 -19 26 q-4.5 14.5 -4.5 28.5 l0 9 l10 0 l0 -9 q0 -27 24.5 -48.5 q24.5 -21.5 105.5 -21.5 q81 0 108 21.5 q27 21.5 27 48.5 l0 9 ZM285 303 l0 -31 l390 0 l0 31 q0 27 -4.5 50 q-4.5 23 -11.5 43 l-69 163 q-11 26 -23 43.5 q-12 17.5 -40 17.5 l-98 0 q-30 0 -42 -17.5 q-12 -17.5 -22 -42.5 l-64 -164 q-7 -20 -11.5 -43 q-4.5 -23 -4.5 -50 ZM445 510 q4 9 8.5 13 q4.5 4 10.5 4 l25 0 q6 0 10.5 -4 q4.5 -4 8.5 -13 l47 -152 l-157 0 l47 152 ZM675 90 l0 172 l-390 0 l0 -172 l-10 0 l0 213 q0 28 4.5 51.5 q4.5 23.5 12.5 45.5 l64 164 q11 28 25 47 q14 19 48 19 l98 0 q33 0 46.5 -19 q13.5 -19 25.5 -48 l69 -163 q8 -22 12.5 -45.5 q4.5 -23.5 4.5 -51.5 l0 -213 l-10 0 ZM388 36 l0 140 l177 0 l0 -140 q0 -19 9.5 -27.5 q9.5 -8.5 29.5 -8.5 l151 0 q19 0 27.5 8.5 q8.5 8.5 8.5 27.5 l0 264 q0 30 -9.5 69 q-9.5 39 -29.5 91 l-87 227 q-6 17 -18.5 25 q-12.5 8 -31.5 8 l-269 0 q-20 0 -32.5 -8 q-12.5 -8 -18.5 -25 l-87 -227 q-20 -52 -29.5 -91 q-9.5 -39 -9.5 -69 l0 -264 q0 -19 8.5 -27.5 q8.5 -8.5 27.5 -8.5 l147 0 q19 0 27.5 8.5 q8.5 8.5 8.5 27.5 ZM254 -109 q-4 -4 -12.5 -7 q-8.5 -3 -18.5 -3 l-147 0 q-24 0 -35 11 q-11 11 -11 35 l0 264 q0 31 9.5 70.5 q9.5 39.5 30.5 93.5 l86 226 q3 9 7.5 15.5 q4.5 6.5 9.5 11.5 l1 1 l49 41 q-58 18 -78.5 54.5 q-20.5 36.5 -20.5 83.5 l0 44 q0 13 3.5 22 q3.5 9 10.5 15 l129 109 q5 4 13.5 6.5 q8.5 2.5 18.5 2.5 l96 0 q21 0 30 -8.5 q9 -8.5 9 -32.5 l0 -21 q0 -7 4 -12.5 q4 -5.5 14 -7.5 l90 75 l-1 -1 q4 4 11 6 q7 2 18 2 l91 0 q24 0 35 -11 q11 -11 11 -35 l0 -44 q0 -33 -9.5 -61 q-9.5 -28 -34.5 -48 l-70 -58 l22 0 q23 0 37.5 -9.5 q14.5 -9.5 21.5 -29.5 l87 -227 q21 -54 30.5 -93.5 q9.5 -39.5 9.5 -70.5 l0 -264 q0 -13 -3.5 -22 q-3.5 -9 -10.5 -15 l-130 -108 q-4 -4 -12.5 -7 q-8.5 -3 -18.5 -3 l-151 0 q-25 0 -37 11.5 q-12 11.5 -12 34.5 l0 130 l-28 0 l0 -21 q0 -13 -3.5 -22 q-3.5 -9 -10.5 -15 l-130 -108 Z" /><glyph glyph-name="Aogonek" unicode="&#x104;" d="M629 -305 l-111 0 q-62 0 -92.5 40 q-30.5 40 -18.5 107 l19 104 l0 111 l-28 0 l0 -21 q0 -13 -3.5 -22 q-3.5 -9 -10.5 -15 l-130 -108 q-4 -4 -12.5 -7 q-8.5 -3 -18.5 -3 l-147 0 q-24 0 -35 11 q-11 11 -11 35 l0 264 q0 31 9.5 70.5 q9.5 39.5 30.5 93.5 l86 226 q3 9 7.5 15.5 q4.5 6.5 9.5 11.5 l1 1 l128 107 q8 7 19 10.5 q11 3.5 25 3.5 l269 0 q23 0 37.5 -9.5 q14.5 -9.5 21.5 -29.5 l87 -227 q21 -54 30.5 -93.5 q9.5 -39.5 9.5 -70.5 l0 -264 q0 -24 -11 -35 q-11 -11 -35 -11 l-25 0 l-4 -26 l29 0 q27 0 36.5 -9.5 q9.5 -9.5 9.5 -34.5 l0 -72 q0 -16 -4 -25 q-4 -9 -11 -15 l-127 -105 q-4 -4 -12 -6 q-8 -2 -18 -2 ZM647 -186 l111 0 q19 0 26 7.5 q7 7.5 7 26.5 l0 72 q0 19 -7.5 26.5 q-7.5 7.5 -28.5 7.5 l-41 0 l7 46 l34 0 q19 0 27.5 8.5 q8.5 8.5 8.5 27.5 l0 264 q0 30 -9.5 69 q-9.5 39 -29.5 91 l-87 227 q-6 17 -18.5 25 q-12.5 8 -31.5 8 l-269 0 q-20 0 -32.5 -8 q-12.5 -8 -18.5 -25 l-87 -227 q-20 -52 -29.5 -91 q-9.5 -39 -9.5 -69 l0 -264 q0 -19 8.5 -27.5 q8.5 -8.5 27.5 -8.5 l147 0 q19 0 27.5 8.5 q8.5 8.5 8.5 27.5 l0 140 l177 0 l0 -119 l-19 -108 q-10 -69 13.5 -102 q23.5 -33 87.5 -33 ZM677 -106 l24 0 l0 -10 l-24 0 q-37 0 -47 19 q-10 19 -4 56 l12 83 q4 24 10 34 q6 10 27 22 l0 164 l-390 0 l0 -172 l-10 0 l0 213 q0 28 4.5 51.5 q4.5 23.5 12.5 45.5 l64 164 q11 28 25 47 q14 19 48 19 l98 0 q33 0 46.5 -19 q13.5 -19 25.5 -48 l69 -163 q8 -22 12.5 -45.5 q4.5 -23.5 4.5 -51.5 l0 -213 l-4 0 q-19 -10 -24.5 -18 q-5.5 -8 -8.5 -30 l-12 -85 q-4 -30 3 -46.5 q7 -16.5 38 -16.5 ZM285 303 l0 -31 l390 0 l0 31 q0 27 -4.5 50 q-4.5 23 -11.5 43 l-69 163 q-11 26 -23 43.5 q-12 17.5 -40 17.5 l-98 0 q-30 0 -42 -17.5 q-12 -17.5 -22 -42.5 l-64 -164 q-7 -20 -11.5 -43 q-4.5 -23 -4.5 -50 ZM445 510 q4 9 8.5 13 q4.5 4 10.5 4 l25 0 q6 0 10.5 -4 q4.5 -4 8.5 -13 l47 -152 l-157 0 l47 152 Z" /><glyph glyph-name="B" unicode="b" d="M91 -119 q-24 0 -35 11 q-11 11 -11 35 l0 648 q0 13 3.5 22 q3.5 9 10.5 15 l129 109 q5 4 13.5 6.5 q8.5 2.5 18.5 2.5 l319 0 q104 0 153 -40.5 q49 -40.5 49 -122.5 l0 -48 q0 -35 -9.5 -60 q-9.5 -25 -28.5 -40 l-3 -2 q54 -12 81 -51.5 q27 -39.5 27 -109.5 l0 -92 q0 -45 -13 -77.5 q-13 -32.5 -39 -54.5 l-129 -109 q-25 -21 -63 -31.5 q-38 -10.5 -89 -10.5 l-384 0 ZM604 0 q99 0 146.5 40 q47.5 40 47.5 124 l0 92 q0 73 -31 111 q-31 38 -95 44 q30 13 44.5 39.5 q14.5 26.5 14.5 68.5 l0 48 q0 78 -47 115.5 q-47 37.5 -145 37.5 l-319 0 q-19 0 -27.5 -8.5 q-8.5 -8.5 -8.5 -27.5 l0 -648 q0 -19 8.5 -27.5 q8.5 -8.5 27.5 -8.5 l384 0 ZM564 90 l-269 0 l0 540 l203 0 q41 0 67 -8.5 q26 -8.5 40 -23 q14 -14.5 19 -33.5 q5 -19 5 -41 l0 -64 q0 -30 -10.5 -55 q-10.5 -25 -53.5 -36 q41 0 67 -8.5 q26 -8.5 40 -24 q14 -15.5 18.5 -36.5 q4.5 -21 4.5 -46 l0 -64 q0 -22 -5 -40.5 q-5 -18.5 -18.5 -31.5 q-13.5 -13 -39.5 -20.5 q-26 -7.5 -68 -7.5 ZM498 620 l-193 0 l0 -251 l193 0 q41 0 65 7.5 q24 7.5 36.5 20 q12.5 12.5 16 29 q3.5 16.5 3.5 34.5 l0 64 q0 40 -23 68 q-23 28 -98 28 ZM409 550 l85 0 q19 0 28.5 -10 q9.5 -10 9.5 -30 l0 -28 q0 -20 -9.5 -30 q-9.5 -10 -28.5 -10 l-85 0 l0 108 ZM565 359 l-260 0 l0 -259 l259 0 q75 0 98 24.5 q23 24.5 23 65.5 l0 64 q0 45 -22.5 75 q-22.5 30 -97.5 30 ZM409 288 l130 0 q19 0 28.5 -9.5 q9.5 -9.5 9.5 -29.5 l0 -39 q0 -20 -9.5 -30 q-9.5 -10 -28.5 -10 l-130 0 l0 118 Z" /><glyph glyph-name="C" unicode="c" d="M534 -119 l-244 0 q-131 0 -193.5 68 q-62.5 68 -62.5 176 l0 281 q0 55 16 95.5 q16 40.5 47 67.5 l130 109 q31 26 79 39 q48 13 113 13 l244 0 q24 0 35 -11 q11 -11 11 -35 l0 -121 q0 -13 -3.5 -22 q-3.5 -9 -10.5 -15 l-130 -108 q-4 -4 -12.5 -7 q-8.5 -3 -18.5 -3 l-123 0 l0 -169 q0 -21 13 -29.5 q13 -8.5 38 -8.5 l201 0 q24 0 35 -11 q11 -11 11 -35 l0 -119 q0 -13 -3.5 -22 q-3.5 -9 -10.5 -15 l-130 -108 q-4 -4 -12.5 -7 q-8.5 -3 -18.5 -3 ZM663 0 q19 0 27.5 8.5 q8.5 8.5 8.5 27.5 l0 119 q0 19 -8.5 27.5 q-8.5 8.5 -27.5 8.5 l-201 0 q-31 0 -46 11.5 q-15 11.5 -15 36.5 l0 238 q0 25 15 37.5 q15 12.5 46 12.5 l201 0 q19 0 27.5 8.5 q8.5 8.5 8.5 27.5 l0 121 q0 19 -8.5 27.5 q-8.5 8.5 -27.5 8.5 l-244 0 q-125 0 -185.5 -50.5 q-60.5 -50.5 -60.5 -154.5 l0 -311 q0 -104 60.5 -154 q60.5 -50 185.5 -50 l244 0 ZM608 100 l0 -10 l-167 0 q-97 0 -128.5 30 q-31.5 30 -31.5 99 l0 280 q0 71 32 101 q32 30 128 30 l167 0 l0 -10 l-167 0 q-88 0 -119 -27.5 q-31 -27.5 -31 -93.5 l0 -280 q0 -65 30 -92 q30 -27 120 -27 l167 0 Z" /><glyph glyph-name="Ccedilla" unicode="ç" d="M550 -96 l34 96 l79 0 q8 0 15 1.5 q7 1.5 11 5.5 q5 4 7.5 11.5 q2.5 7.5 2.5 17.5 l0 119 q0 19 -8.5 27.5 q-8.5 8.5 -27.5 8.5 l-201 0 q-31 0 -46 11.5 q-15 11.5 -15 36.5 l0 238 q0 13 4 22 q4 9 11 16 q7 6 18.5 9 q11.5 3 27.5 3 l201 0 q8 0 15 1.5 q7 1.5 11 5.5 q5 4 7.5 11.5 q2.5 7.5 2.5 17.5 l0 121 q0 19 -8.5 27.5 q-8.5 8.5 -27.5 8.5 l-244 0 q-63 0 -109.5 -12.5 q-46.5 -12.5 -76.5 -37.5 q-31 -25 -45.5 -64 q-14.5 -39 -14.5 -91 l0 -311 q0 -94 49.5 -144 q49.5 -50 150.5 -58 l8 0 l-33 -88 q-7 -18 -1 -29 q6 -11 31 -11 l126 0 q11 0 19 2.5 q8 2.5 14 6.5 q4 4 7.5 9 q3.5 5 5.5 12 ZM608 90 l-88 0 l-46 -126 l-10 0 l45 126 l-68 0 q-97 0 -128.5 30 q-31.5 30 -31.5 99 l0 280 q0 71 32 101 q32 30 128 30 l167 0 l0 -10 l-167 0 q-88 0 -119 -27.5 q-31 -27.5 -31 -93.5 l0 -280 q0 -65 30 -92 q30 -27 120 -27 l167 0 l0 -10 ZM414 -232 q-6 -7 -16 -10 q-10 -3 -23 -3 l-126 0 q-34 0 -41 15 q-7 15 2 39 l28 75 q-52 4 -90.5 24.5 q-38.5 20.5 -63.5 52 q-25 31.5 -37.5 73.5 q-12.5 42 -12.5 91 l0 281 q0 55 16 95.5 q16 40.5 47 67.5 l130 109 q31 26 79 39 q48 13 113 13 l244 0 q24 0 35 -11 q11 -11 11 -35 l0 -121 q0 -13 -3.5 -22 q-3.5 -9 -10.5 -15 l-130 -108 q-4 -4 -12.5 -7 q-8.5 -3 -18.5 -3 l-123 0 l0 -169 q0 -21 13 -29.5 q13 -8.5 38 -8.5 l201 0 q24 0 35 -11 q11 -11 11 -35 l0 -119 q0 -13 -3.5 -22 q-3.5 -9 -10.5 -15 l-282 -232 l1 1 Z" /><glyph glyph-name="Cacute" unicode="&#x106;" d="M534 -119 l-244 0 q-131 0 -193.5 68 q-62.5 68 -62.5 176 l0 281 q0 55 16 95.5 q16 40.5 47 67.5 l77 65 q-16 1 -24.5 12 q-8.5 11 -8.5 31 l0 96 q0 13 3.5 21.5 q3.5 8.5 9.5 13.5 l130 109 q4 4 12.5 7 q8.5 3 18.5 4 l349 43 q22 3 33.5 -8.5 q11.5 -11.5 11.5 -34.5 l0 -96 q0 -13 -3.5 -22 q-3.5 -9 -10.5 -13 l-80 -67 l48 0 q24 0 35 -11 q11 -11 11 -35 l0 -121 q0 -13 -3.5 -22 q-3.5 -9 -10.5 -15 l-130 -108 q-4 -4 -12.5 -7 q-8.5 -3 -18.5 -3 l-123 0 l0 -169 q0 -21 13 -29.5 q13 -8.5 38 -8.5 l201 0 q24 0 35 -11 q11 -11 11 -35 l0 -119 q0 -13 -3.5 -22 q-3.5 -9 -10.5 -15 l-130 -108 q-4 -4 -12.5 -7 q-8.5 -3 -18.5 -3 ZM663 796 q19 2 27.5 9.5 q8.5 7.5 8.5 26.5 l0 96 q0 17 -8.5 26 q-8.5 9 -25.5 7 l-349 -43 q-19 -2 -27.5 -9.5 q-8.5 -7.5 -8.5 -26.5 l0 -96 q0 -17 8.5 -26 q8.5 -9 25.5 -7 l349 43 ZM370 847 l239 30 l0 -10 l-239 -30 l0 10 ZM663 0 q19 0 27.5 8.5 q8.5 8.5 8.5 27.5 l0 119 q0 19 -8.5 27.5 q-8.5 8.5 -27.5 8.5 l-201 0 q-31 0 -46 11.5 q-15 11.5 -15 36.5 l0 238 q0 25 15 37.5 q15 12.5 46 12.5 l201 0 q19 0 27.5 8.5 q8.5 8.5 8.5 27.5 l0 121 q0 19 -8.5 27.5 q-8.5 8.5 -27.5 8.5 l-244 0 q-125 0 -185.5 -50.5 q-60.5 -50.5 -60.5 -154.5 l0 -311 q0 -104 60.5 -154 q60.5 -50 185.5 -50 l244 0 ZM608 100 l0 -10 l-167 0 q-97 0 -128.5 30 q-31.5 30 -31.5 99 l0 280 q0 71 32 101 q32 30 128 30 l167 0 l0 -10 l-167 0 q-88 0 -119 -27.5 q-31 -27.5 -31 -93.5 l0 -280 q0 -65 30 -92 q30 -27 120 -27 l167 0 Z" /><glyph glyph-name="Ccircumflex" unicode="&#x108;" d="M534 -119 l-244 0 q-131 0 -193.5 68 q-62.5 68 -62.5 176 l0 281 q0 55 16 95.5 q16 40.5 47 67.5 l90 76 l-22 -7 q-33 -10 -43.5 -2.5 q-10.5 7.5 -10.5 43.5 l0 81 q0 19 3.5 29 q3.5 10 10.5 17 l131 109 l-1 -1 q5 5 13.5 9 q8.5 4 19.5 8 l127 46 q10 4 21.5 6.5 q11.5 2.5 21.5 3.5 q10 0 19 -1 q9 -1 16 -5 l138 -50 q30 -11 39 -21 q9 -10 9 -41 l0 -81 q0 -16 -3 -26 q-3 -10 -7 -14 l-1 -1 l-21 -17 l16 0 q24 0 35 -11 q11 -11 11 -35 l0 -121 q0 -13 -3.5 -22 q-3.5 -9 -10.5 -15 l-130 -108 q-4 -4 -12.5 -7 q-8.5 -3 -18.5 -3 l-123 0 l0 -169 q0 -21 13 -29.5 q13 -8.5 38 -8.5 l201 0 q24 0 35 -11 q11 -11 11 -35 l0 -119 q0 -13 -3.5 -22 q-3.5 -9 -10.5 -15 l-130 -108 q-4 -4 -12.5 -7 q-8.5 -3 -18.5 -3 ZM578 850 l-87 28 q-7 2 -14.5 4 q-7.5 2 -17.5 2 q-10 0 -17.5 -2 q-7.5 -2 -14.5 -4 l-87 -28 l0 11 l83 27 q9 2 17 4 q8 2 19 2 q11 0 19 -2 q8 -2 17 -4 l83 -27 l0 -11 ZM428 797 q17 4 31 4 q14 0 31 -4 l137 -40 q26 -8 34 -2 q8 6 8 33 l0 81 q0 27 -8.5 35 q-8.5 8 -33.5 18 l-137 50 q-7 3 -15 4 q-8 1 -17 1 q-9 -1 -19.5 -3 q-10.5 -2 -19.5 -6 l-128 -46 q-24 -10 -32.5 -18 q-8.5 -8 -8.5 -35 l0 -81 q0 -27 8 -33 q8 -6 33 2 l137 40 ZM663 0 q19 0 27.5 8.5 q8.5 8.5 8.5 27.5 l0 119 q0 19 -8.5 27.5 q-8.5 8.5 -27.5 8.5 l-201 0 q-31 0 -46 11.5 q-15 11.5 -15 36.5 l0 238 q0 25 15 37.5 q15 12.5 46 12.5 l201 0 q19 0 27.5 8.5 q8.5 8.5 8.5 27.5 l0 121 q0 19 -8.5 27.5 q-8.5 8.5 -27.5 8.5 l-244 0 q-125 0 -185.5 -50.5 q-60.5 -50.5 -60.5 -154.5 l0 -311 q0 -104 60.5 -154 q60.5 -50 185.5 -50 l244 0 ZM608 100 l0 -10 l-167 0 q-97 0 -128.5 30 q-31.5 30 -31.5 99 l0 280 q0 71 32 101 q32 30 128 30 l167 0 l0 -10 l-167 0 q-88 0 -119 -27.5 q-31 -27.5 -31 -93.5 l0 -280 q0 -65 30 -92 q30 -27 120 -27 l167 0 Z" /><glyph glyph-name="Cdotaccent" unicode="&#x10a;" d="M534 -119 l-244 0 q-131 0 -193.5 68 q-62.5 68 -62.5 176 l0 281 q0 55 16 95.5 q16 40.5 47 67.5 l121 102 q-1 3 -1 7.5 q0 4.5 0 8.5 l0 127 q0 13 3.5 22 q3.5 9 10.5 15 l129 109 q5 4 13.5 6.5 q8.5 2.5 18.5 2.5 l158 0 q24 0 35 -11 q11 -11 11 -35 l0 -127 q0 -13 -3.5 -22 q-3.5 -9 -10.5 -15 l-35 -29 l116 0 q24 0 35 -11 q11 -11 11 -35 l0 -121 q0 -13 -3.5 -22 q-3.5 -9 -10.5 -15 l-130 -108 q-4 -4 -12.5 -7 q-8.5 -3 -18.5 -3 l-123 0 l0 -169 q0 -21 13 -29.5 q13 -8.5 38 -8.5 l201 0 q24 0 35 -11 q11 -11 11 -35 l0 -119 q0 -13 -3.5 -22 q-3.5 -9 -10.5 -15 l-130 -108 q-4 -4 -12.5 -7 q-8.5 -3 -18.5 -3 ZM550 760 q19 0 27.5 8.5 q8.5 8.5 8.5 27.5 l0 127 q0 19 -8.5 27.5 q-8.5 8.5 -27.5 8.5 l-158 0 q-19 0 -27.5 -8.5 q-8.5 -8.5 -8.5 -27.5 l0 -127 q0 -19 8.5 -27.5 q8.5 -8.5 27.5 -8.5 l158 0 ZM476 830 l-10 0 l0 59 l10 0 l0 -59 ZM663 0 q19 0 27.5 8.5 q8.5 8.5 8.5 27.5 l0 119 q0 19 -8.5 27.5 q-8.5 8.5 -27.5 8.5 l-201 0 q-31 0 -46 11.5 q-15 11.5 -15 36.5 l0 238 q0 25 15 37.5 q15 12.5 46 12.5 l201 0 q19 0 27.5 8.5 q8.5 8.5 8.5 27.5 l0 121 q0 19 -8.5 27.5 q-8.5 8.5 -27.5 8.5 l-244 0 q-125 0 -185.5 -50.5 q-60.5 -50.5 -60.5 -154.5 l0 -311 q0 -104 60.5 -154 q60.5 -50 185.5 -50 l244 0 ZM608 100 l0 -10 l-167 0 q-97 0 -128.5 30 q-31.5 30 -31.5 99 l0 280 q0 71 32 101 q32 30 128 30 l167 0 l0 -10 l-167 0 q-88 0 -119 -27.5 q-31 -27.5 -31 -93.5 l0 -280 q0 -65 30 -92 q30 -27 120 -27 l167 0 Z" /><glyph glyph-name="Ccaron" unicode="&#x10c;" d="M534 -119 l-244 0 q-131 0 -193.5 68 q-62.5 68 -62.5 176 l0 281 q0 55 16 95.5 q16 40.5 47 67.5 l119 99 l-57 21 q-30 11 -39 21 q-9 10 -9 41 l0 81 q0 17 2.5 27 q2.5 10 8.5 14 l129 109 q5 4 15.5 4.5 q10.5 0.5 28.5 -4.5 l137 -40 q16 -4 28 -4 q12 0 28 4 l137 40 q33 10 43.5 2.5 q10.5 -7.5 10.5 -43.5 l0 -81 q0 -19 -4 -29 q-4 -10 -12 -17 l-99 -84 l99 0 q24 0 35 -11 q11 -11 11 -35 l0 -121 q0 -13 -3.5 -22 q-3.5 -9 -10.5 -15 l-130 -108 q-4 -4 -12.5 -7 q-8.5 -3 -18.5 -3 l-123 0 l0 -169 q0 -21 13 -29.5 q13 -8.5 38 -8.5 l201 0 q24 0 35 -11 q11 -11 11 -35 l0 -119 q0 -13 -3.5 -22 q-3.5 -9 -10.5 -15 l-130 -108 q-4 -4 -12.5 -7 q-8.5 -3 -18.5 -3 ZM491 932 q-17 -4 -31 -4 q-14 0 -31 4 l-137 40 q-26 8 -34 2 q-8 -6 -8 -33 l0 -81 q0 -27 8.5 -35 q8.5 -8 33.5 -18 l137 -50 q7 -3 15 -4 q8 -1 17 -1 q9 1 19.5 3 q10.5 2 19.5 6 l128 46 q24 10 32.5 18 q8.5 8 8.5 35 l0 81 q0 27 -8 33 q-8 6 -33 -2 l-137 -40 ZM340 879 l87 -28 q7 -2 14.5 -4 q7.5 -2 17.5 -2 q10 0 17.5 2 q7.5 2 14.5 4 l87 28 l0 -11 l-83 -27 q-9 -2 -17 -4 q-8 -2 -19 -2 q-11 0 -19 2 q-8 2 -17 4 l-83 27 l0 11 ZM663 0 q19 0 27.5 8.5 q8.5 8.5 8.5 27.5 l0 119 q0 19 -8.5 27.5 q-8.5 8.5 -27.5 8.5 l-201 0 q-31 0 -46 11.5 q-15 11.5 -15 36.5 l0 238 q0 25 15 37.5 q15 12.5 46 12.5 l201 0 q19 0 27.5 8.5 q8.5 8.5 8.5 27.5 l0 121 q0 19 -8.5 27.5 q-8.5 8.5 -27.5 8.5 l-244 0 q-125 0 -185.5 -50.5 q-60.5 -50.5 -60.5 -154.5 l0 -311 q0 -104 60.5 -154 q60.5 -50 185.5 -50 l244 0 ZM608 100 l0 -10 l-167 0 q-97 0 -128.5 30 q-31.5 30 -31.5 99 l0 280 q0 71 32 101 q32 30 128 30 l167 0 l0 -10 l-167 0 q-88 0 -119 -27.5 q-31 -27.5 -31 -93.5 l0 -280 q0 -65 30 -92 q30 -27 120 -27 l167 0 Z" /><glyph glyph-name="D" unicode="d" d="M620 -66 q-31 -26 -79 -39.5 q-48 -13.5 -113 -13.5 l-337 0 q-24 0 -35 11 q-11 11 -11 35 l0 648 q0 13 3.5 22 q3.5 9 10.5 15 l129 109 q5 4 13.5 6.5 q8.5 2.5 18.5 2.5 l337 0 q131 0 193.5 -53 q62.5 -53 62.5 -161 l0 -312 q0 -54 -16 -94.5 q-16 -40.5 -47 -67.5 l-130 -108 ZM557 0 q125 0 185.5 50 q60.5 50 60.5 154 l0 312 q0 104 -60.5 154 q-60.5 50 -185.5 50 l-337 0 q-19 0 -27.5 -8.5 q-8.5 -8.5 -8.5 -27.5 l0 -648 q0 -19 8.5 -27.5 q8.5 -8.5 27.5 -8.5 l337 0 ZM293 90 l0 540 l242 0 q51 0 82.5 -11 q31.5 -11 48.5 -29.5 q17 -18.5 23 -44 q6 -25.5 6 -54.5 l0 -265 q0 -29 -5.5 -54 q-5.5 -25 -22.5 -43 q-17 -18 -49 -28.5 q-32 -10.5 -83 -10.5 l-242 0 ZM535 620 l-232 0 l0 -520 l232 0 q48 0 77.5 9.5 q29.5 9.5 45.5 26 q16 16.5 21.5 40 q5.5 23.5 5.5 50.5 l0 265 q0 27 -6 51 q-6 24 -22 41 q-16 17 -45.5 27 q-29.5 10 -76.5 10 ZM411 529 l119 0 q24 0 35.5 -11.5 q11.5 -11.5 11.5 -36.5 l0 -243 q0 -25 -11.5 -37 q-11.5 -12 -35.5 -12 l-119 0 l0 340 ZM438 372 q0 13 -4 22 q-4 9 -13 13 l0 -208 l17 0 l0 173 Z" /><glyph glyph-name="Dcaron" unicode="&#x10e;" d="M428 -119 l-337 0 q-24 0 -35 11 q-11 11 -11 35 l0 648 q0 13 3.5 22 q3.5 9 10.5 15 l103 87 q-13 7 -18 18 q-5 11 -5 34 l0 81 q0 17 2.5 27 q2.5 10 8.5 14 l129 109 q5 4 15.5 4.5 q10.5 0.5 28.5 -4.5 l137 -40 q16 -4 28 -4 q12 0 28 4 l137 40 q33 10 43.5 2.5 q10.5 -7.5 10.5 -43.5 l0 -81 q0 -19 -4 -29 q-4 -10 -12 -17 l-101 -85 q114 -6 168.5 -59 q54.5 -53 54.5 -154 l0 -312 q0 -54 -16 -94.5 q-16 -40.5 -47 -67.5 l-130 -108 q-31 -26 -79 -39.5 q-48 -13.5 -113 -13.5 ZM519 932 q-17 -4 -31 -4 q-14 0 -31 4 l-137 40 q-26 8 -34 2 q-8 -6 -8 -33 l0 -81 q0 -27 8.5 -35 q8.5 -8 33.5 -18 l137 -50 q7 -3 15 -4 q8 -1 17 -1 q9 1 19.5 3 q10.5 2 19.5 6 l128 46 q24 10 32.5 18 q8.5 8 8.5 35 l0 81 q0 27 -8 33 q-8 6 -33 -2 l-137 -40 ZM368 879 l87 -28 q7 -2 14.5 -4 q7.5 -2 17.5 -2 q10 0 17.5 2 q7.5 2 14.5 4 l87 28 l0 -11 l-83 -27 q-9 -2 -17 -4 q-8 -2 -19 -2 q-11 0 -19 2 q-8 2 -17 4 l-83 27 l0 11 ZM557 0 q125 0 185.5 50 q60.5 50 60.5 154 l0 312 q0 104 -60.5 154 q-60.5 50 -185.5 50 l-337 0 q-19 0 -27.5 -8.5 q-8.5 -8.5 -8.5 -27.5 l0 -648 q0 -19 8.5 -27.5 q8.5 -8.5 27.5 -8.5 l337 0 ZM293 90 l0 540 l242 0 q51 0 82.5 -11 q31.5 -11 48.5 -29.5 q17 -18.5 23 -44 q6 -25.5 6 -54.5 l0 -265 q0 -29 -5.5 -54 q-5.5 -25 -22.5 -43 q-17 -18 -49 -28.5 q-32 -10.5 -83 -10.5 l-242 0 ZM535 620 l-232 0 l0 -520 l232 0 q48 0 77.5 9.5 q29.5 9.5 45.5 26 q16 16.5 21.5 40 q5.5 23.5 5.5 50.5 l0 265 q0 27 -6 51 q-6 24 -22 41 q-16 17 -45.5 27 q-29.5 10 -76.5 10 ZM411 529 l119 0 q24 0 35.5 -11.5 q11.5 -11.5 11.5 -36.5 l0 -243 q0 -25 -11.5 -37 q-11.5 -12 -35.5 -12 l-119 0 l0 340 ZM438 372 q0 13 -4 22 q-4 9 -13 13 l0 -208 l17 0 l0 173 Z" /><glyph glyph-name="E" unicode="e" d="M555 -119 l-464 0 q-24 0 -35 11 q-11 11 -11 35 l0 648 q0 13 3.5 22 q3.5 9 10.5 15 l129 109 q5 4 13.5 6.5 q8.5 2.5 18.5 2.5 l464 0 q24 0 35 -11 q11 -11 11 -35 l0 -117 q0 -13 -3.5 -22 q-3.5 -9 -10.5 -15 l-86 -71 q10 -5 14.5 -15 q4.5 -10 4.5 -26 l0 -107 q0 -13 -3.5 -22 q-3.5 -9 -10.5 -15 l-89 -75 l138 0 q24 0 35 -11 q11 -11 11 -35 l0 -117 q0 -13 -3.5 -22 q-3.5 -9 -10.5 -15 l-130 -108 q-4 -4 -12.5 -7 q-8.5 -3 -18.5 -3 ZM684 0 q19 0 27.5 8.5 q8.5 8.5 8.5 27.5 l0 117 q0 19 -8.5 27.5 q-8.5 8.5 -27.5 8.5 l-276 0 l0 86 l195 0 q19 0 27.5 8.5 q8.5 8.5 8.5 27.5 l0 107 q0 19 -8.5 27.5 q-8.5 8.5 -27.5 8.5 l-195 0 l0 77 l276 0 q19 0 27.5 8.5 q8.5 8.5 8.5 27.5 l0 117 q0 19 -8.5 27.5 q-8.5 8.5 -27.5 8.5 l-464 0 q-19 0 -27.5 -8.5 q-8.5 -8.5 -8.5 -27.5 l0 -648 q0 -19 8.5 -27.5 q8.5 -8.5 27.5 -8.5 l464 0 ZM630 100 l0 -10 l-337 0 l0 540 l337 0 l0 -10 l-327 0 l0 -251 l246 0 l0 -10 l-246 0 l0 -259 l327 0 Z" /><glyph glyph-name="Egrave" unicode="è" d="M555 -119 l-464 0 q-24 0 -35 11 q-11 11 -11 35 l0 648 q0 13 3.5 22 q3.5 9 10.5 15 l77 65 q-22 3 -32.5 13.5 q-10.5 10.5 -10.5 32.5 l0 96 q0 13 3.5 21.5 q3.5 8.5 10.5 14.5 l129 109 q6 4 13.5 6 q7.5 2 17.5 1 l349 -43 q24 -3 34.5 -13 q10.5 -10 10.5 -33 l0 -96 q0 -13 -3.5 -21.5 q-3.5 -8.5 -10.5 -14.5 l-24 -20 l61 0 q24 0 35 -11 q11 -11 11 -35 l0 -117 q0 -13 -3.5 -22 q-3.5 -9 -10.5 -15 l-86 -71 q10 -5 14.5 -15 q4.5 -10 4.5 -26 l0 -107 q0 -13 -3.5 -22 q-3.5 -9 -10.5 -15 l-89 -75 l138 0 q24 0 35 -11 q11 -11 11 -35 l0 -117 q0 -13 -3.5 -22 q-3.5 -9 -10.5 -15 l-130 -108 q-4 -4 -12.5 -7 q-8.5 -3 -18.5 -3 ZM617 753 q17 -2 25.5 7 q8.5 9 8.5 26 l0 96 q0 19 -8.5 26.5 q-8.5 7.5 -27.5 9.5 l-349 43 q-17 2 -25.5 -7 q-8.5 -9 -8.5 -26 l0 -96 q0 -19 8.5 -26.5 q8.5 -7.5 27.5 -9.5 l349 -43 ZM322 867 l0 10 l239 -30 l0 -10 l-239 30 ZM684 0 q19 0 27.5 8.5 q8.5 8.5 8.5 27.5 l0 117 q0 19 -8.5 27.5 q-8.5 8.5 -27.5 8.5 l-276 0 l0 86 l195 0 q19 0 27.5 8.5 q8.5 8.5 8.5 27.5 l0 107 q0 19 -8.5 27.5 q-8.5 8.5 -27.5 8.5 l-195 0 l0 77 l276 0 q19 0 27.5 8.5 q8.5 8.5 8.5 27.5 l0 117 q0 19 -8.5 27.5 q-8.5 8.5 -27.5 8.5 l-464 0 q-19 0 -27.5 -8.5 q-8.5 -8.5 -8.5 -27.5 l0 -648 q0 -19 8.5 -27.5 q8.5 -8.5 27.5 -8.5 l464 0 ZM630 100 l0 -10 l-337 0 l0 540 l337 0 l0 -10 l-327 0 l0 -251 l246 0 l0 -10 l-246 0 l0 -259 l327 0 Z" /><glyph glyph-name="Eacute" unicode="é" d="M555 -119 l-464 0 q-24 0 -35 11 q-11 11 -11 35 l0 648 q0 13 3.5 22 q3.5 9 10.5 15 l65 55 q-1 2 -1 4.5 q0 2.5 0 5.5 l0 96 q0 13 3.5 21.5 q3.5 8.5 9.5 13.5 l130 109 q4 4 12.5 7 q8.5 3 18.5 4 l349 43 q22 3 33.5 -8.5 q11.5 -11.5 11.5 -34.5 l0 -96 q0 -13 -3.5 -22 q-3.5 -9 -10.5 -13 l-79 -67 l86 0 q24 0 35 -11 q11 -11 11 -35 l0 -117 q0 -13 -3.5 -22 q-3.5 -9 -10.5 -15 l-86 -71 q10 -5 14.5 -15 q4.5 -10 4.5 -26 l0 -107 q0 -13 -3.5 -22 q-3.5 -9 -10.5 -15 l-89 -75 l138 0 q24 0 35 -11 q11 -11 11 -35 l0 -117 q0 -13 -3.5 -22 q-3.5 -9 -10.5 -15 l-130 -108 q-4 -4 -12.5 -7 q-8.5 -3 -18.5 -3 ZM645 796 q19 2 27.5 9.5 q8.5 7.5 8.5 26.5 l0 96 q0 17 -8.5 26 q-8.5 9 -25.5 7 l-349 -43 q-19 -2 -27.5 -9.5 q-8.5 -7.5 -8.5 -26.5 l0 -96 q0 -17 8.5 -26 q8.5 -9 25.5 -7 l349 43 ZM352 847 l239 30 l0 -10 l-239 -30 l0 10 ZM684 0 q19 0 27.5 8.5 q8.5 8.5 8.5 27.5 l0 117 q0 19 -8.5 27.5 q-8.5 8.5 -27.5 8.5 l-276 0 l0 86 l195 0 q19 0 27.5 8.5 q8.5 8.5 8.5 27.5 l0 107 q0 19 -8.5 27.5 q-8.5 8.5 -27.5 8.5 l-195 0 l0 77 l276 0 q19 0 27.5 8.5 q8.5 8.5 8.5 27.5 l0 117 q0 19 -8.5 27.5 q-8.5 8.5 -27.5 8.5 l-464 0 q-19 0 -27.5 -8.5 q-8.5 -8.5 -8.5 -27.5 l0 -648 q0 -19 8.5 -27.5 q8.5 -8.5 27.5 -8.5 l464 0 ZM630 100 l0 -10 l-337 0 l0 540 l337 0 l0 -10 l-327 0 l0 -251 l246 0 l0 -10 l-246 0 l0 -259 l327 0 Z" /><glyph glyph-name="Ecircumflex" unicode="ê" d="M555 -119 l-464 0 q-24 0 -35 11 q-11 11 -11 35 l0 648 q0 13 3.5 22 q3.5 9 10.5 15 l46 39 q-1 5 -1.5 12 q-0.5 7 -0.5 16 l0 81 q0 19 3.5 29 q3.5 10 10.5 17 l131 109 l-1 -1 q5 5 13.5 9 q8.5 4 19.5 8 l127 46 q10 4 21.5 6.5 q11.5 2.5 21.5 3.5 q10 0 19 -1 q9 -1 16 -5 l138 -50 q30 -11 39 -21 q9 -10 9 -41 l0 -81 q0 -16 -3 -26 q-3 -10 -7 -14 l-1 -1 l-20 -17 l44 0 q24 0 35 -11 q11 -11 11 -35 l0 -117 q0 -13 -3.5 -22 q-3.5 -9 -10.5 -15 l-86 -71 q10 -5 14.5 -15 q4.5 -10 4.5 -26 l0 -107 q0 -13 -3.5 -22 q-3.5 -9 -10.5 -15 l-89 -75 l138 0 q24 0 35 -11 q11 -11 11 -35 l0 -117 q0 -13 -3.5 -22 q-3.5 -9 -10.5 -15 l-130 -108 q-4 -4 -12.5 -7 q-8.5 -3 -18.5 -3 ZM570 850 l-87 28 q-7 2 -14.5 4 q-7.5 2 -17.5 2 q-10 0 -17.5 -2 q-7.5 -2 -14.5 -4 l-87 -28 l0 11 l83 27 q9 2 17 4 q8 2 19 2 q11 0 19 -2 q8 -2 17 -4 l83 -27 l0 -11 ZM420 797 q17 4 31 4 q14 0 31 -4 l137 -40 q26 -8 34 -2 q8 6 8 33 l0 81 q0 27 -8.5 35 q-8.5 8 -33.5 18 l-137 50 q-7 3 -15 4 q-8 1 -17 1 q-9 -1 -19.5 -3 q-10.5 -2 -19.5 -6 l-128 -46 q-24 -10 -32.5 -18 q-8.5 -8 -8.5 -35 l0 -81 q0 -27 8 -33 q8 -6 33 2 l137 40 ZM684 0 q19 0 27.5 8.5 q8.5 8.5 8.5 27.5 l0 117 q0 19 -8.5 27.5 q-8.5 8.5 -27.5 8.5 l-276 0 l0 86 l195 0 q19 0 27.5 8.5 q8.5 8.5 8.5 27.5 l0 107 q0 19 -8.5 27.5 q-8.5 8.5 -27.5 8.5 l-195 0 l0 77 l276 0 q19 0 27.5 8.5 q8.5 8.5 8.5 27.5 l0 117 q0 19 -8.5 27.5 q-8.5 8.5 -27.5 8.5 l-464 0 q-19 0 -27.5 -8.5 q-8.5 -8.5 -8.5 -27.5 l0 -648 q0 -19 8.5 -27.5 q8.5 -8.5 27.5 -8.5 l464 0 ZM630 100 l0 -10 l-337 0 l0 540 l337 0 l0 -10 l-327 0 l0 -251 l246 0 l0 -10 l-246 0 l0 -259 l327 0 Z" /><glyph glyph-name="Edieresis" unicode="ë" d="M555 -119 l-464 0 q-24 0 -35 11 q-11 11 -11 35 l0 648 q0 13 3.5 22 q3.5 9 10.5 15 l44 37 q-7 5 -10.5 13.5 q-3.5 8.5 -3.5 21.5 l0 121 q0 13 3.5 21 q3.5 8 9.5 13 l129 109 q5 4 13 6.5 q8 2.5 18 2.5 l138 0 q22 0 32.5 -10.5 q10.5 -10.5 10.5 -32.5 l0 -6 l47 40 q5 4 12.5 6.5 q7.5 2.5 17.5 2.5 l138 0 q22 0 32.5 -10.5 q10.5 -10.5 10.5 -32.5 l0 -121 q0 -12 -3.5 -20.5 q-3.5 -8.5 -9.5 -13.5 l-35 -29 l31 0 q24 0 35 -11 q11 -11 11 -35 l0 -117 q0 -13 -3.5 -22 q-3.5 -9 -10.5 -15 l-86 -71 q10 -5 14.5 -15 q4.5 -10 4.5 -26 l0 -107 q0 -13 -3.5 -22 q-3.5 -9 -10.5 -15 l-89 -75 l138 0 q24 0 35 -11 q11 -11 11 -35 l0 -117 q0 -13 -3.5 -22 q-3.5 -9 -10.5 -15 l-130 -108 q-4 -4 -12.5 -7 q-8.5 -3 -18.5 -3 ZM658 760 q17 0 25 8 q8 8 8 25 l0 121 q0 17 -8 25 q-8 8 -25 8 l-138 0 q-17 0 -25 -8 q-8 -8 -8 -25 l0 -121 q0 -17 8 -25 q8 -8 25 -8 l138 0 ZM400 760 q17 0 25 8 q8 8 8 25 l0 121 q0 17 -8 25 q-8 8 -25 8 l-138 0 q-17 0 -25.5 -8 q-8.5 -8 -8.5 -25 l0 -121 q0 -17 8.5 -25 q8.5 -8 25.5 -8 l138 0 ZM594 830 l-10 0 l0 47 l10 0 l0 -47 ZM336 830 l-10 0 l0 47 l10 0 l0 -47 ZM684 0 q19 0 27.5 8.5 q8.5 8.5 8.5 27.5 l0 117 q0 19 -8.5 27.5 q-8.5 8.5 -27.5 8.5 l-276 0 l0 86 l195 0 q19 0 27.5 8.5 q8.5 8.5 8.5 27.5 l0 107 q0 19 -8.5 27.5 q-8.5 8.5 -27.5 8.5 l-195 0 l0 77 l276 0 q19 0 27.5 8.5 q8.5 8.5 8.5 27.5 l0 117 q0 19 -8.5 27.5 q-8.5 8.5 -27.5 8.5 l-464 0 q-19 0 -27.5 -8.5 q-8.5 -8.5 -8.5 -27.5 l0 -648 q0 -19 8.5 -27.5 q8.5 -8.5 27.5 -8.5 l464 0 ZM630 100 l0 -10 l-337 0 l0 540 l337 0 l0 -10 l-327 0 l0 -251 l246 0 l0 -10 l-246 0 l0 -259 l327 0 Z" /><glyph glyph-name="Emacron" unicode="&#x112;" d="M555 -119 l-464 0 q-24 0 -35 11 q-11 11 -11 35 l0 648 q0 13 3.5 22 q3.5 9 10.5 15 l52 44 q-4 5 -6 13 q-2 8 -2 18 l0 93 q0 13 3.5 22 q3.5 9 10.5 15 l129 109 q5 4 13.5 6.5 q8.5 2.5 18.5 2.5 l347 0 q24 0 35 -11 q11 -11 11 -35 l0 -93 q0 -13 -3.5 -22 q-3.5 -9 -10.5 -15 l-34 -29 l61 0 q24 0 35 -11 q11 -11 11 -35 l0 -117 q0 -13 -3.5 -22 q-3.5 -9 -10.5 -15 l-86 -71 q10 -5 14.5 -15 q4.5 -10 4.5 -26 l0 -107 q0 -13 -3.5 -22 q-3.5 -9 -10.5 -15 l-89 -75 l138 0 q24 0 35 -11 q11 -11 11 -35 l0 -117 q0 -13 -3.5 -22 q-3.5 -9 -10.5 -15 l-130 -108 q-4 -4 -12.5 -7 q-8.5 -3 -18.5 -3 ZM625 760 q19 0 27.5 8.5 q8.5 8.5 8.5 27.5 l0 93 q0 19 -8.5 27.5 q-8.5 8.5 -27.5 8.5 l-347 0 q-19 0 -27.5 -8.5 q-8.5 -8.5 -8.5 -27.5 l0 -93 q0 -19 8.5 -27.5 q8.5 -8.5 27.5 -8.5 l347 0 ZM332 847 l239 0 l0 -10 l-239 0 l0 10 ZM684 0 q19 0 27.5 8.5 q8.5 8.5 8.5 27.5 l0 117 q0 19 -8.5 27.5 q-8.5 8.5 -27.5 8.5 l-276 0 l0 86 l195 0 q19 0 27.5 8.5 q8.5 8.5 8.5 27.5 l0 107 q0 19 -8.5 27.5 q-8.5 8.5 -27.5 8.5 l-195 0 l0 77 l276 0 q19 0 27.5 8.5 q8.5 8.5 8.5 27.5 l0 117 q0 19 -8.5 27.5 q-8.5 8.5 -27.5 8.5 l-464 0 q-19 0 -27.5 -8.5 q-8.5 -8.5 -8.5 -27.5 l0 -648 q0 -19 8.5 -27.5 q8.5 -8.5 27.5 -8.5 l464 0 ZM630 100 l0 -10 l-337 0 l0 540 l337 0 l0 -10 l-327 0 l0 -251 l246 0 l0 -10 l-246 0 l0 -259 l327 0 Z" /><glyph glyph-name="Ebreve" unicode="&#x114;" d="M555 -119 l-464 0 q-24 0 -35 11 q-11 11 -11 35 l0 648 q0 13 3.5 22 q3.5 9 10.5 15 l84 71 q-21 20 -29 47 q-8 27 -8 58 l0 44 q0 13 3.5 22 q3.5 9 10.5 15 l129 109 q5 4 13.5 6.5 q8.5 2.5 18.5 2.5 l96 0 q21 0 30 -8.5 q9 -8.5 9 -32.5 l0 -21 q0 -7 4 -12.5 q4 -5.5 14 -7.5 l90 75 l-1 -1 q4 4 11 6 q7 2 18 2 l91 0 q24 0 35 -11 q11 -11 11 -35 l0 -44 q0 -33 -9.5 -61 q-9.5 -28 -34.5 -48 l-70 -58 l109 0 q24 0 35 -11 q11 -11 11 -35 l0 -117 q0 -13 -3.5 -22 q-3.5 -9 -10.5 -15 l-86 -71 q10 -5 14.5 -15 q4.5 -10 4.5 -26 l0 -107 q0 -13 -3.5 -22 q-3.5 -9 -10.5 -15 l-89 -75 l138 0 q24 0 35 -11 q11 -11 11 -35 l0 -117 q0 -13 -3.5 -22 q-3.5 -9 -10.5 -15 l-130 -108 q-4 -4 -12.5 -7 q-8.5 -3 -18.5 -3 ZM679 897 l0 44 q0 19 -8.5 27.5 q-8.5 8.5 -27.5 8.5 l-91 0 q-17 0 -23.5 -6.5 q-6.5 -6.5 -6.5 -24.5 l0 -21 q0 -14 -11 -23.5 q-11 -9.5 -48 -9.5 q-37 0 -47 9.5 q-10 9.5 -10 23.5 l0 21 q0 18 -6.5 24.5 q-6.5 6.5 -22.5 6.5 l-96 0 q-19 0 -27.5 -8.5 q-8.5 -8.5 -8.5 -27.5 l0 -44 q0 -32 9.5 -58.5 q9.5 -26.5 34 -45 q24.5 -18.5 66.5 -29 q42 -10.5 107 -10.5 q65 0 107 10.5 q42 10.5 66.5 29 q24.5 18.5 34 45 q9.5 26.5 9.5 58.5 ZM596 907 l10 0 l0 -9 q0 -14 -5.5 -28.5 q-5.5 -14.5 -20.5 -26 q-15 -11.5 -44 -18.5 q-29 -7 -75 -7 q-46 0 -74 7 q-28 7 -42.5 18.5 q-14.5 11.5 -19 26 q-4.5 14.5 -4.5 28.5 l0 9 l10 0 l0 -9 q0 -27 24.5 -48.5 q24.5 -21.5 105.5 -21.5 q81 0 108 21.5 q27 21.5 27 48.5 l0 9 ZM684 0 q19 0 27.5 8.5 q8.5 8.5 8.5 27.5 l0 117 q0 19 -8.5 27.5 q-8.5 8.5 -27.5 8.5 l-276 0 l0 86 l195 0 q19 0 27.5 8.5 q8.5 8.5 8.5 27.5 l0 107 q0 19 -8.5 27.5 q-8.5 8.5 -27.5 8.5 l-195 0 l0 77 l276 0 q19 0 27.5 8.5 q8.5 8.5 8.5 27.5 l0 117 q0 19 -8.5 27.5 q-8.5 8.5 -27.5 8.5 l-464 0 q-19 0 -27.5 -8.5 q-8.5 -8.5 -8.5 -27.5 l0 -648 q0 -19 8.5 -27.5 q8.5 -8.5 27.5 -8.5 l464 0 ZM630 100 l0 -10 l-337 0 l0 540 l337 0 l0 -10 l-327 0 l0 -251 l246 0 l0 -10 l-246 0 l0 -259 l327 0 Z" /><glyph glyph-name="Edotaccent" unicode="&#x116;" d="M555 -119 l-464 0 q-24 0 -35 11 q-11 11 -11 35 l0 648 q0 13 3.5 22 q3.5 9 10.5 15 l128 108 l0 94 q0 13 3.5 22 q3.5 9 10.5 15 l129 109 q5 4 13.5 6.5 q8.5 2.5 18.5 2.5 l158 0 q24 0 35 -11 q11 -11 11 -35 l0 -127 q0 -13 -3.5 -22 q-3.5 -9 -10.5 -15 l-35 -29 l167 0 q24 0 35 -11 q11 -11 11 -35 l0 -117 q0 -13 -3.5 -22 q-3.5 -9 -10.5 -15 l-86 -71 q10 -5 14.5 -15 q4.5 -10 4.5 -26 l0 -107 q0 -13 -3.5 -22 q-3.5 -9 -10.5 -15 l-89 -75 l138 0 q24 0 35 -11 q11 -11 11 -35 l0 -117 q0 -13 -3.5 -22 q-3.5 -9 -10.5 -15 l-130 -108 q-4 -4 -12.5 -7 q-8.5 -3 -18.5 -3 ZM520 760 q19 0 27.5 8.5 q8.5 8.5 8.5 27.5 l0 127 q0 19 -8.5 27.5 q-8.5 8.5 -27.5 8.5 l-158 0 q-19 0 -27.5 -8.5 q-8.5 -8.5 -8.5 -27.5 l0 -127 q0 -19 8.5 -27.5 q8.5 -8.5 27.5 -8.5 l158 0 ZM446 830 l-10 0 l0 59 l10 0 l0 -59 ZM684 0 q19 0 27.5 8.5 q8.5 8.5 8.5 27.5 l0 117 q0 19 -8.5 27.5 q-8.5 8.5 -27.5 8.5 l-276 0 l0 86 l195 0 q19 0 27.5 8.5 q8.5 8.5 8.5 27.5 l0 107 q0 19 -8.5 27.5 q-8.5 8.5 -27.5 8.5 l-195 0 l0 77 l276 0 q19 0 27.5 8.5 q8.5 8.5 8.5 27.5 l0 117 q0 19 -8.5 27.5 q-8.5 8.5 -27.5 8.5 l-464 0 q-19 0 -27.5 -8.5 q-8.5 -8.5 -8.5 -27.5 l0 -648 q0 -19 8.5 -27.5 q8.5 -8.5 27.5 -8.5 l464 0 ZM630 100 l0 -10 l-337 0 l0 540 l337 0 l0 -10 l-327 0 l0 -251 l246 0 l0 -10 l-246 0 l0 -259 l327 0 Z" /><glyph glyph-name="Eogonek" unicode="&#x118;" d="M447 -305 q-69 0 -95.5 35 q-26.5 35 -15.5 112 l7 39 l-252 0 q-24 0 -35 11 q-11 11 -11 35 l0 648 q0 13 3.5 22 q3.5 9 10.5 15 l129 109 q5 4 13.5 6.5 q8.5 2.5 18.5 2.5 l464 0 q24 0 35 -11 q11 -11 11 -35 l0 -117 q0 -13 -3.5 -22 q-3.5 -9 -10.5 -15 l-86 -71 q10 -5 14.5 -15 q4.5 -10 4.5 -26 l0 -107 q0 -13 -3.5 -22 q-3.5 -9 -10.5 -15 l-89 -75 l138 0 q24 0 35 -11 q11 -11 11 -35 l0 -117 q0 -13 -3.5 -22 q-3.5 -9 -10.5 -15 l-42 -35 l10 0 q27 0 36.5 -9.5 q9.5 -9.5 9.5 -34.5 l0 -72 q0 -13 -3 -22 q-3 -9 -9 -14 l-130 -109 q-4 -4 -12 -6 q-8 -2 -18 -2 l-111 0 ZM720 -152 l0 72 q0 19 -7.5 26.5 q-7.5 7.5 -28.5 7.5 l-41 0 l7 46 l34 0 q8 0 15 1.5 q7 1.5 11 5.5 q5 4 7.5 11.5 q2.5 7.5 2.5 17.5 l0 117 q0 19 -8.5 27.5 q-8.5 8.5 -27.5 8.5 l-276 0 l0 86 l195 0 q8 0 15 1.5 q7 1.5 11 5.5 q5 4 7.5 11.5 q2.5 7.5 2.5 17.5 l0 107 q0 19 -8.5 27.5 q-8.5 8.5 -27.5 8.5 l-195 0 l0 77 l276 0 q8 0 15 1.5 q7 1.5 11 5.5 q5 4 7.5 11.5 q2.5 7.5 2.5 17.5 l0 117 q0 19 -8.5 27.5 q-8.5 8.5 -27.5 8.5 l-464 0 q-8 0 -15 -1.5 q-7 -1.5 -11 -5.5 q-5 -4 -7.5 -11.5 q-2.5 -7.5 -2.5 -17.5 l0 -648 q0 -19 8.5 -27.5 q8.5 -8.5 27.5 -8.5 l264 0 l-9 -51 q-10 -69 13.5 -102 q23.5 -33 87.5 -33 l111 0 q9 0 15 1.5 q6 1.5 10 4.5 q4 4 6 11 q2 7 2 17 ZM630 -116 l-24 0 q-37 0 -47 19 q-10 19 -4 56 l12 83 q3 19 7.5 29 q4.5 10 16.5 19 l-298 0 l0 540 l337 0 l0 -10 l-327 0 l0 -251 l246 0 l0 -10 l-246 0 l0 -259 l327 0 l0 -10 l-20 0 q-19 -10 -24.5 -18 q-5.5 -8 -8.5 -30 l-12 -85 q-4 -30 3 -46.5 q7 -16.5 38 -16.5 l24 0 l0 -10 Z" /><glyph glyph-name="Ecaron" unicode="&#x11a;" d="M555 -119 l-464 0 q-24 0 -35 11 q-11 11 -11 35 l0 648 q0 13 3.5 22 q3.5 9 10.5 15 l94 79 q-27 10 -35 20 q-8 10 -8 40 l0 81 q0 17 2.5 27 q2.5 10 8.5 14 l129 109 q5 4 15.5 4.5 q10.5 0.5 28.5 -4.5 l137 -40 q16 -4 28 -4 q12 0 28 4 l137 40 q33 10 43.5 2.5 q10.5 -7.5 10.5 -43.5 l0 -81 q0 -19 -4 -29 q-4 -10 -12 -17 l-100 -84 l122 0 q24 0 35 -11 q11 -11 11 -35 l0 -117 q0 -13 -3.5 -22 q-3.5 -9 -10.5 -15 l-86 -71 q10 -5 14.5 -15 q4.5 -10 4.5 -26 l0 -107 q0 -13 -3.5 -22 q-3.5 -9 -10.5 -15 l-89 -75 l138 0 q24 0 35 -11 q11 -11 11 -35 l0 -117 q0 -13 -3.5 -22 q-3.5 -9 -10.5 -15 l-130 -108 q-4 -4 -12.5 -7 q-8.5 -3 -18.5 -3 ZM490 932 q-17 -4 -31 -4 q-14 0 -31 4 l-137 40 q-26 8 -34 2 q-8 -6 -8 -33 l0 -81 q0 -27 8.5 -35 q8.5 -8 33.5 -18 l137 -50 q7 -3 15 -4 q8 -1 17 -1 q9 1 19.5 3 q10.5 2 19.5 6 l128 46 q24 10 32.5 18 q8.5 8 8.5 35 l0 81 q0 27 -8 33 q-8 6 -33 -2 l-137 -40 ZM339 879 l87 -28 q7 -2 14.5 -4 q7.5 -2 17.5 -2 q10 0 17.5 2 q7.5 2 14.5 4 l87 28 l0 -11 l-83 -27 q-9 -2 -17 -4 q-8 -2 -19 -2 q-11 0 -19 2 q-8 2 -17 4 l-83 27 l0 11 ZM684 0 q19 0 27.5 8.5 q8.5 8.5 8.5 27.5 l0 117 q0 19 -8.5 27.5 q-8.5 8.5 -27.5 8.5 l-276 0 l0 86 l195 0 q19 0 27.5 8.5 q8.5 8.5 8.5 27.5 l0 107 q0 19 -8.5 27.5 q-8.5 8.5 -27.5 8.5 l-195 0 l0 77 l276 0 q19 0 27.5 8.5 q8.5 8.5 8.5 27.5 l0 117 q0 19 -8.5 27.5 q-8.5 8.5 -27.5 8.5 l-464 0 q-19 0 -27.5 -8.5 q-8.5 -8.5 -8.5 -27.5 l0 -648 q0 -19 8.5 -27.5 q8.5 -8.5 27.5 -8.5 l464 0 ZM630 100 l0 -10 l-337 0 l0 540 l337 0 l0 -10 l-327 0 l0 -251 l246 0 l0 -10 l-246 0 l0 -259 l327 0 Z" /><glyph glyph-name="F" unicode="f" d="M246 -119 l-155 0 q-24 0 -35 11 q-11 11 -11 35 l0 648 q0 13 3.5 22 q3.5 9 10.5 15 l129 109 q5 4 13.5 6.5 q8.5 2.5 18.5 2.5 l446 0 q24 0 35 -11 q11 -11 11 -35 l0 -119 q0 -13 -3.5 -22 q-3.5 -9 -10.5 -15 l-112 -93 q23 0 34 -11 q11 -11 11 -35 l0 -120 q0 -13 -3.5 -22 q-3.5 -9 -10.5 -15 l-130 -108 q-4 -4 -12.5 -7 q-8.5 -3 -18.5 -3 l-35 0 l0 -78 q0 -13 -3.5 -22 q-3.5 -9 -10.5 -15 l-130 -108 q-4 -4 -12.5 -7 q-8.5 -3 -18.5 -3 ZM375 0 q19 0 27.5 8.5 q8.5 8.5 8.5 27.5 l0 197 l174 0 q19 0 27.5 8.5 q8.5 8.5 8.5 27.5 l0 120 q0 19 -8.5 27.5 q-8.5 8.5 -27.5 8.5 l-174 0 l0 104 l255 0 q19 0 27.5 8.5 q8.5 8.5 8.5 27.5 l0 119 q0 19 -8.5 27.5 q-8.5 8.5 -27.5 8.5 l-446 0 q-19 0 -27.5 -8.5 q-8.5 -8.5 -8.5 -27.5 l0 -648 q0 -19 8.5 -27.5 q8.5 -8.5 27.5 -8.5 l155 0 ZM293 90 l0 540 l319 0 l0 -10 l-309 0 l0 -286 l228 0 l0 -10 l-228 0 l0 -234 l-10 0 Z" /><glyph glyph-name="G" unicode="g" d="M605 -119 l-315 0 q-131 0 -193.5 68 q-62.5 68 -62.5 176 l0 282 q0 55 16 95 q16 40 47 67 l129 109 q31 26 79.5 39 q48.5 13 113.5 13 l250 0 q24 0 35 -11 q11 -11 11 -35 l0 -121 q0 -13 -3.5 -22 q-3.5 -9 -10.5 -15 l-130 -108 q-4 -4 -12.5 -7 q-8.5 -3 -18.5 -3 l-130 0 l0 -144 q1 2 3.5 4.5 q2.5 2.5 4.5 4.5 l129 109 q5 4 13.5 6.5 q8.5 2.5 18.5 2.5 l155 0 q24 0 35 -11 q11 -11 11 -35 l0 -309 q0 -13 -3.5 -22 q-3.5 -9 -10.5 -15 l-130 -108 q-4 -4 -12.5 -7 q-8.5 -3 -18.5 -3 ZM734 0 q19 0 27.5 8.5 q8.5 8.5 8.5 27.5 l0 309 q0 19 -8.5 27.5 q-8.5 8.5 -27.5 8.5 l-155 0 q-19 0 -27.5 -8.5 q-8.5 -8.5 -8.5 -27.5 l0 -156 l-97 0 q-23 0 -34.5 12 q-11.5 12 -11.5 37 l0 239 q0 25 15 37.5 q15 12.5 46 12.5 l208 0 q19 0 27.5 8.5 q8.5 8.5 8.5 27.5 l0 121 q0 19 -8.5 27.5 q-8.5 8.5 -27.5 8.5 l-250 0 q-125 0 -185.5 -50 q-60.5 -50 -60.5 -154 l0 -312 q0 -104 60.5 -154 q60.5 -50 185.5 -50 l315 0 ZM462 90 q-55 0 -90 7 q-35 7 -55 22.5 q-20 15.5 -27.5 40 q-7.5 24.5 -7.5 59.5 l0 280 q0 71 32 101 q32 30 128 30 l173 0 l0 -10 l-173 0 q-88 0 -119 -27.5 q-31 -27.5 -31 -93.5 l0 -280 q0 -65 34.5 -92 q34.5 -27 135.5 -27 l189 0 l0 191 l10 0 l0 -201 l-199 0 Z" /><glyph glyph-name="Gcircumflex" unicode="&#x11c;" d="M605 -119 l-315 0 q-131 0 -193.5 68 q-62.5 68 -62.5 176 l0 282 q0 55 16 95 q16 40 47 67 l74 63 q-14 -1 -19 10.5 q-5 11.5 -5 36.5 l0 81 q0 19 3.5 29 q3.5 10 10.5 17 l131 109 l-1 -1 q5 5 13.5 9 q8.5 4 19.5 8 l127 46 q10 4 21.5 6.5 q11.5 2.5 21.5 3.5 q10 0 19 -1 q9 -1 16 -5 l138 -50 q30 -11 39 -21 q9 -10 9 -41 l0 -81 q0 -16 -3 -26 q-3 -10 -7 -14 l-1 -1 l-22 -18 q17 -3 25 -14 q8 -11 8 -31 l0 -121 q0 -13 -3.5 -22 q-3.5 -9 -10.5 -15 l-130 -108 q-4 -4 -12.5 -7 q-8.5 -3 -18.5 -3 l-130 0 l0 -144 q1 2 3.5 4.5 q2.5 2.5 4.5 4.5 l129 109 q5 4 13.5 6.5 q8.5 2.5 18.5 2.5 l155 0 q24 0 35 -11 q11 -11 11 -35 l0 -309 q0 -13 -3.5 -22 q-3.5 -9 -10.5 -15 l-130 -108 q-4 -4 -12.5 -7 q-8.5 -3 -18.5 -3 ZM614 850 l-87 28 q-7 2 -14.5 4 q-7.5 2 -17.5 2 q-10 0 -17.5 -2 q-7.5 -2 -14.5 -4 l-87 -28 l0 11 l83 27 q9 2 17 4 q8 2 19 2 q11 0 19 -2 q8 -2 17 -4 l83 -27 l0 -11 ZM464 797 q17 4 31 4 q14 0 31 -4 l137 -40 q26 -8 34 -2 q8 6 8 33 l0 81 q0 27 -8.5 35 q-8.5 8 -33.5 18 l-137 50 q-7 3 -15 4 q-8 1 -17 1 q-9 -1 -19.5 -3 q-10.5 -2 -19.5 -6 l-128 -46 q-24 -10 -32.5 -18 q-8.5 -8 -8.5 -35 l0 -81 q0 -27 8 -33 q8 -6 33 2 l137 40 ZM734 0 q19 0 27.5 8.5 q8.5 8.5 8.5 27.5 l0 309 q0 19 -8.5 27.5 q-8.5 8.5 -27.5 8.5 l-155 0 q-19 0 -27.5 -8.5 q-8.5 -8.5 -8.5 -27.5 l0 -156 l-97 0 q-23 0 -34.5 12 q-11.5 12 -11.5 37 l0 239 q0 25 15 37.5 q15 12.5 46 12.5 l208 0 q19 0 27.5 8.5 q8.5 8.5 8.5 27.5 l0 121 q0 19 -8.5 27.5 q-8.5 8.5 -27.5 8.5 l-250 0 q-125 0 -185.5 -50 q-60.5 -50 -60.5 -154 l0 -312 q0 -104 60.5 -154 q60.5 -50 185.5 -50 l315 0 ZM462 90 q-55 0 -90 7 q-35 7 -55 22.5 q-20 15.5 -27.5 40 q-7.5 24.5 -7.5 59.5 l0 280 q0 71 32 101 q32 30 128 30 l173 0 l0 -10 l-173 0 q-88 0 -119 -27.5 q-31 -27.5 -31 -93.5 l0 -280 q0 -65 34.5 -92 q34.5 -27 135.5 -27 l189 0 l0 191 l10 0 l0 -201 l-199 0 Z" /><glyph glyph-name="Gbreve" unicode="&#x11e;" d="M605 -119 l-315 0 q-131 0 -193.5 68 q-62.5 68 -62.5 176 l0 282 q0 55 16 95 q16 40 47 67 l108 92 q-42 19 -57 52.5 q-15 33.5 -15 74.5 l0 44 q0 13 3.5 22 q3.5 9 10.5 15 l129 109 q5 4 13.5 6.5 q8.5 2.5 18.5 2.5 l96 0 q21 0 30 -8.5 q9 -8.5 9 -32.5 l0 -21 q0 -7 4 -12.5 q4 -5.5 14 -7.5 l90 75 l-1 -1 q4 4 11 6 q7 2 18 2 l91 0 q24 0 35 -11 q11 -11 11 -35 l0 -44 q0 -33 -9.5 -61 q-9.5 -28 -34.5 -48 l-69 -58 l66 0 q24 0 35 -11 q11 -11 11 -35 l0 -121 q0 -13 -3.5 -22 q-3.5 -9 -10.5 -15 l-130 -108 q-4 -4 -12.5 -7 q-8.5 -3 -18.5 -3 l-130 0 l0 -144 q1 2 3.5 4.5 q2.5 2.5 4.5 4.5 l129 109 q5 4 13.5 6.5 q8.5 2.5 18.5 2.5 l155 0 q24 0 35 -11 q11 -11 11 -35 l0 -309 q0 -13 -3.5 -22 q-3.5 -9 -10.5 -15 l-130 -108 q-4 -4 -12.5 -7 q-8.5 -3 -18.5 -3 ZM706 897 l0 44 q0 19 -8.5 27.5 q-8.5 8.5 -27.5 8.5 l-91 0 q-17 0 -23.5 -6.5 q-6.5 -6.5 -6.5 -24.5 l0 -21 q0 -14 -11 -23.5 q-11 -9.5 -48 -9.5 q-37 0 -47 9.5 q-10 9.5 -10 23.5 l0 21 q0 18 -6.5 24.5 q-6.5 6.5 -22.5 6.5 l-96 0 q-19 0 -27.5 -8.5 q-8.5 -8.5 -8.5 -27.5 l0 -44 q0 -32 9.5 -58.5 q9.5 -26.5 34 -45 q24.5 -18.5 66.5 -29 q42 -10.5 107 -10.5 q65 0 107 10.5 q42 10.5 66.5 29 q24.5 18.5 34 45 q9.5 26.5 9.5 58.5 ZM623 907 l10 0 l0 -9 q0 -14 -5.5 -28.5 q-5.5 -14.5 -20.5 -26 q-15 -11.5 -44 -18.5 q-29 -7 -75 -7 q-46 0 -74 7 q-28 7 -42.5 18.5 q-14.5 11.5 -19 26 q-4.5 14.5 -4.5 28.5 l0 9 l10 0 l0 -9 q0 -27 24.5 -48.5 q24.5 -21.5 105.5 -21.5 q81 0 108 21.5 q27 21.5 27 48.5 l0 9 ZM734 0 q19 0 27.5 8.5 q8.5 8.5 8.5 27.5 l0 309 q0 19 -8.5 27.5 q-8.5 8.5 -27.5 8.5 l-155 0 q-19 0 -27.5 -8.5 q-8.5 -8.5 -8.5 -27.5 l0 -156 l-97 0 q-23 0 -34.5 12 q-11.5 12 -11.5 37 l0 239 q0 25 15 37.5 q15 12.5 46 12.5 l208 0 q19 0 27.5 8.5 q8.5 8.5 8.5 27.5 l0 121 q0 19 -8.5 27.5 q-8.5 8.5 -27.5 8.5 l-250 0 q-125 0 -185.5 -50 q-60.5 -50 -60.5 -154 l0 -312 q0 -104 60.5 -154 q60.5 -50 185.5 -50 l315 0 ZM462 90 q-55 0 -90 7 q-35 7 -55 22.5 q-20 15.5 -27.5 40 q-7.5 24.5 -7.5 59.5 l0 280 q0 71 32 101 q32 30 128 30 l173 0 l0 -10 l-173 0 q-88 0 -119 -27.5 q-31 -27.5 -31 -93.5 l0 -280 q0 -65 34.5 -92 q34.5 -27 135.5 -27 l189 0 l0 191 l10 0 l0 -201 l-199 0 Z" /><glyph glyph-name="Gdotaccent" unicode="&#x120;" d="M605 -119 l-315 0 q-131 0 -193.5 68 q-62.5 68 -62.5 176 l0 282 q0 55 16 95 q16 40 47 67 l129 109 q2 2 5 4 q3 2 5 4 l0 128 q0 13 3.5 22 q3.5 9 10.5 15 l129 109 q5 4 13.5 6.5 q8.5 2.5 18.5 2.5 l158 0 q24 0 35 -11 q11 -11 11 -35 l0 -127 q0 -13 -3.5 -22 q-3.5 -9 -10.5 -15 l-35 -29 l103 0 q24 0 35 -11 q11 -11 11 -35 l0 -121 q0 -13 -3.5 -22 q-3.5 -9 -10.5 -15 l-130 -108 q-4 -4 -12.5 -7 q-8.5 -3 -18.5 -3 l-130 0 l0 -144 q1 2 3.5 4.5 q2.5 2.5 4.5 4.5 l129 109 q5 4 13.5 6.5 q8.5 2.5 18.5 2.5 l155 0 q24 0 35 -11 q11 -11 11 -35 l0 -309 q0 -13 -3.5 -22 q-3.5 -9 -10.5 -15 l-130 -108 q-4 -4 -12.5 -7 q-8.5 -3 -18.5 -3 ZM569 760 q19 0 27.5 8.5 q8.5 8.5 8.5 27.5 l0 127 q0 19 -8.5 27.5 q-8.5 8.5 -27.5 8.5 l-158 0 q-19 0 -27.5 -8.5 q-8.5 -8.5 -8.5 -27.5 l0 -127 q0 -19 8.5 -27.5 q8.5 -8.5 27.5 -8.5 l158 0 ZM495 830 l-10 0 l0 59 l10 0 l0 -59 ZM734 0 q19 0 27.5 8.5 q8.5 8.5 8.5 27.5 l0 309 q0 19 -8.5 27.5 q-8.5 8.5 -27.5 8.5 l-155 0 q-19 0 -27.5 -8.5 q-8.5 -8.5 -8.5 -27.5 l0 -156 l-97 0 q-23 0 -34.5 12 q-11.5 12 -11.5 37 l0 239 q0 25 15 37.5 q15 12.5 46 12.5 l208 0 q19 0 27.5 8.5 q8.5 8.5 8.5 27.5 l0 121 q0 19 -8.5 27.5 q-8.5 8.5 -27.5 8.5 l-250 0 q-125 0 -185.5 -50 q-60.5 -50 -60.5 -154 l0 -312 q0 -104 60.5 -154 q60.5 -50 185.5 -50 l315 0 ZM462 90 q-55 0 -90 7 q-35 7 -55 22.5 q-20 15.5 -27.5 40 q-7.5 24.5 -7.5 59.5 l0 280 q0 71 32 101 q32 30 128 30 l173 0 l0 -10 l-173 0 q-88 0 -119 -27.5 q-31 -27.5 -31 -93.5 l0 -280 q0 -65 34.5 -92 q34.5 -27 135.5 -27 l189 0 l0 191 l10 0 l0 -201 l-199 0 Z" /><glyph glyph-name="Gcommaaccent" unicode="&#x122;" d="M351 -481 l-66 0 q-21 0 -30.5 9.5 q-9.5 9.5 -9.5 31.5 l0 34 q0 13 3 20.5 q3 7.5 9 11.5 l30 25 l-6 0 q-26 0 -36.5 10.5 q-10.5 10.5 -10.5 38.5 l0 109 q0 16 3 25.5 q3 9.5 10 15.5 l38 31 q-124 4 -187.5 71.5 q-63.5 67.5 -63.5 172.5 l0 282 q0 55 16 95 q16 40 47 67 l129 109 q31 26 79.5 39 q48.5 13 113.5 13 l250 0 q24 0 35 -11 q11 -11 11 -35 l0 -121 q0 -13 -3.5 -22 q-3.5 -9 -10.5 -15 l-130 -108 q-4 -4 -12.5 -7 q-8.5 -3 -18.5 -3 l-130 0 l0 -144 q1 2 3.5 4.5 q2.5 2.5 4.5 4.5 l129 109 q5 4 13.5 6.5 q8.5 2.5 18.5 2.5 l155 0 q24 0 35 -11 q11 -11 11 -35 l0 -309 q0 -13 -3.5 -22 q-3.5 -9 -10.5 -15 l-130 -108 q-4 -4 -10 -6.5 q-6 -2.5 -11 -2.5 l0 -116 q0 -37 -11.5 -64.5 q-11.5 -27.5 -31.5 -44.5 l-129 -109 q-17 -14 -40.5 -21.5 q-23.5 -7.5 -51.5 -7.5 ZM734 0 q19 0 27.5 8.5 q8.5 8.5 8.5 27.5 l0 309 q0 19 -8.5 27.5 q-8.5 8.5 -27.5 8.5 l-155 0 q-19 0 -27.5 -8.5 q-8.5 -8.5 -8.5 -27.5 l0 -156 l-97 0 q-23 0 -34.5 12 q-11.5 12 -11.5 37 l0 239 q0 25 15 37.5 q15 12.5 46 12.5 l208 0 q19 0 27.5 8.5 q8.5 8.5 8.5 27.5 l0 121 q0 19 -8.5 27.5 q-8.5 8.5 -27.5 8.5 l-250 0 q-125 0 -185.5 -50 q-60.5 -50 -60.5 -154 l0 -312 q0 -104 60.5 -154 q60.5 -50 185.5 -50 l315 0 ZM462 90 q-55 0 -90 7 q-35 7 -55 22.5 q-20 15.5 -27.5 40 q-7.5 24.5 -7.5 59.5 l0 280 q0 71 32 101 q32 30 128 30 l173 0 l0 -10 l-173 0 q-88 0 -119 -27.5 q-31 -27.5 -31 -93.5 l0 -280 q0 -65 34.5 -92 q34.5 -27 135.5 -27 l189 0 l0 191 l10 0 l0 -201 l-199 0 ZM480 -362 q57 0 91 32 q34 32 34 96 l0 152 q0 22 -8 30.5 q-8 8.5 -29 8.5 l-158 0 q-21 0 -29 -8.5 q-8 -8.5 -8 -30.5 l0 -109 q0 -22 8 -30.5 q8 -8.5 29 -8.5 l86 0 l0 -13 q0 -11 -6 -17.5 q-6 -6.5 -17 -6.5 l-59 0 q-16 0 -23 -7 q-7 -7 -7 -23 l0 -34 q0 -16 7 -23.5 q7 -7.5 23 -7.5 l66 0 ZM548 -132 l0 -97 q0 -46 -21.5 -66 q-21.5 -20 -61.5 -20 l-35 0 l0 10 l35 0 q36 0 54.5 18 q18.5 18 18.5 58 l0 87 l-108 0 l0 10 l118 0 Z" /><glyph glyph-name="H" unicode="h" d="M292 90 l0 540 l10 0 l0 -265 l384 0 l0 265 l10 0 l0 -540 l-10 0 l0 265 l-384 0 l0 -265 l-10 0 ZM375 0 q19 0 27.5 8.5 q8.5 8.5 8.5 27.5 l0 222 l167 0 l0 -222 q0 -19 8.5 -27.5 q8.5 -8.5 27.5 -8.5 l155 0 q19 0 27.5 8.5 q8.5 8.5 8.5 27.5 l0 648 q0 19 -8.5 27.5 q-8.5 8.5 -27.5 8.5 l-155 0 q-19 0 -27.5 -8.5 q-8.5 -8.5 -8.5 -27.5 l0 -217 l-167 0 l0 217 q0 19 -8.5 27.5 q-8.5 8.5 -27.5 8.5 l-155 0 q-19 0 -27.5 -8.5 q-8.5 -8.5 -8.5 -27.5 l0 -648 q0 -19 8.5 -27.5 q8.5 -8.5 27.5 -8.5 l155 0 ZM407 -1 l-130 -108 q-4 -4 -12.5 -7 q-8.5 -3 -18.5 -3 l-155 0 q-24 0 -35 11 q-11 11 -11 35 l0 648 q0 13 3.5 22 q3.5 9 10.5 15 l129 109 q5 4 13.5 6.5 q8.5 2.5 18.5 2.5 l155 0 q24 0 35 -11 q11 -11 11 -35 l0 -207 l18 0 l0 98 q0 13 3.5 22 q3.5 9 10.5 15 l129 109 q5 4 13.5 6.5 q8.5 2.5 18.5 2.5 l155 0 q24 0 35 -11 q11 -11 11 -35 l0 -648 q0 -13 -3.5 -22 q-3.5 -9 -10.5 -15 l-130 -108 q-4 -4 -12.5 -7 q-8.5 -3 -18.5 -3 l-155 0 q-24 0 -35 11 q-11 11 -11 35 l0 212 l-18 0 l0 -103 q0 -13 -3.5 -22 q-3.5 -9 -10.5 -15 Z" /><glyph glyph-name="Hcircumflex" unicode="&#x124;" d="M612 850 l-87 28 q-7 2 -14.5 4 q-7.5 2 -17.5 2 q-10 0 -17.5 -2 q-7.5 -2 -14.5 -4 l-87 -28 l0 11 l83 27 q9 2 17 4 q8 2 19 2 q11 0 19 -2 q8 -2 17 -4 l83 -27 l0 -11 ZM462 797 q17 4 31 4 q14 0 31 -4 l137 -40 q26 -8 34 -2 q8 6 8 33 l0 81 q0 27 -8.5 35 q-8.5 8 -33.5 18 l-137 50 q-7 3 -15 4 q-8 1 -17 1 q-9 -1 -19.5 -3 q-10.5 -2 -19.5 -6 l-128 -46 q-24 -10 -32.5 -18 q-8.5 -8 -8.5 -35 l0 -81 q0 -27 8 -33 q8 -6 33 2 l137 40 ZM421 477 l18 0 l0 98 q0 13 3.5 22 q3.5 9 10.5 15 l42 36 l-74 22 l0 -193 ZM292 90 l0 540 l10 0 l0 -265 l384 0 l0 265 l10 0 l0 -540 l-10 0 l0 265 l-384 0 l0 -265 l-10 0 ZM375 0 q19 0 27.5 8.5 q8.5 8.5 8.5 27.5 l0 222 l167 0 l0 -222 q0 -19 8.5 -27.5 q8.5 -8.5 27.5 -8.5 l155 0 q19 0 27.5 8.5 q8.5 8.5 8.5 27.5 l0 648 q0 19 -8.5 27.5 q-8.5 8.5 -27.5 8.5 l-155 0 q-19 0 -27.5 -8.5 q-8.5 -8.5 -8.5 -27.5 l0 -217 l-167 0 l0 217 q0 19 -8.5 27.5 q-8.5 8.5 -27.5 8.5 l-155 0 q-19 0 -27.5 -8.5 q-8.5 -8.5 -8.5 -27.5 l0 -648 q0 -19 8.5 -27.5 q8.5 -8.5 27.5 -8.5 l155 0 ZM277 -109 q-4 -4 -12.5 -7 q-8.5 -3 -18.5 -3 l-155 0 q-24 0 -35 11 q-11 11 -11 35 l0 648 q0 13 3.5 22 q3.5 9 10.5 15 l86 73 l0 75 q0 19 3.5 29 q3.5 10 10.5 17 l131 109 l-1 -1 q5 5 13.5 9 q8.5 4 19.5 8 l127 46 q10 4 21.5 6.5 q11.5 2.5 21.5 3.5 q10 0 19 -1 q9 -1 16 -5 l138 -50 q30 -11 39 -21 q9 -10 9 -41 l0 -81 q0 -16 -3 -26 q-3 -10 -7 -14 l-1 -1 l-21 -17 l88 0 q24 0 35 -11 q11 -11 11 -35 l0 -648 q0 -13 -3.5 -22 q-3.5 -9 -10.5 -15 l-130 -108 q-4 -4 -12.5 -7 q-8.5 -3 -18.5 -3 l-155 0 q-24 0 -35 11 q-11 11 -11 35 l0 212 l-18 0 l0 -103 q0 -13 -3.5 -22 q-3.5 -9 -10.5 -15 l-130 -108 Z" /><glyph glyph-name="I" unicode="i" d="M501 -119 l-426 0 q-24 0 -35 11 q-11 11 -11 35 l0 119 q0 13 3.5 22 q3.5 9 10.5 15 l121 102 l0 223 l-89 0 q-24 0 -35 11 q-11 11 -11 35 l0 121 q0 13 3.5 22 q3.5 9 10.5 15 l129 109 q5 4 13.5 6.5 q8.5 2.5 18.5 2.5 l426 0 q24 0 35 -11 q11 -11 11 -35 l0 -121 q0 -13 -3.5 -22 q-3.5 -9 -10.5 -15 l-119 -100 l0 -225 l87 0 q24 0 35 -11 q11 -11 11 -35 l0 -119 q0 -13 -3.5 -22 q-3.5 -9 -10.5 -15 l-130 -108 q-4 -4 -12.5 -7 q-8.5 -3 -18.5 -3 ZM204 0 l426 0 q19 0 27.5 8.5 q8.5 8.5 8.5 27.5 l0 119 q0 19 -8.5 27.5 q-8.5 8.5 -27.5 8.5 l-97 0 l0 336 l97 0 q19 0 27.5 8.5 q8.5 8.5 8.5 27.5 l0 121 q0 19 -8.5 27.5 q-8.5 8.5 -27.5 8.5 l-426 0 q-19 0 -27.5 -8.5 q-8.5 -8.5 -8.5 -27.5 l0 -121 q0 -19 8.5 -27.5 q8.5 -8.5 27.5 -8.5 l99 0 l0 -336 l-99 0 q-19 0 -27.5 -8.5 q-8.5 -8.5 -8.5 -27.5 l0 -119 q0 -19 8.5 -27.5 q8.5 -8.5 27.5 -8.5 ZM576 90 l-318 0 l0 10 l155 0 l0 520 l-155 0 l0 10 l318 0 l0 -10 l-153 0 l0 -520 l153 0 l0 -10 Z" /><glyph glyph-name="Igrave" unicode="ì" d="M501 -119 l-426 0 q-24 0 -35 11 q-11 11 -11 35 l0 119 q0 13 3.5 22 q3.5 9 10.5 15 l121 102 l0 223 l-89 0 q-24 0 -35 11 q-11 11 -11 35 l0 121 q0 13 3.5 22 q3.5 9 10.5 15 l76 64 l-6 1 q-24 3 -34.5 13 q-10.5 10 -10.5 33 l0 96 q0 13 3.5 21.5 q3.5 8.5 10.5 14.5 l129 109 q6 4 13.5 6 q7.5 2 17.5 1 l349 -43 q24 -3 34.5 -13 q10.5 -10 10.5 -33 l0 -96 q0 -13 -3.5 -21.5 q-3.5 -8.5 -10.5 -14.5 l-24 -20 l32 0 q24 0 35 -11 q11 -11 11 -35 l0 -121 q0 -13 -3.5 -22 q-3.5 -9 -10.5 -15 l-119 -100 l0 -225 l87 0 q24 0 35 -11 q11 -11 11 -35 l0 -119 q0 -13 -3.5 -22 q-3.5 -9 -10.5 -15 l-130 -108 q-4 -4 -12.5 -7 q-8.5 -3 -18.5 -3 ZM592 753 q17 -2 25.5 7 q8.5 9 8.5 26 l0 96 q0 19 -8.5 26.5 q-8.5 7.5 -27.5 9.5 l-349 43 q-17 2 -25.5 -7 q-8.5 -9 -8.5 -26 l0 -96 q0 -19 8.5 -26.5 q8.5 -7.5 27.5 -9.5 l349 -43 ZM297 867 l0 10 l239 -30 l0 -10 l-239 30 ZM204 0 l426 0 q19 0 27.5 8.5 q8.5 8.5 8.5 27.5 l0 119 q0 19 -8.5 27.5 q-8.5 8.5 -27.5 8.5 l-97 0 l0 336 l97 0 q19 0 27.5 8.5 q8.5 8.5 8.5 27.5 l0 121 q0 19 -8.5 27.5 q-8.5 8.5 -27.5 8.5 l-426 0 q-19 0 -27.5 -8.5 q-8.5 -8.5 -8.5 -27.5 l0 -121 q0 -19 8.5 -27.5 q8.5 -8.5 27.5 -8.5 l99 0 l0 -336 l-99 0 q-19 0 -27.5 -8.5 q-8.5 -8.5 -8.5 -27.5 l0 -119 q0 -19 8.5 -27.5 q8.5 -8.5 27.5 -8.5 ZM576 90 l-318 0 l0 10 l155 0 l0 520 l-155 0 l0 10 l318 0 l0 -10 l-153 0 l0 -520 l153 0 l0 -10 Z" /><glyph glyph-name="Iacute" unicode="í" d="M501 -119 l-426 0 q-24 0 -35 11 q-11 11 -11 35 l0 119 q0 13 3.5 22 q3.5 9 10.5 15 l121 102 l0 223 l-89 0 q-24 0 -35 11 q-11 11 -11 35 l0 121 q0 13 3.5 22 q3.5 9 10.5 15 l36 31 q-5 5 -8 14 q-3 9 -3 20 l0 96 q0 13 3.5 21.5 q3.5 8.5 9.5 13.5 l130 109 q4 4 12.5 7 q8.5 3 18.5 4 l349 43 q22 3 33.5 -8.5 q11.5 -11.5 11.5 -34.5 l0 -96 q0 -13 -3.5 -22 q-3.5 -9 -10.5 -13 l-79 -67 l87 0 q24 0 35 -11 q11 -11 11 -35 l0 -121 q0 -13 -3.5 -22 q-3.5 -9 -10.5 -15 l-119 -100 l0 -225 l87 0 q24 0 35 -11 q11 -11 11 -35 l0 -119 q0 -13 -3.5 -22 q-3.5 -9 -10.5 -15 l-130 -108 q-4 -4 -12.5 -7 q-8.5 -3 -18.5 -3 ZM590 796 q19 2 27.5 9.5 q8.5 7.5 8.5 26.5 l0 96 q0 17 -8.5 26 q-8.5 9 -25.5 7 l-349 -43 q-19 -2 -27.5 -9.5 q-8.5 -7.5 -8.5 -26.5 l0 -96 q0 -17 8.5 -26 q8.5 -9 25.5 -7 l349 43 ZM297 847 l239 30 l0 -10 l-239 -30 l0 10 ZM204 0 l426 0 q19 0 27.5 8.5 q8.5 8.5 8.5 27.5 l0 119 q0 19 -8.5 27.5 q-8.5 8.5 -27.5 8.5 l-97 0 l0 336 l97 0 q19 0 27.5 8.5 q8.5 8.5 8.5 27.5 l0 121 q0 19 -8.5 27.5 q-8.5 8.5 -27.5 8.5 l-426 0 q-19 0 -27.5 -8.5 q-8.5 -8.5 -8.5 -27.5 l0 -121 q0 -19 8.5 -27.5 q8.5 -8.5 27.5 -8.5 l99 0 l0 -336 l-99 0 q-19 0 -27.5 -8.5 q-8.5 -8.5 -8.5 -27.5 l0 -119 q0 -19 8.5 -27.5 q8.5 -8.5 27.5 -8.5 ZM576 90 l-318 0 l0 10 l155 0 l0 520 l-155 0 l0 10 l318 0 l0 -10 l-153 0 l0 -520 l153 0 l0 -10 Z" /><glyph glyph-name="Icircumflex" unicode="î" d="M501 -119 l-426 0 q-24 0 -35 11 q-11 11 -11 35 l0 119 q0 13 3.5 22 q3.5 9 10.5 15 l121 102 l0 223 l-89 0 q-24 0 -35 11 q-11 11 -11 35 l0 121 q0 13 3.5 22 q3.5 9 10.5 15 l32 27 q-4 5 -5.5 15 q-1.5 10 -1.5 25 l0 81 q0 19 3.5 29 q3.5 10 10.5 17 l131 109 l-1 -1 q5 5 13.5 9 q8.5 4 19.5 8 l127 46 q10 4 21.5 6.5 q11.5 2.5 21.5 3.5 q10 0 19 -1 q9 -1 16 -5 l138 -50 q30 -11 39 -21 q9 -10 9 -41 l0 -81 q0 -16 -3 -26 q-3 -10 -7 -14 l-1 -1 l-21 -17 l26 0 q24 0 35 -11 q11 -11 11 -35 l0 -121 q0 -13 -3.5 -22 q-3.5 -9 -10.5 -15 l-119 -100 l0 -225 l87 0 q24 0 35 -11 q11 -11 11 -35 l0 -119 q0 -13 -3.5 -22 q-3.5 -9 -10.5 -15 l-130 -108 q-4 -4 -12.5 -7 q-8.5 -3 -18.5 -3 ZM535 850 l-87 28 q-7 2 -14.5 4 q-7.5 2 -17.5 2 q-10 0 -17.5 -2 q-7.5 -2 -14.5 -4 l-87 -28 l0 11 l83 27 q9 2 17 4 q8 2 19 2 q11 0 19 -2 q8 -2 17 -4 l83 -27 l0 -11 ZM385 797 q17 4 31 4 q14 0 31 -4 l137 -40 q26 -8 34 -2 q8 6 8 33 l0 81 q0 27 -8.5 35 q-8.5 8 -33.5 18 l-137 50 q-7 3 -15 4 q-8 1 -17 1 q-9 -1 -19.5 -3 q-10.5 -2 -19.5 -6 l-128 -46 q-24 -10 -32.5 -18 q-8.5 -8 -8.5 -35 l0 -81 q0 -27 8 -33 q8 -6 33 2 l137 40 ZM204 0 l426 0 q19 0 27.5 8.5 q8.5 8.5 8.5 27.5 l0 119 q0 19 -8.5 27.5 q-8.5 8.5 -27.5 8.5 l-97 0 l0 336 l97 0 q19 0 27.5 8.5 q8.5 8.5 8.5 27.5 l0 121 q0 19 -8.5 27.5 q-8.5 8.5 -27.5 8.5 l-426 0 q-19 0 -27.5 -8.5 q-8.5 -8.5 -8.5 -27.5 l0 -121 q0 -19 8.5 -27.5 q8.5 -8.5 27.5 -8.5 l99 0 l0 -336 l-99 0 q-19 0 -27.5 -8.5 q-8.5 -8.5 -8.5 -27.5 l0 -119 q0 -19 8.5 -27.5 q8.5 -8.5 27.5 -8.5 ZM576 90 l-318 0 l0 10 l155 0 l0 520 l-155 0 l0 10 l318 0 l0 -10 l-153 0 l0 -520 l153 0 l0 -10 Z" /><glyph glyph-name="Idieresis" unicode="ï" d="M501 -119 l-426 0 q-24 0 -35 11 q-11 11 -11 35 l0 119 q0 13 3.5 22 q3.5 9 10.5 15 l121 102 l0 223 l-89 0 q-24 0 -35 11 q-11 11 -11 35 l0 121 q0 13 3.5 22 q3.5 9 10.5 15 l35 30 q-17 1 -25.5 12 q-8.5 11 -8.5 30 l0 121 q0 13 3.5 21 q3.5 8 9.5 13 l129 109 q5 4 13 6.5 q8 2.5 18 2.5 l138 0 q22 0 32.5 -10.5 q10.5 -10.5 10.5 -32.5 l0 -6 l47 40 q5 4 12.5 6.5 q7.5 2.5 17.5 2.5 l138 0 q22 0 32.5 -10.5 q10.5 -10.5 10.5 -32.5 l0 -121 q0 -12 -3.5 -20.5 q-3.5 -8.5 -9.5 -13.5 l-35 -29 l22 0 q24 0 35 -11 q11 -11 11 -35 l0 -121 q0 -13 -3.5 -22 q-3.5 -9 -10.5 -15 l-119 -100 l0 -225 l87 0 q24 0 35 -11 q11 -11 11 -35 l0 -119 q0 -13 -3.5 -22 q-3.5 -9 -10.5 -15 l-130 -108 q-4 -4 -12.5 -7 q-8.5 -3 -18.5 -3 ZM613 760 q17 0 25 8 q8 8 8 25 l0 121 q0 17 -8 25 q-8 8 -25 8 l-138 0 q-17 0 -25 -8 q-8 -8 -8 -25 l0 -121 q0 -17 8 -25 q8 -8 25 -8 l138 0 ZM355 760 q17 0 25 8 q8 8 8 25 l0 121 q0 17 -8 25 q-8 8 -25 8 l-138 0 q-17 0 -25.5 -8 q-8.5 -8 -8.5 -25 l0 -121 q0 -17 8.5 -25 q8.5 -8 25.5 -8 l138 0 ZM549 830 l-10 0 l0 47 l10 0 l0 -47 ZM291 830 l-10 0 l0 47 l10 0 l0 -47 ZM204 0 l426 0 q19 0 27.5 8.5 q8.5 8.5 8.5 27.5 l0 119 q0 19 -8.5 27.5 q-8.5 8.5 -27.5 8.5 l-97 0 l0 336 l97 0 q19 0 27.5 8.5 q8.5 8.5 8.5 27.5 l0 121 q0 19 -8.5 27.5 q-8.5 8.5 -27.5 8.5 l-426 0 q-19 0 -27.5 -8.5 q-8.5 -8.5 -8.5 -27.5 l0 -121 q0 -19 8.5 -27.5 q8.5 -8.5 27.5 -8.5 l99 0 l0 -336 l-99 0 q-19 0 -27.5 -8.5 q-8.5 -8.5 -8.5 -27.5 l0 -119 q0 -19 8.5 -27.5 q8.5 -8.5 27.5 -8.5 ZM576 90 l-318 0 l0 10 l155 0 l0 520 l-155 0 l0 10 l318 0 l0 -10 l-153 0 l0 -520 l153 0 l0 -10 Z" /><glyph glyph-name="Itilde" unicode="&#x128;" d="M501 -119 l-426 0 q-24 0 -35 11 q-11 11 -11 35 l0 119 q0 13 3.5 22 q3.5 9 10.5 15 l121 102 l0 223 l-89 0 q-24 0 -35 11 q-11 11 -11 35 l0 121 q0 13 3.5 22 q3.5 9 10.5 15 l36 31 q-5 4 -8 12.5 q-3 8.5 -3 20.5 l0 101 q0 13 3.5 21.5 q3.5 8.5 11.5 15.5 l129 108 q4 4 11.5 7.5 q7.5 3.5 15.5 6.5 l1 0 l0 1 q24 7 40.5 10.5 q16.5 3.5 33 3.5 q16.5 0 36 -2.5 q19.5 -2.5 50.5 -6.5 l17 -2 l22 -3 q32 -5 51 -7 q19 -2 33 -1 q14 1 28 5 q14 4 35 11 q25 7 37 -2 q12 -9 12 -34 l0 -101 q0 -13 -4 -21.5 q-4 -8.5 -11 -14.5 l-50 -42 l60 0 q24 0 35 -11 q11 -11 11 -35 l0 -121 q0 -13 -3.5 -22 q-3.5 -9 -10.5 -15 l-119 -100 l0 -225 l87 0 q24 0 35 -11 q11 -11 11 -35 l0 -119 q0 -13 -3.5 -22 q-3.5 -9 -10.5 -15 l-130 -108 q-4 -4 -12.5 -7 q-8.5 -3 -18.5 -3 ZM416 764 l16 -2 q30 -4 49.5 -6.5 q19.5 -2.5 35.5 -2.5 q16 0 32 3.5 q16 3.5 40 10.5 q17 7 26.5 14.5 q9.5 7.5 9.5 26.5 l0 101 q0 19 -9 25 q-9 6 -27 1 q-22 -7 -36 -11 q-14 -4 -28.5 -5 q-14.5 -1 -34 1 q-19.5 2 -52.5 7 l-22 3 l-17 2 q-30 4 -49.5 6.5 q-19.5 2.5 -35 2.5 q-15.5 0 -31.5 -3.5 q-16 -3.5 -40 -10.5 q-17 -7 -26.5 -14.5 q-9.5 -7.5 -9.5 -26.5 l0 -101 q0 -19 9 -25 q9 -6 27 -1 q20 6 34.5 9.5 q14.5 3.5 29.5 5 q15 1.5 34 0 q19 -1.5 47 -5.5 l28 -4 ZM535 841 l0 -10 q-20 -2 -43 0 q-23 2 -61 8 l-16 2 l-28 4 q-33 5 -53.5 6 q-20.5 1 -36.5 -2 l0 11 q17 2 37.5 0.5 q20.5 -1.5 54.5 -5.5 l28 -4 l16 -2 q38 -6 60 -8 q22 -2 42 0 ZM204 0 l426 0 q19 0 27.5 8.5 q8.5 8.5 8.5 27.5 l0 119 q0 19 -8.5 27.5 q-8.5 8.5 -27.5 8.5 l-97 0 l0 336 l97 0 q19 0 27.5 8.5 q8.5 8.5 8.5 27.5 l0 121 q0 19 -8.5 27.5 q-8.5 8.5 -27.5 8.5 l-426 0 q-19 0 -27.5 -8.5 q-8.5 -8.5 -8.5 -27.5 l0 -121 q0 -19 8.5 -27.5 q8.5 -8.5 27.5 -8.5 l99 0 l0 -336 l-99 0 q-19 0 -27.5 -8.5 q-8.5 -8.5 -8.5 -27.5 l0 -119 q0 -19 8.5 -27.5 q8.5 -8.5 27.5 -8.5 ZM576 90 l-318 0 l0 10 l155 0 l0 520 l-155 0 l0 10 l318 0 l0 -10 l-153 0 l0 -520 l153 0 l0 -10 Z" /><glyph glyph-name="Imacron" unicode="&#x12a;" d="M501 -119 l-426 0 q-24 0 -35 11 q-11 11 -11 35 l0 119 q0 13 3.5 22 q3.5 9 10.5 15 l121 102 l0 223 l-89 0 q-24 0 -35 11 q-11 11 -11 35 l0 121 q0 13 3.5 22 q3.5 9 10.5 15 l42 35 q-9 5 -13 15 q-4 10 -4 25 l0 93 q0 13 3.5 22 q3.5 9 10.5 15 l129 109 q5 4 13.5 6.5 q8.5 2.5 18.5 2.5 l347 0 q24 0 35 -11 q11 -11 11 -35 l0 -93 q0 -13 -3.5 -22 q-3.5 -9 -10.5 -15 l-35 -29 l43 0 q24 0 35 -11 q11 -11 11 -35 l0 -121 q0 -13 -3.5 -22 q-3.5 -9 -10.5 -15 l-119 -100 l0 -225 l87 0 q24 0 35 -11 q11 -11 11 -35 l0 -119 q0 -13 -3.5 -22 q-3.5 -9 -10.5 -15 l-130 -108 q-4 -4 -12.5 -7 q-8.5 -3 -18.5 -3 ZM590 760 q19 0 27.5 8.5 q8.5 8.5 8.5 27.5 l0 93 q0 19 -8.5 27.5 q-8.5 8.5 -27.5 8.5 l-347 0 q-19 0 -27.5 -8.5 q-8.5 -8.5 -8.5 -27.5 l0 -93 q0 -19 8.5 -27.5 q8.5 -8.5 27.5 -8.5 l347 0 ZM297 847 l239 0 l0 -10 l-239 0 l0 10 ZM204 0 l426 0 q19 0 27.5 8.5 q8.5 8.5 8.5 27.5 l0 119 q0 19 -8.5 27.5 q-8.5 8.5 -27.5 8.5 l-97 0 l0 336 l97 0 q19 0 27.5 8.5 q8.5 8.5 8.5 27.5 l0 121 q0 19 -8.5 27.5 q-8.5 8.5 -27.5 8.5 l-426 0 q-19 0 -27.5 -8.5 q-8.5 -8.5 -8.5 -27.5 l0 -121 q0 -19 8.5 -27.5 q8.5 -8.5 27.5 -8.5 l99 0 l0 -336 l-99 0 q-19 0 -27.5 -8.5 q-8.5 -8.5 -8.5 -27.5 l0 -119 q0 -19 8.5 -27.5 q8.5 -8.5 27.5 -8.5 ZM576 90 l-318 0 l0 10 l155 0 l0 520 l-155 0 l0 10 l318 0 l0 -10 l-153 0 l0 -520 l153 0 l0 -10 Z" /><glyph glyph-name="Ibreve" unicode="&#x12c;" d="M501 -119 l-426 0 q-24 0 -35 11 q-11 11 -11 35 l0 119 q0 13 3.5 22 q3.5 9 10.5 15 l121 102 l0 223 l-89 0 q-24 0 -35 11 q-11 11 -11 35 l0 121 q0 13 3.5 22 q3.5 9 10.5 15 l71 60 q-31 20 -42 50 q-11 30 -11 66 l0 44 q0 13 3.5 22 q3.5 9 10.5 15 l129 109 q5 4 13.5 6.5 q8.5 2.5 18.5 2.5 l96 0 q21 0 30 -8.5 q9 -8.5 9 -32.5 l0 -21 q0 -7 4 -12.5 q4 -5.5 14 -7.5 l90 75 l-1 -1 q4 4 11 6 q7 2 18 2 l91 0 q24 0 35 -11 q11 -11 11 -35 l0 -44 q0 -33 -9.5 -61 q-9.5 -28 -34.5 -48 l-70 -58 l100 0 q24 0 35 -11 q11 -11 11 -35 l0 -121 q0 -13 -3.5 -22 q-3.5 -9 -10.5 -15 l-119 -100 l0 -225 l87 0 q24 0 35 -11 q11 -11 11 -35 l0 -119 q0 -13 -3.5 -22 q-3.5 -9 -10.5 -15 l-130 -108 q-4 -4 -12.5 -7 q-8.5 -3 -18.5 -3 ZM634 897 l0 44 q0 19 -8.5 27.5 q-8.5 8.5 -27.5 8.5 l-91 0 q-17 0 -23.5 -6.5 q-6.5 -6.5 -6.5 -24.5 l0 -21 q0 -14 -11 -23.5 q-11 -9.5 -48 -9.5 q-37 0 -47 9.5 q-10 9.5 -10 23.5 l0 21 q0 18 -6.5 24.5 q-6.5 6.5 -22.5 6.5 l-96 0 q-19 0 -27.5 -8.5 q-8.5 -8.5 -8.5 -27.5 l0 -44 q0 -32 9.5 -58.5 q9.5 -26.5 34 -45 q24.5 -18.5 66.5 -29 q42 -10.5 107 -10.5 q65 0 107 10.5 q42 10.5 66.5 29 q24.5 18.5 34 45 q9.5 26.5 9.5 58.5 ZM551 907 l10 0 l0 -9 q0 -14 -5.5 -28.5 q-5.5 -14.5 -20.5 -26 q-15 -11.5 -44 -18.5 q-29 -7 -75 -7 q-46 0 -74 7 q-28 7 -42.5 18.5 q-14.5 11.5 -19 26 q-4.5 14.5 -4.5 28.5 l0 9 l10 0 l0 -9 q0 -27 24.5 -48.5 q24.5 -21.5 105.5 -21.5 q81 0 108 21.5 q27 21.5 27 48.5 l0 9 ZM204 0 l426 0 q19 0 27.5 8.5 q8.5 8.5 8.5 27.5 l0 119 q0 19 -8.5 27.5 q-8.5 8.5 -27.5 8.5 l-97 0 l0 336 l97 0 q19 0 27.5 8.5 q8.5 8.5 8.5 27.5 l0 121 q0 19 -8.5 27.5 q-8.5 8.5 -27.5 8.5 l-426 0 q-19 0 -27.5 -8.5 q-8.5 -8.5 -8.5 -27.5 l0 -121 q0 -19 8.5 -27.5 q8.5 -8.5 27.5 -8.5 l99 0 l0 -336 l-99 0 q-19 0 -27.5 -8.5 q-8.5 -8.5 -8.5 -27.5 l0 -119 q0 -19 8.5 -27.5 q8.5 -8.5 27.5 -8.5 ZM576 90 l-318 0 l0 10 l155 0 l0 520 l-155 0 l0 10 l318 0 l0 -10 l-153 0 l0 -520 l153 0 l0 -10 Z" /><glyph glyph-name="Iogonek" unicode="&#x12e;" d="M393 -305 q-69 0 -95.5 35 q-26.5 35 -15.5 112 l7 39 l-214 0 q-24 0 -35 11 q-11 11 -11 35 l0 119 q0 13 3.5 22 q3.5 9 10.5 15 l121 102 l0 223 l-89 0 q-24 0 -35 11 q-11 11 -11 35 l0 121 q0 13 3.5 22 q3.5 9 10.5 15 l129 109 q5 4 13.5 6.5 q8.5 2.5 18.5 2.5 l426 0 q24 0 35 -11 q11 -11 11 -35 l0 -121 q0 -13 -3.5 -22 q-3.5 -9 -10.5 -15 l-119 -100 l0 -225 l87 0 q24 0 35 -11 q11 -11 11 -35 l0 -119 q0 -13 -3.5 -22 q-3.5 -9 -10.5 -15 l-42 -35 l10 0 q27 0 36.5 -9.5 q9.5 -9.5 9.5 -34.5 l0 -72 q0 -13 -3 -22 q-3 -9 -9 -14 l-130 -109 q-4 -4 -12 -6 q-8 -2 -18 -2 l-111 0 ZM666 -152 l0 72 q0 19 -7.5 26.5 q-7.5 7.5 -28.5 7.5 l-41 0 l7 46 l34 0 q8 0 15 1.5 q7 1.5 11 5.5 q5 4 7.5 11.5 q2.5 7.5 2.5 17.5 l0 119 q0 19 -8.5 27.5 q-8.5 8.5 -27.5 8.5 l-97 0 l0 336 l97 0 q8 0 15 1.5 q7 1.5 11 5.5 q5 4 7.5 11.5 q2.5 7.5 2.5 17.5 l0 121 q0 19 -8.5 27.5 q-8.5 8.5 -27.5 8.5 l-426 0 q-8 0 -15 -1.5 q-7 -1.5 -11 -5.5 q-5 -4 -7.5 -11.5 q-2.5 -7.5 -2.5 -17.5 l0 -121 q0 -19 8.5 -27.5 q8.5 -8.5 27.5 -8.5 l99 0 l0 -336 l-99 0 q-8 0 -15 -1.5 q-7 -1.5 -11 -5.5 q-5 -4 -7.5 -11.5 q-2.5 -7.5 -2.5 -17.5 l0 -119 q0 -19 8.5 -27.5 q8.5 -8.5 27.5 -8.5 l226 0 l-9 -51 q-10 -69 13.5 -102 q23.5 -33 87.5 -33 l111 0 q9 0 15 1.5 q6 1.5 10 4.5 q4 4 6 11 q2 7 2 17 ZM552 -116 q-37 0 -47 19 q-10 19 -4 56 l12 83 q3 18 6.5 27.5 q3.5 9.5 13.5 17.5 q1 1 2 1.5 q1 0.5 2 1.5 l-279 0 l0 10 l155 0 l0 520 l-155 0 l0 10 l318 0 l0 -10 l-153 0 l0 -520 l153 0 l0 -10 l-20 0 q-6 -3 -10.5 -6 q-4.5 -3 -7.5 -6 q-7 -6 -10 -13.5 q-3 -7.5 -5 -22.5 l-12 -85 q-4 -30 3 -46.5 q7 -16.5 38 -16.5 l24 0 l0 -10 l-24 0 Z" /><glyph glyph-name="Idotaccent" unicode="&#x130;" d="M501 -119 l-426 0 q-24 0 -35 11 q-11 11 -11 35 l0 119 q0 13 3.5 22 q3.5 9 10.5 15 l121 102 l0 223 l-89 0 q-24 0 -35 11 q-11 11 -11 35 l0 121 q0 13 3.5 22 q3.5 9 10.5 15 l121 102 l0 100 q0 13 3.5 22 q3.5 9 10.5 15 l129 109 q5 4 13.5 6.5 q8.5 2.5 18.5 2.5 l158 0 q24 0 35 -11 q11 -11 11 -35 l0 -127 q0 -13 -3.5 -22 q-3.5 -9 -10.5 -15 l-35 -29 l136 0 q24 0 35 -11 q11 -11 11 -35 l0 -121 q0 -13 -3.5 -22 q-3.5 -9 -10.5 -15 l-119 -100 l0 -225 l87 0 q24 0 35 -11 q11 -11 11 -35 l0 -119 q0 -13 -3.5 -22 q-3.5 -9 -10.5 -15 l-130 -108 q-4 -4 -12.5 -7 q-8.5 -3 -18.5 -3 ZM497 760 q19 0 27.5 8.5 q8.5 8.5 8.5 27.5 l0 127 q0 19 -8.5 27.5 q-8.5 8.5 -27.5 8.5 l-158 0 q-19 0 -27.5 -8.5 q-8.5 -8.5 -8.5 -27.5 l0 -127 q0 -19 8.5 -27.5 q8.5 -8.5 27.5 -8.5 l158 0 ZM423 830 l-10 0 l0 59 l10 0 l0 -59 ZM204 0 l426 0 q19 0 27.5 8.5 q8.5 8.5 8.5 27.5 l0 119 q0 19 -8.5 27.5 q-8.5 8.5 -27.5 8.5 l-97 0 l0 336 l97 0 q19 0 27.5 8.5 q8.5 8.5 8.5 27.5 l0 121 q0 19 -8.5 27.5 q-8.5 8.5 -27.5 8.5 l-426 0 q-19 0 -27.5 -8.5 q-8.5 -8.5 -8.5 -27.5 l0 -121 q0 -19 8.5 -27.5 q8.5 -8.5 27.5 -8.5 l99 0 l0 -336 l-99 0 q-19 0 -27.5 -8.5 q-8.5 -8.5 -8.5 -27.5 l0 -119 q0 -19 8.5 -27.5 q8.5 -8.5 27.5 -8.5 ZM576 90 l-318 0 l0 10 l155 0 l0 520 l-155 0 l0 10 l318 0 l0 -10 l-153 0 l0 -520 l153 0 l0 -10 Z" /><glyph glyph-name="J" unicode="j" d="M317 -134 q-91 0 -149.5 20.5 q-58.5 20.5 -92 54.5 q-33.5 34 -46 78 q-12.5 44 -12.5 91 l0 132 q0 13 3.5 22.5 q3.5 9.5 9.5 14.5 l130 109 q5 4 13 6.5 q8 2.5 19 2.5 l145 0 q11 0 19.5 -2.5 q8.5 -2.5 14.5 -7.5 l0 188 q0 13 3.5 22 q3.5 9 10.5 15 l129 109 q5 4 13.5 6.5 q8.5 2.5 18.5 2.5 l157 0 q24 0 35 -11 q11 -11 11 -35 l0 -495 q0 -47 -13.5 -86.5 q-13.5 -39.5 -47.5 -67.5 l-129 -109 q-34 -28 -92 -44 q-58 -16 -150 -16 ZM739 189 l0 495 q0 19 -8.5 27.5 q-8.5 8.5 -27.5 8.5 l-157 0 q-19 0 -27.5 -8.5 q-8.5 -8.5 -8.5 -27.5 l0 -455 q0 -20 -11.5 -33.5 q-11.5 -13.5 -54.5 -13.5 q-46 0 -58.5 13.5 q-12.5 13.5 -12.5 33.5 l0 122 q0 19 -8.5 27.5 q-8.5 8.5 -27.5 8.5 l-145 0 q-19 0 -27.5 -8.5 q-8.5 -8.5 -8.5 -27.5 l0 -162 q0 -46 12.5 -83.5 q12.5 -37.5 45 -64 q32.5 -26.5 89 -41.5 q56.5 -15 143.5 -15 q88 0 145 15 q57 15 89.5 41.5 q32.5 26.5 45.5 64 q13 37.5 13 83.5 ZM619 630 l10 0 l0 -417 q0 -59 -37.5 -97 q-37.5 -38 -143.5 -38 q-56 0 -92.5 10 q-36.5 10 -57.5 27.5 q-21 17.5 -29.5 42.5 q-8.5 25 -8.5 55 l0 79 l10 0 l0 -79 q0 -57 37.5 -91 q37.5 -34 140.5 -34 q99 0 135 34.5 q36 34.5 36 90.5 l0 417 Z" /><glyph glyph-name="Jcircumflex" unicode="&#x134;" d="M735 850 l-87 28 q-7 2 -14.5 4 q-7.5 2 -17.5 2 q-10 0 -17.5 -2 q-7.5 -2 -14.5 -4 l-87 -28 l0 11 l83 27 q9 2 17 4 q8 2 19 2 q11 0 19 -2 q8 -2 17 -4 l83 -27 l0 -11 ZM585 797 q17 4 31 4 q14 0 31 -4 l137 -40 q26 -8 34 -2 q8 6 8 33 l0 81 q0 27 -8.5 35 q-8.5 8 -33.5 18 l-137 50 q-7 3 -15 4 q-8 1 -17 1 q-9 -1 -19.5 -3 q-10.5 -2 -19.5 -6 l-128 -46 q-24 -10 -32.5 -18 q-8.5 -8 -8.5 -35 l0 -81 q0 -27 8 -33 q8 -6 33 2 l137 40 ZM317 -134 q-91 0 -149.5 20.5 q-58.5 20.5 -92 54.5 q-33.5 34 -46 78 q-12.5 44 -12.5 91 l0 132 q0 13 3.5 22.5 q3.5 9.5 9.5 14.5 l130 109 q5 4 13 6.5 q8 2.5 19 2.5 l145 0 q11 0 19.5 -2.5 q8.5 -2.5 14.5 -7.5 l0 188 q0 13 3.5 22 q3.5 9 10.5 15 l80 68 q-1 -1 -3 -1 q-2 0 -3 -1 l-137 -40 q-33 -10 -43.5 -2.5 q-10.5 7.5 -10.5 43.5 l0 81 q0 19 3.5 29 q3.5 10 10.5 17 l131 109 l-1 -1 q5 5 13.5 9 q8.5 4 19.5 8 l127 46 q10 4 21.5 6.5 q11.5 2.5 21.5 3.5 q10 0 19 -1 q9 -1 16 -5 l138 -50 q30 -11 39 -21 q9 -10 9 -41 l0 -81 q0 -16 -3 -26 q-3 -10 -7 -14 l-1 -1 l-76 -63 l0 -495 q0 -47 -13.5 -86.5 q-13.5 -39.5 -47.5 -67.5 l-129 -109 q-34 -28 -92 -44 q-58 -16 -150 -16 ZM739 189 l0 495 q0 19 -8.5 27.5 q-8.5 8.5 -27.5 8.5 l-157 0 q-19 0 -27.5 -8.5 q-8.5 -8.5 -8.5 -27.5 l0 -455 q0 -20 -11.5 -33.5 q-11.5 -13.5 -54.5 -13.5 q-46 0 -58.5 13.5 q-12.5 13.5 -12.5 33.5 l0 122 q0 19 -8.5 27.5 q-8.5 8.5 -27.5 8.5 l-145 0 q-19 0 -27.5 -8.5 q-8.5 -8.5 -8.5 -27.5 l0 -162 q0 -46 12.5 -83.5 q12.5 -37.5 45 -64 q32.5 -26.5 89 -41.5 q56.5 -15 143.5 -15 q88 0 145 15 q57 15 89.5 41.5 q32.5 26.5 45.5 64 q13 37.5 13 83.5 ZM619 630 l10 0 l0 -417 q0 -59 -37.5 -97 q-37.5 -38 -143.5 -38 q-56 0 -92.5 10 q-36.5 10 -57.5 27.5 q-21 17.5 -29.5 42.5 q-8.5 25 -8.5 55 l0 79 l10 0 l0 -79 q0 -57 37.5 -91 q37.5 -34 140.5 -34 q99 0 135 34.5 q36 34.5 36 90.5 l0 417 Z" /><glyph glyph-name="K" unicode="k" d="M303 90 l-10 0 l0 540 l10 0 l0 -266 l217 0 l115 266 l11 0 l-115 -266 l41 0 q61 0 91 -23 q30 -23 30 -75 l0 -176 l-10 0 l0 176 q0 48 -28 68 q-28 20 -83 20 l-269 0 l0 -264 ZM375 0 q19 0 27.5 8.5 q8.5 8.5 8.5 27.5 l0 229 l132 0 q16 0 24 -9 q8 -9 8 -25 l0 -195 q0 -19 8.5 -27.5 q8.5 -8.5 27.5 -8.5 l154 0 q19 0 27.5 8.5 q8.5 8.5 8.5 27.5 l0 282 q0 60 -33.5 96.5 q-33.5 36.5 -89.5 39.5 l102 233 q7 16 1 24.5 q-6 8.5 -23 8.5 l-154 0 q-19 0 -31 -7.5 q-12 -7.5 -19 -25.5 l-103 -233 l-40 0 l0 230 q0 19 -8.5 27.5 q-8.5 8.5 -27.5 8.5 l-155 0 q-19 0 -27.5 -8.5 q-8.5 -8.5 -8.5 -27.5 l0 -648 q0 -19 8.5 -27.5 q8.5 -8.5 27.5 -8.5 l155 0 ZM407 -1 l-130 -108 q-4 -4 -12.5 -7 q-8.5 -3 -18.5 -3 l-155 0 q-24 0 -35 11 q-11 11 -11 35 l0 648 q0 13 3.5 22 q3.5 9 10.5 15 l129 109 q5 4 13.5 6.5 q8.5 2.5 18.5 2.5 l155 0 q24 0 35 -11 q11 -11 11 -35 l0 -91 q3 4 6 8.5 q3 4.5 7 7.5 l129 109 q7 6 17.5 9 q10.5 3 23.5 3 l154 0 q25 0 33 -12.5 q8 -12.5 -2 -34.5 l-96 -220 q54 -7 86 -46 q32 -39 32 -99 l0 -282 q0 -13 -3.5 -22 q-3.5 -9 -10.5 -15 l-130 -108 q-4 -4 -12.5 -7 q-8.5 -3 -18.5 -3 l-154 0 q-24 0 -35 11 q-11 11 -11 35 l0 195 q0 10 -4 16 q-4 6 -11 7 l0 -109 q0 -13 -3.5 -22 q-3.5 -9 -10.5 -15 Z" /><glyph glyph-name="Kcommaaccent" unicode="&#x136;" d="M442 -452 q-17 -14 -40.5 -21.5 q-23.5 -7.5 -51.5 -7.5 l-66 0 q-21 0 -30.5 9.5 q-9.5 9.5 -9.5 31.5 l0 34 q0 13 3 20.5 q3 7.5 9 11.5 l30 25 l-6 0 q-26 0 -36.5 10.5 q-10.5 10.5 -10.5 38.5 l0 109 q0 16 3 25.5 q3 9.5 10 15.5 l130 108 l-1 -1 q4 4 12.5 7 q8.5 3 21.5 3 l27 0 l0 155 q0 10 -4 16 q-4 6 -11 7 l0 -109 q0 -13 -3.5 -22 q-3.5 -9 -10.5 -15 l-130 -108 q-4 -4 -12.5 -7 q-8.5 -3 -18.5 -3 l-155 0 q-24 0 -35 11 q-11 11 -11 35 l0 648 q0 13 3.5 22 q3.5 9 10.5 15 l129 109 q5 4 13.5 6.5 q8.5 2.5 18.5 2.5 l155 0 q24 0 35 -11 q11 -11 11 -35 l0 -91 q3 4 6 8.5 q3 4.5 7 7.5 l129 109 q7 6 17.5 9 q10.5 3 23.5 3 l154 0 q25 0 33 -12.5 q8 -12.5 -2 -34.5 l-96 -220 q54 -7 86 -46 q32 -39 32 -99 l0 -282 q0 -13 -3.5 -22 q-3.5 -9 -10.5 -15 l-130 -108 q-4 -4 -12.5 -7 q-8.5 -3 -18.5 -3 l-22 0 l0 -115 q0 -37 -11.5 -64.5 q-11.5 -27.5 -31.5 -44.5 l-129 -109 ZM303 90 l-10 0 l0 540 l10 0 l0 -266 l217 0 l115 266 l11 0 l-115 -266 l41 0 q61 0 91 -23 q30 -23 30 -75 l0 -176 l-10 0 l0 176 q0 48 -28 68 q-28 20 -83 20 l-269 0 l0 -264 ZM375 0 q19 0 27.5 8.5 q8.5 8.5 8.5 27.5 l0 229 l132 0 q16 0 24 -9 q8 -9 8 -25 l0 -195 q0 -19 8.5 -27.5 q8.5 -8.5 27.5 -8.5 l154 0 q19 0 27.5 8.5 q8.5 8.5 8.5 27.5 l0 282 q0 60 -33.5 96.5 q-33.5 36.5 -89.5 39.5 l102 233 q7 16 1 24.5 q-6 8.5 -23 8.5 l-154 0 q-19 0 -31 -7.5 q-12 -7.5 -19 -25.5 l-103 -233 l-40 0 l0 230 q0 19 -8.5 27.5 q-8.5 8.5 -27.5 8.5 l-155 0 q-19 0 -27.5 -8.5 q-8.5 -8.5 -8.5 -27.5 l0 -648 q0 -19 8.5 -27.5 q8.5 -8.5 27.5 -8.5 l155 0 ZM479 -362 q57 0 91 32 q34 32 34 96 l0 152 q0 22 -8 30.5 q-8 8.5 -29 8.5 l-158 0 q-21 0 -29 -8.5 q-8 -8.5 -8 -30.5 l0 -109 q0 -22 8 -30.5 q8 -8.5 29 -8.5 l86 0 l0 -13 q0 -11 -6 -17.5 q-6 -6.5 -17 -6.5 l-59 0 q-16 0 -23 -7 q-7 -7 -7 -23 l0 -34 q0 -16 7 -23.5 q7 -7.5 23 -7.5 l66 0 ZM547 -132 l0 -97 q0 -46 -21.5 -66 q-21.5 -20 -61.5 -20 l-35 0 l0 10 l35 0 q36 0 54.5 18 q18.5 18 18.5 58 l0 87 l-108 0 l0 10 l118 0 Z" /><glyph glyph-name="L" unicode="l" d="M600 -119 l-509 0 q-24 0 -35 11 q-11 11 -11 35 l0 648 q0 13 3.5 22 q3.5 9 10.5 15 l129 109 q5 4 13.5 6.5 q8.5 2.5 18.5 2.5 l155 0 q24 0 35 -11 q11 -11 11 -35 l0 -407 l2 2 l129 109 q5 4 13.5 6.5 q8.5 2.5 18.5 2.5 l145 0 q24 0 35 -11 q11 -11 11 -35 l0 -315 q0 -13 -3.5 -22 q-3.5 -9 -10.5 -15 l-130 -108 q-4 -4 -12.5 -7 q-8.5 -3 -18.5 -3 ZM729 0 q19 0 27.5 8.5 q8.5 8.5 8.5 27.5 l0 315 q0 19 -8.5 27.5 q-8.5 8.5 -27.5 8.5 l-145 0 q-19 0 -27.5 -8.5 q-8.5 -8.5 -8.5 -27.5 l0 -162 l-137 0 l0 495 q0 19 -8.5 27.5 q-8.5 8.5 -27.5 8.5 l-155 0 q-19 0 -27.5 -8.5 q-8.5 -8.5 -8.5 -27.5 l0 -648 q0 -19 8.5 -27.5 q8.5 -8.5 27.5 -8.5 l509 0 ZM293 90 l0 540 l10 0 l0 -530 l348 0 l0 197 l10 0 l0 -207 l-368 0 Z" /><glyph glyph-name="Lacute" unicode="&#x139;" d="M600 -119 l-509 0 q-24 0 -35 11 q-11 11 -11 35 l0 648 q0 13 3.5 22 q3.5 9 10.5 15 l25 21 q-19 -1 -29 10.5 q-10 11.5 -10 33.5 l0 96 q0 13 3.5 21.5 q3.5 8.5 9.5 13.5 l130 109 q4 4 12.5 7 q8.5 3 18.5 4 l349 43 q22 3 33.5 -8.5 q11.5 -11.5 11.5 -34.5 l0 -96 q0 -13 -3.5 -22 q-3.5 -9 -10.5 -13 l-129 -109 q-5 -4 -13 -6.5 q-8 -2.5 -18 -4.5 l-18 -2 l0 -398 l2 2 l129 109 q5 4 13.5 6.5 q8.5 2.5 18.5 2.5 l145 0 q24 0 35 -11 q11 -11 11 -35 l0 -315 q0 -13 -3.5 -22 q-3.5 -9 -10.5 -15 l-130 -108 q-4 -4 -12.5 -7 q-8.5 -3 -18.5 -3 ZM567 796 q19 2 27.5 9.5 q8.5 7.5 8.5 26.5 l0 96 q0 17 -8.5 26 q-8.5 9 -25.5 7 l-349 -43 q-19 -2 -27.5 -9.5 q-8.5 -7.5 -8.5 -26.5 l0 -96 q0 -17 8.5 -26 q8.5 -9 25.5 -7 l349 43 ZM274 847 l239 30 l0 -10 l-239 -30 l0 10 ZM729 0 q19 0 27.5 8.5 q8.5 8.5 8.5 27.5 l0 315 q0 19 -8.5 27.5 q-8.5 8.5 -27.5 8.5 l-145 0 q-19 0 -27.5 -8.5 q-8.5 -8.5 -8.5 -27.5 l0 -162 l-137 0 l0 495 q0 19 -8.5 27.5 q-8.5 8.5 -27.5 8.5 l-155 0 q-19 0 -27.5 -8.5 q-8.5 -8.5 -8.5 -27.5 l0 -648 q0 -19 8.5 -27.5 q8.5 -8.5 27.5 -8.5 l509 0 ZM293 90 l0 540 l10 0 l0 -530 l348 0 l0 197 l10 0 l0 -207 l-368 0 Z" /><glyph glyph-name="Lcommaaccent" unicode="&#x13b;" d="M341 -481 l-66 0 q-21 0 -30.5 9.5 q-9.5 9.5 -9.5 31.5 l0 34 q0 13 3 20.5 q3 7.5 9 11.5 l30 25 l-6 0 q-26 0 -36.5 10.5 q-10.5 10.5 -10.5 38.5 l0 109 q0 16 3 25.5 q3 9.5 10 15.5 l37 31 l-183 0 q-24 0 -35 11 q-11 11 -11 35 l0 648 q0 13 3.5 22 q3.5 9 10.5 15 l129 109 q5 4 13.5 6.5 q8.5 2.5 18.5 2.5 l155 0 q24 0 35 -11 q11 -11 11 -35 l0 -407 l2 2 l129 109 q5 4 13.5 6.5 q8.5 2.5 18.5 2.5 l145 0 q24 0 35 -11 q11 -11 11 -35 l0 -315 q0 -13 -3.5 -22 q-3.5 -9 -10.5 -15 l-130 -108 q-4 -4 -11.5 -7 q-7.5 -3 -14.5 -3 l0 -115 q0 -37 -11.5 -64.5 q-11.5 -27.5 -31.5 -44.5 l-129 -109 q-17 -14 -40.5 -21.5 q-23.5 -7.5 -51.5 -7.5 ZM729 0 q19 0 27.5 8.5 q8.5 8.5 8.5 27.5 l0 315 q0 19 -8.5 27.5 q-8.5 8.5 -27.5 8.5 l-145 0 q-19 0 -27.5 -8.5 q-8.5 -8.5 -8.5 -27.5 l0 -162 l-137 0 l0 495 q0 19 -8.5 27.5 q-8.5 8.5 -27.5 8.5 l-155 0 q-19 0 -27.5 -8.5 q-8.5 -8.5 -8.5 -27.5 l0 -648 q0 -19 8.5 -27.5 q8.5 -8.5 27.5 -8.5 l509 0 ZM293 90 l0 540 l10 0 l0 -530 l348 0 l0 197 l10 0 l0 -207 l-368 0 ZM470 -362 q57 0 91 32 q34 32 34 96 l0 152 q0 22 -8 30.5 q-8 8.5 -29 8.5 l-158 0 q-21 0 -29 -8.5 q-8 -8.5 -8 -30.5 l0 -109 q0 -22 8 -30.5 q8 -8.5 29 -8.5 l86 0 l0 -13 q0 -11 -6 -17.5 q-6 -6.5 -17 -6.5 l-59 0 q-16 0 -23 -7 q-7 -7 -7 -23 l0 -34 q0 -16 7 -23.5 q7 -7.5 23 -7.5 l66 0 ZM538 -132 l0 -97 q0 -46 -21.5 -66 q-21.5 -20 -61.5 -20 l-35 0 l0 10 l35 0 q36 0 54.5 18 q18.5 18 18.5 58 l0 87 l-108 0 l0 10 l118 0 Z" /><glyph glyph-name="Lcaron" unicode="&#x13d;" d="M600 -119 l-509 0 q-24 0 -35 11 q-11 11 -11 35 l0 648 q0 13 3.5 22 q3.5 9 10.5 15 l129 109 q5 4 13.5 6.5 q8.5 2.5 18.5 2.5 l155 0 q24 0 35 -11 q11 -11 11 -35 l0 -75 q1 1 2 2 q1 1 2 2 l129 108 q5 4 12.5 6.5 q7.5 2.5 17.5 2.5 l138 0 q25 0 38 -13 q13 -13 8 -35 l-47 -196 q-3 -13 -7 -21.5 q-4 -8.5 -10 -14.5 l-63 -53 l88 0 q24 0 35 -11 q11 -11 11 -35 l0 -315 q0 -13 -3.5 -22 q-3.5 -9 -10.5 -15 l-130 -108 q-4 -4 -12.5 -7 q-8.5 -3 -18.5 -3 ZM675 452 q19 0 25.5 9 q6.5 9 10.5 27 l47 196 q4 18 -6.5 27 q-10.5 9 -29.5 9 l-138 0 q-19 0 -26 -8.5 q-7 -8.5 -10 -27.5 l-33 -196 q-3 -19 7 -27.5 q10 -8.5 29 -8.5 l124 0 ZM729 0 q19 0 27.5 8.5 q8.5 8.5 8.5 27.5 l0 315 q0 19 -8.5 27.5 q-8.5 8.5 -27.5 8.5 l-145 0 q-19 0 -27.5 -8.5 q-8.5 -8.5 -8.5 -27.5 l0 -162 l-137 0 l0 495 q0 19 -8.5 27.5 q-8.5 8.5 -27.5 8.5 l-155 0 q-19 0 -27.5 -8.5 q-8.5 -8.5 -8.5 -27.5 l0 -648 q0 -19 8.5 -27.5 q8.5 -8.5 27.5 -8.5 l509 0 ZM629 537 l-11 0 l18 93 l11 0 l-18 -93 ZM293 90 l0 540 l10 0 l0 -530 l348 0 l0 197 l10 0 l0 -207 l-368 0 ZM421 277 l2 2 l64 54 l-66 0 l0 -56 Z" /><glyph glyph-name="M" unicode="m" d="M536 385 q18 0 26 8 q8 8 25 34 l122 186 q6 10 13.5 13.5 q7.5 3.5 15.5 3.5 l17 0 q14 0 20.5 -7.5 q6.5 -7.5 6.5 -23.5 l0 -509 l-10 0 l0 509 q0 8 -3.5 14.5 q-3.5 6.5 -13.5 6.5 l-15 0 q-7 0 -12 -2 q-5 -2 -11 -12 l-122 -184 q-18 -27 -27.5 -37 q-9.5 -10 -31.5 -10 q-22 0 -31.5 10 q-9.5 10 -27.5 37 l-122 184 q-6 10 -11.5 12 q-5.5 2 -12.5 2 l-15 0 q-10 0 -13 -6.5 q-3 -6.5 -3 -14.5 l0 -509 l-10 0 l0 509 q0 16 6.5 23.5 q6.5 7.5 19.5 7.5 l17 0 q8 0 16 -3.5 q8 -3.5 14 -13.5 l122 -186 q17 -26 25 -34 q8 -8 26 -8 ZM369 0 q19 0 27.5 8.5 q8.5 8.5 8.5 27.5 l0 352 l59 -109 q9 -17 21.5 -24.5 q12.5 -7.5 31.5 -7.5 l40 0 q19 0 31.5 7.5 q12.5 7.5 21.5 24.5 l59 109 l0 -352 q0 -19 8.5 -27.5 q8.5 -8.5 27.5 -8.5 l154 0 q19 0 27.5 8.5 q8.5 8.5 8.5 27.5 l0 648 q0 19 -8.5 27.5 q-8.5 8.5 -27.5 8.5 l-162 0 q-16 0 -26.5 -7 q-10.5 -7 -19.5 -23 l-89 -163 q-5 -9 -8.5 -13 q-3.5 -4 -9.5 -4 l-9 0 q-6 0 -9.5 4 q-3.5 4 -8.5 13 l-90 163 q-9 16 -19.5 23 q-10.5 7 -26.5 7 l-161 0 q-19 0 -27.5 -8.5 q-8.5 -8.5 -8.5 -27.5 l0 -648 q0 -19 8.5 -27.5 q8.5 -8.5 27.5 -8.5 l149 0 ZM401 -1 l-130 -108 q-4 -4 -12.5 -7 q-8.5 -3 -18.5 -3 l-149 0 q-24 0 -35 11 q-11 11 -11 35 l0 648 q0 13 3.5 22 q3.5 9 10.5 15 l129 109 q5 4 13.5 6.5 q8.5 2.5 18.5 2.5 l161 0 q19 0 31.5 -8 q12.5 -8 23.5 -27 l68 -125 l9 16 q4 7 8.5 13.5 q4.5 6.5 9.5 10.5 l129 108 q8 6 16.5 9 q8.5 3 20.5 3 l162 0 q24 0 35 -11 q11 -11 11 -35 l0 -648 q0 -13 -3.5 -22 q-3.5 -9 -10.5 -15 l-130 -108 q-4 -4 -12.5 -7 q-8.5 -3 -18.5 -3 l-154 0 q-25 0 -35.5 11 q-10.5 11 -10.5 35 l0 264 l-59 -49 q-8 -7 -18.5 -10.5 q-10.5 -3.5 -24.5 -3.5 l-13 0 l0 -92 q0 -13 -3.5 -22 q-3.5 -9 -10.5 -15 Z" /><glyph glyph-name="N" unicode="n" d="M316 622 l368 -414 l0 422 l10 0 l0 -540 l-10 0 l0 103 l-378 424 q-1 1 -2.5 2 q-1.5 1 -2.5 1 q-1 0 -1.5 -1 q-0.5 -1 -0.5 -2 l0 -527 l-10 0 l0 529 q0 6 4 9 q4 3 8 3 q4 0 7 -2 q3 -2 8 -7 ZM370 0 q19 0 27.5 8.5 q8.5 8.5 8.5 27.5 l0 330 l171 -207 l0 -123 q0 -19 8.5 -27.5 q8.5 -8.5 27.5 -8.5 l150 0 q19 0 27.5 8.5 q8.5 8.5 8.5 27.5 l0 648 q0 19 -8.5 27.5 q-8.5 8.5 -27.5 8.5 l-150 0 q-19 0 -27.5 -8.5 q-8.5 -8.5 -8.5 -27.5 l0 -213 l-194 222 q-13 15 -26.5 21 q-13.5 6 -32.5 6 l-104 0 q-19 0 -27.5 -8.5 q-8.5 -8.5 -8.5 -27.5 l0 -648 q0 -19 8.5 -27.5 q8.5 -8.5 27.5 -8.5 l150 0 ZM402 -1 l-130 -108 q-4 -4 -12.5 -7 q-8.5 -3 -18.5 -3 l-150 0 q-24 0 -35 11 q-11 11 -11 35 l0 648 q0 13 3.5 22 q3.5 9 10.5 15 l129 109 q5 4 13.5 6.5 q8.5 2.5 18.5 2.5 l104 0 q22 0 37 -7 q15 -7 30 -23 l69 -80 l121 101 q5 4 13.5 6.5 q8.5 2.5 18.5 2.5 l150 0 q24 0 35 -11 q11 -11 11 -35 l0 -648 q0 -13 -3.5 -22 q-3.5 -9 -10.5 -15 l-130 -108 q-4 -4 -12.5 -7 q-8.5 -3 -18.5 -3 l-150 0 q-24 0 -35 11 q-11 11 -11 35 l0 119 l-22 27 l0 -37 q0 -13 -3.5 -22 q-3.5 -9 -10.5 -15 Z" /><glyph glyph-name="Ntilde" unicode="ñ" d="M490 764 l16 -2 q30 -4 49.5 -6.5 q19.5 -2.5 35.5 -2.5 q16 0 32 3.5 q16 3.5 40 10.5 q17 7 26.5 14.5 q9.5 7.5 9.5 26.5 l0 101 q0 19 -9 25 q-9 6 -27 1 q-22 -7 -36 -11 q-14 -4 -28.5 -5 q-14.5 -1 -34 1 q-19.5 2 -52.5 7 l-22 3 l-17 2 q-30 4 -49.5 6.5 q-19.5 2.5 -35 2.5 q-15.5 0 -31.5 -3.5 q-16 -3.5 -40 -10.5 q-17 -7 -26.5 -14.5 q-9.5 -7.5 -9.5 -26.5 l0 -101 q0 -19 9 -25 q9 -6 27 -1 q20 6 34.5 9.5 q14.5 3.5 29.5 5 q15 1.5 34 0 q19 -1.5 47 -5.5 l28 -4 ZM609 841 l0 -10 q-20 -2 -43 0 q-23 2 -61 8 l-16 2 l-28 4 q-33 5 -53.5 6 q-20.5 1 -36.5 -2 l0 11 q17 2 37.5 0.5 q20.5 -1.5 54.5 -5.5 l28 -4 l16 -2 q38 -6 60 -8 q22 -2 42 0 ZM460 620 l18 15 q-7 -1 -15 -1 q-8 0 -15 0 l12 -14 ZM316 622 l368 -414 l0 422 l10 0 l0 -540 l-10 0 l0 103 l-378 424 q-1 1 -2.5 2 q-1.5 1 -2.5 1 q-1 0 -1.5 -1 q-0.5 -1 -0.5 -2 l0 -527 l-10 0 l0 529 q0 6 4 9 q4 3 8 3 q4 0 7 -2 q3 -2 8 -7 ZM370 0 q19 0 27.5 8.5 q8.5 8.5 8.5 27.5 l0 330 l171 -207 l0 -123 q0 -19 8.5 -27.5 q8.5 -8.5 27.5 -8.5 l150 0 q19 0 27.5 8.5 q8.5 8.5 8.5 27.5 l0 648 q0 19 -8.5 27.5 q-8.5 8.5 -27.5 8.5 l-150 0 q-19 0 -27.5 -8.5 q-8.5 -8.5 -8.5 -27.5 l0 -213 l-194 222 q-13 15 -26.5 21 q-13.5 6 -32.5 6 l-104 0 q-19 0 -27.5 -8.5 q-8.5 -8.5 -8.5 -27.5 l0 -648 q0 -19 8.5 -27.5 q8.5 -8.5 27.5 -8.5 l150 0 ZM272 -109 q-4 -4 -12.5 -7 q-8.5 -3 -18.5 -3 l-150 0 q-24 0 -35 11 q-11 11 -11 35 l0 648 q0 13 3.5 22 q3.5 9 10.5 15 l83 70 l0 95 q0 13 3.5 21.5 q3.5 8.5 11.5 15.5 l129 108 q4 4 11.5 7.5 q7.5 3.5 15.5 6.5 l1 0 l0 1 q24 7 40.5 10.5 q16.5 3.5 33 3.5 q16.5 0 36 -2.5 q19.5 -2.5 50.5 -6.5 l17 -2 l22 -3 q32 -5 51 -7 q19 -2 33 -1 q14 1 28 5 q14 4 35 11 q25 7 37 -2 q12 -9 12 -34 l0 -101 q0 -13 -4 -21.5 q-4 -8.5 -11 -14.5 l-50 -42 l119 0 q24 0 35 -11 q11 -11 11 -35 l0 -648 q0 -13 -3.5 -22 q-3.5 -9 -10.5 -15 l-130 -108 q-4 -4 -12.5 -7 q-8.5 -3 -18.5 -3 l-150 0 q-24 0 -35 11 q-11 11 -11 35 l0 119 l-22 27 l0 -37 q0 -13 -3.5 -22 q-3.5 -9 -10.5 -15 l-130 -108 Z" /><glyph glyph-name="Nacute" unicode="&#x143;" d="M674 796 q19 2 27.5 9.5 q8.5 7.5 8.5 26.5 l0 96 q0 17 -8.5 26 q-8.5 9 -25.5 7 l-349 -43 q-19 -2 -27.5 -9.5 q-8.5 -7.5 -8.5 -26.5 l0 -96 q0 -17 8.5 -26 q8.5 -9 25.5 -7 l349 43 ZM381 847 l239 30 l0 -10 l-239 -30 l0 10 ZM460 620 l65 54 l-101 -12 l36 -42 ZM316 622 l368 -414 l0 422 l10 0 l0 -540 l-10 0 l0 103 l-378 424 q-1 1 -2.5 2 q-1.5 1 -2.5 1 q-1 0 -1.5 -1 q-0.5 -1 -0.5 -2 l0 -527 l-10 0 l0 529 q0 6 4 9 q4 3 8 3 q4 0 7 -2 q3 -2 8 -7 ZM370 0 q19 0 27.5 8.5 q8.5 8.5 8.5 27.5 l0 330 l171 -207 l0 -123 q0 -19 8.5 -27.5 q8.5 -8.5 27.5 -8.5 l150 0 q19 0 27.5 8.5 q8.5 8.5 8.5 27.5 l0 648 q0 19 -8.5 27.5 q-8.5 8.5 -27.5 8.5 l-150 0 q-19 0 -27.5 -8.5 q-8.5 -8.5 -8.5 -27.5 l0 -213 l-194 222 q-13 15 -26.5 21 q-13.5 6 -32.5 6 l-104 0 q-19 0 -27.5 -8.5 q-8.5 -8.5 -8.5 -27.5 l0 -648 q0 -19 8.5 -27.5 q8.5 -8.5 27.5 -8.5 l150 0 ZM272 -109 q-4 -4 -12.5 -7 q-8.5 -3 -18.5 -3 l-150 0 q-24 0 -35 11 q-11 11 -11 35 l0 648 q0 13 3.5 22 q3.5 9 10.5 15 l93 79 l0 82 q0 13 3.5 21.5 q3.5 8.5 9.5 13.5 l130 109 q4 4 12.5 7 q8.5 3 18.5 4 l349 43 q22 3 33.5 -8.5 q11.5 -11.5 11.5 -34.5 l0 -96 q0 -13 -3.5 -22 q-3.5 -9 -10.5 -13 l-79 -67 l136 0 q24 0 35 -11 q11 -11 11 -35 l0 -648 q0 -13 -3.5 -22 q-3.5 -9 -10.5 -15 l-130 -108 q-4 -4 -12.5 -7 q-8.5 -3 -18.5 -3 l-150 0 q-24 0 -35 11 q-11 11 -11 35 l0 119 l-22 27 l0 -37 q0 -13 -3.5 -22 q-3.5 -9 -10.5 -15 l-130 -108 Z" /><glyph glyph-name="Ncommaaccent" unicode="&#x145;" d="M445 -452 q-17 -14 -40.5 -21.5 q-23.5 -7.5 -51.5 -7.5 l-66 0 q-21 0 -30.5 9.5 q-9.5 9.5 -9.5 31.5 l0 34 q0 13 3 20.5 q3 7.5 9 11.5 l30 25 l-6 0 q-26 0 -36.5 10.5 q-10.5 10.5 -10.5 38.5 l0 109 q0 16 3 25.5 q3 9.5 10 15.5 l130 108 l-1 -1 q4 4 12.5 7 q8.5 3 21.5 3 l26 0 l0 79 l-22 27 l0 -37 q0 -13 -3.5 -22 q-3.5 -9 -10.5 -15 l-130 -108 q-4 -4 -12.5 -7 q-8.5 -3 -18.5 -3 l-150 0 q-24 0 -35 11 q-11 11 -11 35 l0 648 q0 13 3.5 22 q3.5 9 10.5 15 l129 109 q5 4 13.5 6.5 q8.5 2.5 18.5 2.5 l104 0 q22 0 37 -7 q15 -7 30 -23 l69 -80 l121 101 q5 4 13.5 6.5 q8.5 2.5 18.5 2.5 l150 0 q24 0 35 -11 q11 -11 11 -35 l0 -648 q0 -13 -3.5 -22 q-3.5 -9 -10.5 -15 l-130 -108 q-4 -4 -12.5 -7 q-8.5 -3 -18.5 -3 l-17 0 l0 -115 q0 -37 -11.5 -64.5 q-11.5 -27.5 -31.5 -44.5 l-129 -109 ZM316 622 l368 -414 l0 422 l10 0 l0 -540 l-10 0 l0 103 l-378 424 q-1 1 -2.5 2 q-1.5 1 -2.5 1 q-1 0 -1.5 -1 q-0.5 -1 -0.5 -2 l0 -527 l-10 0 l0 529 q0 6 4 9 q4 3 8 3 q4 0 7 -2 q3 -2 8 -7 ZM370 0 q19 0 27.5 8.5 q8.5 8.5 8.5 27.5 l0 330 l171 -207 l0 -123 q0 -19 8.5 -27.5 q8.5 -8.5 27.5 -8.5 l150 0 q19 0 27.5 8.5 q8.5 8.5 8.5 27.5 l0 648 q0 19 -8.5 27.5 q-8.5 8.5 -27.5 8.5 l-150 0 q-19 0 -27.5 -8.5 q-8.5 -8.5 -8.5 -27.5 l0 -213 l-194 222 q-13 15 -26.5 21 q-13.5 6 -32.5 6 l-104 0 q-19 0 -27.5 -8.5 q-8.5 -8.5 -8.5 -27.5 l0 -648 q0 -19 8.5 -27.5 q8.5 -8.5 27.5 -8.5 l150 0 ZM482 -362 q57 0 91 32 q34 32 34 96 l0 152 q0 22 -8 30.5 q-8 8.5 -29 8.5 l-158 0 q-21 0 -29 -8.5 q-8 -8.5 -8 -30.5 l0 -109 q0 -22 8 -30.5 q8 -8.5 29 -8.5 l86 0 l0 -13 q0 -11 -6 -17.5 q-6 -6.5 -17 -6.5 l-59 0 q-16 0 -23 -7 q-7 -7 -7 -23 l0 -34 q0 -16 7 -23.5 q7 -7.5 23 -7.5 l66 0 ZM550 -132 l0 -97 q0 -46 -21.5 -66 q-21.5 -20 -61.5 -20 l-35 0 l0 10 l35 0 q36 0 54.5 18 q18.5 18 18.5 58 l0 87 l-108 0 l0 10 l118 0 Z" /><glyph glyph-name="Ncaron" unicode="&#x147;" d="M512 932 q-17 -4 -31 -4 q-14 0 -31 4 l-137 40 q-26 8 -34 2 q-8 -6 -8 -33 l0 -81 q0 -27 8.5 -35 q8.5 -8 33.5 -18 l137 -50 q7 -3 15 -4 q8 -1 17 -1 q9 1 19.5 3 q10.5 2 19.5 6 l128 46 q24 10 32.5 18 q8.5 8 8.5 35 l0 81 q0 27 -8 33 q-8 6 -33 -2 l-137 -40 ZM361 879 l87 -28 q7 -2 14.5 -4 q7.5 -2 17.5 -2 q10 0 17.5 2 q7.5 2 14.5 4 l87 28 l0 -11 l-83 -27 q-9 -2 -17 -4 q-8 -2 -19 -2 q-11 0 -19 2 q-8 2 -17 4 l-83 27 l0 11 ZM316 622 l368 -414 l0 422 l10 0 l0 -540 l-10 0 l0 103 l-378 424 q-1 1 -2.5 2 q-1.5 1 -2.5 1 q-1 0 -1.5 -1 q-0.5 -1 -0.5 -2 l0 -527 l-10 0 l0 529 q0 6 4 9 q4 3 8 3 q4 0 7 -2 q3 -2 8 -7 ZM370 0 q19 0 27.5 8.5 q8.5 8.5 8.5 27.5 l0 330 l171 -207 l0 -123 q0 -19 8.5 -27.5 q8.5 -8.5 27.5 -8.5 l150 0 q19 0 27.5 8.5 q8.5 8.5 8.5 27.5 l0 648 q0 19 -8.5 27.5 q-8.5 8.5 -27.5 8.5 l-150 0 q-19 0 -27.5 -8.5 q-8.5 -8.5 -8.5 -27.5 l0 -213 l-194 222 q-13 15 -26.5 21 q-13.5 6 -32.5 6 l-104 0 q-19 0 -27.5 -8.5 q-8.5 -8.5 -8.5 -27.5 l0 -648 q0 -19 8.5 -27.5 q8.5 -8.5 27.5 -8.5 l150 0 ZM272 -109 q-4 -4 -12.5 -7 q-8.5 -3 -18.5 -3 l-150 0 q-24 0 -35 11 q-11 11 -11 35 l0 648 q0 13 3.5 22 q3.5 9 10.5 15 l101 85 q-17 7 -22.5 18 q-5.5 11 -5.5 36 l0 81 q0 17 2.5 27 q2.5 10 8.5 14 l129 109 q5 4 15.5 4.5 q10.5 0.5 28.5 -4.5 l137 -40 q16 -4 28 -4 q12 0 28 4 l137 40 q33 10 43.5 2.5 q10.5 -7.5 10.5 -43.5 l0 -81 q0 -19 -4 -29 q-4 -10 -12 -17 l-129 -109 q-6 -4 -13.5 -8 q-7.5 -4 -17.5 -8 l-95 -34 l31 -35 l121 101 q5 4 13.5 6.5 q8.5 2.5 18.5 2.5 l150 0 q24 0 35 -11 q11 -11 11 -35 l0 -648 q0 -13 -3.5 -22 q-3.5 -9 -10.5 -15 l-130 -108 q-4 -4 -12.5 -7 q-8.5 -3 -18.5 -3 l-150 0 q-24 0 -35 11 q-11 11 -11 35 l0 119 l-22 27 l0 -37 q0 -13 -3.5 -22 q-3.5 -9 -10.5 -15 l-130 -108 Z" /><glyph glyph-name="O" unicode="o" d="M615 -71 q-35 -30 -98 -46.5 q-63 -16.5 -162 -16.5 q-98 0 -160.5 20.5 q-62.5 20.5 -98 54.5 q-35.5 34 -49 78 q-13.5 44 -13.5 91 l0 311 q0 46 13 85.5 q13 39.5 47 67.5 l130 108 q35 30 97.5 46.5 q62.5 16.5 162.5 16.5 q98 0 160.5 -16 q62.5 -16 98 -44.5 q35.5 -28.5 48.5 -68 q13 -39.5 13 -86.5 l0 -341 q0 -46 -13 -85 q-13 -39 -47 -67 l-129 -108 ZM794 189 l0 341 q0 46 -13.5 83.5 q-13.5 37.5 -48 64.5 q-34.5 27 -95 42 q-60.5 15 -153.5 15 q-93 0 -154 -15 q-61 -15 -95.5 -42 q-34.5 -27 -48 -64.5 q-13.5 -37.5 -13.5 -83.5 l0 -341 q0 -46 13.5 -83.5 q13.5 -37.5 48 -64 q34.5 -26.5 95.5 -41.5 q61 -15 154 -15 q93 0 153.5 15 q60.5 15 95 41.5 q34.5 26.5 48 64 q13.5 37.5 13.5 83.5 ZM685 212 q0 -60 -43 -97.5 q-43 -37.5 -160 -37.5 q-117 0 -159 37.5 q-42 37.5 -42 97.5 l0 295 q0 60 42 97.5 q42 37.5 159 37.5 q117 0 160 -37.5 q43 -37.5 43 -97.5 l0 -295 ZM291 212 q0 -56 40 -90.5 q40 -34.5 151 -34.5 q111 0 152 34.5 q41 34.5 41 90.5 l0 295 q0 56 -41 90.5 q-41 34.5 -152 34.5 q-111 0 -151 -34.5 q-40 -34.5 -40 -90.5 l0 -295 ZM400 225 l0 269 q0 19 15 32.5 q15 13.5 69 13.5 q54 0 69 -13.5 q15 -13.5 15 -32.5 l0 -269 q0 -20 -15 -33.5 q-15 -13.5 -69 -13.5 q-54 0 -69 13.5 q-15 13.5 -15 33.5 ZM410 225 q0 -10 4 -17.5 q4 -7.5 15 -12.5 l0 190 q0 10 -4 17.5 q-4 7.5 -15 11.5 l0 -189 Z" /><glyph glyph-name="Ograve" unicode="ò" d="M355 -134 q-98 0 -160.5 20.5 q-62.5 20.5 -98 54.5 q-35.5 34 -49 78 q-13.5 44 -13.5 91 l0 311 q0 46 13 85.5 q13 39.5 47 67.5 l119 99 l-34 4 q-24 3 -34.5 13 q-10.5 10 -10.5 33 l0 96 q0 13 3.5 21.5 q3.5 8.5 10.5 14.5 l129 109 q6 4 13.5 6 q7.5 2 17.5 1 l349 -43 q24 -3 34.5 -13 q10.5 -10 10.5 -33 l0 -96 q0 -13 -3.5 -21.5 q-3.5 -8.5 -10.5 -14.5 l-29 -25 q86 -25 115.5 -76 q29.5 -51 29.5 -119 l0 -341 q0 -46 -13 -85 q-13 -39 -47 -67 l-129 -108 q-35 -30 -98 -46.5 q-63 -16.5 -162 -16.5 ZM658 753 q17 -2 25.5 7 q8.5 9 8.5 26 l0 96 q0 19 -8.5 26.5 q-8.5 7.5 -27.5 9.5 l-349 43 q-17 2 -25.5 -7 q-8.5 -9 -8.5 -26 l0 -96 q0 -19 8.5 -26.5 q8.5 -7.5 27.5 -9.5 l349 -43 ZM363 867 l0 10 l239 -30 l0 -10 l-239 30 ZM794 189 l0 341 q0 46 -13.5 83.5 q-13.5 37.5 -48 64.5 q-34.5 27 -95 42 q-60.5 15 -153.5 15 q-93 0 -154 -15 q-61 -15 -95.5 -42 q-34.5 -27 -48 -64.5 q-13.5 -37.5 -13.5 -83.5 l0 -341 q0 -46 13.5 -83.5 q13.5 -37.5 48 -64 q34.5 -26.5 95.5 -41.5 q61 -15 154 -15 q93 0 153.5 15 q60.5 15 95 41.5 q34.5 26.5 48 64 q13.5 37.5 13.5 83.5 ZM685 212 q0 -60 -43 -97.5 q-43 -37.5 -160 -37.5 q-117 0 -159 37.5 q-42 37.5 -42 97.5 l0 295 q0 60 42 97.5 q42 37.5 159 37.5 q117 0 160 -37.5 q43 -37.5 43 -97.5 l0 -295 ZM291 212 q0 -56 40 -90.5 q40 -34.5 151 -34.5 q111 0 152 34.5 q41 34.5 41 90.5 l0 295 q0 56 -41 90.5 q-41 34.5 -152 34.5 q-111 0 -151 -34.5 q-40 -34.5 -40 -90.5 l0 -295 ZM400 225 l0 269 q0 19 15 32.5 q15 13.5 69 13.5 q54 0 69 -13.5 q15 -13.5 15 -32.5 l0 -269 q0 -20 -15 -33.5 q-15 -13.5 -69 -13.5 q-54 0 -69 13.5 q-15 13.5 -15 33.5 ZM410 225 q0 -10 4 -17.5 q4 -7.5 15 -12.5 l0 190 q0 10 -4 17.5 q-4 7.5 -15 11.5 l0 -189 Z" /><glyph glyph-name="Oacute" unicode="ó" d="M355 -134 q-98 0 -160.5 20.5 q-62.5 20.5 -98 54.5 q-35.5 34 -49 78 q-13.5 44 -13.5 91 l0 311 q0 46 13 85.5 q13 39.5 47 67.5 l72 60 q-16 1 -24 12.5 q-8 11.5 -8 30.5 l0 96 q0 13 3.5 21.5 q3.5 8.5 9.5 13.5 l130 109 q4 4 12.5 7 q8.5 3 18.5 4 l349 43 q22 3 33.5 -8.5 q11.5 -11.5 11.5 -34.5 l0 -96 q0 -13 -3.5 -22 q-3.5 -9 -10.5 -13 l-73 -62 q56 -10 93 -29 q37 -19 58 -45.5 q21 -26.5 29.5 -59.5 q8.5 -33 8.5 -71 l0 -341 q0 -46 -13 -85 q-13 -39 -47 -67 l-129 -108 q-35 -30 -98 -46.5 q-63 -16.5 -162 -16.5 ZM656 796 q19 2 27.5 9.5 q8.5 7.5 8.5 26.5 l0 96 q0 17 -8.5 26 q-8.5 9 -25.5 7 l-349 -43 q-19 -2 -27.5 -9.5 q-8.5 -7.5 -8.5 -26.5 l0 -96 q0 -17 8.5 -26 q8.5 -9 25.5 -7 l349 43 ZM363 847 l239 30 l0 -10 l-239 -30 l0 10 ZM794 189 l0 341 q0 46 -13.5 83.5 q-13.5 37.5 -48 64.5 q-34.5 27 -95 42 q-60.5 15 -153.5 15 q-93 0 -154 -15 q-61 -15 -95.5 -42 q-34.5 -27 -48 -64.5 q-13.5 -37.5 -13.5 -83.5 l0 -341 q0 -46 13.5 -83.5 q13.5 -37.5 48 -64 q34.5 -26.5 95.5 -41.5 q61 -15 154 -15 q93 0 153.5 15 q60.5 15 95 41.5 q34.5 26.5 48 64 q13.5 37.5 13.5 83.5 ZM685 212 q0 -60 -43 -97.5 q-43 -37.5 -160 -37.5 q-117 0 -159 37.5 q-42 37.5 -42 97.5 l0 295 q0 60 42 97.5 q42 37.5 159 37.5 q117 0 160 -37.5 q43 -37.5 43 -97.5 l0 -295 ZM291 212 q0 -56 40 -90.5 q40 -34.5 151 -34.5 q111 0 152 34.5 q41 34.5 41 90.5 l0 295 q0 56 -41 90.5 q-41 34.5 -152 34.5 q-111 0 -151 -34.5 q-40 -34.5 -40 -90.5 l0 -295 ZM400 225 l0 269 q0 19 15 32.5 q15 13.5 69 13.5 q54 0 69 -13.5 q15 -13.5 15 -32.5 l0 -269 q0 -20 -15 -33.5 q-15 -13.5 -69 -13.5 q-54 0 -69 13.5 q-15 13.5 -15 33.5 ZM410 225 q0 -10 4 -17.5 q4 -7.5 15 -12.5 l0 190 q0 10 -4 17.5 q-4 7.5 -15 11.5 l0 -189 Z" /></font>
</defs>
</svg>
