<?xml version="1.0" standalone="no"?>
<!DOCTYPE svg PUBLIC "-//W3C//DTD SVG 1.1//EN" "http://www.w3.org/Graphics/SVG/1.1/DTD/svg11.dtd" >
<svg xmlns="http://www.w3.org/2000/svg" xmlns:xlink="http://www.w3.org/1999/xlink" version="1.1">
<metadata>
Created by FontForge 20161003 at Thu Jun 29 04:02:01 2017
 By www-data
Generated  by Tong Duc Thinh - Sun Fower Media. 2005
</metadata>
<defs>
<font id="SFUHelveticaRegular" horiz-adv-x="556" >
  <font-face 
    font-family="SFUHelveticaRegular"
    font-weight="400"
    font-stretch="normal"
    units-per-em="1000"
    panose-1="0 0 4 0 0 0 0 0 0 0"
    ascent="800"
    descent="-200"
    x-height="523"
    cap-height="718"
    bbox="-166 -225 1000 1155"
    underline-thickness="50"
    underline-position="-175"
    unicode-range="U+0020-F002"
  />
<missing-glyph horiz-adv-x="500" 
d="M63 0v779h375v-779h-375zM125 63h250v654h-250v-654z" />
    <glyph glyph-name=".notdef" horiz-adv-x="500" 
d="M63 0v779h375v-779h-375zM125 63h250v654h-250v-654z" />
    <glyph glyph-name=".null" horiz-adv-x="0" 
 />
    <glyph glyph-name="nonmarkingreturn" horiz-adv-x="278" 
 />
    <glyph glyph-name="space" unicode=" " horiz-adv-x="278" 
 />
    <glyph glyph-name="exclam" unicode="!" horiz-adv-x="278" 
d="M187 102v-102h-97v102h97zM163 171h-49l-24 310v237h97v-237z" />
    <glyph glyph-name="quotedbl" unicode="&#x22;" horiz-adv-x="355" 
d="M70 463v255h73v-255h-73zM212 463v255h73v-255h-73z" />
    <glyph glyph-name="numbersign" unicode="#" 
d="M388 210l-29 -210h-66l29 210h-125l-29 -210h-66l29 210h-103l9 63h103l19 142h-103l9 63h103l29 210h67l-29 -210h124l29 210h67l-29 -210h103l-9 -63h-103l-20 -142h103l-9 -63h-103zM350 415h-124l-20 -142h125z" />
    <glyph glyph-name="dollar" unicode="$" 
d="M253 409v229q-55 0 -87 -34t-32 -82q0 -93 119 -113zM300 308v-254q63 0 99 39q33 34 33 87q0 40 -23 72q-22 29 -55 39zM503 521h-85q-6 47 -27 72q-28 33 -91 45v-239q124 -36 161 -64q59 -44 59 -139q0 -114 -79 -171q-60 -44 -141 -44v-96h-47v96q-221 12 -221 232
h88q5 -81 32 -114t101 -45v265q-98 23 -142 56q-65 48 -65 141q0 82 59.5 138.5t147.5 56.5v64h47v-64q197 -16 203 -190z" />
    <glyph glyph-name="percent" unicode="%" horiz-adv-x="889" 
d="M39 526q0 71 50 120t121 49q70 0 120 -49.5t50 -119.5q0 -71 -50 -121t-120 -50q-71 0 -121 49.5t-50 121.5zM109 526q0 -45 29.5 -73t70.5 -28q43 0 72 29.5t29 71.5t-29 70.5t-71 28.5t-71.5 -29t-29.5 -70zM509 164q0 71 50 120t121 49q70 0 120 -49.5t50 -119.5
q0 -71 -50 -121t-120 -50q-71 0 -121 49.5t-50 121.5zM579 164q0 -45 29.5 -73t70.5 -28q43 0 72 29.5t29 71.5t-29 70.5t-71 28.5t-71.5 -29t-29.5 -70zM669 703l-396 -722h-54l395 722h55z" />
    <glyph glyph-name="ampersand" unicode="&#x26;" horiz-adv-x="667" 
d="M417 141l-162 198q-67 -43 -90 -69q-33 -37 -33 -90q0 -60 50 -93q37 -26 79 -26q98 0 156 80zM286 439q90 62 90 124q0 43 -28 64q-20 15 -49 15q-84 0 -84 -78q0 -54 71 -125zM517 155l128 -155h-114l-67 82q-42 -48 -83 -69q-53 -28 -126 -28q-117 0 -173 73
q-38 51 -38 115q0 76 32.5 123.5t129.5 102.5q-44 54 -57 80q-19 36 -19 79q0 66 44 111q47 49 126 49t123 -47q38 -41 38 -101q0 -66 -45 -118q-25 -30 -84 -70l131 -156q19 51 29 112h83q-7 -90 -58 -183z" />
    <glyph glyph-name="quotesingle" unicode="'" horiz-adv-x="191" 
d="M59 463v255h73v-255h-73z" />
    <glyph glyph-name="parenleft" unicode="(" horiz-adv-x="333" 
d="M237 733h61q-76 -144 -100 -218q-36 -114 -36 -278q0 -113 39 -225q26 -78 98 -219h-59q-89 134 -125 222q-47 117 -47 246q0 127 44 244q40 107 125 228z" />
    <glyph glyph-name="parenright" unicode=")" horiz-adv-x="333" 
d="M96 -207h-61q77 144 100 218q36 114 36 278q0 113 -38 225q-27 78 -99 219h59q89 -134 125 -222q47 -117 47 -246q0 -127 -44 -244q-40 -107 -125 -228z" />
    <glyph glyph-name="asterisk" unicode="*" horiz-adv-x="389" 
d="M39 591l20 55l105 -38v110h60v-110l105 38l20 -55l-108 -34l67 -92l-49 -34l-65 94l-65 -94l-49 34l67 92z" />
    <glyph glyph-name="plus" unicode="+" horiz-adv-x="584" 
d="M256 289v216h73v-216h216v-73h-216v-216h-73v216h-217v73h217z" />
    <glyph glyph-name="comma" unicode="," horiz-adv-x="278" 
d="M87 0v106h104v-98q0 -139 -104 -155v46q53 5 53 101h-53z" />
    <glyph glyph-name="hyphen" unicode="-" horiz-adv-x="333" 
d="M289 322v-90h-245v90h245z" />
    <glyph glyph-name="hyphen" unicode="&#x2010;" horiz-adv-x="333" 
d="M289 322v-90h-245v90h245z" />
    <glyph glyph-name="period" unicode="." horiz-adv-x="278" 
d="M191 106v-106h-104v106h104z" />
    <glyph glyph-name="slash" unicode="/" horiz-adv-x="278" 
d="M295 737l-245 -756h-67l246 756h66z" />
    <glyph glyph-name="zero" unicode="0" 
d="M425 342q0 282 -147 282t-147 -282t147 -282t147 282zM519 342q0 -143 -45 -235q-61 -126 -196 -126t-196 126q-45 92 -45 235t45 235q61 126 196 126t196 -126q45 -92 45 -235z" />
    <glyph glyph-name="one" unicode="1" 
d="M359 703v-703h-94v499h-164v70q94 7 127 27q42 26 62 107h69z" />
    <glyph glyph-name="two" unicode="2" 
d="M132 451h-88q0 149 93 212q60 40 150 40q94 0 157 -57t63 -153q0 -85 -55 -143q-37 -39 -133 -92l-73 -40q-110 -60 -121 -135h382v-83h-481q6 187 165 279l93 54q71 41 93 64q36 38 36 100q0 50 -31 85q-37 42 -108 42q-86 0 -120 -68q-18 -36 -22 -105z" />
    <glyph glyph-name="three" unicode="3" 
d="M224 324v76q30 -2 46 -2q134 0 134 115q0 41 -26 71q-34 40 -104 40q-81 0 -114 -57q-18 -32 -23 -94h-86q0 95 44 154q58 76 183 76q100 0 160 -52q57 -51 57 -133q0 -61 -31 -102q-24 -32 -59 -43v-2q117 -38 117 -164q0 -95 -59 -156q-68 -70 -194 -70q-71 0 -130 31
q-94 49 -105 203h91q7 -155 150 -155q68 0 110.5 37.5t42.5 98.5q0 129 -164 129h-20q-13 -1 -20 -1z" />
    <glyph glyph-name="four" unicode="4" 
d="M523 171h-103v-171h-88v171h-307v86l322 446h73v-456h103v-76zM330 566l-224 -319h226v319h-2z" />
    <glyph glyph-name="five" unicode="5" 
d="M177 602l-30 -193q57 44 136 44q92 0 158 -58q73 -64 73 -167q0 -88 -45 -153q-66 -94 -210 -94q-85 0 -142 38q-73 50 -85 156h91q13 -118 149 -118q67 0 108 48q40 45 40 113q0 73 -45 116q-43 40 -111 40q-79 0 -130 -67l-76 4l53 377h364v-86h-298z" />
    <glyph glyph-name="six" unicode="6" 
d="M503 516h-86q-19 108 -121 108q-90 0 -135 -102q-32 -72 -32 -158l2 -2q50 86 167 86q80 0 142 -48q78 -62 78 -175q0 -103 -67 -176q-31 -34 -66 -49q-43 -19 -112 -19q-116 0 -181 102q-54 85 -54 244q0 147 51 246q68 130 209 130q74 0 130 -40q69 -50 75 -147z
M141 216q0 -63 35 -106q41 -50 113 -50q63 0 100.5 44.5t37.5 116.5q0 57 -30 97q-38 51 -112 51q-70 0 -107 -43.5t-37 -109.5z" />
    <glyph glyph-name="seven" unicode="7" 
d="M37 602v86h486v-77q-79 -82 -152 -215q-104 -190 -137 -396h-97q18 141 102 315q81 166 185 287h-387z" />
    <glyph glyph-name="eight" unicode="8" 
d="M492 522q0 -102 -90 -148q115 -48 115 -171q0 -93 -57 -153q-64 -69 -181 -69q-101 0 -169 54q-72 57 -72 167q0 123 119 171q-95 36 -95 137q0 71 44 124q56 69 169 69q108 0 167 -60q50 -50 50 -121zM277 330q-70 0 -110 -41q-35 -36 -35 -89q0 -54 29 -91
q39 -49 121 -49q141 0 141 133q0 68 -43 104q-39 33 -103 33zM276 406q56 0 90.5 32t34.5 81q0 40 -27 69q-35 36 -104 36q-63 0 -94 -38q-23 -29 -23 -72q0 -48 38 -79q35 -29 85 -29z" />
    <glyph glyph-name="nine" unicode="9" 
d="M263 235q-99 0 -160 61.5t-61 165.5q0 102 58 169q62 72 168 72q246 0 246 -326q0 -128 -37 -226q-63 -170 -218 -170q-110 0 -166 69q-43 51 -43 119h88q8 -115 119 -115q72 0 112 63t57 200l-2 2q-19 -39 -64.5 -61.5t-96.5 -22.5zM276 314q50 0 85 28q50 40 50 132
q0 65 -33 105q-38 45 -109 45q-61 0 -98.5 -43.5t-37.5 -114.5q0 -152 143 -152z" />
    <glyph glyph-name="colon" unicode=":" horiz-adv-x="278" 
d="M191 106v-106h-104v106h104zM191 516v-106h-104v106h104z" />
    <glyph glyph-name="semicolon" unicode=";" horiz-adv-x="278" 
d="M87 0v106h104v-98q0 -139 -104 -155v46q53 5 53 101h-53zM191 410h-104v106h104v-106z" />
    <glyph glyph-name="less" unicode="&#x3c;" horiz-adv-x="584" 
d="M536 91v-80l-488 207v70l488 207v-80l-390 -162z" />
    <glyph glyph-name="equal" unicode="=" horiz-adv-x="584" 
d="M545 390v-73h-506v73h506zM545 188v-73h-506v73h506z" />
    <glyph glyph-name="greater" unicode="&#x3e;" horiz-adv-x="584" 
d="M48 415v80l488 -207v-70l-488 -207v80l390 162z" />
    <glyph glyph-name="question" unicode="?" 
d="M144 493h-88q3 67 13 98q17 52 66 90q60 46 145 46q89 0 148 -50q64 -54 64 -146q0 -47 -22 -83q-18 -30 -72 -82t-68 -77q-20 -38 -19 -106h-88q0 80 21 123q16 32 74 92q53 55 65 74q15 24 15 65q0 42 -24 73q-32 41 -97 41q-133 0 -133 -158zM318 102v-102h-97v102h97
z" />
    <glyph glyph-name="at" unicode="@" horiz-adv-x="1015" 
d="M611 408q0 37 -24.5 64.5t-57.5 27.5q-63 0 -109 -66q-42 -61 -42 -129q0 -43 23.5 -70t60.5 -27q60 0 106 70q43 64 43 130zM642 494l20 62h68q-11 -41 -59 -205q-31 -105 -31 -121q0 -29 21 -29q51 0 96.5 68t45.5 148q0 117 -83 189q-79 69 -196 69q-132 0 -218 -92.5
t-86 -227.5q0 -132 90 -222t221 -90q70 0 135 30.5t108 83.5h67q-49 -82 -132.5 -129t-179.5 -47q-161 0 -271.5 110t-110.5 270q0 156 111 266t266 110q142 0 241 -88q103 -90 103 -224q0 -124 -86 -212q-75 -77 -153 -77q-61 0 -64 63l-2 -1q-58 -62 -120 -62
q-63 0 -105 47t-42 113q0 107 63 189q68 87 168 87q79 0 115 -78z" />
    <glyph glyph-name="A" unicode="A" horiz-adv-x="667" 
d="M477 209h-288l-75 -209h-100l270 718h110l260 -718h-106zM219 295h223l-106 316h-2z" />
    <glyph glyph-name="B" unicode="B" horiz-adv-x="667" 
d="M171 635v-221h175q150 0 150 116q0 105 -149 105h-176zM74 0v718h316q96 0 152 -54q51 -49 51 -127q0 -105 -96 -150q56 -23 83 -48q47 -47 47 -127q0 -91 -62 -149q-67 -63 -182 -63h-309zM171 335v-252h207q74 0 113 35t39 96q0 121 -168 121h-191z" />
    <glyph glyph-name="C" unicode="C" horiz-adv-x="722" 
d="M674 502h-94q-32 149 -201 149q-102 0 -166 -72q-69 -77 -69 -213q0 -299 238 -299q64 0 114 36q69 50 91 161h94q-26 -173 -152 -243q-72 -40 -162 -40q-136 0 -223 88q-100 101 -100 294q0 168 90 271t245 103q131 0 212 -72q72 -65 83 -163z" />
    <glyph glyph-name="D" unicode="D" horiz-adv-x="722" 
d="M81 0v718h291q139 0 220.5 -96t81.5 -253q0 -146 -64 -245q-81 -124 -242 -124h-287zM178 635v-552h188q96 0 152 73t56 207q0 133 -58 204q-56 68 -157 68h-181z" />
    <glyph glyph-name="E" unicode="E" horiz-adv-x="667" 
d="M616 86v-86h-530v718h523v-86h-426v-220h393v-86h-393v-240h433z" />
    <glyph glyph-name="F" unicode="F" horiz-adv-x="611" 
d="M183 326v-326h-97v718h497v-86h-400v-220h352v-86h-352z" />
    <glyph glyph-name="G" unicode="G" horiz-adv-x="778" 
d="M389 301v83h315v-384h-63l-23 93q-37 -51 -100.5 -81.5t-136.5 -30.5q-135 0 -220 81q-72 69 -98 162q-15 56 -15 141q0 147 82 252q95 120 258 120q110 0 194 -58q95 -66 110 -179h-94q-37 151 -215 151q-101 0 -166 -75q-69 -80 -69 -216q0 -296 239 -296q89 0 147 46
q79 63 79 191h-224z" />
    <glyph glyph-name="H" unicode="H" horiz-adv-x="722" 
d="M549 421v297h97v-718h-97v335h-375v-335h-97v718h97v-297h375z" />
    <glyph glyph-name="I" unicode="I" horiz-adv-x="278" 
d="M188 718v-718h-97v718h97z" />
    <glyph glyph-name="J" unicode="J" horiz-adv-x="500" 
d="M17 231h91v-50q0 -117 108 -117q115 0 115 124v530h97v-524q0 -115 -67 -169q-54 -44 -140 -44q-111 0 -165 64q-39 48 -39 115v71z" />
    <glyph glyph-name="K" unicode="K" horiz-adv-x="667" 
d="M173 252v-252h-97v718h97v-348l348 348h134l-299 -290l307 -428h-126l-251 360z" />
    <glyph glyph-name="L" unicode="L" 
d="M173 718v-632h364v-86h-461v718h97z" />
    <glyph glyph-name="M" unicode="M" horiz-adv-x="833" 
d="M761 0h-94v424q0 5 1 72.5t1 106.5h-2l-202 -603h-96l-202 602h-2q0 -39 1 -106t1 -72v-424h-94v718h139l205 -607h2l204 607h138v-718z" />
    <glyph glyph-name="N" unicode="N" horiz-adv-x="722" 
d="M552 138v580h94v-718h-109l-365 580h-2v-580h-94v718h115l359 -580h2z" />
    <glyph glyph-name="O" unicode="O" horiz-adv-x="778" 
d="M639 359q0 129 -66 209q-69 83 -184 83t-182.5 -81.5t-67.5 -210.5t67 -209q68 -83 183 -83t184 83q66 80 66 209zM739 359q0 -143 -74 -247q-95 -131 -276 -131t-275 131q-75 104 -75 247t75 247q94 131 275 131t276 -131q74 -104 74 -247z" />
    <glyph glyph-name="P" unicode="P" horiz-adv-x="667" 
d="M183 635v-249h193q146 0 146 129q0 120 -142 120h-197zM183 303v-303h-97v718h323q98 0 155.5 -56.5t57.5 -145.5q0 -86 -48 -144q-57 -69 -165 -69h-226z" />
    <glyph glyph-name="Q" unicode="Q" horiz-adv-x="778" 
d="M420 148l49 60l91 -71q79 79 79 222q0 129 -66 209q-69 83 -184 83t-182.5 -81.5t-67.5 -210.5t67 -209q68 -83 183 -83q60 0 106 23zM733 2l-49 -58l-110 85q-75 -48 -185 -48q-181 0 -275 131q-75 104 -75 247t75 247q94 131 275 131t276 -131q74 -104 74 -247
q0 -176 -104 -281z" />
    <glyph glyph-name="R" unicode="R" horiz-adv-x="722" 
d="M185 308v-308h-97v718h332q236 0 236 -193q0 -71 -33 -116q-21 -29 -67 -56q40 -17 57 -36q26 -32 29 -99l6 -130q1 -32 7.5 -46t28.5 -26v-16h-119q-17 53 -17 180q0 57 -20 86q-30 42 -108 42h-235zM185 635v-244h225q146 0 146 124q0 120 -129 120h-242z" />
    <glyph glyph-name="S" unicode="S" horiz-adv-x="667" 
d="M600 508h-91q-3 76 -60 115q-47 31 -118 31q-164 0 -164 -126q0 -72 85 -91l205 -47q163 -37 163 -192q0 -115 -94 -172q-75 -45 -187 -45q-141 0 -217 69q-73 66 -73 182h91q0 -89 65 -133q52 -35 133 -35q72 0 120 22q68 31 68 99q0 55 -31.5 80.5t-121.5 46.5l-147 34
q-153 35 -153 169q0 93 58 153q67 69 189 69q268 0 280 -229z" />
    <glyph glyph-name="T" unicode="T" horiz-adv-x="611" 
d="M14 632v86h583v-86h-243v-632h-97v632h-243z" />
    <glyph glyph-name="U" unicode="U" horiz-adv-x="722" 
d="M547 718h97v-466q0 -117 -71 -191q-77 -80 -218 -80q-136 0 -210 79q-66 70 -66 179v479h97v-452q0 -107 58 -158q47 -41 124 -41q79 0 128 40q61 50 61 157v454z" />
    <glyph glyph-name="V" unicode="V" horiz-adv-x="667" 
d="M335 106l203 612h109l-262 -718h-103l-262 718h108l205 -612h2z" />
    <glyph glyph-name="W" unicode="W" horiz-adv-x="944" 
d="M471 595l-166 -595h-102l-187 718h105l134 -584h2l161 584h106l161 -584h2l134 584h107l-189 -718h-102l-164 595h-2z" />
    <glyph glyph-name="X" unicode="X" horiz-adv-x="667" 
d="M396 368l252 -368h-120l-193 295l-199 -295h-117l257 368l-241 350h122l182 -275l182 275h116z" />
    <glyph glyph-name="Y" unicode="Y" horiz-adv-x="667" 
d="M382 289v-289h-97v289l-271 429h113l206 -345l206 345h114z" />
    <glyph glyph-name="Z" unicode="Z" horiz-adv-x="611" 
d="M588 86v-86h-565v81l440 551h-407v86h532v-84l-442 -548h442z" />
    <glyph glyph-name="bracketleft" unicode="[" horiz-adv-x="278" 
d="M142 651v-776h108v-71h-187v918h187v-71h-108z" />
    <glyph glyph-name="backslash" unicode="\" horiz-adv-x="278" 
d="M228 -19l-245 756h66l246 -756h-67z" />
    <glyph glyph-name="bracketright" unicode="]" horiz-adv-x="278" 
d="M136 -125v776h-108v71h187v-918h-187v71h108z" />
    <glyph glyph-name="asciicircum" unicode="^" horiz-adv-x="469" 
d="M483 264h-77l-171 344l-171 -344h-78l213 424h72z" />
    <glyph glyph-name="underscore" unicode="_" 
d="M556 -125h-556v50h556v-50z" />
    <glyph glyph-name="grave" unicode="`" horiz-adv-x="333" 
d="M144 593l-130 141h108l89 -141h-67z" />
    <glyph glyph-name="a" unicode="a" 
d="M143 364h-81q6 174 216 174q63 0 113 -23q81 -37 81 -123v-301q0 -31 29 -31q9 0 29 4v-64q-37 -10 -48 -10q-87 0 -93 80q-78 -85 -189 -85q-72 0 -118 42t-46 109q0 144 159 164l145 18q46 6 46 62q0 85 -123 85q-105 0 -120 -101zM384 181v86q-21 -17 -145 -33
q-112 -15 -112 -85q0 -91 95 -91q63 0 112.5 36t49.5 87z" />
    <glyph glyph-name="b" unicode="b" 
d="M141 0h-83v718h88v-261h2q56 81 151 81q101 1 161 -75q57 -72 57 -186t-48 -193q-61 -99 -182 -99q-94 0 -144 80h-2v-65zM426 263q0 196 -143 196q-141 0 -141 -222q0 -93 51 -140q38 -36 92 -36q69 0 107 58q34 53 34 144z" />
    <glyph glyph-name="c" unicode="c" horiz-adv-x="500" 
d="M477 347h-85q-18 112 -124 112q-75 0 -113 -64q-31 -52 -31 -133q0 -201 143 -201q45 0 79.5 32.5t45.5 91.5h85q-8 -78 -52 -131q-58 -69 -161 -69q-108 0 -171 73t-63 189q0 129 61 206q66 85 190 85q94 0 147 -61q43 -51 49 -130z" />
    <glyph glyph-name="d" unicode="d" 
d="M499 718v-718h-83v72h-2q-47 -87 -149 -87q-121 0 -182 99q-48 79 -48 193t58.5 187.5t159.5 73.5q94 0 156 -89l2 7v262h88zM126 263q0 -91 35 -144q37 -58 106 -58q54 0 93 36q50 47 50 140q0 222 -141 222q-143 0 -143 -196z" />
    <glyph glyph-name="e" unicode="e" 
d="M421 164h88q-3 -28 -23 -64q-27 -50 -70 -79q-54 -36 -142 -36q-108 0 -171 73t-63 189q0 129 61 206q66 85 190 85q111 0 168 -81.5t57 -223.5h-382q0 -172 152 -172q57 0 98 37q34 32 37 66zM134 303h291q-10 156 -146 156q-60 0 -102.5 -47t-42.5 -109z" />
    <glyph glyph-name="f" unicode="f" horiz-adv-x="278" 
d="M262 450h-88v-450h-88v450h-72v73h72v90q0 115 136 115q12 0 40 -2v-79q-22 2 -36 2q-52 0 -52 -61v-65h88v-73z" />
    <glyph glyph-name="g" unicode="g" 
d="M131 263q0 -91 35 -144q37 -58 106 -58q54 0 93 36q50 47 50 140q0 222 -141 222q-143 0 -143 -196zM499 523v-480q0 -103 -31 -160q-56 -103 -212 -103q-181 0 -200 156h88q16 -83 118 -83q99 0 132 69q17 36 17 115v22h-2v-4q-44 -70 -139 -70q-121 0 -182 99
q-48 79 -48 193t58.5 187.5t159.5 73.5q94 0 156 -89h2v74h83z" />
    <glyph glyph-name="h" unicode="h" 
d="M491 356v-356h-88v342q0 58 -20 85q-25 32 -84 32q-62 0 -100 -37q-46 -46 -46 -137v-285h-88v718h88v-265h2q64 85 153 85q75 0 122 -35q61 -46 61 -147z" />
    <glyph glyph-name="i" unicode="i" horiz-adv-x="222" 
d="M155 523v-523h-88v523h88zM155 618h-88v100h88v-100z" />
    <glyph glyph-name="j" unicode="j" horiz-adv-x="222" 
d="M155 523v-600q0 -133 -134 -133q-17 0 -37 3v76h18q41 0 53 10.5t12 53.5v590h88zM155 718v-100h-88v100h88z" />
    <glyph glyph-name="k" unicode="k" horiz-adv-x="500" 
d="M289 328l212 -328h-113l-163 264l-73 -66v-198h-85v718h85v-416l225 221h112z" />
    <glyph glyph-name="l" unicode="l" horiz-adv-x="222" 
d="M155 718v-718h-88v718h88z" />
    <glyph glyph-name="m" unicode="m" horiz-adv-x="833" 
d="M65 0v523h83v-74h2q60 89 158 89q93 0 139 -85q40 45 66 61q39 24 94 24q59 0 102 -33q60 -46 60 -143v-362h-88v338q0 121 -97 121q-53 0 -88 -42.5t-35 -97.5v-319h-88v362q0 97 -82 97q-51 0 -88 -34q-50 -46 -50 -140v-285h-88z" />
    <glyph glyph-name="n" unicode="n" 
d="M491 356v-356h-88v322q0 71 -25 104t-87 33q-51 0 -88 -34q-50 -46 -50 -140v-285h-88v523h83v-74h2q60 89 158 89q75 0 122 -35q61 -46 61 -147z" />
    <glyph glyph-name="o" unicode="o" 
d="M35 262q0 112 59 189q67 87 184 87t184 -87q59 -77 59 -189t-59 -189q-67 -87 -184 -87t-184 87q-59 77 -59 189zM126 262q0 -73 29 -126q40 -74 123 -74t123 74q29 53 29 126t-29 126q-40 74 -123 74t-123 -74q-29 -53 -29 -126z" />
    <glyph glyph-name="p" unicode="p" 
d="M142 237q0 -93 51 -140q38 -36 92 -36q69 0 107 58q34 53 34 144q0 196 -143 196q-141 0 -141 -222zM58 -207v730h83v-74h2q62 89 156 89q101 0 161 -75q57 -72 57 -186t-48 -193q-61 -99 -182 -99q-95 0 -139 70h-2v-262h-88z" />
    <glyph glyph-name="q" unicode="q" 
d="M494 523v-730h-88v262h-2q-44 -70 -139 -70q-121 0 -182 99q-48 79 -48 193t58.5 187.5t159.5 73.5q94 0 156 -89h2v74h83zM410 237q0 222 -141 222q-143 0 -143 -196q0 -91 35 -144q37 -58 106 -58q54 0 93 36q50 47 50 140z" />
    <glyph glyph-name="r" unicode="r" horiz-adv-x="333" 
d="M165 304v-304h-88v523h83v-87h2q59 102 147 102q13 0 23 -3v-91h-33q-60 0 -97 -40.5t-37 -99.5z" />
    <glyph glyph-name="s" unicode="s" horiz-adv-x="500" 
d="M447 374h-85q-3 88 -124 88q-41 0 -69 -16q-35 -20 -35 -58q0 -30 22 -45q17 -11 73 -25l88 -22q81 -20 114 -52t33 -86q0 -79 -58 -126t-149 -47q-216 0 -225 183h85q8 -107 139 -107q51 0 85.5 21t34.5 62q0 30 -22.5 45t-81.5 30l-102 25q-121 30 -121 127
q0 81 60 127q54 40 138 40q119 0 170 -72q30 -43 30 -92z" />
    <glyph glyph-name="t" unicode="t" horiz-adv-x="278" 
d="M257 450h-84v-340q0 -41 53 -41h31v-69q-75 -7 -66 -7q-106 0 -106 112v345h-71v73h71v146h88v-146h84v-73z" />
    <glyph glyph-name="u" unicode="u" 
d="M489 0h-83v76l-2 2q-56 -93 -166 -93q-69 0 -114 34q-56 43 -56 128v376h88v-347q0 -115 101 -115q76 0 114 59q30 46 30 115v288h88v-523z" />
    <glyph glyph-name="v" unicode="v" horiz-adv-x="500" 
d="M248 97l148 426h96l-199 -523h-94l-191 523h102l136 -426h2z" />
    <glyph glyph-name="w" unicode="w" horiz-adv-x="722" 
d="M358 405l-102 -405h-91l-151 523h96l100 -411h2l101 411h98l102 -411h2l106 411h88l-152 -523h-91l-106 405h-2z" />
    <glyph glyph-name="x" unicode="x" horiz-adv-x="500" 
d="M306 269l184 -269h-112l-130 197l-126 -197h-111l184 269l-175 254h113l121 -184l121 184h108z" />
    <glyph glyph-name="y" unicode="y" horiz-adv-x="500" 
d="M252 97l140 426h97q-61 -171 -188 -513q-45 -116 -65 -152q-25 -47 -55 -61q-24 -11 -85 -11q-9 0 -37 8v80q25 -9 53 -9q33 0 48 20q12 17 45 101l-194 537h100l139 -426h2z" />
    <glyph glyph-name="z" unicode="z" horiz-adv-x="500" 
d="M460 451l-312 -378h321v-73h-438v69l315 381h-291v73h405v-72z" />
    <glyph glyph-name="braceleft" unicode="{" horiz-adv-x="334" 
d="M42 234v60q35 0 58 36t23 91v172q0 59 32 95q29 34 70 34h67v-65h-44q-46 0 -46 -82v-170q0 -64 -36 -105q-26 -28 -52 -35v-2q28 -8 52 -35q36 -41 36 -108v-169q0 -82 46 -82h44v-65h-67q-41 0 -70 34q-32 36 -32 95v171q0 56 -23 93t-58 37z" />
    <glyph glyph-name="bar" unicode="|" horiz-adv-x="260" 
d="M94 -19v756h73v-756h-73z" />
    <glyph glyph-name="braceright" unicode="}" horiz-adv-x="334" 
d="M292 294v-60q-35 0 -58 -37t-23 -93v-171q0 -59 -30.5 -94t-71.5 -35h-67v65h44q46 0 46 82v169q0 67 37 108q23 27 51 35v2q-26 7 -51 35q-37 41 -37 105v170q0 82 -46 82h-44v65h67q41 0 71.5 -35t30.5 -94v-172q0 -55 23 -91t58 -36z" />
    <glyph glyph-name="asciitilde" unicode="~" horiz-adv-x="584" 
d="M487 326v0l36 -56q-54 -86 -125 -86q-42 0 -102 33q-63 35 -115 35q-51 0 -84 -72l-36 56q45 86 125 86q41 0 111 -32q79 -36 102 -36q41 0 88 72z" />
    <glyph glyph-name="euro" horiz-adv-x="498" 
d="M522 633l-23 -156l-48 6q0 157 -94 157q-103 0 -161 -211h172l-21 -48h-164q-6 -24 -16 -73h147l-21 -47h-134q-6 -41 -6 -74q0 -55 21 -91q26 -43 78 -43q58 0 101 68q24 38 51 119l55 -10l-54 -188q-77 -53 -159 -53q-111 0 -166 84q-47 71 -47 188h-74l21 47h56
q3 25 12 73h-66l21 48h59q41 112 108 183q83 88 187 88q94 0 165 -67z" />
    <glyph glyph-name="exclamdown" unicode="&#xa1;" horiz-adv-x="333" 
d="M118 421v102h97v-102h-97zM142 352h49l24 -310v-237h-97v237z" />
    <glyph glyph-name="cent" unicode="&#xa2;" 
d="M212 78l108 381q-8 3 -29 3q-68 0 -108 -51q-44 -57 -44 -166q0 -54 20.5 -100.5t52.5 -66.5zM509 345h-82q-20 84 -68 102l-110 -386q13 -4 35 -4q115 0 144 126h85q-9 -74 -55 -128q-62 -74 -171 -74q-16 0 -60 7l-31 -103h-41l34 114q-138 66 -138 246
q0 140 64.5 216.5t181.5 76.5q28 0 43 -6l26 91h39l-25 -100q40 -11 74 -47q47 -51 55 -131z" />
    <glyph glyph-name="sterling" unicode="&#xa3;" 
d="M204 380h167v-63h-138q9 -34 9 -66q0 -46 -29 -93q-33 -53 -92 -93l2 2v-2q65 37 131 37q34 0 92 -17.5t76 -17.5q45 0 76 31l41 -66q-63 -48 -127 -48q-28 0 -99 22.5t-110 22.5q-53 0 -117 -40l-49 69q68 45 100 106q22 43 22 81q0 29 -19 72h-107v63h69
q-43 88 -43 134q0 78 51 133q66 71 196 71q106 0 164 -67q51 -59 51 -146v-15h-88v9q0 63 -38 103t-99 40q-73 0 -113 -46q-30 -36 -30 -77q0 -46 51 -139z" />
    <glyph glyph-name="currency" unicode="&#xa4;" 
d="M480 603l48 -48l-55 -54q50 -57 50 -150q0 -89 -50 -151l54 -56l-45 -45l-55 58q-59 -55 -149 -55t-149 55l-55 -58l-45 45l54 56q-50 62 -50 151q0 93 50 150l-55 54l48 48l57 -56q59 51 145 51t145 -51zM106 351q0 -73 50.5 -126t121.5 -53t121.5 53t50.5 126
q0 71 -50.5 124t-121.5 53t-121.5 -53t-50.5 -124z" />
    <glyph glyph-name="yen" unicode="&#xa5;" 
d="M42 327v57h154l-193 304h100l175 -295l175 295h100l-193 -304h155v-57h-193v-85h193v-57h-193v-185h-88v185h-192v57h192v85h-192z" />
    <glyph glyph-name="brokenbar" unicode="&#xa6;" horiz-adv-x="260" 
d="M94 -19v294h73v-294h-73zM94 460v277h73v-277h-73z" />
    <glyph glyph-name="section" unicode="&#xa7;" 
d="M460 554h-85q-7 107 -99 107q-35 0 -61 -18q-31 -22 -31 -63q0 -47 73 -90l146 -86q109 -64 109 -160q0 -95 -103 -160q52 -55 52 -114q0 -73 -59 -119q-53 -42 -122 -42q-89 0 -140 44q-57 49 -57 144h88q0 -112 97 -112q105 0 105 83q0 42 -55 79l-210 140
q-65 43 -65 122q0 59 28 98q22 31 72 60q-47 51 -47 100q0 65 41 113q49 57 139 57q74 0 122 -36q62 -47 62 -147zM367 321l-174 107q-67 -34 -67 -97q0 -56 45 -85l189 -122q69 45 69 101q0 58 -62 96z" />
    <glyph glyph-name="dieresis" unicode="&#xa8;" horiz-adv-x="333" 
d="M131 706v-102h-91v102h91zM293 706v-102h-91v102h91z" />
    <glyph glyph-name="copyright" unicode="&#xa9;" horiz-adv-x="737" 
d="M370 -19q-158 0 -271 108.5t-113 270.5q0 161 113 269t271 108q157 0 268 -107q114 -110 114 -270q0 -162 -112.5 -270.5t-269.5 -108.5zM62 360q0 -136 88.5 -226t219.5 -90q129 0 217.5 90t88.5 226q0 134 -88.5 224t-217.5 90q-130 0 -219 -90t-89 -224zM501 289h68
q-14 -74 -65 -117.5t-121 -43.5q-100 0 -161.5 66.5t-61.5 166.5q0 102 59.5 166.5t159.5 64.5q74 0 125 -40q54 -43 64 -117h-67q-9 42 -41.5 66.5t-79.5 24.5q-68 0 -106 -46t-38 -118q0 -70 40.5 -119t106.5 -49q47 0 79 26.5t39 68.5z" />
    <glyph glyph-name="ordfeminine" unicode="&#xaa;" horiz-adv-x="370" 
d="M346 454v-44q-25 -5 -32 -5q-56 0 -60 51q-51 -51 -123 -51q-47 0 -77 25.5t-30 65.5q0 89 112 102l88 10q24 3 24 38q0 39 -76 39q-70 0 -77 -53h-54q4 105 141 105q41 0 74 -14q53 -22 53 -74v-178q0 -19 18 -19q5 0 19 2zM145 457q41 0 72 21.5t31 52.5v39
q-10 -10 -92 -20q-69 -8 -69 -43q0 -50 58 -50zM35 352h296v-48h-296v48z" />
    <glyph glyph-name="guillemotleft" unicode="&#xab;" 
d="M254 196v-88l-157 123v92l157 123v-88l-105 -81zM459 196v-88l-157 123v92l157 123v-88l-105 -81z" />
    <glyph glyph-name="logicalnot" unicode="&#xac;" horiz-adv-x="584" 
d="M472 108v209h-433v73h506v-282h-73z" />
    <glyph glyph-name="sfthyphen" unicode="&#xad;" horiz-adv-x="338" 
d="M8 174l33 122h246l-33 -122h-246z" />
    <glyph glyph-name="registered" unicode="&#xae;" horiz-adv-x="737" 
d="M370 -19q-158 0 -271 108.5t-113 270.5q0 161 113 269t271 108q157 0 268 -107q114 -110 114 -270q0 -162 -112.5 -270.5t-269.5 -108.5zM62 360q0 -136 88.5 -226t219.5 -90q129 0 217.5 90t88.5 226q0 134 -88.5 224t-217.5 90q-130 0 -219 -90t-89 -224zM290 330v-189
h-66v436h166q154 0 154 -124q0 -106 -113 -120l124 -192h-74l-115 189h-76zM290 386h79q52 0 74 10q32 16 32 61q0 64 -95 64h-90v-135z" />
    <glyph glyph-name="macron" unicode="&#xaf;" horiz-adv-x="333" 
d="M323 684v-57h-313v57h313z" />
    <glyph glyph-name="macron" unicode="&#x2c9;" horiz-adv-x="333" 
d="M323 684v-57h-313v57h313z" />
    <glyph glyph-name="degree" unicode="&#xb0;" horiz-adv-x="400" 
d="M200 660q-39 0 -68.5 -31.5t-29.5 -71.5t29.5 -71.5t68.5 -31.5t68.5 31.5t29.5 71.5t-29.5 71.5t-68.5 31.5zM346 557q0 -62 -42 -104t-104 -42t-104 42t-42 104t42 104t104 42t104 -42t42 -104z" />
    <glyph glyph-name="plusminus" unicode="&#xb1;" horiz-adv-x="584" 
d="M256 345v161h73v-161h216v-73h-216v-161h-73v161h-217v73h217zM39 0v73h506v-73h-506z" />
    <glyph glyph-name="twosuperior" unicode="&#xb2;" horiz-adv-x="333" 
d="M79 552h-60q0 89 61 127q39 24 97 24q63 0 104.5 -34.5t41.5 -91.5q0 -52 -35 -87q-24 -24 -84 -55l-45 -23q-54 -28 -80 -70h244v-61h-319q5 113 104 167l60 33q49 27 62 39q23 22 23 59q3 26 -16 44q-22 22 -68 22q-83 0 -90 -93z" />
    <glyph glyph-name="threesuperior" unicode="&#xb3;" horiz-adv-x="333" 
d="M5 410h68q5 -82 86 -82q96 0 96 71q0 47 -37 63q-21 9 -66 9h-23v51h27q82 0 82 67q0 56 -80 56q-76 0 -81 -80h-61q0 56 31 92q38 46 120 46q65 0 103 -31t38 -80q0 -70 -59 -87v-2q76 -20 76 -97q0 -57 -39 -94q-44 -42 -128 -42q-44 0 -84 19q-61 29 -69 121z" />
    <glyph glyph-name="acute" unicode="&#xb4;" horiz-adv-x="333" 
d="M319 734l-130 -141h-67l89 141h108z" />
    <glyph glyph-name="mu" unicode="&#xb5;" 
d="M489 0h-83v76l-2 2q-56 -93 -166 -93q-54 0 -80 34h-2v-226h-88v730h88v-347q0 -115 101 -115q76 0 114 59q30 46 30 115v288h88v-523z" />
    <glyph glyph-name="mu" unicode="&#x3bc;" 
d="M489 0h-83v76l-2 2q-56 -93 -166 -93q-54 0 -80 34h-2v-226h-88v730h88v-347q0 -115 101 -115q76 0 114 59q30 46 30 115v288h88v-523z" />
    <glyph glyph-name="paragraph" unicode="&#xb6;" horiz-adv-x="537" 
d="M232 -173v517q-95 0 -154.5 52.5t-59.5 131.5q0 190 231 190h248v-891h-73v831h-119v-831h-73z" />
    <glyph glyph-name="ch270" unicode="&#xb7;" horiz-adv-x="249" 
d="M38 348q0 34 23 57t57 23t57.5 -23t23.5 -57t-23.5 -57.5t-57.5 -23.5t-57 23.5t-23 57.5z" />
    <glyph glyph-name="ch270" unicode="&#x2219;" horiz-adv-x="249" 
d="M38 348q0 34 23 57t57 23t57.5 -23t23.5 -57t-23.5 -57.5t-57.5 -23.5t-57 23.5t-23 57.5z" />
    <glyph glyph-name="cedilla" unicode="&#xb8;" horiz-adv-x="667" 
d="M477 209h-288l-75 -209h-100l270 718h110l260 -718h-106zM219 295h223l-106 316h-2zM412 780h-47l-155 141h113z" />
    <glyph glyph-name="onesuperior" unicode="&#xb9;" horiz-adv-x="333" 
d="M151 577h-108v46q61 4 83 16q27 16 40 64h56v-422h-71v296z" />
    <glyph glyph-name="ordmasculine" unicode="&#xba;" horiz-adv-x="365" 
d="M341 571q0 -89 -51 -132q-41 -34 -107 -34t-107 34q-51 43 -51 132t51 132q41 34 107 34t107 -34q51 -43 51 -132zM274 571q0 114 -91 114t-91 -114t91 -114t91 114zM35 352h296v-48h-296v48z" />
    <glyph glyph-name="guillemotright" unicode="&#xbb;" 
d="M254 231l-157 -123v88l105 81l-105 81v88l157 -123v-92zM459 231l-157 -123v88l105 81l-105 81v88l157 -123v-92z" />
    <glyph glyph-name="onequarter" unicode="&#xbc;" horiz-adv-x="834" 
d="M419 94v60l206 268h64v-270h67v-58h-67v-94h-64v94h-206zM625 152v187h-2l-142 -187h144zM653 703l-442 -722h-57l442 722h57zM181 580h-108v43q61 4 83 16q27 16 40 64h53v-422h-68v299z" />
    <glyph glyph-name="onehalf" unicode="&#xbd;" horiz-adv-x="834" 
d="M617 703l-442 -722h-57l442 722h57zM151 577h-108v46q61 4 83 16q27 16 40 64h56v-422h-71v296zM529 271h-60q0 89 61 127q39 24 97 24q63 0 104.5 -34.5t41.5 -91.5q0 -52 -35 -87q-24 -24 -84 -55l-45 -23q-54 -28 -80 -70h244v-61h-319q5 113 104 167l60 33
q49 27 62 39q23 22 23 59q3 26 -16 44q-22 22 -68 22q-83 0 -90 -93z" />
    <glyph glyph-name="threequarters" unicode="&#xbe;" horiz-adv-x="834" 
d="M473 94v60l206 268h64v-270h67v-58h-67v-94h-64v94h-206zM677 339l-142 -187h144v187h-2zM712 703l-442 -722h-57l442 722h57zM45 410h68q5 -82 86 -82q96 0 96 71q0 47 -37 63q-21 9 -66 9h-23v51h27q82 0 82 67q0 56 -80 56q-76 0 -81 -80h-61q0 56 31 92q38 46 120 46
q65 0 103 -31t38 -80q0 -70 -59 -87v-2q76 -20 76 -97q0 -57 -39 -94q-44 -42 -128 -42q-44 0 -84 19q-61 29 -69 121z" />
    <glyph glyph-name="questiondown" unicode="&#xbf;" horiz-adv-x="611" 
d="M439 33h88q-3 -67 -13 -98q-17 -52 -66 -90q-60 -46 -145 -46q-89 0 -148 50q-64 54 -64 146q0 47 22 83q18 30 72 82t68 77q20 38 19 106h88q0 -80 -21 -123q-16 -32 -74 -92q-53 -55 -65 -74q-15 -24 -15 -65q0 -42 24 -73q32 -41 97 -41q133 0 133 158zM265 423v102
h97v-102h-97z" />
    <glyph glyph-name="Agrave" unicode="&#xc0;" horiz-adv-x="667" 
d="M477 209h-288l-75 -209h-100l270 718h110l260 -718h-106zM219 295h223l-106 316h-2zM412 780h-47l-155 141h113z" />
    <glyph glyph-name="Aacute" unicode="&#xc1;" horiz-adv-x="667" 
d="M477 209h-288l-75 -209h-100l270 718h110l260 -718h-106zM219 295h223l-106 316h-2zM514 921l-155 -141h-47l89 141h113z" />
    <glyph glyph-name="Acircumflex" unicode="&#xc2;" horiz-adv-x="667" 
d="M477 209h-288l-75 -209h-100l270 718h110l260 -718h-106zM219 295h223l-106 316h-2zM335 833l-76 -93h-69l109 141h73l109 -141h-70z" />
    <glyph glyph-name="Atilde" unicode="&#xc3;" horiz-adv-x="667" 
d="M477 209h-288l-75 -209h-100l270 718h110l260 -718h-106zM219 295h223l-106 316h-2zM466 873l45 -2q-20 -39 -53 -64q-37 -28 -76 -27q-21 3 -47 14l-21 9q-31 13 -50 14q-31 1 -59 -36l-43 1q50 92 132 90q20 0 55 -16l18 -8q19 -13 38 -13q34 -1 61 38z" />
    <glyph glyph-name="Adieresis" unicode="&#xc4;" horiz-adv-x="667" 
d="M477 209h-288l-75 -209h-100l270 718h110l260 -718h-106zM219 295h223l-106 316h-2zM298 901v-102h-91v102h91zM460 901v-102h-91v102h91z" />
    <glyph glyph-name="Aring" unicode="&#xc5;" horiz-adv-x="667" 
d="M477 209h-288l-75 -209h-100l270 718h110l260 -718h-106zM219 295h223l-106 316h-2zM334 931q40 0 66 -26t26 -66t-26 -66t-66 -26t-66 26t-26 66t26 66t66 26zM282 839q0 -22 15 -37t37 -15t37 15t15 37t-15 37t-37 15t-37 -15t-15 -37z" />
    <glyph glyph-name="AE" unicode="&#xc6;" horiz-adv-x="1000" 
d="M192 209l-79 -209h-105l292 718h644v-86h-390v-220h356v-86h-356v-240h397v-86h-494v209h-265zM457 295v337h-97l-133 -337h230z" />
    <glyph glyph-name="Ccedilla" unicode="&#xc7;" horiz-adv-x="722" 
d="M674 502h-94q-32 149 -201 149q-102 0 -166 -72q-69 -77 -69 -213q0 -299 238 -299q64 0 114 36q69 50 91 161h94q-26 -173 -152 -243q-72 -40 -162 -40q-136 0 -223 88q-100 101 -100 294q0 168 90 271t245 103q131 0 212 -72q72 -65 83 -163zM672 209h-288l-75 -209
h-100l270 718h110l260 -718h-106zM414 295h223l-106 316h-2zM607 780h-47l-155 141h113z" />
    <glyph glyph-name="Egrave" unicode="&#xc8;" horiz-adv-x="667" 
d="M616 86v-86h-530v718h523v-86h-426v-220h393v-86h-393v-240h433zM371 780h-47l-155 141h113z" />
    <glyph glyph-name="Eacute" unicode="&#xc9;" horiz-adv-x="667" 
d="M616 86v-86h-530v718h523v-86h-426v-220h393v-86h-393v-240h433zM527 921l-155 -141h-47l89 141h113z" />
    <glyph glyph-name="Ecircumflex" unicode="&#xca;" horiz-adv-x="667" 
d="M616 86v-86h-530v718h523v-86h-426v-220h393v-86h-393v-240h433zM348 843l-76 -93h-69l109 141h73l109 -141h-70z" />
    <glyph glyph-name="Edieresis" unicode="&#xcb;" horiz-adv-x="667" 
d="M616 86v-86h-530v718h523v-86h-426v-220h393v-86h-393v-240h433zM298 901v-102h-91v102h91zM460 901v-102h-91v102h91z" />
    <glyph glyph-name="Igrave" unicode="&#xcc;" horiz-adv-x="278" 
d="M188 718v-718h-97v718h97zM163 780h-47l-155 141h113z" />
    <glyph glyph-name="Iacute" unicode="&#xcd;" horiz-adv-x="278" 
d="M188 718v-718h-97v718h97zM319 921l-155 -141h-47l89 141h113z" />
    <glyph glyph-name="Icircumflex" unicode="&#xce;" horiz-adv-x="278" 
d="M188 718v-718h-97v718h97zM139 881l-66 -93h-79l99 141h93l99 -141h-80z" />
    <glyph glyph-name="Idieresis" unicode="&#xcf;" horiz-adv-x="278" 
d="M188 718v-718h-97v718h97zM104 901v-102h-91v102h91zM266 901v-102h-91v102h91z" />
    <glyph glyph-name="Eth" unicode="&#xd0;" horiz-adv-x="722" 
d="M370 412v-86h-192v-243h188q96 0 152 73t56 207q0 133 -58 204q-56 68 -157 68h-181v-223h192zM0 326v86h81v306h291q139 0 220.5 -96t81.5 -253q0 -115 -44 -207q-77 -162 -262 -162h-287v326h-81z" />
    <glyph glyph-name="Ntilde" unicode="&#xd1;" horiz-adv-x="722" 
d="M552 138v580h94v-718h-109l-365 580h-2v-580h-94v718h115l359 -580h2zM492 917v0h50q-5 -47 -32 -78t-68 -31q-21 0 -59 13l-26 9q-43 15 -61 15q-33 0 -47 -44h-48q15 107 104 107q31 0 68 -15l22 -9q32 -13 47 -13q40 0 50 46z" />
    <glyph glyph-name="Ograve" unicode="&#xd2;" horiz-adv-x="778" 
d="M639 359q0 124 -62 204q-68 88 -188 88t-188 -88q-62 -80 -62 -204q0 -123 62 -204q69 -88 188 -88q120 0 188 88q62 80 62 204zM739 359q0 -144 -74 -247q-94 -131 -276 -131q-181 0 -275 131q-75 104 -75 247t75 247q94 131 275 131q182 0 276 -131q74 -103 74 -247z
M412 800h-47l-155 141h113z" />
    <glyph glyph-name="Oacute" unicode="&#xd3;" horiz-adv-x="778" 
d="M639 359q0 124 -62 204q-68 88 -188 88t-188 -88q-62 -80 -62 -204q0 -123 62 -204q69 -88 188 -88q120 0 188 88q62 80 62 204zM739 359q0 -144 -74 -247q-94 -131 -276 -131q-181 0 -275 131q-75 104 -75 247t75 247q94 131 275 131q182 0 276 -131q74 -103 74 -247z
M568 941l-155 -141h-47l89 141h113z" />
    <glyph glyph-name="Ocircumflex" unicode="&#xd4;" horiz-adv-x="778" 
d="M639 359q0 124 -62 204q-68 88 -188 88t-188 -88q-62 -80 -62 -204q0 -123 62 -204q69 -88 188 -88q120 0 188 88q62 80 62 204zM739 359q0 -144 -74 -247q-94 -131 -276 -131q-181 0 -275 131q-75 104 -75 247t75 247q94 131 275 131q182 0 276 -131q74 -103 74 -247z
M389 853l-76 -93h-69l109 141h73l109 -141h-70z" />
    <glyph glyph-name="Otilde" unicode="&#xd5;" horiz-adv-x="778" 
d="M639 359q0 124 -62 204q-68 88 -188 88t-188 -88q-62 -80 -62 -204q0 -123 62 -204q69 -88 188 -88q120 0 188 88q62 80 62 204zM739 359q0 -144 -74 -247q-94 -131 -276 -131q-181 0 -275 131q-75 104 -75 247t75 247q94 131 275 131q182 0 276 -131q74 -103 74 -247z
M520 893l45 -2q-20 -39 -53 -64q-37 -28 -76 -27q-21 3 -47 14l-21 9q-31 13 -50 14q-31 1 -59 -36l-43 1q50 92 132 90q20 0 55 -16l18 -8q19 -13 38 -13q34 -1 61 38z" />
    <glyph glyph-name="Odieresis" unicode="&#xd6;" horiz-adv-x="778" 
d="M639 359q0 129 -66 209q-69 83 -184 83t-182.5 -81.5t-67.5 -210.5t67 -209q68 -83 183 -83t184 83q66 80 66 209zM739 359q0 -143 -74 -247q-95 -131 -276 -131t-275 131q-75 104 -75 247t75 247q94 131 275 131t276 -131q74 -104 74 -247zM354 901v-102h-91v102h91z
M516 901v-102h-91v102h91z" />
    <glyph glyph-name="multiply" unicode="&#xd7;" horiz-adv-x="584" 
d="M241 253l-202 202l52 51l201 -201l202 201l51 -51l-201 -202l201 -202l-51 -51l-202 201l-202 -201l-51 51z" />
    <glyph glyph-name="Oslash" unicode="&#xd8;" horiz-adv-x="667" 
d="M616 86v-86h-530v718h523v-86h-426v-220h393v-86h-393v-240h433zM371 780h-47l-155 141h113z" />
    <glyph glyph-name="Ugrave" unicode="&#xd9;" horiz-adv-x="722" 
d="M547 718h97v-466q0 -128 -79.5 -199.5t-209.5 -71.5q-123 0 -198 67q-78 70 -78 191v479h97v-452q0 -93 44 -144q48 -55 138 -55q92 0 140.5 51.5t48.5 145.5v454zM386 750h-47l-155 141h113z" />
    <glyph glyph-name="Uacute" unicode="&#xda;" horiz-adv-x="722" 
d="M547 718h97v-466q0 -128 -79.5 -199.5t-209.5 -71.5q-123 0 -198 67q-78 70 -78 191v479h97v-452q0 -93 44 -144q48 -55 138 -55q92 0 140.5 51.5t48.5 145.5v454zM542 891l-155 -141h-47l89 141h113z" />
    <glyph glyph-name="Ucircumflex" unicode="&#xdb;" horiz-adv-x="722" 
d="M547 718h97v-466q0 -117 -71 -191q-77 -80 -218 -80q-136 0 -210 79q-66 70 -66 179v479h97v-452q0 -107 58 -158q47 -41 124 -41q79 0 128 40q61 50 61 157v454zM361 881l-66 -93h-79l99 141h93l99 -141h-80z" />
    <glyph glyph-name="Udieresis" unicode="&#xdc;" horiz-adv-x="722" 
d="M547 718h97v-466q0 -117 -71 -191q-77 -80 -218 -80q-136 0 -210 79q-66 70 -66 179v479h97v-452q0 -107 58 -158q47 -41 124 -41q79 0 128 40q61 50 61 157v454zM326 901v-102h-91v102h91zM488 901v-102h-91v102h91z" />
    <glyph glyph-name="Yacute" unicode="&#xdd;" horiz-adv-x="667" 
d="M382 289v-289h-97v289l-271 429h113l206 -345l206 345h114zM513 881l-155 -141h-47l89 141h113z" />
    <glyph glyph-name="Thorn" unicode="&#xde;" horiz-adv-x="667" 
d="M183 516v-249h193q146 0 146 129q0 120 -142 120h-197zM86 0v718h97v-119h226q98 0 155.5 -56.5t57.5 -145.5q0 -86 -48 -144q-57 -69 -165 -69h-226v-184h-97z" />
    <glyph glyph-name="germandbls" unicode="&#xdf;" horiz-adv-x="611" 
d="M67 0v532q0 89 60.5 142.5t170.5 53.5t174.5 -49t64.5 -131q0 -95 -82 -148q52 -14 86 -66q30 -47 30 -96q0 -127 -72 -193q-66 -60 -180 -60q-20 0 -53 7v75q23 -3 44 -3q170 0 170 150q0 140 -170 140q-23 0 -39 -4v79q18 -2 23 -2q155 0 155 113q0 50 -38 80
q-41 32 -114 32q-80 0 -113 -39q-29 -33 -29 -103v-510h-88z" />
    <glyph glyph-name="agrave" unicode="&#xe0;" 
d="M143 364h-81q6 174 216 174q63 0 113 -23q81 -37 81 -123v-301q0 -31 29 -31q9 0 29 4v-64q-37 -10 -48 -10q-87 0 -93 80q-78 -85 -189 -85q-70 0 -117 41t-47 110q0 144 159 164l145 18q46 6 46 62q0 85 -123 85q-105 0 -120 -101zM384 181v86q-21 -17 -145 -33
q-112 -15 -112 -85q0 -91 95 -91q58 0 107 32q55 36 55 91zM303 618h-47l-155 141h113z" />
    <glyph glyph-name="aacute" unicode="&#xe1;" 
d="M143 364h-81q6 174 216 174q63 0 113 -23q81 -37 81 -123v-301q0 -31 29 -31q9 0 29 4v-64q-37 -10 -48 -10q-87 0 -93 80q-78 -85 -189 -85q-70 0 -117 41t-47 110q0 144 159 164l145 18q46 6 46 62q0 85 -123 85q-105 0 -120 -101zM384 181v86q-21 -17 -145 -33
q-112 -15 -112 -85q0 -91 95 -91q58 0 107 32q55 36 55 91zM460 759l-155 -141h-47l89 141h113z" />
    <glyph glyph-name="acircumflex" unicode="&#xe2;" 
d="M143 364h-81q6 174 216 174q63 0 113 -23q81 -37 81 -123v-301q0 -31 29 -31q9 0 29 4v-64q-37 -10 -48 -10q-87 0 -93 80q-78 -85 -189 -85q-70 0 -117 41t-47 110q0 144 159 164l145 18q46 6 46 62q0 85 -123 85q-105 0 -120 -101zM384 181v86q-21 -17 -145 -33
q-112 -15 -112 -85q0 -91 95 -91q58 0 107 32q55 36 55 91zM279 663l-66 -93h-79l99 141h93l99 -141h-80z" />
    <glyph glyph-name="atilde" unicode="&#xe3;" 
d="M143 364h-81q6 174 216 174q63 0 113 -23q81 -37 81 -123v-301q0 -31 29 -31q9 0 29 4v-64q-37 -10 -48 -10q-87 0 -93 80q-78 -85 -189 -85q-70 0 -117 41t-47 110q0 144 159 164l145 18q46 6 46 62q0 85 -123 85q-105 0 -120 -101zM384 181v86q-21 -17 -145 -33
q-112 -15 -112 -85q0 -91 95 -91q58 0 107 32q55 36 55 91zM410 710l45 -2q-20 -39 -53 -64q-37 -28 -76 -27q-21 3 -47 14l-21 9q-31 13 -50 14q-31 1 -59 -36l-43 1q50 92 132 90q20 0 55 -16l18 -8q19 -13 38 -13q34 -1 61 38z" />
    <glyph glyph-name="adieresis" unicode="&#xe4;" 
d="M143 364h-81q6 174 216 174q63 0 113 -23q81 -37 81 -123v-301q0 -31 29 -31q9 0 29 4v-64q-37 -10 -48 -10q-87 0 -93 80q-78 -85 -189 -85q-72 0 -118 42t-46 109q0 144 159 164l145 18q46 6 46 62q0 85 -123 85q-105 0 -120 -101zM384 181v86q-21 -17 -145 -33
q-112 -15 -112 -85q0 -91 95 -91q63 0 112.5 36t49.5 87zM243 706v-102h-91v102h91zM405 706v-102h-91v102h91z" />
    <glyph glyph-name="aring" unicode="&#xe5;" 
d="M143 364h-81q6 174 216 174q63 0 113 -23q81 -37 81 -123v-301q0 -31 29 -31q9 0 29 4v-64q-37 -10 -48 -10q-87 0 -93 80q-78 -85 -189 -85q-72 0 -118 42t-46 109q0 144 159 164l145 18q46 6 46 62q0 85 -123 85q-105 0 -120 -101zM384 181v86q-21 -17 -145 -33
q-112 -15 -112 -85q0 -91 95 -91q63 0 112.5 36t49.5 87zM279 756q40 0 66 -26t26 -66t-26 -66t-66 -26t-66 26t-26 66t26 66t66 26zM227 664q0 -22 15 -37t37 -15t37 15t15 37t-15 37t-37 15t-37 -15t-15 -37z" />
    <glyph glyph-name="ae" unicode="&#xe6;" horiz-adv-x="778" 
d="M639 359q0 124 -62 204q-68 88 -188 88t-188 -88q-62 -80 -62 -204q0 -123 62 -204q69 -88 188 -88q120 0 188 88q62 80 62 204zM739 359q0 -144 -74 -247q-94 -131 -276 -131q-181 0 -275 131q-75 104 -75 247t75 247q94 131 275 131q182 0 276 -131q74 -103 74 -247z
M412 800h-47l-155 141h113z" />
    <glyph glyph-name="ccedilla" unicode="&#xe7;" horiz-adv-x="500" 
d="M477 347h-85q-18 112 -124 112q-75 0 -113 -64q-31 -52 -31 -133q0 -201 143 -201q45 0 79.5 32.5t45.5 91.5h85q-8 -78 -52 -131q-58 -69 -161 -69q-108 0 -171 73t-63 189q0 129 61 206q66 85 190 85q94 0 147 -61q43 -51 49 -130zM561 209h-288l-75 -209h-100l270 718
h110l260 -718h-106zM303 295h223l-106 316h-2zM496 780h-47l-155 141h113z" />
    <glyph glyph-name="egrave" unicode="&#xe8;" 
d="M421 164h88q-3 -27 -23 -64q-63 -115 -212 -115q-111 0 -175 77q-59 72 -59 185q0 128 60 205q67 86 191 86q121 0 178 -97q47 -78 47 -208h-382q0 -172 152 -172q47 0 87 28q44 30 48 75zM134 303h291q-10 156 -146 156q-61 0 -103 -47t-42 -109zM313 618h-47l-155 141
h113z" />
    <glyph glyph-name="eacute" unicode="&#xe9;" 
d="M421 164h88q-3 -27 -23 -64q-63 -115 -212 -115q-111 0 -175 77q-59 72 -59 185q0 128 60 205q67 86 191 86q121 0 178 -97q47 -78 47 -208h-382q0 -172 152 -172q47 0 87 28q44 30 48 75zM134 303h291q-10 156 -146 156q-61 0 -103 -47t-42 -109zM470 759l-155 -141h-47
l89 141h113z" />
    <glyph glyph-name="ecircumflex" unicode="&#xea;" 
d="M421 164h88q-3 -27 -23 -64q-63 -115 -212 -115q-111 0 -175 77q-59 72 -59 185q0 128 60 205q67 86 191 86q121 0 178 -97q47 -78 47 -208h-382q0 -172 152 -172q47 0 87 28q44 30 48 75zM134 303h291q-10 156 -146 156q-61 0 -103 -47t-42 -109zM291 663l-66 -93h-79
l99 141h93l99 -141h-80z" />
    <glyph glyph-name="edieresis" unicode="&#xeb;" 
d="M421 164h88q-3 -28 -23 -64q-27 -50 -70 -79q-54 -36 -142 -36q-108 0 -171 73t-63 189q0 129 61 206q66 85 190 85q111 0 168 -81.5t57 -223.5h-382q0 -172 152 -172q57 0 98 37q34 32 37 66zM134 303h291q-10 156 -146 156q-60 0 -102.5 -47t-42.5 -109zM243 706v-102
h-91v102h91zM405 706v-102h-91v102h91z" />
    <glyph glyph-name="igrave" unicode="&#xec;" horiz-adv-x="222" 
d="M155 523v-523h-88v523h88zM135 608h-47l-155 141h113z" />
    <glyph glyph-name="iacute" unicode="&#xed;" horiz-adv-x="222" 
d="M155 523v-523h-88v523h88zM291 749l-155 -141h-47l89 141h113z" />
    <glyph glyph-name="icircumflex" unicode="&#xee;" horiz-adv-x="278" 
d="M183 523v-523h-88v523h88zM139 686l-66 -93h-79l99 141h93l99 -141h-80z" />
    <glyph glyph-name="idieresis" unicode="&#xef;" horiz-adv-x="278" 
d="M183 523v-523h-88v523h88zM104 706v-102h-91v102h91zM266 706v-102h-91v102h91z" />
    <glyph glyph-name="eth" unicode="&#xf0;" 
d="M126 254q0 -64 28 -117q40 -76 124 -76t124 76q28 53 28 117t-28 117q-40 76 -124 76t-124 -76q-28 -53 -28 -117zM469 697l-107 -51q160 -147 160 -348q0 -163 -79 -246q-64 -67 -157 -67q-123 0 -191 85q-60 74 -60 184q0 107 59 184q64 85 170 85q82 0 133 -55l2 2
q-31 77 -111 142l-124 -62l-42 42l118 57q-41 32 -89 52l74 36q52 -20 91 -51l106 51z" />
    <glyph glyph-name="ntilde" unicode="&#xf1;" 
d="M491 356v-356h-88v322q0 71 -25 104t-87 33q-51 0 -88 -34q-50 -46 -50 -140v-285h-88v523h83v-74h2q60 89 158 89q75 0 122 -35q61 -46 61 -147zM389 722v0h50q-5 -47 -32 -78t-68 -31q-21 0 -59 13l-26 9q-43 15 -61 15q-33 0 -47 -44h-48q15 107 104 107q31 0 68 -15
l22 -9q32 -13 47 -13q40 0 50 46z" />
    <glyph glyph-name="ograve" unicode="&#xf2;" 
d="M35 262q0 117 62 193q67 83 181 83t181 -83q62 -76 62 -193t-62 -193q-67 -83 -181 -83t-181 83q-62 76 -62 193zM126 262q0 -73 29 -126q40 -74 123 -74t123 74q29 53 29 126t-29 126q-40 74 -123 74t-123 -74q-29 -53 -29 -126zM300 618h-47l-155 141h113z" />
    <glyph glyph-name="oacute" unicode="&#xf3;" 
d="M35 262q0 117 62 193q67 83 181 83t181 -83q62 -76 62 -193t-62 -193q-67 -83 -181 -83t-181 83q-62 76 -62 193zM126 262q0 -73 29 -126q40 -74 123 -74t123 74q29 53 29 126t-29 126q-40 74 -123 74t-123 -74q-29 -53 -29 -126zM457 759l-155 -141h-47l89 141h113z" />
    <glyph glyph-name="ocircumflex" unicode="&#xf4;" 
d="M35 262q0 117 62 193q67 83 181 83t181 -83q62 -76 62 -193t-62 -193q-67 -83 -181 -83t-181 83q-62 76 -62 193zM126 262q0 -73 29 -126q40 -74 123 -74t123 74q29 53 29 126t-29 126q-40 74 -123 74t-123 -74q-29 -53 -29 -126zM278 663l-66 -93h-79l99 141h93l99 -141
h-80z" />
    <glyph glyph-name="otilde" unicode="&#xf5;" 
d="M35 262q0 117 62 193q67 83 181 83t181 -83q62 -76 62 -193t-62 -193q-67 -83 -181 -83t-181 83q-62 76 -62 193zM126 262q0 -73 29 -126q40 -74 123 -74t123 74q29 53 29 126t-29 126q-40 74 -123 74t-123 -74q-29 -53 -29 -126zM407 710l45 -2q-20 -39 -53 -64
q-37 -28 -76 -27q-21 3 -47 14l-21 9q-31 13 -50 14q-31 1 -59 -36l-43 1q50 92 132 90q20 0 55 -16l18 -8q19 -13 38 -13q34 -1 61 38z" />
    <glyph glyph-name="odieresis" unicode="&#xf6;" 
d="M35 262q0 112 59 189q67 87 184 87t184 -87q59 -77 59 -189t-59 -189q-67 -87 -184 -87t-184 87q-59 77 -59 189zM126 262q0 -73 29 -126q40 -74 123 -74t123 74q29 53 29 126t-29 126q-40 74 -123 74t-123 -74q-29 -53 -29 -126zM243 706v-102h-91v102h91zM405 706v-102
h-91v102h91z" />
    <glyph glyph-name="divide" unicode="&#xf7;" horiz-adv-x="584" 
d="M545 216h-506v73h506v-73zM224 456q0 28 20.5 48t47.5 20q28 0 48 -20t20 -48q0 -26 -20.5 -47t-47.5 -21t-47.5 20t-20.5 48zM224 49q0 28 20.5 48t47.5 20q28 0 48 -20t20 -48q0 -26 -20.5 -47t-47.5 -21t-47.5 20t-20.5 48z" />
    <glyph glyph-name="oslash" unicode="&#xf8;" horiz-adv-x="611" 
d="M537 519l-69 -78q53 -74 53 -179q0 -112 -59 -189q-67 -87 -184 -87q-97 0 -159 60l-60 -68l-31 26l64 72q-57 77 -57 186q0 112 59 189q67 87 184 87q101 0 164 -65l64 72zM151 143l236 267q-40 52 -109 52q-83 0 -123 -74q-29 -53 -29 -126q0 -65 25 -119zM408 373
l-234 -265q37 -46 104 -46q83 0 123 74q29 53 29 126q0 63 -22 111z" />
    <glyph glyph-name="ugrave" unicode="&#xf9;" 
d="M489 0h-83v76l-2 2q-56 -93 -166 -93q-78 0 -124 42t-46 120v376h88v-347q0 -115 101 -115q72 0 110 53q34 47 34 121v288h88v-523zM303 578h-47l-155 141h113z" />
    <glyph glyph-name="uacute" unicode="&#xfa;" 
d="M489 0h-83v76l-2 2q-56 -93 -166 -93q-78 0 -124 42t-46 120v376h88v-347q0 -115 101 -115q72 0 110 53q34 47 34 121v288h88v-523zM457 719l-155 -141h-47l89 141h113z" />
    <glyph glyph-name="ucircumflex" unicode="&#xfb;" 
d="M489 0h-83v76l-2 2q-56 -93 -166 -93q-69 0 -114 34q-56 43 -56 128v376h88v-347q0 -115 101 -115q76 0 114 59q30 46 30 115v288h88v-523zM278 686l-66 -93h-79l99 141h93l99 -141h-80z" />
    <glyph glyph-name="udieresis" unicode="&#xfc;" 
d="M489 0h-83v76l-2 2q-56 -93 -166 -93q-69 0 -114 34q-56 43 -56 128v376h88v-347q0 -115 101 -115q76 0 114 59q30 46 30 115v288h88v-523zM243 706v-102h-91v102h91zM405 706v-102h-91v102h91z" />
    <glyph glyph-name="yacute" unicode="&#xfd;" horiz-adv-x="500" 
d="M252 97l140 426h97q-88 -247 -188 -513q-39 -104 -65 -151.5t-55 -61.5q-24 -11 -85 -11q-9 0 -37 8v80q25 -9 53 -9q33 0 48 20q12 16 45 101l-194 537h100l139 -426h2zM429 709l-155 -141h-47l89 141h113z" />
    <glyph glyph-name="thorn" unicode="&#xfe;" 
d="M142 237q0 -93 51 -140q38 -36 92 -36q69 0 107 58q34 53 34 144q0 196 -143 196q-141 0 -141 -222zM58 -207v925h88v-267h2q56 87 151 87q101 0 161 -75q57 -72 57 -186t-48 -193q-61 -99 -182 -99q-95 0 -139 70h-2v-262h-88z" />
    <glyph glyph-name="ydieresis" unicode="&#xff;" horiz-adv-x="500" 
d="M252 97l140 426h97q-61 -171 -188 -513q-45 -116 -65 -152q-25 -47 -55 -61q-24 -11 -85 -11q-9 0 -37 8v80q25 -9 53 -9q33 0 48 20q12 17 45 101l-194 537h100l139 -426h2zM215 706v-102h-91v102h91zM377 706v-102h-91v102h91z" />
    <glyph glyph-name="glyph271" unicode="&#x102;" horiz-adv-x="667" 
d="M477 209h-288l-75 -209h-100l270 718h110l260 -718h-106zM219 295h223l-106 316h-2zM436 889h46q-15 -129 -151 -129q-126 0 -142 129h47q8 -29 22 -45q27 -30 80 -30q77 0 98 75z" />
    <glyph glyph-name="glyph272" unicode="&#x103;" 
d="M143 364h-81q6 174 216 174q63 0 113 -23q81 -37 81 -123v-301q0 -31 29 -31q9 0 29 4v-64q-37 -10 -48 -10q-87 0 -93 80q-78 -85 -189 -85q-70 0 -117 41t-47 110q0 144 159 164l145 18q46 6 46 62q0 85 -123 85q-105 0 -120 -101zM384 181v86q-21 -17 -145 -33
q-112 -15 -112 -85q0 -91 95 -91q58 0 107 32q55 36 55 91zM383 723h46q-15 -129 -151 -129q-126 0 -142 129h47q8 -29 22 -45q27 -30 80 -30q77 0 98 75z" />
    <glyph glyph-name="Cacute" unicode="&#x106;" horiz-adv-x="711" 
d="M674 502h-94q-32 149 -201 149q-102 0 -166 -72q-69 -77 -69 -213q0 -299 238 -299q64 0 114 36q69 50 91 161h94q-26 -173 -152 -243q-72 -40 -162 -40q-136 0 -223 88q-100 101 -100 294q0 168 90 271t245 103q131 0 212 -72q72 -65 83 -163zM496 989l-130 -141h-67
l89 141h108z" />
    <glyph glyph-name="cacute" unicode="&#x107;" horiz-adv-x="441" 
d="M477 347h-85q-18 112 -124 112q-75 0 -113 -64q-31 -52 -31 -133q0 -201 143 -201q45 0 79.5 32.5t45.5 91.5h85q-8 -78 -52 -131q-58 -69 -161 -69q-108 0 -171 73t-63 189q0 129 61 206q66 85 190 85q94 0 147 -61q43 -51 49 -130zM297 734l-130 -141h-67l89 141h108z
" />
    <glyph glyph-name="Ccaron" unicode="&#x10c;" horiz-adv-x="711" 
d="M674 502h-94q-32 149 -201 149q-102 0 -166 -72q-69 -77 -69 -213q0 -299 238 -299q64 0 114 36q69 50 91 161h94q-26 -173 -152 -243q-72 -40 -162 -40q-136 0 -223 88q-100 101 -100 294q0 168 90 271t245 103q131 0 212 -72q72 -65 83 -163zM277 989l66 -93l66 93h80
l-99 -141h-93l-99 141h79z" />
    <glyph glyph-name="ccaron" unicode="&#x10d;" horiz-adv-x="441" 
d="M477 347h-85q-18 112 -124 112q-75 0 -113 -64q-31 -52 -31 -133q0 -201 143 -201q45 0 79.5 32.5t45.5 91.5h85q-8 -78 -52 -131q-58 -69 -161 -69q-108 0 -171 73t-63 189q0 129 61 206q66 85 190 85q94 0 147 -61q43 -51 49 -130zM78 734l66 -93l66 93h80l-99 -141
h-93l-99 141h79z" />
    <glyph glyph-name="Dslash" unicode="&#x110;" horiz-adv-x="722" 
d="M370 412v-86h-192v-243h188q109 0 163 90q45 73 45 190q0 119 -47 189q-55 83 -168 83h-181v-223h192zM0 326v86h81v306h291q146 0 227 -104q75 -95 75 -245q0 -115 -44 -207q-77 -162 -262 -162h-287v326h-81z" />
    <glyph glyph-name="dcroat" unicode="&#x111;" 
d="M126 263q0 -81 29 -135q37 -67 112 -67q70 0 109 54q34 48 34 122q0 222 -141 222q-143 0 -143 -196zM499 647h40v-73h-40v-574h-83v72h-2q-47 -87 -149 -87q-121 0 -182 99q-48 78 -48 193q0 109 53 181q59 80 165 80q94 0 156 -89l2 7v118h-140v73h140v71h88v-71z" />
    <glyph glyph-name="Gbreve" unicode="&#x11e;" horiz-adv-x="767" 
d="M389 301v83h315v-384h-63l-23 93q-37 -51 -100.5 -81.5t-136.5 -30.5q-135 0 -220 81q-72 69 -98 162q-15 56 -15 141q0 147 82 252q95 120 258 120q110 0 194 -58q95 -66 110 -179h-94q-37 151 -215 151q-101 0 -166 -75q-69 -80 -69 -216q0 -296 239 -296q89 0 147 46
q79 63 79 191h-224zM469 986h48q-15 -136 -159 -136q-133 0 -149 136h49q14 -43 38 -61t70 -18q52 0 78 28q15 16 25 51z" />
    <glyph glyph-name="gbreve" unicode="&#x11f;" horiz-adv-x="492" 
d="M131 263q0 -91 35 -144q37 -58 106 -58q54 0 93 36q50 47 50 140q0 222 -141 222q-143 0 -143 -196zM499 523v-480q0 -103 -31 -160q-56 -103 -212 -103q-181 0 -200 156h88q16 -83 118 -83q99 0 132 69q17 36 17 115v22h-2v-4q-44 -70 -139 -70q-121 0 -182 99
q-48 79 -48 193t58.5 187.5t159.5 73.5q94 0 156 -89h2v74h83zM269 731h48q-15 -136 -159 -136q-133 0 -149 136h49q14 -43 38 -61t70 -18q52 0 78 28q15 16 25 51z" />
    <glyph glyph-name="glyph273" unicode="&#x128;" horiz-adv-x="278" 
d="M188 718v-718h-97v718h97zM271 873l45 -2q-20 -39 -53 -64q-37 -28 -76 -27q-21 3 -47 14l-21 9q-31 13 -50 14q-31 1 -59 -36l-43 1q50 92 132 90q20 0 55 -16l18 -8q19 -13 38 -13q34 -1 61 38z" />
    <glyph glyph-name="glyph274" unicode="&#x129;" horiz-adv-x="222" 
d="M155 523v-523h-88v523h88zM243 700l45 -2q-20 -39 -53 -64q-37 -28 -76 -27q-21 3 -47 14l-21 9q-31 13 -50 14q-31 1 -59 -36l-43 1q50 92 132 90q20 0 55 -16l18 -8q19 -13 38 -13q34 -1 61 38z" />
    <glyph glyph-name="Idotaccent" unicode="&#x130;" horiz-adv-x="429" 
d="M188 718v-718h-97v718h97zM239 961v-102h-91v102h91z" />
    <glyph glyph-name="dotlessi" unicode="&#x131;" horiz-adv-x="278" 
d="M183 523v-523h-88v523h88z" />
    <glyph glyph-name="Lslash" unicode="&#x141;" 
d="M291 520v-58l-118 -67v-309h364v-86h-461v344l-96 -55v58l96 55v316h97v-265z" />
    <glyph glyph-name="lslash" unicode="&#x142;" horiz-adv-x="222" 
d="M242 435l-87 -50v-385h-88v339l-87 -50v58l87 50v321h88v-275l87 50v-58z" />
    <glyph glyph-name="OE" unicode="&#x152;" horiz-adv-x="278" 
d="M188 718v-718h-97v718h97zM319 921l-155 -141h-47l89 141h113z" />
    <glyph glyph-name="oe" unicode="&#x153;" horiz-adv-x="944" 
d="M519 303h292q-10 156 -146 156q-60 0 -103 -47t-43 -109zM807 164h88q-3 -28 -23 -64q-27 -50 -70 -79q-54 -36 -142 -36q-125 0 -194 101q-52 -101 -188 -100q-117 1 -184 88q-59 76 -59 188t59 189q67 87 184 87q132 -1 196 -106q69 106 203 106q111 0 168 -81.5
t57 -223.5h-383q0 -172 153 -172q57 0 98 37q34 32 37 66zM126 262q0 -73 29 -126q40 -74 123 -74t123 74q29 53 29 126t-29 126q-40 74 -123 74t-123 -74q-29 -53 -29 -126z" />
    <glyph glyph-name="Scedilla" unicode="&#x15e;" horiz-adv-x="656" 
d="M600 508h-91q-3 76 -60 115q-47 31 -118 31q-164 0 -164 -126q0 -72 85 -91l205 -47q163 -37 163 -192q0 -115 -94 -172q-75 -45 -187 -45q-141 0 -217 69q-73 66 -73 182h91q0 -89 65 -133q52 -35 133 -35q72 0 120 22q68 31 68 99q0 55 -31.5 80.5t-121.5 46.5l-147 34
q-153 35 -153 169q0 93 58 153q67 69 189 69q268 0 280 -229zM516 209h-288l-75 -209h-100l270 718h110l260 -718h-106zM258 295h223l-106 316h-2zM451 780h-47l-155 141h113z" />
    <glyph glyph-name="scedilla" unicode="&#x15f;" horiz-adv-x="383" 
d="M447 374h-85q-3 88 -124 88q-41 0 -69 -16q-35 -20 -35 -58q0 -30 22 -45q17 -11 73 -25l88 -22q81 -20 114 -52t33 -86q0 -79 -58 -126t-149 -47q-216 0 -225 183h85q8 -107 139 -107q51 0 85.5 21t34.5 62q0 30 -22.5 45t-81.5 30l-102 25q-121 30 -121 127
q0 81 60 127q54 40 138 40q119 0 170 -72q30 -43 30 -92zM419 209h-288l-75 -209h-100l270 718h110l260 -718h-106zM161 295h223l-106 316h-2zM354 780h-47l-155 141h113z" />
    <glyph glyph-name="Scaron" unicode="&#x160;" horiz-adv-x="667" 
d="M600 508h-91q-3 76 -60 115q-47 31 -118 31q-164 0 -164 -126q0 -72 85 -91l205 -47q163 -37 163 -192q0 -115 -94 -172q-75 -45 -187 -45q-141 0 -217 69q-73 66 -73 182h91q0 -89 65 -133q52 -35 133 -35q72 0 120 22q68 31 68 99q0 55 -31.5 80.5t-121.5 46.5l-147 34
q-153 35 -153 169q0 93 58 153q67 69 189 69q268 0 280 -229zM267 929l66 -93l66 93h80l-99 -141h-93l-99 141h79z" />
    <glyph glyph-name="scaron" unicode="&#x161;" horiz-adv-x="500" 
d="M447 374h-85q-3 88 -124 88q-41 0 -69 -16q-35 -20 -35 -58q0 -30 22 -45q17 -11 73 -25l88 -22q81 -20 114 -52t33 -86q0 -79 -58 -126t-149 -47q-216 0 -225 183h85q8 -107 139 -107q51 0 85.5 21t34.5 62q0 30 -22.5 45t-81.5 30l-102 25q-121 30 -121 127
q0 81 60 127q54 40 138 40q119 0 170 -72q30 -43 30 -92zM184 734l66 -93l66 93h80l-99 -141h-93l-99 141h79z" />
    <glyph glyph-name="ch903" unicode="&#x168;" horiz-adv-x="722" 
d="M547 718h97v-466q0 -128 -79.5 -199.5t-209.5 -71.5q-123 0 -198 67q-78 70 -78 191v479h97v-452q0 -93 44 -144q48 -55 138 -55q92 0 140.5 51.5t48.5 145.5v454zM494 843l45 -2q-20 -39 -53 -64q-37 -28 -76 -27q-21 3 -47 14l-21 9q-31 13 -50 14q-31 1 -59 -36l-43 1
q50 92 132 90q20 0 55 -16l18 -8q19 -13 38 -13q34 -1 61 38z" />
    <glyph glyph-name="ch904" unicode="&#x169;" 
d="M489 0h-83v76l-2 2q-56 -93 -166 -93q-78 0 -124 42t-46 120v376h88v-347q0 -115 101 -115q72 0 110 53q34 47 34 121v288h88v-523zM407 680l45 -2q-20 -39 -53 -64q-37 -28 -76 -27q-21 3 -47 14l-21 9q-31 13 -50 14q-31 1 -59 -36l-43 1q50 92 132 90q20 0 55 -16
l18 -8q19 -13 38 -13q34 -1 61 38z" />
    <glyph glyph-name="Ydieresis" unicode="&#x178;" horiz-adv-x="667" 
d="M382 289v-289h-97v289l-271 429h113l206 -345l206 345h114zM298 901v-102h-91v102h91zM460 901v-102h-91v102h91z" />
    <glyph glyph-name="Zcaron" unicode="&#x17d;" horiz-adv-x="611" 
d="M588 86v-86h-565v81l440 551h-407v86h532v-84l-442 -548h442zM239 929l66 -93l66 93h80l-99 -141h-93l-99 141h79z" />
    <glyph glyph-name="zcaron" unicode="&#x17e;" horiz-adv-x="500" 
d="M460 451l-312 -378h321v-73h-438v69l315 381h-291v73h405v-72zM184 734l66 -93l66 93h80l-99 -141h-93l-99 141h79z" />
    <glyph glyph-name="florin" unicode="&#x192;" 
d="M501 722l-15 -78q-42 17 -57 17q-62 0 -81 -97l-20 -103h114v-70h-127l-60 -327q-50 -271 -204 -271q-36 0 -62 12l15 81q28 -14 51 -14q46 0 69 47q18 34 35 127l64 345h-109v70h123l28 124q14 60 52 103q46 49 106 49q39 0 78 -15z" />
    <glyph glyph-name="glyph277" unicode="&#x1a0;" horiz-adv-x="778" 
d="M639 359q0 124 -62 204q-68 88 -188 88t-188 -88q-62 -80 -62 -204q0 -123 62 -204q69 -88 188 -88q120 0 188 88q62 80 62 204zM543 706v1q46 7 66 17q30 15 43 49q7 0 22 3.5t23 3.5q17 0 17 -12q0 -4 -3 -12q-29 -77 -118 -70q-15 6 -30 10q86 -47 133 -144
q43 -88 43 -193q0 -144 -74 -247q-94 -131 -276 -131q-181 0 -275 131q-75 104 -75 247t75 247q94 131 275 131q87 0 154 -31z" />
    <glyph glyph-name="glyph278" unicode="&#x1a1;" 
d="M126 262q0 -73 29 -126q40 -74 123 -74t123 74q29 53 29 126t-29 126q-40 74 -123 74t-123 -74q-29 -53 -29 -126zM368 522h42q43 14 58 55q7 0 22 3.5t23 3.5q16 0 16 -12q0 -6 -2 -12q-25 -69 -103 -71q97 -76 97 -227q0 -117 -62 -193q-67 -83 -181 -83t-181 83
q-62 76 -62 193t62 193q67 83 181 83q48 0 90 -16z" />
    <glyph glyph-name="glyph279" unicode="&#x1af;" horiz-adv-x="722" 
d="M644 686v-434q0 -128 -79.5 -199.5t-209.5 -71.5q-123 0 -198 67q-78 70 -78 191v479h97v-452q0 -93 44 -144q48 -55 138 -55q92 0 140.5 51.5t48.5 145.5v454h97q43 14 58 55q7 0 22 3.5t23 3.5q17 0 17 -12q0 -4 -3 -12q-29 -77 -117 -70z" />
    <glyph glyph-name="glyph280" unicode="&#x1b0;" 
d="M489 490v-490h-83v76l-2 2q-56 -93 -166 -93q-78 0 -124 42t-46 120v376h88v-347q0 -115 101 -115q72 0 110 53q34 47 34 121v288h88q40 13 56 54q7 0 22 3.5t23 3.5q17 0 17 -12q0 -4 -3 -12q-28 -76 -115 -70z" />
    <glyph glyph-name="circumflex" unicode="&#x2c6;" horiz-adv-x="333" 
d="M166 686l-66 -93h-79l99 141h93l99 -141h-80z" />
    <glyph glyph-name="caron" unicode="&#x2c7;" horiz-adv-x="333" 
d="M100 734l66 -93l66 93h80l-99 -141h-93l-99 141h79z" />
    <glyph glyph-name="breve" unicode="&#x2d8;" horiz-adv-x="333" 
d="M273 731h48q-15 -136 -159 -136q-133 0 -149 136h49q14 -43 38 -61t70 -18q52 0 78 28q15 16 25 51z" />
    <glyph glyph-name="dotaccent" unicode="&#x2d9;" horiz-adv-x="333" 
d="M212 706v-102h-91v102h91z" />
    <glyph glyph-name="ring" unicode="&#x2da;" horiz-adv-x="333" 
d="M167 756q40 0 66 -26t26 -66t-26 -66t-66 -26t-66 26t-26 66t26 66t66 26zM115 664q0 -22 15 -37t37 -15t37 15t15 37t-15 37t-37 15t-37 -15t-15 -37z" />
    <glyph glyph-name="ogonek" unicode="&#x2db;" horiz-adv-x="333" 
d="M270 -163l17 -40q-51 -22 -96 -22q-54 0 -86 26t-32 66q0 36 19 69q28 47 90 64h67v-4q-60 -33 -80 -59t-20 -65q0 -50 56 -50q28 0 65 15z" />
    <glyph glyph-name="tilde" unicode="&#x2dc;" horiz-adv-x="333" 
d="M287 722v0h50q-5 -47 -32 -78t-68 -31q-21 0 -59 13l-26 9q-43 15 -61 15q-33 0 -47 -44h-48q15 107 104 107q31 0 68 -15l22 -9q32 -13 47 -13q40 0 50 46z" />
    <glyph glyph-name="hungarumlaut" unicode="&#x2dd;" horiz-adv-x="778" 
d="M639 359q0 124 -62 204q-68 88 -188 88t-188 -88q-62 -80 -62 -204q0 -123 62 -204q69 -88 188 -88q120 0 188 88q62 80 62 204zM739 359q0 -144 -74 -247q-94 -131 -276 -131q-181 0 -275 131q-75 104 -75 247t75 247q94 131 275 131q182 0 276 -131q74 -103 74 -247z
M520 893l45 -2q-20 -39 -53 -64q-37 -28 -76 -27q-21 3 -47 14l-21 9q-31 13 -50 14q-31 1 -59 -36l-43 1q50 92 132 90q20 0 55 -16l18 -8q19 -13 38 -13q34 -1 61 38z" />
    <glyph glyph-name="glyph281" unicode="&#x1ea0;" horiz-adv-x="667" 
d="M477 209h-288l-75 -209h-100l270 718h110l260 -718h-106zM219 295h223l-106 316h-2zM385 -32v-100h-98v100l49 2z" />
    <glyph glyph-name="glyph282" unicode="&#x1ea1;" 
d="M143 364h-81q6 174 216 174q63 0 113 -23q81 -37 81 -123v-301q0 -31 29 -31q9 0 29 4v-64q-37 -10 -48 -10q-87 0 -93 80q-78 -85 -189 -85q-70 0 -117 41t-47 110q0 144 159 164l145 18q46 6 46 62q0 85 -123 85q-105 0 -120 -101zM384 181v86q-21 -17 -145 -33
q-112 -15 -112 -85q0 -91 95 -91q58 0 107 32q55 36 55 91zM328 -62v-95h-94v95l47 2z" />
    <glyph glyph-name="glyph283" unicode="&#x1ea2;" horiz-adv-x="667" 
d="M477 209h-288l-75 -209h-100l270 718h110l260 -718h-106zM219 295h223l-106 316h-2zM298 891l-36 5q3 35 4 40q11 53 73 53q33 0 57 -19.5t24 -51.5q0 -28 -38 -64q-16 -15 -20 -29q-3 -9 -3 -36l-24 -18l-26 18q0 26 12 44q1 2 36 38q24 25 24 45q0 44 -43 44
q-29 0 -37 -29q-3 -11 -3 -40z" />
    <glyph glyph-name="glyph284" unicode="&#x1ea3;" 
d="M143 364h-81q6 174 216 174q63 0 113 -23q81 -37 81 -123v-301q0 -31 29 -31q9 0 29 4v-64q-37 -10 -48 -10q-87 0 -93 80q-78 -85 -189 -85q-70 0 -117 41t-47 110q0 144 159 164l145 18q46 6 46 62q0 85 -123 85q-105 0 -120 -101zM384 181v86q-21 -17 -145 -33
q-112 -15 -112 -85q0 -91 95 -91q58 0 107 32q55 36 55 91zM243 728l-36 5q3 35 4 40q11 53 73 53q33 0 57 -19.5t24 -51.5q0 -28 -38 -64q-16 -15 -20 -29q-3 -9 -3 -36l-24 -18l-26 18q0 26 12 44q1 2 36 38q24 25 24 45q0 44 -43 44q-29 0 -37 -29q-3 -11 -3 -40z" />
    <glyph glyph-name="glyph285" unicode="&#x1ea4;" horiz-adv-x="667" 
d="M477 209h-288l-75 -209h-100l270 718h110l260 -718h-106zM219 295h223l-106 316h-2zM659 974l-155 -141h-47l89 141h113zM335 833l-76 -93h-69l109 141h73l109 -141h-70z" />
    <glyph glyph-name="glyph286" unicode="&#x1ea5;" 
d="M143 364h-81q6 174 216 174q63 0 113 -23q81 -37 81 -123v-301q0 -31 29 -31q9 0 29 4v-64q-37 -10 -48 -10q-87 0 -93 80q-78 -85 -189 -85q-70 0 -117 41t-47 110q0 144 159 164l145 18q46 6 46 62q0 85 -123 85q-105 0 -120 -101zM384 181v86q-21 -17 -145 -33
q-112 -15 -112 -85q0 -91 95 -91q58 0 107 32q55 36 55 91zM604 804l-155 -141h-47l89 141h113zM280 663l-76 -93h-69l109 141h73l109 -141h-70z" />
    <glyph glyph-name="glyph287" unicode="&#x1ea6;" horiz-adv-x="667" 
d="M477 209h-288l-75 -209h-100l270 718h110l260 -718h-106zM219 295h223l-106 316h-2zM335 833l-66 -93h-79l99 141h93l99 -141h-80zM213 833h-47l-155 141h113z" />
    <glyph glyph-name="glyph288" unicode="&#x1ea7;" 
d="M143 364h-81q6 174 216 174q63 0 113 -23q81 -37 81 -123v-301q0 -31 29 -31q9 0 29 4v-64q-37 -10 -48 -10q-87 0 -93 80q-78 -85 -189 -85q-70 0 -117 41t-47 110q0 144 159 164l145 18q46 6 46 62q0 85 -123 85q-105 0 -120 -101zM384 181v86q-21 -17 -145 -33
q-112 -15 -112 -85q0 -91 95 -91q58 0 107 32q55 36 55 91zM279 663l-66 -93h-79l99 141h93l99 -141h-80zM157 663h-47l-155 141h113z" />
    <glyph glyph-name="glyph289" unicode="&#x1ea8;" horiz-adv-x="667" 
d="M477 209h-288l-75 -209h-100l270 718h110l260 -718h-106zM219 295h223l-106 316h-2zM452 951l-36 5q3 35 4 40q11 53 73 53q33 0 57 -19.5t24 -51.5q0 -28 -38 -64q-16 -15 -20 -29q-3 -9 -3 -36l-24 -18l-26 18q0 26 12 44q1 2 36 38q24 25 24 45q0 44 -43 44
q-29 0 -37 -29q-3 -11 -3 -40zM335 833l-76 -93h-69l109 141h73l109 -141h-70z" />
    <glyph glyph-name="glyph290" unicode="&#x1ea9;" 
d="M143 364h-81q6 174 216 174q63 0 113 -23q81 -37 81 -123v-301q0 -31 29 -31q9 0 29 4v-64q-37 -10 -48 -10q-87 0 -93 80q-78 -85 -189 -85q-70 0 -117 41t-47 110q0 144 159 164l145 18q46 6 46 62q0 85 -123 85q-105 0 -120 -101zM384 181v86q-21 -17 -145 -33
q-112 -15 -112 -85q0 -91 95 -91q58 0 107 32q55 36 55 91zM397 781l-36 5q3 35 4 40q11 53 73 53q33 0 57 -19.5t24 -51.5q0 -28 -38 -64q-16 -15 -20 -29q-3 -9 -3 -36l-24 -18l-26 18q0 26 12 44q1 2 36 38q24 25 24 45q0 44 -43 44q-29 0 -37 -29q-3 -11 -3 -40z
M280 663l-76 -93h-69l109 141h73l109 -141h-70z" />
    <glyph glyph-name="glyph291" unicode="&#x1eaa;" horiz-adv-x="667" 
d="M477 209h-288l-75 -209h-100l270 718h110l260 -718h-106zM219 295h223l-106 316h-2zM335 833l-76 -93h-69l109 141h73l109 -141h-70zM466 1014l45 -2q-20 -39 -53 -64q-37 -28 -76 -27q-21 3 -47 14l-21 9q-31 13 -50 14q-31 1 -59 -36l-43 1q50 92 132 90q20 0 55 -16
l18 -8q19 -13 38 -13q34 -1 61 38z" />
    <glyph glyph-name="glyph292" unicode="&#x1eab;" 
d="M143 364h-81q6 174 216 174q63 0 113 -23q81 -37 81 -123v-301q0 -31 29 -31q9 0 29 4v-64q-37 -10 -48 -10q-87 0 -93 80q-78 -85 -189 -85q-70 0 -117 41t-47 110q0 144 159 164l145 18q46 6 46 62q0 85 -123 85q-105 0 -120 -101zM384 181v86q-21 -17 -145 -33
q-112 -15 -112 -85q0 -91 95 -91q58 0 107 32q55 36 55 91zM279 663l-76 -93h-69l109 141h73l109 -141h-70zM410 844l45 -2q-20 -39 -53 -64q-37 -28 -76 -27q-21 3 -47 14l-21 9q-31 13 -50 14q-31 1 -59 -36l-43 1q50 92 132 90q20 0 55 -16l18 -8q19 -13 38 -13
q34 -1 61 38z" />
    <glyph glyph-name="glyph293" unicode="&#x1eac;" horiz-adv-x="667" 
d="M477 209h-288l-75 -209h-100l270 718h110l260 -718h-106zM219 295h223l-106 316h-2zM335 833l-76 -93h-69l109 141h73l109 -141h-70zM385 -32v-100h-98v100l49 2z" />
    <glyph glyph-name="glyph294" unicode="&#x1ead;" 
d="M143 364h-81q6 174 216 174q63 0 113 -23q81 -37 81 -123v-301q0 -31 29 -31q9 0 29 4v-64q-37 -10 -48 -10q-87 0 -93 80q-78 -85 -189 -85q-70 0 -117 41t-47 110q0 144 159 164l145 18q46 6 46 62q0 85 -123 85q-105 0 -120 -101zM384 181v86q-21 -17 -145 -33
q-112 -15 -112 -85q0 -91 95 -91q58 0 107 32q55 36 55 91zM279 663l-66 -93h-79l99 141h93l99 -141h-80zM328 -62v-95h-94v95l47 2z" />
    <glyph glyph-name="glyph295" unicode="&#x1eae;" horiz-adv-x="667" 
d="M477 209h-288l-75 -209h-100l270 718h110l260 -718h-106zM219 295h223l-106 316h-2zM514 1037l-155 -141h-47l89 141h113zM436 889h46q-15 -129 -151 -129q-126 0 -142 129h47q8 -29 22 -45q27 -30 80 -30q77 0 98 75z" />
    <glyph glyph-name="glyph296" unicode="&#x1eaf;" 
d="M143 364h-81q6 174 216 174q63 0 113 -23q81 -37 81 -123v-301q0 -31 29 -31q9 0 29 4v-64q-37 -10 -48 -10q-87 0 -93 80q-78 -85 -189 -85q-70 0 -117 41t-47 110q0 144 159 164l145 18q46 6 46 62q0 85 -123 85q-105 0 -120 -101zM384 181v86q-21 -17 -145 -33
q-112 -15 -112 -85q0 -91 95 -91q58 0 107 32q55 36 55 91zM461 871l-155 -141h-47l89 141h113zM383 723h46q-15 -129 -151 -129q-126 0 -142 129h47q8 -29 22 -45q27 -30 80 -30q77 0 98 75z" />
    <glyph glyph-name="glyph297" unicode="&#x1eb0;" horiz-adv-x="667" 
d="M477 209h-288l-75 -209h-100l270 718h110l260 -718h-106zM219 295h223l-106 316h-2zM358 896h-47l-155 141h113zM436 889h46q-15 -129 -151 -129q-126 0 -142 129h47q8 -29 22 -45q27 -30 80 -30q77 0 98 75z" />
    <glyph glyph-name="glyph298" unicode="&#x1eb1;" 
d="M143 364h-81q6 174 216 174q63 0 113 -23q81 -37 81 -123v-301q0 -31 29 -31q9 0 29 4v-64q-37 -10 -48 -10q-87 0 -93 80q-78 -85 -189 -85q-70 0 -117 41t-47 110q0 144 159 164l145 18q46 6 46 62q0 85 -123 85q-105 0 -120 -101zM384 181v86q-21 -17 -145 -33
q-112 -15 -112 -85q0 -91 95 -91q58 0 107 32q55 36 55 91zM308 730h-47l-155 141h113zM386 723h46q-15 -129 -151 -129q-126 0 -142 129h47q8 -29 22 -45q27 -30 80 -30q77 0 98 75z" />
    <glyph glyph-name="glyph299" unicode="&#x1eb2;" horiz-adv-x="667" 
d="M477 209h-288l-75 -209h-100l270 718h110l260 -718h-106zM219 295h223l-106 316h-2zM298 996l-36 5q3 35 4 40q11 53 73 53q33 0 57 -19.5t24 -51.5q0 -28 -38 -64q-16 -15 -20 -29q-3 -9 -3 -36l-24 -18l-26 18q0 26 12 44q1 2 36 38q24 25 24 45q0 44 -43 44
q-29 0 -37 -29q-3 -11 -3 -40zM436 889h46q-15 -129 -151 -129q-126 0 -142 129h47q8 -29 22 -45q27 -30 80 -30q77 0 98 75z" />
    <glyph glyph-name="glyph300" unicode="&#x1eb3;" 
d="M143 364h-81q6 174 216 174q63 0 113 -23q81 -37 81 -123v-301q0 -31 29 -31q9 0 29 4v-64q-37 -10 -48 -10q-87 0 -93 80q-78 -85 -189 -85q-70 0 -117 41t-47 110q0 144 159 164l145 18q46 6 46 62q0 85 -123 85q-105 0 -120 -101zM384 181v86q-21 -17 -145 -33
q-112 -15 -112 -85q0 -91 95 -91q58 0 107 32q55 36 55 91zM247 850l-36 5q3 35 4 40q11 53 73 53q33 0 57 -19.5t24 -51.5q0 -28 -38 -64q-16 -15 -20 -29q-3 -9 -3 -36l-24 -18l-26 18q0 26 12 44q1 2 36 38q24 25 24 45q0 44 -43 44q-29 0 -37 -29q-3 -11 -3 -40z
M385 723h46q-15 -129 -151 -129q-126 0 -142 129h47q8 -29 22 -45q27 -30 80 -30q77 0 98 75z" />
    <glyph glyph-name="glyph301" unicode="&#x1eb4;" horiz-adv-x="667" 
d="M477 209h-288l-75 -209h-100l270 718h110l260 -718h-106zM219 295h223l-106 316h-2zM442 896h48q-15 -136 -159 -136q-133 0 -149 136h49q14 -43 38.5 -61t69.5 -18q52 0 78 28q15 16 25 51zM616 1028l45 -2q-20 -39 -53 -64q-37 -28 -76 -27q-21 3 -47 14l-21 9
q-31 13 -50 14q-31 1 -59 -36l-43 1q50 92 132 90q20 0 55 -16l18 -8q19 -13 38 -13q34 -1 61 38z" />
    <glyph glyph-name="glyph302" unicode="&#x1eb5;" 
d="M143 364h-81q6 174 216 174q63 0 113 -23q81 -37 81 -123v-301q0 -31 29 -31q9 0 29 4v-64q-37 -10 -48 -10q-87 0 -93 80q-78 -85 -189 -85q-70 0 -117 41t-47 110q0 144 159 164l145 18q46 6 46 62q0 85 -123 85q-105 0 -120 -101zM384 181v86q-21 -17 -145 -33
q-112 -15 -112 -85q0 -91 95 -91q58 0 107 32q55 36 55 91zM388 730h48q-15 -136 -159 -136q-133 0 -149 136h49q14 -43 38.5 -61t69.5 -18q52 0 78 28q15 16 25 51zM562 862l45 -2q-20 -39 -53 -64q-37 -28 -76 -27q-21 3 -47 14l-21 9q-31 13 -50 14q-31 1 -59 -36l-43 1
q50 92 132 90q20 0 55 -16l18 -8q19 -13 38 -13q34 -1 61 38z" />
    <glyph glyph-name="glyph303" unicode="&#x1eb6;" horiz-adv-x="667" 
d="M477 209h-288l-75 -209h-100l270 718h110l260 -718h-106zM219 295h223l-106 316h-2zM436 889h46q-15 -129 -151 -129q-126 0 -142 129h47q8 -29 22 -45q27 -30 80 -30q77 0 98 75zM385 -32v-100h-98v100l49 2z" />
    <glyph glyph-name="glyph304" unicode="&#x1eb7;" 
d="M143 364h-81q6 174 216 174q63 0 113 -23q81 -37 81 -123v-301q0 -31 29 -31q9 0 29 4v-64q-37 -10 -48 -10q-87 0 -93 80q-78 -85 -189 -85q-70 0 -117 41t-47 110q0 144 159 164l145 18q46 6 46 62q0 85 -123 85q-105 0 -120 -101zM384 181v86q-21 -17 -145 -33
q-112 -15 -112 -85q0 -91 95 -91q58 0 107 32q55 36 55 91zM328 -62v-95h-94v95l47 2zM383 723h46q-15 -129 -151 -129q-126 0 -142 129h47q8 -29 22 -45q27 -30 80 -30q77 0 98 75z" />
    <glyph glyph-name="glyph305" unicode="&#x1eb8;" horiz-adv-x="667" 
d="M616 86v-86h-530v718h523v-86h-426v-220h393v-86h-393v-240h433zM397 -52v-100h-98v100l49 2z" />
    <glyph glyph-name="glyph306" unicode="&#x1eb9;" 
d="M421 164h88q-3 -27 -23 -64q-63 -115 -212 -115q-111 0 -175 77q-59 72 -59 185q0 128 60 205q67 86 191 86q121 0 178 -97q47 -78 47 -208h-382q0 -172 152 -172q47 0 87 28q44 30 48 75zM134 303h291q-10 156 -146 156q-61 0 -103 -47t-42 -109zM321 -72v-95h-94v95
l47 2z" />
    <glyph glyph-name="glyph307" unicode="&#x1eba;" horiz-adv-x="667" 
d="M616 86v-86h-530v718h523v-86h-426v-220h393v-86h-393v-240h433zM311 891l-36 5q3 35 4 40q11 53 73 53q33 0 57 -19.5t24 -51.5q0 -28 -38 -64q-16 -15 -20 -29q-3 -9 -3 -36l-24 -18l-26 18q0 26 12 44q1 2 36 38q24 25 24 45q0 44 -43 44q-29 0 -37 -29q-3 -11 -3 -40
z" />
    <glyph glyph-name="glyph308" unicode="&#x1ebb;" 
d="M421 164h88q-3 -27 -23 -64q-63 -115 -212 -115q-111 0 -175 77q-59 72 -59 185q0 128 60 205q67 86 191 86q121 0 178 -97q47 -78 47 -208h-382q0 -172 152 -172q47 0 87 28q44 30 48 75zM134 303h291q-10 156 -146 156q-61 0 -103 -47t-42 -109zM253 728l-36 5
q3 35 4 40q11 53 73 53q33 0 57 -19.5t24 -51.5q0 -28 -38 -64q-16 -15 -20 -29q-3 -9 -3 -36l-24 -18l-26 18q0 26 12 44q1 2 36 38q24 25 24 45q0 44 -43 44q-29 0 -37 -29q-3 -11 -3 -40z" />
    <glyph glyph-name="glyph309" unicode="&#x1ebc;" horiz-adv-x="667" 
d="M616 86v-86h-530v718h523v-86h-426v-220h393v-86h-393v-240h433zM479 873l45 -2q-20 -39 -53 -64q-37 -28 -76 -27q-21 3 -47 14l-21 9q-31 13 -50 14q-31 1 -59 -36l-43 1q50 92 132 90q20 0 55 -16l18 -8q19 -13 38 -13q34 -1 61 38z" />
    <glyph glyph-name="glyph310" unicode="&#x1ebd;" 
d="M421 164h88q-3 -27 -23 -64q-63 -115 -212 -115q-111 0 -175 77q-59 72 -59 185q0 128 60 205q67 86 191 86q121 0 178 -97q47 -78 47 -208h-382q0 -172 152 -172q47 0 87 28q44 30 48 75zM134 303h291q-10 156 -146 156q-61 0 -103 -47t-42 -109zM420 710l45 -2
q-20 -39 -53 -64q-37 -28 -76 -27q-21 3 -47 14l-21 9q-31 13 -50 14q-31 1 -59 -36l-43 1q50 92 132 90q20 0 55 -16l18 -8q19 -13 38 -13q34 -1 61 38z" />
    <glyph glyph-name="glyph311" unicode="&#x1ebe;" horiz-adv-x="667" 
d="M616 86v-86h-530v718h523v-86h-426v-220h393v-86h-393v-240h433zM672 984l-155 -141h-47l89 141h113zM348 843l-76 -93h-69l109 141h73l109 -141h-70z" />
    <glyph glyph-name="glyph312" unicode="&#x1ebf;" 
d="M421 164h88q-3 -27 -23 -64q-63 -115 -212 -115q-111 0 -175 77q-59 72 -59 185q0 128 60 205q67 86 191 86q121 0 178 -97q47 -78 47 -208h-382q0 -172 152 -172q47 0 87 28q44 30 48 75zM134 303h291q-10 156 -146 156q-61 0 -103 -47t-42 -109zM614 804l-155 -141h-47
l89 141h113zM290 663l-76 -93h-69l109 141h73l109 -141h-70z" />
    <glyph glyph-name="glyph313" unicode="&#x1ec0;" horiz-adv-x="667" 
d="M616 86v-86h-530v718h523v-86h-426v-220h393v-86h-393v-240h433zM348 843l-66 -93h-79l99 141h93l99 -141h-80zM226 843h-47l-155 141h113z" />
    <glyph glyph-name="glyph314" unicode="&#x1ec1;" 
d="M421 164h88q-3 -27 -23 -64q-63 -115 -212 -115q-111 0 -175 77q-59 72 -59 185q0 128 60 205q67 86 191 86q121 0 178 -97q47 -78 47 -208h-382q0 -172 152 -172q47 0 87 28q44 30 48 75zM134 303h291q-10 156 -146 156q-61 0 -103 -47t-42 -109zM291 663l-66 -93h-79
l99 141h93l99 -141h-80zM169 663h-47l-155 141h113z" />
    <glyph glyph-name="glyph315" unicode="&#x1ec2;" horiz-adv-x="667" 
d="M616 86v-86h-530v718h523v-86h-426v-220h393v-86h-393v-240h433zM465 961l-36 5q3 35 4 40q11 53 73 53q33 0 57 -19.5t24 -51.5q0 -28 -38 -64q-16 -15 -20 -29q-3 -9 -3 -36l-24 -18l-26 18q0 26 12 44q1 2 36 38q24 25 24 45q0 44 -43 44q-29 0 -37 -29q-3 -11 -3 -40
zM348 843l-76 -93h-69l109 141h73l109 -141h-70z" />
    <glyph glyph-name="glyph316" unicode="&#x1ec3;" 
d="M407 781l-36 5q3 35 4 40q11 53 73 53q33 0 57 -19.5t24 -51.5q0 -28 -38 -64q-16 -15 -20 -29q-3 -9 -3 -36l-24 -18l-26 18q0 26 12 44q1 2 36 38q24 25 24 45q0 44 -43 44q-29 0 -37 -29q-3 -11 -3 -40zM290 663l-76 -93h-69l109 141h73l109 -141h-70zM421 164h88
q-3 -27 -23 -64q-63 -115 -212 -115q-111 0 -175 77q-59 72 -59 185q0 128 60 205q67 86 191 86q121 0 178 -97q47 -78 47 -208h-382q0 -172 152 -172q47 0 87 28q44 30 48 75zM134 303h291q-10 156 -146 156q-61 0 -103 -47t-42 -109z" />
    <glyph glyph-name="glyph317" unicode="&#x1ec4;" horiz-adv-x="667" 
d="M616 86v-86h-530v718h523v-86h-426v-220h393v-86h-393v-240h433zM348 843l-76 -93h-69l109 141h73l109 -141h-70zM479 1024l45 -2q-20 -39 -53 -64q-37 -28 -76 -27q-21 3 -47 14l-21 9q-31 13 -50 14q-31 1 -59 -36l-43 1q50 92 132 90q20 0 55 -16l18 -8q19 -13 38 -13
q34 -1 61 38z" />
    <glyph glyph-name="glyph318" unicode="&#x1ec5;" 
d="M421 164h88q-3 -27 -23 -64q-63 -115 -212 -115q-111 0 -175 77q-59 72 -59 185q0 128 60 205q67 86 191 86q121 0 178 -97q47 -78 47 -208h-382q0 -172 152 -172q47 0 87 28q44 30 48 75zM134 303h291q-10 156 -146 156q-61 0 -103 -47t-42 -109zM289 663l-76 -93h-69
l109 141h73l109 -141h-70zM420 844l45 -2q-20 -39 -53 -64q-37 -28 -76 -27q-21 3 -47 14l-21 9q-31 13 -50 14q-31 1 -59 -36l-43 1q50 92 132 90q20 0 55 -16l18 -8q19 -13 38 -13q34 -1 61 38z" />
    <glyph glyph-name="glyph319" unicode="&#x1ec6;" horiz-adv-x="667" 
d="M616 86v-86h-530v718h523v-86h-426v-220h393v-86h-393v-240h433zM348 833l-76 -93h-69l109 141h73l109 -141h-70zM397 -52v-100h-98v100l49 2z" />
    <glyph glyph-name="glyph320" unicode="&#x1ec7;" 
d="M421 164h88q-3 -27 -23 -64q-63 -115 -212 -115q-111 0 -175 77q-59 72 -59 185q0 128 60 205q67 86 191 86q121 0 178 -97q47 -78 47 -208h-382q0 -172 152 -172q47 0 87 28q44 30 48 75zM134 303h291q-10 156 -146 156q-61 0 -103 -47t-42 -109zM291 663l-66 -93h-79
l99 141h93l99 -141h-80zM321 -72v-95h-94v95l47 2z" />
    <glyph glyph-name="glyph321" unicode="&#x1ec8;" horiz-adv-x="278" 
d="M188 718v-718h-97v718h97zM103 891l-36 5q3 35 4 40q11 53 73 53q33 0 57 -19.5t24 -51.5q0 -28 -38 -64q-16 -15 -20 -29q-3 -9 -3 -36l-24 -18l-26 18q0 26 12 44q1 2 36 38q24 25 24 45q0 44 -43 44q-29 0 -37 -29q-3 -11 -3 -40z" />
    <glyph glyph-name="glyph322" unicode="&#x1ec9;" horiz-adv-x="222" 
d="M155 523v-523h-88v523h88zM75 718l-36 5q3 35 4 40q11 53 73 53q33 0 57 -19.5t24 -51.5q0 -28 -38 -64q-16 -15 -20 -29q-3 -9 -3 -36l-24 -18l-26 18q0 26 12 44q1 2 36 38q24 25 24 45q0 44 -43 44q-29 0 -37 -29q-3 -11 -3 -40z" />
    <glyph glyph-name="glyph323" unicode="&#x1eca;" horiz-adv-x="278" 
d="M188 718v-718h-97v718h97zM190 -52v-100h-98v100l49 2z" />
    <glyph glyph-name="glyph324" unicode="&#x1ecb;" horiz-adv-x="222" 
d="M155 523v-523h-88v523h88zM158 689v-95h-94v95l47 2zM160 -62v-95h-94v95l47 2z" />
    <glyph glyph-name="glyph325" unicode="&#x1ecc;" horiz-adv-x="778" 
d="M639 359q0 124 -62 204q-68 88 -188 88t-188 -88q-62 -80 -62 -204q0 -123 62 -204q69 -88 188 -88q120 0 188 88q62 80 62 204zM739 359q0 -144 -74 -247q-94 -131 -276 -131q-181 0 -275 131q-75 104 -75 247t75 247q94 131 275 131q182 0 276 -131q74 -103 74 -247z
M438 -72v-100h-98v100l49 2z" />
    <glyph glyph-name="glyph326" unicode="&#x1ecd;" 
d="M35 262q0 117 62 193q67 83 181 83t181 -83q62 -76 62 -193t-62 -193q-67 -83 -181 -83t-181 83q-62 76 -62 193zM126 262q0 -73 29 -126q40 -74 123 -74t123 74q29 53 29 126t-29 126q-40 74 -123 74t-123 -74q-29 -53 -29 -126zM325 -72v-95h-94v95l47 2z" />
    <glyph glyph-name="glyph327" unicode="&#x1ece;" horiz-adv-x="778" 
d="M639 359q0 124 -62 204q-68 88 -188 88t-188 -88q-62 -80 -62 -204q0 -123 62 -204q69 -88 188 -88q120 0 188 88q62 80 62 204zM739 359q0 -144 -74 -247q-94 -131 -276 -131q-181 0 -275 131q-75 104 -75 247t75 247q94 131 275 131q182 0 276 -131q74 -103 74 -247z
M352 911l-36 5q3 35 4 40q11 53 73 53q33 0 57 -19.5t24 -51.5q0 -28 -38 -64q-16 -15 -20 -29q-3 -9 -3 -36l-24 -18l-26 18q0 26 12 44q1 2 36 38q24 25 24 45q0 44 -43 44q-29 0 -37 -29q-3 -11 -3 -40z" />
    <glyph glyph-name="glyph328" unicode="&#x1ecf;" 
d="M35 262q0 117 62 193q67 83 181 83t181 -83q62 -76 62 -193t-62 -193q-67 -83 -181 -83t-181 83q-62 76 -62 193zM126 262q0 -73 29 -126q40 -74 123 -74t123 74q29 53 29 126t-29 126q-40 74 -123 74t-123 -74q-29 -53 -29 -126zM240 728l-36 5q3 35 4 40q11 53 73 53
q33 0 57 -19.5t24 -51.5q0 -28 -38 -64q-16 -15 -20 -29q-3 -9 -3 -36l-24 -18l-26 18q0 26 12 44q1 2 36 38q24 25 24 45q0 44 -43 44q-29 0 -37 -29q-3 -11 -3 -40z" />
    <glyph glyph-name="glyph329" unicode="&#x1ed0;" horiz-adv-x="778" 
d="M639 359q0 124 -62 204q-68 88 -188 88t-188 -88q-62 -80 -62 -204q0 -123 62 -204q69 -88 188 -88q120 0 188 88q62 80 62 204zM739 359q0 -144 -74 -247q-94 -131 -276 -131q-181 0 -275 131q-75 104 -75 247t75 247q94 131 275 131q182 0 276 -131q74 -103 74 -247z
M713 994l-155 -141h-47l89 141h113zM389 853l-76 -93h-69l109 141h73l109 -141h-70z" />
    <glyph glyph-name="glyph330" unicode="&#x1ed1;" 
d="M35 262q0 117 62 193q67 83 181 83t181 -83q62 -76 62 -193t-62 -193q-67 -83 -181 -83t-181 83q-62 76 -62 193zM126 262q0 -73 29 -126q40 -74 123 -74t123 74q29 53 29 126t-29 126q-40 74 -123 74t-123 -74q-29 -53 -29 -126zM601 804l-155 -141h-47l89 141h113z
M277 663l-76 -93h-69l109 141h73l109 -141h-70z" />
    <glyph glyph-name="glyph331" unicode="&#x1ed2;" horiz-adv-x="778" 
d="M639 359q0 124 -62 204q-68 88 -188 88t-188 -88q-62 -80 -62 -204q0 -123 62 -204q69 -88 188 -88q120 0 188 88q62 80 62 204zM739 359q0 -144 -74 -247q-94 -131 -276 -131q-181 0 -275 131q-75 104 -75 247t75 247q94 131 275 131q182 0 276 -131q74 -103 74 -247z
M389 853l-66 -93h-79l99 141h93l99 -141h-80zM267 853h-47l-155 141h113z" />
    <glyph glyph-name="glyph332" unicode="&#x1ed3;" 
d="M35 262q0 117 62 193q67 83 181 83t181 -83q62 -76 62 -193t-62 -193q-67 -83 -181 -83t-181 83q-62 76 -62 193zM126 262q0 -73 29 -126q40 -74 123 -74t123 74q29 53 29 126t-29 126q-40 74 -123 74t-123 -74q-29 -53 -29 -126zM278 663l-66 -93h-79l99 141h93l99 -141
h-80zM156 663h-47l-155 141h113z" />
    <glyph glyph-name="glyph333" unicode="&#x1ed4;" horiz-adv-x="778" 
d="M639 359q0 124 -62 204q-68 88 -188 88t-188 -88q-62 -80 -62 -204q0 -123 62 -204q69 -88 188 -88q120 0 188 88q62 80 62 204zM739 359q0 -144 -74 -247q-94 -131 -276 -131q-181 0 -275 131q-75 104 -75 247t75 247q94 131 275 131q182 0 276 -131q74 -103 74 -247z
M506 971l-36 5q3 35 4 40q11 53 73 53q33 0 57 -19.5t24 -51.5q0 -28 -38 -64q-16 -15 -20 -29q-3 -9 -3 -36l-24 -18l-26 18q0 26 12 44q1 2 36 38q24 25 24 45q0 44 -43 44q-29 0 -37 -29q-3 -11 -3 -40zM389 853l-76 -93h-69l109 141h73l109 -141h-70z" />
    <glyph glyph-name="glyph334" unicode="&#x1ed5;" 
d="M35 262q0 117 62 193q67 83 181 83t181 -83q62 -76 62 -193t-62 -193q-67 -83 -181 -83t-181 83q-62 76 -62 193zM126 262q0 -73 29 -126q40 -74 123 -74t123 74q29 53 29 126t-29 126q-40 74 -123 74t-123 -74q-29 -53 -29 -126zM394 781l-36 5q3 35 4 40q11 53 73 53
q33 0 57 -19.5t24 -51.5q0 -28 -38 -64q-16 -15 -20 -29q-3 -9 -3 -36l-24 -18l-26 18q0 26 12 44q1 2 36 38q24 25 24 45q0 44 -43 44q-29 0 -37 -29q-3 -11 -3 -40zM277 663l-76 -93h-69l109 141h73l109 -141h-70z" />
    <glyph glyph-name="glyph335" unicode="&#x1ed6;" horiz-adv-x="778" 
d="M639 359q0 124 -62 204q-68 88 -188 88t-188 -88q-62 -80 -62 -204q0 -123 62 -204q69 -88 188 -88q120 0 188 88q62 80 62 204zM739 359q0 -144 -74 -247q-94 -131 -276 -131q-181 0 -275 131q-75 104 -75 247t75 247q94 131 275 131q182 0 276 -131q74 -103 74 -247z
M389 853l-76 -93h-69l109 141h73l109 -141h-70zM520 1034l45 -2q-20 -39 -53 -64q-37 -28 -76 -27q-21 3 -47 14l-21 9q-31 13 -50 14q-31 1 -59 -36l-43 1q50 92 132 90q20 0 55 -16l18 -8q19 -13 38 -13q34 -1 61 38z" />
    <glyph glyph-name="glyph336" unicode="&#x1ed7;" 
d="M35 262q0 117 62 193q67 83 181 83t181 -83q62 -76 62 -193t-62 -193q-67 -83 -181 -83t-181 83q-62 76 -62 193zM126 262q0 -73 29 -126q40 -74 123 -74t123 74q29 53 29 126t-29 126q-40 74 -123 74t-123 -74q-29 -53 -29 -126zM276 663l-76 -93h-69l109 141h73
l109 -141h-70zM407 844l45 -2q-20 -39 -53 -64q-37 -28 -76 -27q-21 3 -47 14l-21 9q-31 13 -50 14q-31 1 -59 -36l-43 1q50 92 132 90q20 0 55 -16l18 -8q19 -13 38 -13q34 -1 61 38z" />
    <glyph glyph-name="glyph337" unicode="&#x1ed8;" horiz-adv-x="778" 
d="M639 359q0 124 -62 204q-68 88 -188 88t-188 -88q-62 -80 -62 -204q0 -123 62 -204q69 -88 188 -88q120 0 188 88q62 80 62 204zM739 359q0 -144 -74 -247q-94 -131 -276 -131q-181 0 -275 131q-75 104 -75 247t75 247q94 131 275 131q182 0 276 -131q74 -103 74 -247z
M389 853l-76 -93h-69l109 141h73l109 -141h-70zM438 -72v-100h-98v100l49 2z" />
    <glyph glyph-name="glyph338" unicode="&#x1ed9;" 
d="M35 262q0 117 62 193q67 83 181 83t181 -83q62 -76 62 -193t-62 -193q-67 -83 -181 -83t-181 83q-62 76 -62 193zM126 262q0 -73 29 -126q40 -74 123 -74t123 74q29 53 29 126t-29 126q-40 74 -123 74t-123 -74q-29 -53 -29 -126zM278 663l-66 -93h-79l99 141h93l99 -141
h-80zM325 -72v-95h-94v95l47 2z" />
    <glyph glyph-name="glyph339" unicode="&#x1eda;" horiz-adv-x="778" 
d="M639 359q0 124 -62 204q-68 88 -188 88t-188 -88q-62 -80 -62 -204q0 -123 62 -204q69 -88 188 -88q120 0 188 88q62 80 62 204zM543 706v1q46 7 66 17q30 15 43 49q7 0 22 3.5t23 3.5q17 0 17 -12q0 -4 -3 -12q-29 -77 -118 -70q-15 6 -30 10q86 -47 133 -144
q43 -88 43 -193q0 -144 -74 -247q-94 -131 -276 -131q-181 0 -275 131q-75 104 -75 247t75 247q94 131 275 131q87 0 154 -31zM568 941l-155 -141h-47l89 141h113z" />
    <glyph glyph-name="glyph340" unicode="&#x1edb;" 
d="M126 262q0 -73 29 -126q40 -74 123 -74t123 74q29 53 29 126t-29 126q-40 74 -123 74t-123 -74q-29 -53 -29 -126zM368 522h42q43 14 58 55q7 0 22 3.5t23 3.5q16 0 16 -12q0 -6 -2 -12q-25 -69 -103 -71q97 -76 97 -227q0 -117 -62 -193q-67 -83 -181 -83t-181 83
q-62 76 -62 193t62 193q67 83 181 83q48 0 90 -16zM457 759l-155 -141h-47l89 141h113z" />
    <glyph glyph-name="glyph341" unicode="&#x1edc;" horiz-adv-x="778" 
d="M639 359q0 124 -62 204q-68 88 -188 88t-188 -88q-62 -80 -62 -204q0 -123 62 -204q69 -88 188 -88q120 0 188 88q62 80 62 204zM543 706v1q46 7 66 17q30 15 43 49q7 0 22 3.5t23 3.5q17 0 17 -12q0 -4 -3 -12q-29 -77 -118 -70q-15 6 -30 10q86 -47 133 -144
q43 -88 43 -193q0 -144 -74 -247q-94 -131 -276 -131q-181 0 -275 131q-75 104 -75 247t75 247q94 131 275 131q87 0 154 -31zM412 800h-47l-155 141h113z" />
    <glyph glyph-name="glyph342" unicode="&#x1edd;" 
d="M126 262q0 -73 29 -126q40 -74 123 -74t123 74q29 53 29 126t-29 126q-40 74 -123 74t-123 -74q-29 -53 -29 -126zM368 522h42q43 14 58 55q7 0 22 3.5t23 3.5q16 0 16 -12q0 -6 -2 -12q-25 -69 -103 -71q97 -76 97 -227q0 -117 -62 -193q-67 -83 -181 -83t-181 83
q-62 76 -62 193t62 193q67 83 181 83q48 0 90 -16zM300 618h-47l-155 141h113z" />
    <glyph glyph-name="glyph343" unicode="&#x1ede;" horiz-adv-x="778" 
d="M639 359q0 124 -62 204q-68 88 -188 88t-188 -88q-62 -80 -62 -204q0 -123 62 -204q69 -88 188 -88q120 0 188 88q62 80 62 204zM543 706v1q46 7 66 17q30 15 43 49q7 0 22 3.5t23 3.5q17 0 17 -12q0 -4 -3 -12q-29 -77 -118 -70q-15 6 -30 10q86 -47 133 -144
q43 -88 43 -193q0 -144 -74 -247q-94 -131 -276 -131q-181 0 -275 131q-75 104 -75 247t75 247q94 131 275 131q87 0 154 -31zM352 911l-36 5q3 35 4 40q11 53 73 53q33 0 57 -19.5t24 -51.5q0 -28 -38 -64q-16 -15 -20 -29q-3 -9 -3 -36l-24 -18l-26 18q0 26 12 44
q1 2 36 38q24 25 24 45q0 44 -43 44q-29 0 -37 -29q-3 -11 -3 -40z" />
    <glyph glyph-name="glyph344" unicode="&#x1edf;" 
d="M126 262q0 -73 29 -126q40 -74 123 -74t123 74q29 53 29 126t-29 126q-40 74 -123 74t-123 -74q-29 -53 -29 -126zM368 522h42q43 14 58 55q7 0 22 3.5t23 3.5q16 0 16 -12q0 -6 -2 -12q-25 -69 -103 -71q97 -76 97 -227q0 -117 -62 -193q-67 -83 -181 -83t-181 83
q-62 76 -62 193t62 193q67 83 181 83q48 0 90 -16zM240 728l-36 5q3 35 4 40q11 53 73 53q33 0 57 -19.5t24 -51.5q0 -28 -38 -64q-16 -15 -20 -29q-3 -9 -3 -36l-24 -18l-26 18q0 26 12 44q1 2 36 38q24 25 24 45q0 44 -43 44q-29 0 -37 -29q-3 -11 -3 -40z" />
    <glyph glyph-name="glyph345" unicode="&#x1ee0;" horiz-adv-x="778" 
d="M639 359q0 124 -62 204q-68 88 -188 88t-188 -88q-62 -80 -62 -204q0 -123 62 -204q69 -88 188 -88q120 0 188 88q62 80 62 204zM543 706v1q46 7 66 17q30 15 43 49q7 0 22 3.5t23 3.5q17 0 17 -12q0 -4 -3 -12q-29 -77 -118 -70q-15 6 -30 10q86 -47 133 -144
q43 -88 43 -193q0 -144 -74 -247q-94 -131 -276 -131q-181 0 -275 131q-75 104 -75 247t75 247q94 131 275 131q87 0 154 -31zM520 893l45 -2q-20 -39 -53 -64q-37 -28 -76 -27q-21 3 -47 14l-21 9q-31 13 -50 14q-31 1 -59 -36l-43 1q50 92 132 90q20 0 55 -16l18 -8
q19 -13 38 -13q34 -1 61 38z" />
    <glyph glyph-name="glyph346" unicode="&#x1ee1;" 
d="M126 262q0 -73 29 -126q40 -74 123 -74t123 74q29 53 29 126t-29 126q-40 74 -123 74t-123 -74q-29 -53 -29 -126zM368 522h42q43 14 58 55q7 0 22 3.5t23 3.5q16 0 16 -12q0 -6 -2 -12q-25 -69 -103 -71q97 -76 97 -227q0 -117 -62 -193q-67 -83 -181 -83t-181 83
q-62 76 -62 193t62 193q67 83 181 83q48 0 90 -16zM407 710l45 -2q-20 -39 -53 -64q-37 -28 -76 -27q-21 3 -47 14l-21 9q-31 13 -50 14q-31 1 -59 -36l-43 1q50 92 132 90q20 0 55 -16l18 -8q19 -13 38 -13q34 -1 61 38z" />
    <glyph glyph-name="glyph347" unicode="&#x1ee2;" horiz-adv-x="778" 
d="M639 359q0 124 -62 204q-68 88 -188 88t-188 -88q-62 -80 -62 -204q0 -123 62 -204q69 -88 188 -88q120 0 188 88q62 80 62 204zM543 706v1q46 7 66 17q30 15 43 49q7 0 22 3.5t23 3.5q17 0 17 -12q0 -4 -3 -12q-29 -77 -118 -70q-15 6 -30 10q86 -47 133 -144
q43 -88 43 -193q0 -144 -74 -247q-94 -131 -276 -131q-181 0 -275 131q-75 104 -75 247t75 247q94 131 275 131q87 0 154 -31zM438 -72v-100h-98v100l49 2z" />
    <glyph glyph-name="glyph348" unicode="&#x1ee3;" 
d="M126 262q0 -73 29 -126q40 -74 123 -74t123 74q29 53 29 126t-29 126q-40 74 -123 74t-123 -74q-29 -53 -29 -126zM368 522h42q43 14 58 55q7 0 22 3.5t23 3.5q16 0 16 -12q0 -6 -2 -12q-25 -69 -103 -71q97 -76 97 -227q0 -117 -62 -193q-67 -83 -181 -83t-181 83
q-62 76 -62 193t62 193q67 83 181 83q48 0 90 -16zM325 -72v-95h-94v95l47 2z" />
    <glyph glyph-name="glyph349" unicode="&#x1ee4;" horiz-adv-x="722" 
d="M547 718h97v-466q0 -128 -79.5 -199.5t-209.5 -71.5q-123 0 -198 67q-78 70 -78 191v479h97v-452q0 -93 44 -144q48 -55 138 -55q92 0 140.5 51.5t48.5 145.5v454zM412 -72v-100h-98v100l49 2z" />
    <glyph glyph-name="glyph350" unicode="&#x1ee5;" 
d="M489 0h-83v76l-2 2q-56 -93 -166 -93q-78 0 -124 42t-46 120v376h88v-347q0 -115 101 -115q72 0 110 53q34 47 34 121v288h88v-523zM340 -62v-95h-94v95l47 2z" />
    <glyph glyph-name="glyph351" unicode="&#x1ee6;" horiz-adv-x="722" 
d="M547 718h97v-466q0 -128 -79.5 -199.5t-209.5 -71.5q-123 0 -198 67q-78 70 -78 191v479h97v-452q0 -93 44 -144q48 -55 138 -55q92 0 140.5 51.5t48.5 145.5v454zM326 861l-36 5q3 35 4 40q11 53 73 53q33 0 57 -19.5t24 -51.5q0 -28 -38 -64q-16 -15 -20 -29
q-3 -9 -3 -36l-24 -18l-26 18q0 26 12 44q1 2 36 38q24 25 24 45q0 44 -43 44q-29 0 -37 -29q-3 -11 -3 -40z" />
    <glyph glyph-name="glyph352" unicode="&#x1ee7;" 
d="M489 0h-83v76l-2 2q-56 -93 -166 -93q-78 0 -124 42t-46 120v376h88v-347q0 -115 101 -115q72 0 110 53q34 47 34 121v288h88v-523zM240 688l-36 5q3 35 4 40q11 53 73 53q33 0 57 -19.5t24 -51.5q0 -28 -38 -64q-16 -15 -20 -29q-3 -9 -3 -36l-24 -18l-26 18q0 26 12 44
q1 2 36 38q24 25 24 45q0 44 -43 44q-29 0 -37 -29q-3 -11 -3 -40z" />
    <glyph glyph-name="glyph353" unicode="&#x1ee8;" horiz-adv-x="722" 
d="M644 686v-434q0 -128 -79.5 -199.5t-209.5 -71.5q-123 0 -198 67q-78 70 -78 191v479h97v-452q0 -93 44 -144q48 -55 138 -55q92 0 140.5 51.5t48.5 145.5v454h97q43 14 58 55q7 0 22 3.5t23 3.5q17 0 17 -12q0 -4 -3 -12q-29 -77 -117 -70zM542 891l-155 -141h-47
l89 141h113z" />
    <glyph glyph-name="glyph354" unicode="&#x1ee9;" 
d="M489 490v-490h-83v76l-2 2q-56 -93 -166 -93q-78 0 -124 42t-46 120v376h88v-347q0 -115 101 -115q72 0 110 53q34 47 34 121v288h88q40 13 56 54q7 0 22 3.5t23 3.5q17 0 17 -12q0 -4 -3 -12q-28 -76 -115 -70zM457 719l-155 -141h-47l89 141h113z" />
    <glyph glyph-name="glyph355" unicode="&#x1eea;" horiz-adv-x="722" 
d="M644 686v-434q0 -128 -79.5 -199.5t-209.5 -71.5q-123 0 -198 67q-78 70 -78 191v479h97v-452q0 -93 44 -144q48 -55 138 -55q92 0 140.5 51.5t48.5 145.5v454h97q43 14 58 55q7 0 22 3.5t23 3.5q17 0 17 -12q0 -4 -3 -12q-29 -77 -117 -70zM386 750h-47l-155 141h113z
" />
    <glyph glyph-name="glyph356" unicode="&#x1eeb;" 
d="M489 490v-490h-83v76l-2 2q-56 -93 -166 -93q-78 0 -124 42t-46 120v376h88v-347q0 -115 101 -115q72 0 110 53q34 47 34 121v288h88q40 13 56 54q7 0 22 3.5t23 3.5q17 0 17 -12q0 -4 -3 -12q-28 -76 -115 -70zM303 578h-47l-155 141h113z" />
    <glyph glyph-name="glyph357" unicode="&#x1eec;" horiz-adv-x="722" 
d="M644 686v-434q0 -128 -79.5 -199.5t-209.5 -71.5q-123 0 -198 67q-78 70 -78 191v479h97v-452q0 -93 44 -144q48 -55 138 -55q92 0 140.5 51.5t48.5 145.5v454h97q43 14 58 55q7 0 22 3.5t23 3.5q17 0 17 -12q0 -4 -3 -12q-29 -77 -117 -70zM326 861l-36 5q3 35 4 40
q11 53 73 53q33 0 57 -19.5t24 -51.5q0 -28 -38 -64q-16 -15 -20 -29q-3 -9 -3 -36l-24 -18l-26 18q0 26 12 44q1 2 36 38q24 25 24 45q0 44 -43 44q-29 0 -37 -29q-3 -11 -3 -40z" />
    <glyph glyph-name="glyph358" unicode="&#x1eed;" 
d="M489 490v-490h-83v76l-2 2q-56 -93 -166 -93q-78 0 -124 42t-46 120v376h88v-347q0 -115 101 -115q72 0 110 53q34 47 34 121v288h88q40 13 56 54q7 0 22 3.5t23 3.5q17 0 17 -12q0 -4 -3 -12q-28 -76 -115 -70zM240 688l-36 5q3 35 4 40q11 53 73 53q33 0 57 -19.5
t24 -51.5q0 -28 -38 -64q-16 -15 -20 -29q-3 -9 -3 -36l-24 -18l-26 18q0 26 12 44q1 2 36 38q24 25 24 45q0 44 -43 44q-29 0 -37 -29q-3 -11 -3 -40z" />
    <glyph glyph-name="glyph359" unicode="&#x1eee;" horiz-adv-x="722" 
d="M644 686v-434q0 -128 -79.5 -199.5t-209.5 -71.5q-123 0 -198 67q-78 70 -78 191v479h97v-452q0 -93 44 -144q48 -55 138 -55q92 0 140.5 51.5t48.5 145.5v454h97q43 14 58 55q7 0 22 3.5t23 3.5q17 0 17 -12q0 -4 -3 -12q-29 -77 -117 -70zM494 843l45 -2
q-20 -39 -53 -64q-37 -28 -76 -27q-21 3 -47 14l-21 9q-31 13 -50 14q-31 1 -59 -36l-43 1q50 92 132 90q20 0 55 -16l18 -8q19 -13 38 -13q34 -1 61 38z" />
    <glyph glyph-name="glyph360" unicode="&#x1eef;" 
d="M489 490v-490h-83v76l-2 2q-56 -93 -166 -93q-78 0 -124 42t-46 120v376h88v-347q0 -115 101 -115q72 0 110 53q34 47 34 121v288h88q40 13 56 54q7 0 22 3.5t23 3.5q17 0 17 -12q0 -4 -3 -12q-28 -76 -115 -70zM407 680l45 -2q-20 -39 -53 -64q-37 -28 -76 -27
q-21 3 -47 14l-21 9q-31 13 -50 14q-31 1 -59 -36l-43 1q50 92 132 90q20 0 55 -16l18 -8q19 -13 38 -13q34 -1 61 38z" />
    <glyph glyph-name="glyph361" unicode="&#x1ef0;" horiz-adv-x="722" 
d="M644 686v-434q0 -128 -79.5 -199.5t-209.5 -71.5q-123 0 -198 67q-78 70 -78 191v479h97v-452q0 -93 44 -144q48 -55 138 -55q92 0 140.5 51.5t48.5 145.5v454h97q43 14 58 55q7 0 22 3.5t23 3.5q17 0 17 -12q0 -4 -3 -12q-29 -77 -117 -70zM412 -72v-100h-98v100l49 2z
" />
    <glyph glyph-name="glyph362" unicode="&#x1ef1;" 
d="M489 490v-490h-83v76l-2 2q-56 -93 -166 -93q-78 0 -124 42t-46 120v376h88v-347q0 -115 101 -115q72 0 110 53q34 47 34 121v288h88q40 13 56 54q7 0 22 3.5t23 3.5q17 0 17 -12q0 -4 -3 -12q-28 -76 -115 -70zM325 -72v-95h-94v95l47 2z" />
    <glyph glyph-name="glyph363" unicode="&#x1ef2;" horiz-adv-x="667" 
d="M382 289v-289h-97v289l-271 429h113l206 -345l206 345h114zM357 740h-47l-155 141h113z" />
    <glyph glyph-name="glyph364" unicode="&#x1ef3;" horiz-adv-x="500" 
d="M252 97l140 426h97q-88 -247 -188 -513q-39 -104 -65 -151.5t-55 -61.5q-24 -11 -85 -11q-9 0 -37 8v80q25 -9 53 -9q33 0 48 20q12 16 45 101l-194 537h100l139 -426h2zM273 568h-47l-155 141h113z" />
    <glyph glyph-name="glyph365" unicode="&#x1ef4;" horiz-adv-x="667" 
d="M382 289v-289h-97v289l-271 429h113l206 -345l206 345h114zM383 -52v-100h-98v100l49 2z" />
    <glyph glyph-name="glyph366" unicode="&#x1ef5;" horiz-adv-x="500" 
d="M252 97l140 426h97q-88 -247 -188 -513q-39 -104 -65 -151.5t-55 -61.5q-24 -11 -85 -11q-9 0 -37 8v80q25 -9 53 -9q33 0 48 20q12 16 45 101l-194 537h100l139 -426h2zM410 -62v-95h-94v95l47 2z" />
    <glyph glyph-name="glyph367" unicode="&#x1ef6;" horiz-adv-x="667" 
d="M382 289v-289h-97v289l-271 429h113l206 -345l206 345h114zM297 851l-36 5q3 35 4 40q11 53 73 53q33 0 57 -19.5t24 -51.5q0 -28 -38 -64q-16 -15 -20 -29q-3 -9 -3 -36l-24 -18l-26 18q0 26 12 44q1 2 36 38q24 25 24 45q0 44 -43 44q-29 0 -37 -29q-3 -11 -3 -40z" />
    <glyph glyph-name="glyph368" unicode="&#x1ef7;" horiz-adv-x="500" 
d="M252 97l140 426h97q-88 -247 -188 -513q-39 -104 -65 -151.5t-55 -61.5q-24 -11 -85 -11q-9 0 -37 8v80q25 -9 53 -9q33 0 48 20q12 16 45 101l-194 537h100l139 -426h2zM213 678l-36 5q3 35 4 40q11 53 73 53q33 0 57 -19.5t24 -51.5q0 -28 -38 -64q-16 -15 -20 -29
q-3 -9 -3 -36l-24 -18l-26 18q0 26 12 44q1 2 36 38q24 25 24 45q0 44 -43 44q-29 0 -37 -29q-3 -11 -3 -40z" />
    <glyph glyph-name="glyph369" unicode="&#x1ef8;" horiz-adv-x="667" 
d="M382 289v-289h-97v289l-271 429h113l206 -345l206 345h114zM465 833l45 -2q-20 -39 -53 -64q-37 -28 -76 -27q-21 3 -47 14l-21 9q-31 13 -50 14q-31 1 -59 -36l-43 1q50 92 132 90q20 0 55 -16l18 -8q19 -13 38 -13q34 -1 61 38z" />
    <glyph glyph-name="glyph370" unicode="&#x1ef9;" horiz-adv-x="500" 
d="M252 97l140 426h97q-88 -247 -188 -513q-39 -104 -65 -151.5t-55 -61.5q-24 -11 -85 -11q-9 0 -37 8v80q25 -9 53 -9q33 0 48 20q12 16 45 101l-194 537h100l139 -426h2zM380 670l45 -2q-20 -39 -53 -64q-37 -28 -76 -27q-21 3 -47 14l-21 9q-31 13 -50 14q-31 1 -59 -36
l-43 1q50 92 132 90q20 0 55 -16l18 -8q19 -13 38 -13q34 -1 61 38z" />
    <glyph glyph-name="endash" unicode="&#x2013;" 
d="M556 313v-73h-556v73h556z" />
    <glyph glyph-name="emdash" unicode="&#x2014;" horiz-adv-x="1000" 
d="M1000 313v-73h-1000v73h1000z" />
    <glyph glyph-name="quoteleft" unicode="&#x2018;" horiz-adv-x="222" 
d="M169 576v-106h-104v98q0 133 104 157v-47q-53 -8 -53 -102h53z" />
    <glyph glyph-name="quoteright" unicode="&#x2019;" horiz-adv-x="222" 
d="M53 612v106h104v-98q0 -133 -104 -157v47q53 8 53 102h-53z" />
    <glyph glyph-name="quotesinglbase" unicode="&#x201a;" horiz-adv-x="222" 
d="M53 0v106h104v-98q0 -133 -104 -157v47q53 8 53 102h-53z" />
    <glyph glyph-name="quotedblleft" unicode="&#x201c;" horiz-adv-x="333" 
d="M307 576v-106h-104v98q0 133 104 157v-47q-53 -8 -53 -102h53zM142 576v-106h-104v98q0 133 104 157v-47q-53 -8 -53 -102h53z" />
    <glyph glyph-name="quotedblright" unicode="&#x201d;" horiz-adv-x="333" 
d="M26 612v106h104v-98q0 -133 -104 -157v47q53 8 53 102h-53zM191 612v106h104v-98q0 -133 -104 -157v47q53 8 53 102h-53z" />
    <glyph glyph-name="quotedblbase" unicode="&#x201e;" horiz-adv-x="333" 
d="M26 0v106h104v-98q0 -133 -104 -157v47q53 8 53 102h-53zM191 0v106h104v-98q0 -133 -104 -157v47q53 8 53 102h-53z" />
    <glyph glyph-name="dagger" unicode="&#x2020;" 
d="M326 431v-590h-94v590h-189v76h189v211h94v-211h188v-76h-188z" />
    <glyph glyph-name="daggerdbl" unicode="&#x2021;" 
d="M326 439v-320h188v-76h-188v-202h-94v202h-189v76h189v320h-189v76h189v203h94v-203h188v-76h-188z" />
    <glyph glyph-name="bullet" unicode="&#x2022;" horiz-adv-x="350" 
d="M333 359q0 -65 -46.5 -111t-111.5 -46t-111 45.5t-46 111.5t45.5 112t111.5 46q65 0 111.5 -46.5t46.5 -111.5z" />
    <glyph glyph-name="ellipsis" unicode="&#x2026;" horiz-adv-x="1000" 
d="M219 106v-106h-104v106h104zM552 106v-106h-104v106h104zM885 106v-106h-104v106h104z" />
    <glyph glyph-name="perthousand" unicode="&#x2030;" horiz-adv-x="1000" 
d="M7 539q0 65 45.5 110.5t110.5 45.5t110.5 -45.5t45.5 -110.5t-45.5 -110.5t-110.5 -45.5t-110.5 45t-45.5 111zM70 539q0 -39 27 -66t66 -27q38 0 65.5 27.5t27.5 65.5q0 39 -27.5 66t-65.5 27q-39 0 -66 -27.5t-27 -65.5zM319 149q0 65 45.5 110.5t110.5 45.5
t110.5 -45.5t45.5 -110.5t-45.5 -110.5t-110.5 -45.5t-110.5 45t-45.5 111zM382 149q0 -39 27 -66t66 -27q38 0 65.5 27.5t27.5 65.5q0 39 -27.5 66t-65.5 27q-39 0 -66 -27.5t-27 -65.5zM682 149q0 65 45.5 110.5t110.5 45.5t110.5 -45.5t45.5 -110.5t-45.5 -110.5
t-110.5 -45.5t-110.5 45t-45.5 111zM745 149q0 -39 27 -66t66 -27q38 0 65.5 27.5t27.5 65.5q0 39 -27.5 66t-65.5 27q-39 0 -66 -27.5t-27 -65.5zM544 703l-397 -722h-55l397 722h55z" />
    <glyph glyph-name="guilsinglleft" unicode="&#x2039;" horiz-adv-x="333" 
d="M245 196v-88l-157 123v92l157 123v-88l-105 -81z" />
    <glyph glyph-name="guilsinglright" unicode="&#x203a;" horiz-adv-x="333" 
d="M88 108v88l105 81l-105 81v88l157 -123v-92z" />
    <glyph glyph-name="fraction" unicode="&#x2044;" horiz-adv-x="167" 
d="M333 703l-442 -722h-57l442 722h57z" />
    <glyph glyph-name="franc" unicode="&#x20a3;" horiz-adv-x="1035" 
d="M183 326v-326h-97v718h497v-86h-400v-220h352v-86h-352zM817 304v-304h-88v523h83v-87h2q59 102 147 102q13 0 23 -3v-91h-33q-60 0 -97 -40.5t-37 -99.5z" />
    <glyph glyph-name="u20AB" unicode="&#x20ab;" horiz-adv-x="393" 
d="M197 501q-48 0 -84 -88q-20 -49 -20 -90q0 -51 39 -51q41 0 74 71q28 60 28 107q0 51 -37 51zM200 267q-53 -62 -106 -62q-45 0 -68 28.5t-23 73.5q0 79 55 152q60 79 136 79q34 0 61 -24l20 75h-100l10 36h100q2 17 2 16q0 31 -48 32l7 33q63 2 128 14q12 3 15 3
q6 0 6 -9q-1 -3 -3 -12l-19 -77h65l-10 -36h-65l-69 -280q-5 -22 -5 -27q0 -15 12 -15q6 0 49 42l20 -18q-70 -86 -117 -86q-43 0 -53 62zM9 160h221v-56h-221v56z" />
    <glyph glyph-name="trademark" unicode="&#x2122;" horiz-adv-x="1000" 
d="M557 718l118 -303l116 303h112v-412h-73v335h-2l-129 -335h-50l-129 335h-2v-335h-73v412h112zM373 718v-60h-127v-352h-73v352h-127v60h327z" />
    <glyph glyph-name="minus" unicode="&#x2212;" horiz-adv-x="584" 
d="M545 216h-506v73h506v-73z" />
    <glyph glyph-name="SF370000" unicode="&#x255f;" horiz-adv-x="718" 
d="M477 209h-288l-75 -209h-100l270 718h110l260 -718h-106zM219 295h223l-106 316h-2z" />
    <glyph glyph-name="SF420000" unicode="&#x2560;" horiz-adv-x="681" 
d="M616 86v-86h-530v718h523v-86h-426v-220h393v-86h-393v-240h433z" />
    <glyph glyph-name="SF190000" unicode="&#x2561;" horiz-adv-x="429" 
d="M188 718v-718h-97v718h97z" />
    <glyph glyph-name="SF200000" unicode="&#x2562;" horiz-adv-x="773" 
d="M639 359q0 129 -66 209q-69 83 -184 83t-182.5 -81.5t-67.5 -210.5t67 -209q68 -83 183 -83t184 83q66 80 66 209zM739 359q0 -143 -74 -247q-95 -131 -276 -131t-275 131q-75 104 -75 247t75 247q94 131 275 131t276 -131q74 -104 74 -247z" />
    <glyph glyph-name="SF230000" unicode="&#x2563;" horiz-adv-x="811" 
d="M547 718h97v-466q0 -117 -71 -191q-77 -80 -218 -80q-136 0 -210 79q-66 70 -66 179v479h97v-452q0 -107 58 -158q47 -41 124 -41q79 0 128 40q61 50 61 157v454z" />
    <glyph glyph-name="SF470000" unicode="&#x2564;" horiz-adv-x="699" 
d="M382 289v-289h-97v289l-271 429h113l206 -345l206 345h114z" />
    <glyph glyph-name="SF480000" unicode="&#x2565;" horiz-adv-x="541" 
d="M143 364h-81q6 174 216 174q63 0 113 -23q81 -37 81 -123v-301q0 -31 29 -31q9 0 29 4v-64q-37 -10 -48 -10q-87 0 -93 80q-78 -85 -189 -85q-72 0 -118 42t-46 109q0 144 159 164l145 18q46 6 46 62q0 85 -123 85q-105 0 -120 -101zM384 181v86q-21 -17 -145 -33
q-112 -15 -112 -85q0 -91 95 -91q63 0 112.5 36t49.5 87z" />
    <glyph glyph-name="SF410000" unicode="&#x2566;" horiz-adv-x="431" 
d="M421 164h88q-3 -28 -23 -64q-27 -50 -70 -79q-54 -36 -142 -36q-108 0 -171 73t-63 189q0 129 61 206q66 85 190 85q111 0 168 -81.5t57 -223.5h-382q0 -172 152 -172q57 0 98 37q34 32 37 66zM134 303h291q-10 156 -146 156q-60 0 -102.5 -47t-42.5 -109z" />
    <glyph glyph-name="SF450000" unicode="&#x2567;" horiz-adv-x="314" 
d="M155 523v-523h-88v523h88zM155 618h-88v100h88v-100z" />
    <glyph glyph-name="SF460000" unicode="&#x2568;" horiz-adv-x="314" 
d="M183 523v-523h-88v523h88z" />
    <glyph glyph-name="SF400000" unicode="&#x2569;" horiz-adv-x="498" 
d="M35 262q0 112 59 189q67 87 184 87t184 -87q59 -77 59 -189t-59 -189q-67 -87 -184 -87t-184 87q-59 77 -59 189zM126 262q0 -73 29 -126q40 -74 123 -74t123 74q29 53 29 126t-29 126q-40 74 -123 74t-123 -74q-29 -53 -29 -126z" />
    <glyph glyph-name="SF540000" unicode="&#x256a;" horiz-adv-x="557" 
d="M489 0h-83v76l-2 2q-56 -93 -166 -93q-69 0 -114 34q-56 43 -56 128v376h88v-347q0 -115 101 -115q76 0 114 59q30 46 30 115v288h88v-523z" />
    <glyph glyph-name="SF530000" unicode="&#x256b;" horiz-adv-x="497" 
d="M252 97l140 426h97q-61 -171 -188 -513q-45 -116 -65 -152q-25 -47 -55 -61q-24 -11 -85 -11q-9 0 -37 8v80q25 -9 53 -9q33 0 48 20q12 17 45 101l-194 537h100l139 -426h2z" />
    <glyph glyph-name="circle" unicode="&#x25cb;" horiz-adv-x="718" 
d="M394 918l-66 -93h-79l99 141h93l99 -141h-80zM521 1154l-130 -141h-67l89 141h108z" />
    <glyph glyph-name="H18533" unicode="&#x25cf;" horiz-adv-x="718" 
d="M394 918l-66 -93h-79l99 141h93l99 -141h-80zM455 1014l-130 141h108l89 -141h-67z" />
    <glyph glyph-name="invbullet" unicode="&#x25d8;" horiz-adv-x="718" 
d="M394 918l-66 -93h-79l99 141h93l99 -141h-80zM614 903q9 30 11 64q1 11 8 13q2 0 8 1q67 11 67 54q0 35 -28 35q-5 0 -14.5 -1t-13.5 -1q-21 0 -21 18q0 28 32 28q46 0 76 -26t26 -70q-6 -59 -87 -81q-25 -7 -31 -34h-33z" />
    <glyph glyph-name="invcircle" unicode="&#x25d9;" horiz-adv-x="718" 
d="M394 918l-66 -93h-79l99 141h93l99 -141h-80zM562 1142v0h50q-5 -47 -32 -78t-68 -31q-21 0 -59 13l-26 9q-43 15 -61 15q-33 0 -47 -44h-48q15 107 104 107q31 0 68 -15l22 -9q32 -13 47 -13q40 0 50 46z" />
    <glyph glyph-name="fi" unicode="&#xf001;" horiz-adv-x="500" 
d="M262 450h-88v-450h-88v450h-72v73h72v90q0 115 136 115q12 0 40 -2v-79q-22 2 -36 2q-52 0 -52 -61v-65h88v-73zM434 523v-523h-88v523h88zM434 618h-88v100h88v-100z" />
    <glyph glyph-name="fl" unicode="&#xf002;" horiz-adv-x="500" 
d="M262 450h-88v-450h-88v450h-72v73h72v90q0 115 136 115q12 0 40 -2v-79q-22 2 -36 2q-52 0 -52 -61v-65h88v-73zM432 718v-718h-88v718h88z" />
    <glyph glyph-name="periodcentered" horiz-adv-x="278" 
d="M140 315q24 0 43 -18.5t19 -44.5q0 -25 -18.5 -43.5t-44.5 -18.5q-25 0 -43.5 18.5t-18.5 43.5q0 27 19 45t44 18z" />
    <glyph glyph-name="glyph275" horiz-adv-x="249" 
 />
    <glyph glyph-name="glyph276" horiz-adv-x="249" 
 />
    <glyph glyph-name="glyph261" horiz-adv-x="500" 
d="M253 522q9 30 11 64q1 11 8 13q2 0 8 1q67 11 67 54q0 35 -28 35q-5 0 -14.5 -1t-13.5 -1q-21 0 -21 18q0 28 32 28q46 0 76 -26t26 -70q-6 -59 -87 -81q-25 -7 -31 -34h-33z" />
    <glyph glyph-name="glyph262" horiz-adv-x="541" 
d="M191 686l-66 -93h-79l99 141h93l99 -141h-80zM317 923l-130 -141h-67l89 141h108z" />
    <glyph glyph-name="glyph263" horiz-adv-x="541" 
d="M191 686l-66 -93h-79l99 141h93l99 -141h-80zM252 782l-130 141h108l89 -141h-67z" />
    <glyph glyph-name="glyph264" horiz-adv-x="541" 
d="M191 686l-66 -93h-79l99 141h93l99 -141h-80zM411 671q9 30 11 64q1 11 8 13q2 0 8 1q67 11 67 54q0 35 -28 35q-5 0 -14.5 -1t-13.5 -1q-21 0 -21 18q0 28 32 28q46 0 76 -26t26 -70q-6 -59 -87 -81q-25 -7 -31 -34h-33z" />
    <glyph glyph-name="glyph265" horiz-adv-x="541" 
d="M191 686l-66 -93h-79l99 141h93l99 -141h-80zM359 910v0h50q-5 -47 -32 -78t-68 -31q-21 0 -59 13l-26 9q-43 15 -61 15q-33 0 -47 -44h-48q15 107 104 107q31 0 68 -15l22 -9q32 -13 47 -13q40 0 50 46z" />
    <glyph glyph-name="glyph266" horiz-adv-x="541" 
d="M303 730h48q-15 -136 -159 -136q-133 0 -149 136h49q14 -43 38 -61t70 -18q52 0 78 28q15 16 25 51zM396 923l-130 -141h-67l89 141h108z" />
    <glyph glyph-name="glyph267" horiz-adv-x="541" 
d="M303 730h48q-15 -136 -159 -136q-133 0 -149 136h49q14 -43 38 -61t70 -18q52 0 78 28q15 16 25 51zM199 782l-130 141h108l89 -141h-67z" />
    <glyph glyph-name="glyph268" horiz-adv-x="541" 
d="M303 730h48q-15 -136 -159 -136q-133 0 -149 136h49q14 -43 38 -61t70 -18q52 0 78 28q15 16 25 51zM306 671q9 30 11 64q1 11 8 13q2 0 8 1q67 11 67 54q0 35 -28 35q-5 0 -14.5 -1t-13.5 -1q-21 0 -21 18q0 28 32 28q46 0 76 -26t26 -70q-6 -59 -87 -81q-25 -7 -31 -34
h-33z" />
    <glyph glyph-name="glyph269" horiz-adv-x="541" 
d="M303 730h48q-15 -136 -159 -136q-133 0 -149 136h49q14 -43 38 -61t70 -18q52 0 78 28q15 16 25 51zM359 910v0h50q-5 -47 -32 -78t-68 -31q-21 0 -59 13l-26 9q-43 15 -61 15q-33 0 -47 -44h-48q15 107 104 107q31 0 68 -15l22 -9q32 -13 47 -13q40 0 50 46z" />
    <glyph glyph-name="glyph270" horiz-adv-x="249" 
 />
  </font>
</defs>
</svg>
