<svg width="142" height="12" viewBox="0 0 142 12" fill="none" xmlns="http://www.w3.org/2000/svg">
<path d="M7.14075 11H3.72475C2.55808 11 1.69008 10.7667 1.12075 10.3C0.560746 9.83333 0.280746 9.11467 0.280746 8.144V3.79C0.280746 2.81933 0.560746 2.10067 1.12075 1.634C1.69008 1.158 2.55808 0.92 3.72475 0.92H7.14075C7.31808 0.92 7.44408 0.962 7.51875 1.046C7.60275 1.12067 7.64475 1.24667 7.64475 1.424V3.118C7.64475 3.29533 7.60275 3.426 7.51875 3.51C7.44408 3.58467 7.31808 3.622 7.14075 3.622H4.32675C4.03742 3.622 3.82275 3.68267 3.68275 3.804C3.54275 3.916 3.47275 4.08867 3.47275 4.322V7.654C3.47275 7.88733 3.54275 8.06 3.68275 8.172C3.82275 8.27467 4.03742 8.326 4.32675 8.326H7.14075C7.31808 8.326 7.44408 8.368 7.51875 8.452C7.60275 8.52667 7.64475 8.65267 7.64475 8.83V10.496C7.64475 10.6733 7.60275 10.804 7.51875 10.888C7.44408 10.9627 7.31808 11 7.14075 11ZM17.6974 8.354C17.6974 8.78333 17.6321 9.17533 17.5014 9.53C17.3801 9.87533 17.1561 10.174 16.8294 10.426C16.5121 10.6687 16.0687 10.86 15.4994 11C14.9394 11.14 14.2254 11.21 13.3574 11.21C12.4894 11.21 11.7707 11.14 11.2014 11C10.6321 10.86 10.1841 10.6687 9.85741 10.426C9.54007 10.174 9.31607 9.87533 9.18541 9.53C9.06407 9.17533 9.00341 8.78333 9.00341 8.354V3.58C9.00341 3.15067 9.06407 2.76333 9.18541 2.418C9.31607 2.06333 9.54007 1.76 9.85741 1.508C10.1841 1.256 10.6321 1.06 11.2014 0.92C11.7707 0.78 12.4894 0.71 13.3574 0.71C14.2254 0.71 14.9394 0.78 15.4994 0.92C16.0687 1.06 16.5121 1.256 16.8294 1.508C17.1561 1.76 17.3801 2.06333 17.5014 2.418C17.6321 2.76333 17.6974 3.15067 17.6974 3.58V8.354ZM12.1814 7.85C12.1814 8.03667 12.2514 8.19533 12.3914 8.326C12.5314 8.44733 12.8534 8.508 13.3574 8.508C13.8614 8.508 14.1834 8.44733 14.3234 8.326C14.4634 8.19533 14.5334 8.03667 14.5334 7.85V4.084C14.5334 3.90667 14.4634 3.75733 14.3234 3.636C14.1834 3.50533 13.8614 3.44 13.3574 3.44C12.8534 3.44 12.5314 3.50533 12.3914 3.636C12.2514 3.75733 12.1814 3.90667 12.1814 4.084V7.85ZM22.0837 11H19.9837C19.8063 11 19.6757 10.9627 19.5917 10.888C19.517 10.804 19.4797 10.6733 19.4797 10.496V1.424C19.4797 1.24667 19.517 1.12067 19.5917 1.046C19.6757 0.962 19.8063 0.92 19.9837 0.92H21.4397C21.617 0.92 21.7663 0.948 21.8877 1.004C22.0183 1.06 22.1443 1.158 22.2657 1.298L24.9817 4.406V1.424C24.9817 1.24667 25.019 1.12067 25.0937 1.046C25.1777 0.962 25.3083 0.92 25.4857 0.92H27.5857C27.763 0.92 27.889 0.962 27.9637 1.046C28.0477 1.12067 28.0897 1.24667 28.0897 1.424V10.496C28.0897 10.6733 28.0477 10.804 27.9637 10.888C27.889 10.9627 27.763 11 27.5857 11H25.4857C25.3083 11 25.1777 10.9627 25.0937 10.888C25.019 10.804 24.9817 10.6733 24.9817 10.496V8.774L22.5877 5.876V10.496C22.5877 10.6733 22.5457 10.804 22.4617 10.888C22.387 10.9627 22.261 11 22.0837 11ZM37.7207 11H33.3107C32.144 11 31.276 10.7667 30.7067 10.3C30.1467 9.83333 29.8667 9.11467 29.8667 8.144V3.776C29.8667 2.80533 30.1467 2.08667 30.7067 1.62C31.276 1.15333 32.144 0.92 33.3107 0.92H36.8107C36.988 0.92 37.114 0.962 37.1887 1.046C37.2727 1.12067 37.3147 1.24667 37.3147 1.424V3.118C37.3147 3.29533 37.2727 3.426 37.1887 3.51C37.114 3.58467 36.988 3.622 36.8107 3.622H33.8987C33.6094 3.622 33.3947 3.68267 33.2547 3.804C33.1147 3.916 33.0447 4.08867 33.0447 4.322V7.668C33.0447 7.90133 33.096 8.074 33.1987 8.186C33.3107 8.298 33.474 8.354 33.6887 8.354H35.0467V6.17C35.0467 5.99267 35.084 5.86667 35.1587 5.792C35.2427 5.708 35.3734 5.666 35.5507 5.666H37.7207C37.898 5.666 38.024 5.708 38.0987 5.792C38.1827 5.86667 38.2247 5.99267 38.2247 6.17V10.496C38.2247 10.6733 38.1827 10.804 38.0987 10.888C38.024 10.9627 37.898 11 37.7207 11ZM43.0968 3.44V5.232H44.1468C44.3895 5.232 44.5528 5.17133 44.6368 5.05C44.7208 4.91933 44.7628 4.76067 44.7628 4.574V4.098C44.7628 3.91133 44.7208 3.75733 44.6368 3.636C44.5528 3.50533 44.3895 3.44 44.1468 3.44H43.0968ZM42.5928 11H40.4368C40.2595 11 40.1288 10.9627 40.0448 10.888C39.9701 10.804 39.9328 10.6733 39.9328 10.496V1.424C39.9328 1.24667 39.9701 1.12067 40.0448 1.046C40.1288 0.962 40.2595 0.92 40.4368 0.92H45.0988C46.1441 0.92 46.8628 1.13933 47.2548 1.578C47.6561 2.00733 47.8568 2.56733 47.8568 3.258V3.902C47.8568 4.294 47.7961 4.63 47.6748 4.91C47.5628 5.18067 47.3621 5.37667 47.0728 5.498C47.5768 5.554 47.9828 5.75933 48.2908 6.114C48.6081 6.46867 48.7668 6.94 48.7668 7.528V10.496C48.7668 10.6733 48.7248 10.804 48.6408 10.888C48.5661 10.9627 48.4401 11 48.2628 11H46.0928C45.9155 11 45.7848 10.9627 45.7008 10.888C45.6261 10.804 45.5888 10.6733 45.5888 10.496V8.354C45.5888 8.14867 45.5468 7.99933 45.4628 7.906C45.3881 7.80333 45.2528 7.752 45.0568 7.752H43.0968V10.496C43.0968 10.6733 43.0548 10.804 42.9708 10.888C42.8961 10.9627 42.7701 11 42.5928 11ZM53.9911 3.86L53.3331 5.988H55.5311L54.8731 3.86C54.8358 3.776 54.7938 3.71533 54.7471 3.678C54.7098 3.64067 54.6631 3.622 54.6071 3.622H54.2571C54.2011 3.622 54.1498 3.64067 54.1031 3.678C54.0658 3.71533 54.0284 3.776 53.9911 3.86ZM53.1931 10.496C53.1931 10.6733 53.1511 10.804 53.0671 10.888C52.9924 10.9627 52.8664 11 52.6891 11H50.6311C50.4538 11 50.3231 10.9627 50.2391 10.888C50.1644 10.804 50.1271 10.6733 50.1271 10.496V6.8C50.1271 6.52 50.1691 6.198 50.2531 5.834C50.3464 5.47 50.4864 5.04533 50.6731 4.56L51.8911 1.382C51.9471 1.22333 52.0311 1.10667 52.1431 1.032C52.2644 0.957333 52.4184 0.92 52.6051 0.92H56.3711C56.5484 0.92 56.6931 0.957333 56.8051 1.032C56.9264 1.10667 57.0151 1.22333 57.0711 1.382L58.2891 4.56C58.4758 5.04533 58.6111 5.47 58.6951 5.834C58.7884 6.198 58.8351 6.52 58.8351 6.8V10.496C58.8351 10.6733 58.7931 10.804 58.7091 10.888C58.6344 10.9627 58.5084 11 58.3311 11H56.2171C56.0304 11 55.8904 10.9627 55.7971 10.888C55.7131 10.804 55.6711 10.6733 55.6711 10.496V8.536H53.1931V10.496ZM64.7631 11H62.4951C62.3178 11 62.1871 10.9627 62.1031 10.888C62.0284 10.804 61.9911 10.6733 61.9911 10.496V3.622H59.9331C59.7558 3.622 59.6251 3.58467 59.5411 3.51C59.4664 3.426 59.4291 3.29533 59.4291 3.118V1.424C59.4291 1.24667 59.4664 1.12067 59.5411 1.046C59.6251 0.962 59.7558 0.92 59.9331 0.92H67.3251C67.5024 0.92 67.6284 0.962 67.7031 1.046C67.7871 1.12067 67.8291 1.24667 67.8291 1.424V3.118C67.8291 3.29533 67.7871 3.426 67.7031 3.51C67.6284 3.58467 67.5024 3.622 67.3251 3.622H65.2671V10.496C65.2671 10.6733 65.2251 10.804 65.1411 10.888C65.0664 10.9627 64.9404 11 64.7631 11ZM77.7726 8.354C77.7726 8.78333 77.7073 9.17533 77.5766 9.53C77.4553 9.87533 77.2313 10.174 76.9046 10.426C76.5873 10.6687 76.1486 10.86 75.5886 11C75.0286 11.14 74.3146 11.21 73.4466 11.21C72.5786 11.21 71.8646 11.14 71.3046 11C70.7446 10.86 70.3013 10.6687 69.9746 10.426C69.6573 10.174 69.4333 9.87533 69.3026 9.53C69.1813 9.17533 69.1206 8.78333 69.1206 8.354V1.424C69.1206 1.24667 69.1579 1.12067 69.2326 1.046C69.3166 0.962 69.4473 0.92 69.6246 0.92H71.8226C71.9999 0.92 72.1259 0.962 72.2006 1.046C72.2846 1.12067 72.3266 1.24667 72.3266 1.424V7.808C72.3266 7.99467 72.3966 8.15333 72.5366 8.284C72.6766 8.40533 72.9893 8.466 73.4746 8.466C73.9693 8.466 74.2866 8.40533 74.4266 8.284C74.5666 8.15333 74.6366 7.99467 74.6366 7.808V1.424C74.6366 1.24667 74.6739 1.12067 74.7486 1.046C74.8326 0.962 74.9633 0.92 75.1406 0.92H77.2686C77.4459 0.92 77.5719 0.962 77.6466 1.046C77.7306 1.12067 77.7726 1.24667 77.7726 1.424V8.354ZM87.2659 11H80.1399C79.9626 11 79.8319 10.9627 79.7479 10.888C79.6733 10.804 79.6359 10.6733 79.6359 10.496V1.424C79.6359 1.24667 79.6733 1.12067 79.7479 1.046C79.8319 0.962 79.9626 0.92 80.1399 0.92H82.3099C82.4873 0.92 82.6133 0.962 82.6879 1.046C82.7719 1.12067 82.8139 1.24667 82.8139 1.424V8.354H84.7319V6.086C84.7319 5.90867 84.7693 5.78267 84.8439 5.708C84.9279 5.624 85.0586 5.582 85.2359 5.582H87.2659C87.4433 5.582 87.5693 5.624 87.6439 5.708C87.7279 5.78267 87.7699 5.90867 87.7699 6.086V10.496C87.7699 10.6733 87.7279 10.804 87.6439 10.888C87.5693 10.9627 87.4433 11 87.2659 11ZM93.0243 3.86L92.3663 5.988H94.5643L93.9063 3.86C93.869 3.776 93.827 3.71533 93.7803 3.678C93.743 3.64067 93.6963 3.622 93.6403 3.622H93.2903C93.2343 3.622 93.183 3.64067 93.1363 3.678C93.099 3.71533 93.0616 3.776 93.0243 3.86ZM92.2263 10.496C92.2263 10.6733 92.1843 10.804 92.1003 10.888C92.0256 10.9627 91.8996 11 91.7223 11H89.6643C89.487 11 89.3563 10.9627 89.2723 10.888C89.1976 10.804 89.1603 10.6733 89.1603 10.496V6.8C89.1603 6.52 89.2023 6.198 89.2863 5.834C89.3796 5.47 89.5196 5.04533 89.7063 4.56L90.9243 1.382C90.9803 1.22333 91.0643 1.10667 91.1763 1.032C91.2976 0.957333 91.4516 0.92 91.6383 0.92H95.4043C95.5816 0.92 95.7263 0.957333 95.8383 1.032C95.9596 1.10667 96.0483 1.22333 96.1043 1.382L97.3223 4.56C97.509 5.04533 97.6443 5.47 97.7283 5.834C97.8216 6.198 97.8683 6.52 97.8683 6.8V10.496C97.8683 10.6733 97.8263 10.804 97.7423 10.888C97.6676 10.9627 97.5416 11 97.3643 11H95.2503C95.0636 11 94.9236 10.9627 94.8303 10.888C94.7463 10.804 94.7043 10.6733 94.7043 10.496V8.536H92.2263V10.496ZM103.796 11H101.528C101.351 11 101.22 10.9627 101.136 10.888C101.062 10.804 101.024 10.6733 101.024 10.496V3.622H98.9663C98.789 3.622 98.6583 3.58467 98.5743 3.51C98.4996 3.426 98.4623 3.29533 98.4623 3.118V1.424C98.4623 1.24667 98.4996 1.12067 98.5743 1.046C98.6583 0.962 98.789 0.92 98.9663 0.92H106.358C106.536 0.92 106.662 0.962 106.736 1.046C106.82 1.12067 106.862 1.24667 106.862 1.424V3.118C106.862 3.29533 106.82 3.426 106.736 3.51C106.662 3.58467 106.536 3.622 106.358 3.622H104.3V10.496C104.3 10.6733 104.258 10.804 104.174 10.888C104.1 10.9627 103.974 11 103.796 11ZM108.504 11C108.326 11 108.196 10.9627 108.112 10.888C108.037 10.804 108 10.6733 108 10.496V8.83C108 8.65267 108.037 8.52667 108.112 8.452C108.196 8.368 108.326 8.326 108.504 8.326H109.89V3.622H108.504C108.326 3.622 108.196 3.58467 108.112 3.51C108.037 3.426 108 3.29533 108 3.118V1.424C108 1.24667 108.037 1.12067 108.112 1.046C108.196 0.962 108.326 0.92 108.504 0.92H114.468C114.645 0.92 114.771 0.962 114.846 1.046C114.93 1.12067 114.972 1.24667 114.972 1.424V3.118C114.972 3.29533 114.93 3.426 114.846 3.51C114.771 3.58467 114.645 3.622 114.468 3.622H113.11V8.326H114.468C114.645 8.326 114.771 8.368 114.846 8.452C114.93 8.52667 114.972 8.65267 114.972 8.83V10.496C114.972 10.6733 114.93 10.804 114.846 10.888C114.771 10.9627 114.645 11 114.468 11H108.504ZM125.24 8.354C125.24 8.78333 125.175 9.17533 125.044 9.53C124.923 9.87533 124.699 10.174 124.372 10.426C124.055 10.6687 123.612 10.86 123.042 11C122.482 11.14 121.768 11.21 120.9 11.21C120.032 11.21 119.314 11.14 118.744 11C118.175 10.86 117.727 10.6687 117.4 10.426C117.083 10.174 116.859 9.87533 116.728 9.53C116.607 9.17533 116.546 8.78333 116.546 8.354V3.58C116.546 3.15067 116.607 2.76333 116.728 2.418C116.859 2.06333 117.083 1.76 117.4 1.508C117.727 1.256 118.175 1.06 118.744 0.92C119.314 0.78 120.032 0.71 120.9 0.71C121.768 0.71 122.482 0.78 123.042 0.92C123.612 1.06 124.055 1.256 124.372 1.508C124.699 1.76 124.923 2.06333 125.044 2.418C125.175 2.76333 125.24 3.15067 125.24 3.58V8.354ZM119.724 7.85C119.724 8.03667 119.794 8.19533 119.934 8.326C120.074 8.44733 120.396 8.508 120.9 8.508C121.404 8.508 121.726 8.44733 121.866 8.326C122.006 8.19533 122.076 8.03667 122.076 7.85V4.084C122.076 3.90667 122.006 3.75733 121.866 3.636C121.726 3.50533 121.404 3.44 120.9 3.44C120.396 3.44 120.074 3.50533 119.934 3.636C119.794 3.75733 119.724 3.90667 119.724 4.084V7.85ZM129.627 11H127.527C127.349 11 127.219 10.9627 127.135 10.888C127.06 10.804 127.023 10.6733 127.023 10.496V1.424C127.023 1.24667 127.06 1.12067 127.135 1.046C127.219 0.962 127.349 0.92 127.527 0.92H128.983C129.16 0.92 129.309 0.948 129.431 1.004C129.561 1.06 129.687 1.158 129.809 1.298L132.525 4.406V1.424C132.525 1.24667 132.562 1.12067 132.637 1.046C132.721 0.962 132.851 0.92 133.029 0.92H135.129C135.306 0.92 135.432 0.962 135.507 1.046C135.591 1.12067 135.633 1.24667 135.633 1.424V10.496C135.633 10.6733 135.591 10.804 135.507 10.888C135.432 10.9627 135.306 11 135.129 11H133.029C132.851 11 132.721 10.9627 132.637 10.888C132.562 10.804 132.525 10.6733 132.525 10.496V8.774L130.131 5.876V10.496C130.131 10.6733 130.089 10.804 130.005 10.888C129.93 10.9627 129.804 11 129.627 11ZM140.658 7.332H138.488C138.31 7.332 138.18 7.29467 138.096 7.22C138.021 7.136 137.979 7.00533 137.97 6.828L137.76 1.424C137.75 1.24667 137.783 1.12067 137.858 1.046C137.932 0.962 138.058 0.92 138.236 0.92H140.91C141.087 0.92 141.213 0.962 141.288 1.046C141.362 1.12067 141.395 1.24667 141.386 1.424L141.19 6.828C141.18 7.00533 141.134 7.136 141.05 7.22C140.966 7.29467 140.835 7.332 140.658 7.332ZM140.868 11H138.292C138.114 11 137.984 10.9627 137.9 10.888C137.825 10.804 137.788 10.6733 137.788 10.496V8.662C137.788 8.48467 137.825 8.35867 137.9 8.284C137.984 8.2 138.114 8.158 138.292 8.158H140.868C141.045 8.158 141.171 8.2 141.246 8.284C141.33 8.35867 141.372 8.48467 141.372 8.662V10.496C141.372 10.6733 141.33 10.804 141.246 10.888C141.171 10.9627 141.045 11 140.868 11Z" fill="#AD9161"/>
</svg>
