<svg width="17" height="21" viewBox="0 0 17 21" fill="none" xmlns="http://www.w3.org/2000/svg">
<path d="M1.96445 6.30003C1.1834 5.52683 1.1834 4.27322 1.96445 3.50002L4.08577 1.40002C4.86681 0.62682 6.13314 0.62682 6.91419 1.40002L14.6924 9.10003C15.4734 9.87323 15.4734 11.1268 14.6924 11.9L12.571 14C11.79 14.7732 10.5237 14.7732 9.74262 14L1.96445 6.30003Z" fill="white"/>
<path d="M6.91421 19.6C6.13316 20.3732 4.86683 20.3732 4.08579 19.6L1.96447 17.5C1.18342 16.7268 1.18342 15.4732 1.96447 14.7L9.74264 6.99998C10.5237 6.22678 11.79 6.22678 12.5711 6.99998L14.6924 9.09998C15.4734 9.87318 15.4734 11.1268 14.6924 11.9L6.91421 19.6Z" fill="white"/>
</svg>
