<svg width="10" height="10" viewBox="0 0 10 10" fill="none" xmlns="http://www.w3.org/2000/svg">
<g clip-path="url(#clip0)">
<path fill-rule="evenodd" clip-rule="evenodd" d="M9.61747 0.382524C9.10744 -0.127508 8.28051 -0.127508 7.77048 0.382524L4.99998 3.15303L2.22952 0.382569C1.71948 -0.127463 0.892559 -0.127463 0.382527 0.382569C-0.127505 0.892601 -0.127505 1.71953 0.382527 2.22956L3.15299 5.00002L0.382524 7.77048C-0.127508 8.28052 -0.127508 9.10744 0.382524 9.61747C0.892556 10.1275 1.71948 10.1275 2.22951 9.61747L4.99998 6.84701L7.77049 9.61752C8.28052 10.1276 9.10744 10.1276 9.61748 9.61752C10.1275 9.10749 10.1275 8.28056 9.61748 7.77053L6.84697 5.00002L9.61747 2.22951C10.1275 1.71948 10.1275 0.892556 9.61747 0.382524Z" fill="#AD9161"/>
</g>
<defs>
<clipPath id="clip0">
<rect width="10" height="10" fill="white"/>
</clipPath>
</defs>
</svg>
