<svg width="141" height="15" viewBox="0 0 141 15" fill="none" xmlns="http://www.w3.org/2000/svg">
<path d="M10.052 14H0.889997C0.661997 14 0.493997 13.952 0.385997 13.856C0.289997 13.748 0.241997 13.58 0.241997 13.352V1.688C0.241997 1.46 0.289997 1.298 0.385997 1.202C0.493997 1.094 0.661997 1.04 0.889997 1.04H3.68C3.908 1.04 4.07 1.094 4.166 1.202C4.274 1.298 4.328 1.46 4.328 1.688V10.598H6.794V7.682C6.794 7.454 6.842 7.292 6.938 7.196C7.046 7.088 7.214 7.034 7.442 7.034H10.052C10.28 7.034 10.442 7.088 10.538 7.196C10.646 7.292 10.7 7.454 10.7 7.682V13.352C10.7 13.58 10.646 13.748 10.538 13.856C10.442 13.952 10.28 14 10.052 14ZM21.7576 14H13.4056C13.1776 14 13.0096 13.952 12.9016 13.856C12.8056 13.748 12.7576 13.58 12.7576 13.352V1.688C12.7576 1.46 12.8056 1.298 12.9016 1.202C13.0096 1.094 13.1776 1.04 13.4056 1.04H21.7576C21.9856 1.04 22.1476 1.094 22.2436 1.202C22.3516 1.298 22.4056 1.46 22.4056 1.688V3.794C22.4056 4.022 22.3516 4.19 22.2436 4.298C22.1476 4.394 21.9856 4.442 21.7576 4.442H16.7896V5.828H20.2996C20.5276 5.828 20.6896 5.882 20.7856 5.99C20.8936 6.086 20.9476 6.248 20.9476 6.476V8.402C20.9476 8.63 20.8936 8.798 20.7856 8.906C20.6896 9.002 20.5276 9.05 20.2996 9.05H16.7896V10.598H21.7576C21.9856 10.598 22.1476 10.652 22.2436 10.76C22.3516 10.856 22.4056 11.018 22.4056 11.246V13.352C22.4056 13.58 22.3516 13.748 22.2436 13.856C22.1476 13.952 21.9856 14 21.7576 14ZM29.233 4.82L28.387 7.556H31.213L30.367 4.82C30.319 4.712 30.265 4.634 30.205 4.586C30.157 4.538 30.097 4.514 30.025 4.514H29.575C29.503 4.514 29.437 4.538 29.377 4.586C29.329 4.634 29.281 4.712 29.233 4.82ZM28.207 13.352C28.207 13.58 28.153 13.748 28.045 13.856C27.949 13.952 27.787 14 27.559 14H24.913C24.685 14 24.517 13.952 24.409 13.856C24.313 13.748 24.265 13.58 24.265 13.352V8.6C24.265 8.24 24.319 7.826 24.427 7.358C24.547 6.89 24.727 6.344 24.967 5.72L26.533 1.634C26.605 1.43 26.713 1.28 26.857 1.184C27.013 1.088 27.211 1.04 27.451 1.04H32.293C32.521 1.04 32.707 1.088 32.851 1.184C33.007 1.28 33.121 1.43 33.193 1.634L34.759 5.72C34.999 6.344 35.173 6.89 35.281 7.358C35.401 7.826 35.461 8.24 35.461 8.6V13.352C35.461 13.58 35.407 13.748 35.299 13.856C35.203 13.952 35.041 14 34.813 14H32.095C31.855 14 31.675 13.952 31.555 13.856C31.447 13.748 31.393 13.58 31.393 13.352V10.832H28.207V13.352ZM44.3974 14H38.3314C38.1034 14 37.9354 13.952 37.8274 13.856C37.7314 13.748 37.6834 13.58 37.6834 13.352V1.688C37.6834 1.46 37.7314 1.298 37.8274 1.202C37.9354 1.094 38.1034 1.04 38.3314 1.04H44.3974C45.8974 1.04 47.0074 1.34 47.7274 1.94C48.4594 2.54 48.8254 3.464 48.8254 4.712V10.328C48.8254 11.576 48.4594 12.5 47.7274 13.1C47.0074 13.7 45.8974 14 44.3974 14ZM41.7694 4.478V10.598H43.9114C44.1994 10.598 44.4094 10.526 44.5414 10.382C44.6854 10.238 44.7574 10.016 44.7574 9.716V5.342C44.7574 5.042 44.6854 4.826 44.5414 4.694C44.4094 4.55 44.1994 4.478 43.9114 4.478H41.7694ZM60.1131 14H51.7611C51.5331 14 51.3651 13.952 51.2571 13.856C51.1611 13.748 51.1131 13.58 51.1131 13.352V1.688C51.1131 1.46 51.1611 1.298 51.2571 1.202C51.3651 1.094 51.5331 1.04 51.7611 1.04H60.1131C60.3411 1.04 60.5031 1.094 60.5991 1.202C60.7071 1.298 60.7611 1.46 60.7611 1.688V3.794C60.7611 4.022 60.7071 4.19 60.5991 4.298C60.5031 4.394 60.3411 4.442 60.1131 4.442H55.1451V5.828H58.6551C58.8831 5.828 59.0451 5.882 59.1411 5.99C59.2491 6.086 59.3031 6.248 59.3031 6.476V8.402C59.3031 8.63 59.2491 8.798 59.1411 8.906C59.0451 9.002 58.8831 9.05 58.6551 9.05H55.1451V10.598H60.1131C60.3411 10.598 60.5031 10.652 60.5991 10.76C60.7071 10.856 60.7611 11.018 60.7611 11.246V13.352C60.7611 13.58 60.7071 13.748 60.5991 13.856C60.5031 13.952 60.3411 14 60.1131 14ZM66.9584 4.28V6.584H68.3084C68.6204 6.584 68.8304 6.506 68.9384 6.35C69.0464 6.182 69.1004 5.978 69.1004 5.738V5.126C69.1004 4.886 69.0464 4.688 68.9384 4.532C68.8304 4.364 68.6204 4.28 68.3084 4.28H66.9584ZM66.3104 14H63.5384C63.3104 14 63.1424 13.952 63.0344 13.856C62.9384 13.748 62.8904 13.58 62.8904 13.352V1.688C62.8904 1.46 62.9384 1.298 63.0344 1.202C63.1424 1.094 63.3104 1.04 63.5384 1.04H69.5324C70.8764 1.04 71.8004 1.322 72.3044 1.886C72.8204 2.438 73.0784 3.158 73.0784 4.046V4.874C73.0784 5.378 73.0004 5.81 72.8444 6.17C72.7004 6.518 72.4424 6.77 72.0704 6.926C72.7184 6.998 73.2404 7.262 73.6364 7.718C74.0444 8.174 74.2484 8.78 74.2484 9.536V13.352C74.2484 13.58 74.1944 13.748 74.0864 13.856C73.9904 13.952 73.8284 14 73.6004 14H70.8104C70.5824 14 70.4144 13.952 70.3064 13.856C70.2104 13.748 70.1624 13.58 70.1624 13.352V10.598C70.1624 10.334 70.1084 10.142 70.0004 10.022C69.9044 9.89 69.7304 9.824 69.4784 9.824H66.9584V13.352C66.9584 13.58 66.9044 13.748 66.7964 13.856C66.7004 13.952 66.5384 14 66.3104 14ZM83.8274 14H76.9154C76.6874 14 76.5194 13.952 76.4114 13.856C76.3154 13.748 76.2674 13.58 76.2674 13.352V1.688C76.2674 1.46 76.3154 1.298 76.4114 1.202C76.5194 1.094 76.6874 1.04 76.9154 1.04H82.6574C83.8334 1.04 84.7034 1.268 85.2674 1.724C85.8314 2.168 86.1134 2.858 86.1134 3.794V4.658C86.1134 5.162 86.0234 5.576 85.8434 5.9C85.6754 6.212 85.4114 6.446 85.0514 6.602C85.8194 6.674 86.3894 6.938 86.7614 7.394C87.1334 7.85 87.3194 8.516 87.3194 9.392V11.048C87.3194 12.056 87.0314 12.8 86.4554 13.28C85.8914 13.76 85.0154 14 83.8274 14ZM80.3174 4.1V6.044H81.8474C82.0754 6.044 82.2434 5.984 82.3514 5.864C82.4714 5.744 82.5314 5.564 82.5314 5.324V4.82C82.5314 4.58 82.4714 4.4 82.3514 4.28C82.2434 4.16 82.0754 4.1 81.8474 4.1H80.3174ZM80.3174 8.816V10.94H82.6574C82.8854 10.94 83.0534 10.88 83.1614 10.76C83.2814 10.64 83.3414 10.46 83.3414 10.22V9.518C83.3414 9.278 83.2814 9.104 83.1614 8.996C83.0534 8.876 82.8854 8.816 82.6574 8.816H80.3174ZM100.29 10.598C100.29 11.15 100.206 11.654 100.038 12.11C99.8824 12.554 99.5944 12.938 99.1744 13.262C98.7664 13.574 98.1964 13.82 97.4644 14C96.7444 14.18 95.8264 14.27 94.7104 14.27C93.5944 14.27 92.6704 14.18 91.9384 14C91.2064 13.82 90.6304 13.574 90.2104 13.262C89.8024 12.938 89.5144 12.554 89.3464 12.11C89.1904 11.654 89.1124 11.15 89.1124 10.598V4.46C89.1124 3.908 89.1904 3.41 89.3464 2.966C89.5144 2.51 89.8024 2.12 90.2104 1.796C90.6304 1.472 91.2064 1.22 91.9384 1.04C92.6704 0.86 93.5944 0.77 94.7104 0.77C95.8264 0.77 96.7444 0.86 97.4644 1.04C98.1964 1.22 98.7664 1.472 99.1744 1.796C99.5944 2.12 99.8824 2.51 100.038 2.966C100.206 3.41 100.29 3.908 100.29 4.46V10.598ZM93.1984 9.95C93.1984 10.19 93.2884 10.394 93.4684 10.562C93.6484 10.718 94.0624 10.796 94.7104 10.796C95.3584 10.796 95.7724 10.718 95.9524 10.562C96.1324 10.394 96.2224 10.19 96.2224 9.95V5.108C96.2224 4.88 96.1324 4.688 95.9524 4.532C95.7724 4.364 95.3584 4.28 94.7104 4.28C94.0624 4.28 93.6484 4.364 93.4684 4.532C93.2884 4.688 93.1984 4.88 93.1984 5.108V9.95ZM107.28 4.82L106.434 7.556H109.26L108.414 4.82C108.366 4.712 108.312 4.634 108.252 4.586C108.204 4.538 108.144 4.514 108.072 4.514H107.622C107.55 4.514 107.484 4.538 107.424 4.586C107.376 4.634 107.328 4.712 107.28 4.82ZM106.254 13.352C106.254 13.58 106.2 13.748 106.092 13.856C105.996 13.952 105.834 14 105.606 14H102.96C102.732 14 102.564 13.952 102.456 13.856C102.36 13.748 102.312 13.58 102.312 13.352V8.6C102.312 8.24 102.366 7.826 102.474 7.358C102.594 6.89 102.774 6.344 103.014 5.72L104.58 1.634C104.652 1.43 104.76 1.28 104.904 1.184C105.06 1.088 105.258 1.04 105.498 1.04H110.34C110.568 1.04 110.754 1.088 110.898 1.184C111.054 1.28 111.168 1.43 111.24 1.634L112.806 5.72C113.046 6.344 113.22 6.89 113.328 7.358C113.448 7.826 113.508 8.24 113.508 8.6V13.352C113.508 13.58 113.454 13.748 113.346 13.856C113.25 13.952 113.088 14 112.86 14H110.142C109.902 14 109.722 13.952 109.602 13.856C109.494 13.748 109.44 13.58 109.44 13.352V10.832H106.254V13.352ZM119.798 4.28V6.584H121.148C121.46 6.584 121.67 6.506 121.778 6.35C121.886 6.182 121.94 5.978 121.94 5.738V5.126C121.94 4.886 121.886 4.688 121.778 4.532C121.67 4.364 121.46 4.28 121.148 4.28H119.798ZM119.15 14H116.378C116.15 14 115.982 13.952 115.874 13.856C115.778 13.748 115.73 13.58 115.73 13.352V1.688C115.73 1.46 115.778 1.298 115.874 1.202C115.982 1.094 116.15 1.04 116.378 1.04H122.372C123.716 1.04 124.64 1.322 125.144 1.886C125.66 2.438 125.918 3.158 125.918 4.046V4.874C125.918 5.378 125.84 5.81 125.684 6.17C125.54 6.518 125.282 6.77 124.91 6.926C125.558 6.998 126.08 7.262 126.476 7.718C126.884 8.174 127.088 8.78 127.088 9.536V13.352C127.088 13.58 127.034 13.748 126.926 13.856C126.83 13.952 126.668 14 126.44 14H123.65C123.422 14 123.254 13.952 123.146 13.856C123.05 13.748 123.002 13.58 123.002 13.352V10.598C123.002 10.334 122.948 10.142 122.84 10.022C122.744 9.89 122.57 9.824 122.318 9.824H119.798V13.352C119.798 13.58 119.744 13.748 119.636 13.856C119.54 13.952 119.378 14 119.15 14ZM135.821 14H129.755C129.527 14 129.359 13.952 129.251 13.856C129.155 13.748 129.107 13.58 129.107 13.352V1.688C129.107 1.46 129.155 1.298 129.251 1.202C129.359 1.094 129.527 1.04 129.755 1.04H135.821C137.321 1.04 138.431 1.34 139.151 1.94C139.883 2.54 140.249 3.464 140.249 4.712V10.328C140.249 11.576 139.883 12.5 139.151 13.1C138.431 13.7 137.321 14 135.821 14ZM133.193 4.478V10.598H135.335C135.623 10.598 135.833 10.526 135.965 10.382C136.109 10.238 136.181 10.016 136.181 9.716V5.342C136.181 5.042 136.109 4.826 135.965 4.694C135.833 4.55 135.623 4.478 135.335 4.478H133.193Z" fill="#A98C5C"/>
</svg>
