<svg width="188" height="19" viewBox="0 0 188 19" fill="none" xmlns="http://www.w3.org/2000/svg">
<path d="M13.8727 18H1.65672C1.35272 18 1.12872 17.936 0.984717 17.808C0.856717 17.664 0.792717 17.44 0.792717 17.136V1.584C0.792717 1.28 0.856717 1.064 0.984717 0.935999C1.12872 0.791999 1.35272 0.719999 1.65672 0.719999H5.37672C5.68072 0.719999 5.89672 0.791999 6.02472 0.935999C6.16872 1.064 6.24072 1.28 6.24072 1.584V13.464H9.52872V9.576C9.52872 9.272 9.59272 9.056 9.72072 8.928C9.86472 8.784 10.0887 8.712 10.3927 8.712H13.8727C14.1767 8.712 14.3927 8.784 14.5207 8.928C14.6647 9.056 14.7367 9.272 14.7367 9.576V17.136C14.7367 17.44 14.6647 17.664 14.5207 17.808C14.3927 17.936 14.1767 18 13.8727 18ZM29.4802 18H18.3442C18.0402 18 17.8162 17.936 17.6722 17.808C17.5442 17.664 17.4802 17.44 17.4802 17.136V1.584C17.4802 1.28 17.5442 1.064 17.6722 0.935999C17.8162 0.791999 18.0402 0.719999 18.3442 0.719999H29.4802C29.7842 0.719999 30.0002 0.791999 30.1282 0.935999C30.2722 1.064 30.3442 1.28 30.3442 1.584V4.392C30.3442 4.696 30.2722 4.92 30.1282 5.064C30.0002 5.192 29.7842 5.256 29.4802 5.256H22.8562V7.104H27.5362C27.8402 7.104 28.0562 7.176 28.1842 7.32C28.3282 7.448 28.4002 7.664 28.4002 7.968V10.536C28.4002 10.84 28.3282 11.064 28.1842 11.208C28.0562 11.336 27.8402 11.4 27.5362 11.4H22.8562V13.464H29.4802C29.7842 13.464 30.0002 13.536 30.1282 13.68C30.2722 13.808 30.3442 14.024 30.3442 14.328V17.136C30.3442 17.44 30.2722 17.664 30.1282 17.808C30.0002 17.936 29.7842 18 29.4802 18ZM39.4473 5.76L38.3193 9.408H42.0873L40.9593 5.76C40.8953 5.616 40.8233 5.512 40.7433 5.448C40.6793 5.384 40.5993 5.352 40.5033 5.352H39.9033C39.8073 5.352 39.7193 5.384 39.6393 5.448C39.5753 5.512 39.5113 5.616 39.4473 5.76ZM38.0793 17.136C38.0793 17.44 38.0073 17.664 37.8633 17.808C37.7353 17.936 37.5193 18 37.2153 18H33.6873C33.3833 18 33.1593 17.936 33.0153 17.808C32.8873 17.664 32.8233 17.44 32.8233 17.136V10.8C32.8233 10.32 32.8953 9.768 33.0393 9.144C33.1993 8.52 33.4393 7.792 33.7593 6.96L35.8473 1.512C35.9433 1.24 36.0873 1.04 36.2793 0.912C36.4873 0.783999 36.7513 0.719999 37.0713 0.719999H43.5273C43.8313 0.719999 44.0793 0.783999 44.2713 0.912C44.4793 1.04 44.6313 1.24 44.7273 1.512L46.8153 6.96C47.1353 7.792 47.3673 8.52 47.5113 9.144C47.6713 9.768 47.7513 10.32 47.7513 10.8V17.136C47.7513 17.44 47.6793 17.664 47.5353 17.808C47.4073 17.936 47.1913 18 46.8873 18H43.2633C42.9433 18 42.7033 17.936 42.5433 17.808C42.3993 17.664 42.3273 17.44 42.3273 17.136V13.776H38.0793V17.136ZM59.6666 18H51.5786C51.2746 18 51.0506 17.936 50.9066 17.808C50.7786 17.664 50.7146 17.44 50.7146 17.136V1.584C50.7146 1.28 50.7786 1.064 50.9066 0.935999C51.0506 0.791999 51.2746 0.719999 51.5786 0.719999H59.6666C61.6666 0.719999 63.1466 1.12 64.1066 1.92C65.0826 2.72 65.5706 3.952 65.5706 5.616V13.104C65.5706 14.768 65.0826 16 64.1066 16.8C63.1466 17.6 61.6666 18 59.6666 18ZM56.1626 5.304V13.464H59.0186C59.4026 13.464 59.6826 13.368 59.8586 13.176C60.0506 12.984 60.1466 12.688 60.1466 12.288V6.456C60.1466 6.056 60.0506 5.768 59.8586 5.592C59.6826 5.4 59.4026 5.304 59.0186 5.304H56.1626ZM80.6208 18H69.4848C69.1808 18 68.9568 17.936 68.8128 17.808C68.6848 17.664 68.6208 17.44 68.6208 17.136V1.584C68.6208 1.28 68.6848 1.064 68.8128 0.935999C68.9568 0.791999 69.1808 0.719999 69.4848 0.719999H80.6208C80.9248 0.719999 81.1408 0.791999 81.2688 0.935999C81.4128 1.064 81.4848 1.28 81.4848 1.584V4.392C81.4848 4.696 81.4128 4.92 81.2688 5.064C81.1408 5.192 80.9248 5.256 80.6208 5.256H73.9968V7.104H78.6768C78.9808 7.104 79.1968 7.176 79.3248 7.32C79.4688 7.448 79.5408 7.664 79.5408 7.968V10.536C79.5408 10.84 79.4688 11.064 79.3248 11.208C79.1968 11.336 78.9808 11.4 78.6768 11.4H73.9968V13.464H80.6208C80.9248 13.464 81.1408 13.536 81.2688 13.68C81.4128 13.808 81.4848 14.024 81.4848 14.328V17.136C81.4848 17.44 81.4128 17.664 81.2688 17.808C81.1408 17.936 80.9248 18 80.6208 18ZM89.748 5.04V8.112H91.548C91.964 8.112 92.244 8.008 92.388 7.8C92.532 7.576 92.604 7.304 92.604 6.984V6.168C92.604 5.848 92.532 5.584 92.388 5.376C92.244 5.152 91.964 5.04 91.548 5.04H89.748ZM88.884 18H85.188C84.884 18 84.66 17.936 84.516 17.808C84.388 17.664 84.324 17.44 84.324 17.136V1.584C84.324 1.28 84.388 1.064 84.516 0.935999C84.66 0.791999 84.884 0.719999 85.188 0.719999H93.18C94.972 0.719999 96.204 1.096 96.876 1.848C97.564 2.584 97.908 3.544 97.908 4.728V5.832C97.908 6.504 97.804 7.08 97.596 7.56C97.404 8.024 97.06 8.36 96.564 8.568C97.428 8.664 98.124 9.016 98.652 9.624C99.196 10.232 99.468 11.04 99.468 12.048V17.136C99.468 17.44 99.396 17.664 99.252 17.808C99.124 17.936 98.908 18 98.604 18H94.884C94.58 18 94.356 17.936 94.212 17.808C94.084 17.664 94.02 17.44 94.02 17.136V13.464C94.02 13.112 93.948 12.856 93.804 12.696C93.676 12.52 93.444 12.432 93.108 12.432H89.748V17.136C89.748 17.44 89.676 17.664 89.532 17.808C89.404 17.936 89.188 18 88.884 18ZM112.24 18H103.024C102.72 18 102.496 17.936 102.352 17.808C102.224 17.664 102.16 17.44 102.16 17.136V1.584C102.16 1.28 102.224 1.064 102.352 0.935999C102.496 0.791999 102.72 0.719999 103.024 0.719999H110.68C112.248 0.719999 113.408 1.024 114.16 1.632C114.912 2.224 115.288 3.144 115.288 4.392V5.544C115.288 6.216 115.168 6.768 114.928 7.2C114.704 7.616 114.352 7.928 113.872 8.136C114.896 8.232 115.656 8.584 116.152 9.192C116.648 9.8 116.896 10.688 116.896 11.856V14.064C116.896 15.408 116.512 16.4 115.744 17.04C114.992 17.68 113.824 18 112.24 18ZM107.56 4.8V7.392H109.6C109.904 7.392 110.128 7.312 110.272 7.152C110.432 6.992 110.512 6.752 110.512 6.432V5.76C110.512 5.44 110.432 5.2 110.272 5.04C110.128 4.88 109.904 4.8 109.6 4.8H107.56ZM107.56 11.088V13.92H110.68C110.984 13.92 111.208 13.84 111.352 13.68C111.512 13.52 111.592 13.28 111.592 12.96V12.024C111.592 11.704 111.512 11.472 111.352 11.328C111.208 11.168 110.984 11.088 110.68 11.088H107.56ZM134.191 13.464C134.191 14.2 134.079 14.872 133.855 15.48C133.647 16.072 133.263 16.584 132.703 17.016C132.159 17.432 131.399 17.76 130.423 18C129.463 18.24 128.239 18.36 126.751 18.36C125.263 18.36 124.031 18.24 123.055 18C122.079 17.76 121.311 17.432 120.751 17.016C120.207 16.584 119.823 16.072 119.599 15.48C119.391 14.872 119.287 14.2 119.287 13.464V5.28C119.287 4.544 119.391 3.88 119.599 3.288C119.823 2.68 120.207 2.16 120.751 1.728C121.311 1.296 122.079 0.959999 123.055 0.719999C124.031 0.48 125.263 0.36 126.751 0.36C128.239 0.36 129.463 0.48 130.423 0.719999C131.399 0.959999 132.159 1.296 132.703 1.728C133.263 2.16 133.647 2.68 133.855 3.288C134.079 3.88 134.191 4.544 134.191 5.28V13.464ZM124.735 12.6C124.735 12.92 124.855 13.192 125.095 13.416C125.335 13.624 125.887 13.728 126.751 13.728C127.615 13.728 128.167 13.624 128.407 13.416C128.647 13.192 128.767 12.92 128.767 12.6V6.144C128.767 5.84 128.647 5.584 128.407 5.376C128.167 5.152 127.615 5.04 126.751 5.04C125.887 5.04 125.335 5.152 125.095 5.376C124.855 5.584 124.735 5.84 124.735 6.144V12.6ZM143.51 5.76L142.382 9.408H146.15L145.022 5.76C144.958 5.616 144.886 5.512 144.806 5.448C144.742 5.384 144.662 5.352 144.566 5.352H143.966C143.87 5.352 143.782 5.384 143.702 5.448C143.638 5.512 143.574 5.616 143.51 5.76ZM142.142 17.136C142.142 17.44 142.07 17.664 141.926 17.808C141.798 17.936 141.582 18 141.278 18H137.75C137.446 18 137.222 17.936 137.078 17.808C136.95 17.664 136.886 17.44 136.886 17.136V10.8C136.886 10.32 136.958 9.768 137.102 9.144C137.262 8.52 137.502 7.792 137.822 6.96L139.91 1.512C140.006 1.24 140.15 1.04 140.342 0.912C140.55 0.783999 140.814 0.719999 141.134 0.719999H147.59C147.894 0.719999 148.142 0.783999 148.334 0.912C148.542 1.04 148.694 1.24 148.79 1.512L150.878 6.96C151.198 7.792 151.43 8.52 151.574 9.144C151.734 9.768 151.814 10.32 151.814 10.8V17.136C151.814 17.44 151.742 17.664 151.598 17.808C151.47 17.936 151.254 18 150.95 18H147.326C147.006 18 146.766 17.936 146.606 17.808C146.462 17.664 146.39 17.44 146.39 17.136V13.776H142.142V17.136ZM160.201 5.04V8.112H162.001C162.417 8.112 162.697 8.008 162.841 7.8C162.985 7.576 163.057 7.304 163.057 6.984V6.168C163.057 5.848 162.985 5.584 162.841 5.376C162.697 5.152 162.417 5.04 162.001 5.04H160.201ZM159.337 18H155.641C155.337 18 155.113 17.936 154.969 17.808C154.841 17.664 154.777 17.44 154.777 17.136V1.584C154.777 1.28 154.841 1.064 154.969 0.935999C155.113 0.791999 155.337 0.719999 155.641 0.719999H163.633C165.425 0.719999 166.657 1.096 167.329 1.848C168.017 2.584 168.361 3.544 168.361 4.728V5.832C168.361 6.504 168.257 7.08 168.049 7.56C167.857 8.024 167.513 8.36 167.017 8.568C167.881 8.664 168.577 9.016 169.105 9.624C169.649 10.232 169.921 11.04 169.921 12.048V17.136C169.921 17.44 169.849 17.664 169.705 17.808C169.577 17.936 169.361 18 169.057 18H165.337C165.033 18 164.809 17.936 164.665 17.808C164.537 17.664 164.473 17.44 164.473 17.136V13.464C164.473 13.112 164.401 12.856 164.257 12.696C164.129 12.52 163.897 12.432 163.561 12.432H160.201V17.136C160.201 17.44 160.129 17.664 159.985 17.808C159.857 17.936 159.641 18 159.337 18ZM181.565 18H173.477C173.173 18 172.949 17.936 172.805 17.808C172.677 17.664 172.613 17.44 172.613 17.136V1.584C172.613 1.28 172.677 1.064 172.805 0.935999C172.949 0.791999 173.173 0.719999 173.477 0.719999H181.565C183.565 0.719999 185.045 1.12 186.005 1.92C186.981 2.72 187.469 3.952 187.469 5.616V13.104C187.469 14.768 186.981 16 186.005 16.8C185.045 17.6 183.565 18 181.565 18ZM178.061 5.304V13.464H180.917C181.301 13.464 181.581 13.368 181.757 13.176C181.949 12.984 182.045 12.688 182.045 12.288V6.456C182.045 6.056 181.949 5.768 181.757 5.592C181.581 5.4 181.301 5.304 180.917 5.304H178.061Z" fill="#165470"/>
</svg>
