<svg width="109" height="14" viewBox="0 0 109 14" fill="none" xmlns="http://www.w3.org/2000/svg">
<path d="M3.572 13H0.890001C0.662001 13 0.494001 12.952 0.386001 12.856C0.290001 12.748 0.242001 12.58 0.242001 12.352V0.688C0.242001 0.46 0.290001 0.298 0.386001 0.202C0.494001 0.0939995 0.662001 0.0399995 0.890001 0.0399995H3.788C3.98 0.0399995 4.136 0.0819993 4.256 0.165999C4.388 0.249999 4.508 0.387999 4.616 0.579999L6.236 3.514C6.296 3.622 6.344 3.7 6.38 3.748C6.428 3.796 6.488 3.82 6.56 3.82H6.722C6.794 3.82 6.848 3.796 6.884 3.748C6.932 3.7 6.986 3.622 7.046 3.514L8.648 0.579999C8.756 0.387999 8.87 0.249999 8.99 0.165999C9.122 0.0819993 9.284 0.0399995 9.476 0.0399995H12.392C12.62 0.0399995 12.782 0.0939995 12.878 0.202C12.986 0.298 13.04 0.46 13.04 0.688V12.352C13.04 12.58 12.986 12.748 12.878 12.856C12.782 12.952 12.62 13 12.392 13H9.62C9.392 13 9.224 12.952 9.116 12.856C9.02 12.748 8.972 12.58 8.972 12.352V6.016L7.91 7.978C7.802 8.182 7.67 8.332 7.514 8.428C7.37 8.512 7.184 8.554 6.956 8.554H6.236C6.008 8.554 5.816 8.512 5.66 8.428C5.516 8.332 5.39 8.182 5.282 7.978L4.22 6.016V12.352C4.22 12.58 4.166 12.748 4.058 12.856C3.962 12.952 3.8 13 3.572 13ZM20.2154 3.82L19.3694 6.556H22.1954L21.3494 3.82C21.3014 3.712 21.2474 3.634 21.1874 3.586C21.1394 3.538 21.0794 3.514 21.0074 3.514H20.5574C20.4854 3.514 20.4194 3.538 20.3594 3.586C20.3114 3.634 20.2634 3.712 20.2154 3.82ZM19.1894 12.352C19.1894 12.58 19.1354 12.748 19.0274 12.856C18.9314 12.952 18.7694 13 18.5414 13H15.8954C15.6674 13 15.4994 12.952 15.3914 12.856C15.2954 12.748 15.2474 12.58 15.2474 12.352V7.6C15.2474 7.24 15.3014 6.826 15.4094 6.358C15.5294 5.89 15.7094 5.344 15.9494 4.72L17.5154 0.633999C17.5874 0.429999 17.6954 0.279999 17.8394 0.184C17.9954 0.0879996 18.1934 0.0399995 18.4334 0.0399995H23.2754C23.5034 0.0399995 23.6894 0.0879996 23.8334 0.184C23.9894 0.279999 24.1034 0.429999 24.1754 0.633999L25.7414 4.72C25.9814 5.344 26.1554 5.89 26.2634 6.358C26.3834 6.826 26.4434 7.24 26.4434 7.6V12.352C26.4434 12.58 26.3894 12.748 26.2814 12.856C26.1854 12.952 26.0234 13 25.7954 13H23.0774C22.8374 13 22.6574 12.952 22.5374 12.856C22.4294 12.748 22.3754 12.58 22.3754 12.352V9.832H19.1894V12.352ZM29.0258 13C28.7978 13 28.6298 12.952 28.5218 12.856C28.4258 12.748 28.3778 12.58 28.3778 12.352V10.21C28.3778 9.982 28.4258 9.82 28.5218 9.724C28.6298 9.616 28.7978 9.562 29.0258 9.562H30.8078V3.514H29.0258C28.7978 3.514 28.6298 3.466 28.5218 3.37C28.4258 3.262 28.3778 3.094 28.3778 2.866V0.688C28.3778 0.46 28.4258 0.298 28.5218 0.202C28.6298 0.0939995 28.7978 0.0399995 29.0258 0.0399995H36.6938C36.9218 0.0399995 37.0838 0.0939995 37.1798 0.202C37.2878 0.298 37.3418 0.46 37.3418 0.688V2.866C37.3418 3.094 37.2878 3.262 37.1798 3.37C37.0838 3.466 36.9218 3.514 36.6938 3.514H34.9478V9.562H36.6938C36.9218 9.562 37.0838 9.616 37.1798 9.724C37.2878 9.82 37.3418 9.982 37.3418 10.21V12.352C37.3418 12.58 37.2878 12.748 37.1798 12.856C37.0838 12.952 36.9218 13 36.6938 13H29.0258ZM42.9123 13H40.2123C39.9843 13 39.8163 12.952 39.7083 12.856C39.6123 12.748 39.5643 12.58 39.5643 12.352V0.688C39.5643 0.46 39.6123 0.298 39.7083 0.202C39.8163 0.0939995 39.9843 0.0399995 40.2123 0.0399995H42.0843C42.3123 0.0399995 42.5043 0.0759994 42.6603 0.147999C42.8283 0.22 42.9903 0.346 43.1463 0.526L46.6383 4.522V0.688C46.6383 0.46 46.6863 0.298 46.7823 0.202C46.8903 0.0939995 47.0583 0.0399995 47.2863 0.0399995H49.9863C50.2143 0.0399995 50.3763 0.0939995 50.4723 0.202C50.5803 0.298 50.6343 0.46 50.6343 0.688V12.352C50.6343 12.58 50.5803 12.748 50.4723 12.856C50.3763 12.952 50.2143 13 49.9863 13H47.2863C47.0583 13 46.8903 12.952 46.7823 12.856C46.6863 12.748 46.6383 12.58 46.6383 12.352V10.138L43.5603 6.412V12.352C43.5603 12.58 43.5063 12.748 43.3983 12.856C43.3023 12.952 43.1403 13 42.9123 13ZM60.49 13H57.808C57.58 13 57.412 12.952 57.304 12.856C57.208 12.748 57.16 12.58 57.16 12.352V0.688C57.16 0.46 57.208 0.298 57.304 0.202C57.412 0.0939995 57.58 0.0399995 57.808 0.0399995H60.706C60.898 0.0399995 61.054 0.0819993 61.174 0.165999C61.306 0.249999 61.426 0.387999 61.534 0.579999L63.154 3.514C63.214 3.622 63.262 3.7 63.298 3.748C63.346 3.796 63.406 3.82 63.478 3.82H63.64C63.712 3.82 63.766 3.796 63.802 3.748C63.85 3.7 63.904 3.622 63.964 3.514L65.566 0.579999C65.674 0.387999 65.788 0.249999 65.908 0.165999C66.04 0.0819993 66.202 0.0399995 66.394 0.0399995H69.31C69.538 0.0399995 69.7 0.0939995 69.796 0.202C69.904 0.298 69.958 0.46 69.958 0.688V12.352C69.958 12.58 69.904 12.748 69.796 12.856C69.7 12.952 69.538 13 69.31 13H66.538C66.31 13 66.142 12.952 66.034 12.856C65.938 12.748 65.89 12.58 65.89 12.352V6.016L64.828 7.978C64.72 8.182 64.588 8.332 64.432 8.428C64.288 8.512 64.102 8.554 63.874 8.554H63.154C62.926 8.554 62.734 8.512 62.578 8.428C62.434 8.332 62.308 8.182 62.2 7.978L61.138 6.016V12.352C61.138 12.58 61.084 12.748 60.976 12.856C60.88 12.952 60.718 13 60.49 13ZM81.4354 13H73.0834C72.8554 13 72.6874 12.952 72.5794 12.856C72.4834 12.748 72.4354 12.58 72.4354 12.352V0.688C72.4354 0.46 72.4834 0.298 72.5794 0.202C72.6874 0.0939995 72.8554 0.0399995 73.0834 0.0399995H81.4354C81.6634 0.0399995 81.8254 0.0939995 81.9214 0.202C82.0294 0.298 82.0834 0.46 82.0834 0.688V2.794C82.0834 3.022 82.0294 3.19 81.9214 3.298C81.8254 3.394 81.6634 3.442 81.4354 3.442H76.4674V4.828H79.9774C80.2054 4.828 80.3674 4.882 80.4634 4.99C80.5714 5.086 80.6254 5.248 80.6254 5.476V7.402C80.6254 7.63 80.5714 7.798 80.4634 7.906C80.3674 8.002 80.2054 8.05 79.9774 8.05H76.4674V9.598H81.4354C81.6634 9.598 81.8254 9.652 81.9214 9.76C82.0294 9.856 82.0834 10.018 82.0834 10.246V12.352C82.0834 12.58 82.0294 12.748 81.9214 12.856C81.8254 12.952 81.6634 13 81.4354 13ZM87.5607 13H84.8607C84.6327 13 84.4647 12.952 84.3567 12.856C84.2607 12.748 84.2127 12.58 84.2127 12.352V0.688C84.2127 0.46 84.2607 0.298 84.3567 0.202C84.4647 0.0939995 84.6327 0.0399995 84.8607 0.0399995H86.7327C86.9607 0.0399995 87.1527 0.0759994 87.3087 0.147999C87.4767 0.22 87.6387 0.346 87.7947 0.526L91.2867 4.522V0.688C91.2867 0.46 91.3347 0.298 91.4307 0.202C91.5387 0.0939995 91.7067 0.0399995 91.9347 0.0399995H94.6347C94.8627 0.0399995 95.0247 0.0939995 95.1207 0.202C95.2287 0.298 95.2827 0.46 95.2827 0.688V12.352C95.2827 12.58 95.2287 12.748 95.1207 12.856C95.0247 12.952 94.8627 13 94.6347 13H91.9347C91.7067 13 91.5387 12.952 91.4307 12.856C91.3347 12.748 91.2867 12.58 91.2867 12.352V10.138L88.2087 6.412V12.352C88.2087 12.58 88.1547 12.748 88.0467 12.856C87.9507 12.952 87.7887 13 87.5607 13ZM108.799 9.598C108.799 10.15 108.715 10.654 108.547 11.11C108.391 11.554 108.103 11.938 107.683 12.262C107.275 12.574 106.711 12.82 105.991 13C105.271 13.18 104.353 13.27 103.237 13.27C102.121 13.27 101.203 13.18 100.483 13C99.7634 12.82 99.1934 12.574 98.7734 12.262C98.3654 11.938 98.0774 11.554 97.9094 11.11C97.7534 10.654 97.6754 10.15 97.6754 9.598V0.688C97.6754 0.46 97.7234 0.298 97.8194 0.202C97.9274 0.0939995 98.0954 0.0399995 98.3234 0.0399995H101.149C101.377 0.0399995 101.539 0.0939995 101.635 0.202C101.743 0.298 101.797 0.46 101.797 0.688V8.896C101.797 9.136 101.887 9.34 102.067 9.508C102.247 9.664 102.649 9.742 103.273 9.742C103.909 9.742 104.317 9.664 104.497 9.508C104.677 9.34 104.767 9.136 104.767 8.896V0.688C104.767 0.46 104.815 0.298 104.911 0.202C105.019 0.0939995 105.187 0.0399995 105.415 0.0399995H108.151C108.379 0.0399995 108.541 0.0939995 108.637 0.202C108.745 0.298 108.799 0.46 108.799 0.688V9.598Z" fill="#A98C5C"/>
</svg>
