<svg width="94" height="15" viewBox="0 0 94 15" fill="none" xmlns="http://www.w3.org/2000/svg">
<path d="M3.68 14H0.890001C0.662001 14 0.494001 13.952 0.386001 13.856C0.290001 13.748 0.242001 13.58 0.242001 13.352V1.688C0.242001 1.46 0.290001 1.298 0.386001 1.202C0.494001 1.094 0.662001 1.04 0.890001 1.04H6.398C8.03 1.04 9.146 1.364 9.746 2.012C10.346 2.66 10.646 3.506 10.646 4.55V6.854C10.646 7.898 10.346 8.744 9.746 9.392C9.146 10.04 8.03 10.364 6.398 10.364H4.328V13.352C4.328 13.58 4.274 13.748 4.166 13.856C4.07 13.952 3.908 14 3.68 14ZM4.292 4.406V7.124H5.912C6.26 7.124 6.488 7.034 6.596 6.854C6.704 6.674 6.758 6.47 6.758 6.242V5.288C6.758 5.06 6.704 4.856 6.596 4.676C6.488 4.496 6.26 4.406 5.912 4.406H4.292ZM22.3215 14H13.1595C12.9315 14 12.7635 13.952 12.6555 13.856C12.5595 13.748 12.5115 13.58 12.5115 13.352V1.688C12.5115 1.46 12.5595 1.298 12.6555 1.202C12.7635 1.094 12.9315 1.04 13.1595 1.04H15.9495C16.1775 1.04 16.3395 1.094 16.4355 1.202C16.5435 1.298 16.5975 1.46 16.5975 1.688V10.598H19.0635V7.682C19.0635 7.454 19.1115 7.292 19.2075 7.196C19.3155 7.088 19.4835 7.034 19.7115 7.034H22.3215C22.5495 7.034 22.7115 7.088 22.8075 7.196C22.9155 7.292 22.9695 7.454 22.9695 7.682V13.352C22.9695 13.58 22.9155 13.748 22.8075 13.856C22.7115 13.952 22.5495 14 22.3215 14ZM29.7252 4.82L28.8792 7.556H31.7052L30.8592 4.82C30.8112 4.712 30.7572 4.634 30.6972 4.586C30.6492 4.538 30.5892 4.514 30.5172 4.514H30.0672C29.9952 4.514 29.9292 4.538 29.8692 4.586C29.8212 4.634 29.7732 4.712 29.7252 4.82ZM28.6992 13.352C28.6992 13.58 28.6452 13.748 28.5372 13.856C28.4412 13.952 28.2792 14 28.0512 14H25.4052C25.1772 14 25.0092 13.952 24.9012 13.856C24.8052 13.748 24.7572 13.58 24.7572 13.352V8.6C24.7572 8.24 24.8112 7.826 24.9192 7.358C25.0392 6.89 25.2192 6.344 25.4592 5.72L27.0252 1.634C27.0972 1.43 27.2052 1.28 27.3492 1.184C27.5052 1.088 27.7032 1.04 27.9432 1.04H32.7852C33.0132 1.04 33.1992 1.088 33.3432 1.184C33.4992 1.28 33.6132 1.43 33.6852 1.634L35.2512 5.72C35.4912 6.344 35.6652 6.89 35.7732 7.358C35.8932 7.826 35.9532 8.24 35.9532 8.6V13.352C35.9532 13.58 35.8992 13.748 35.7912 13.856C35.6952 13.952 35.5332 14 35.3052 14H32.5872C32.3472 14 32.1672 13.952 32.0472 13.856C31.9392 13.748 31.8852 13.58 31.8852 13.352V10.832H28.6992V13.352ZM44.2886 14H41.3726C41.1446 14 40.9766 13.952 40.8686 13.856C40.7726 13.748 40.7246 13.58 40.7246 13.352V11.048L37.9706 7.358C37.6946 6.986 37.5086 6.662 37.4126 6.386C37.3286 6.11 37.2866 5.696 37.2866 5.144V1.688C37.2866 1.46 37.3346 1.298 37.4306 1.202C37.5386 1.094 37.7066 1.04 37.9346 1.04H40.7066C40.9346 1.04 41.0966 1.094 41.1926 1.202C41.3006 1.298 41.3546 1.46 41.3546 1.688V4.64C41.3546 4.76 41.3606 4.886 41.3726 5.018C41.3846 5.15 41.4326 5.276 41.5166 5.396L42.3446 6.692C42.4046 6.8 42.4646 6.878 42.5246 6.926C42.5966 6.974 42.6806 6.998 42.7766 6.998H42.9566C43.0526 6.998 43.1306 6.974 43.1906 6.926C43.2626 6.878 43.3286 6.8 43.3886 6.692L44.2166 5.396C44.3006 5.276 44.3486 5.15 44.3606 5.018C44.3726 4.886 44.3786 4.76 44.3786 4.64V1.688C44.3786 1.46 44.4266 1.298 44.5226 1.202C44.6306 1.094 44.7986 1.04 45.0266 1.04H47.7086C47.9366 1.04 48.0986 1.094 48.1946 1.202C48.3026 1.298 48.3566 1.46 48.3566 1.688V5.144C48.3566 5.696 48.3086 6.11 48.2126 6.386C48.1166 6.662 47.9366 6.986 47.6726 7.358L44.9366 11.066V13.352C44.9366 13.58 44.8826 13.748 44.7746 13.856C44.6786 13.952 44.5166 14 44.2886 14ZM57.6252 14H54.9252C54.6972 14 54.5292 13.952 54.4212 13.856C54.3252 13.748 54.2772 13.58 54.2772 13.352V1.688C54.2772 1.46 54.3252 1.298 54.4212 1.202C54.5292 1.094 54.6972 1.04 54.9252 1.04H56.7972C57.0252 1.04 57.2172 1.076 57.3732 1.148C57.5412 1.22 57.7032 1.346 57.8592 1.526L61.3512 5.522V1.688C61.3512 1.46 61.3992 1.298 61.4952 1.202C61.6032 1.094 61.7712 1.04 61.9992 1.04H64.6992C64.9272 1.04 65.0892 1.094 65.1852 1.202C65.2932 1.298 65.3472 1.46 65.3472 1.688V13.352C65.3472 13.58 65.2932 13.748 65.1852 13.856C65.0892 13.952 64.9272 14 64.6992 14H61.9992C61.7712 14 61.6032 13.952 61.4952 13.856C61.3992 13.748 61.3512 13.58 61.3512 13.352V11.138L58.2732 7.412V13.352C58.2732 13.58 58.2192 13.748 58.1112 13.856C58.0152 13.952 57.8532 14 57.6252 14ZM78.8099 10.598C78.8099 11.15 78.7259 11.654 78.5579 12.11C78.4019 12.554 78.1139 12.938 77.6939 13.262C77.2859 13.574 76.7159 13.82 75.9839 14C75.2639 14.18 74.3459 14.27 73.2299 14.27C72.1139 14.27 71.1899 14.18 70.4579 14C69.7259 13.82 69.1499 13.574 68.7299 13.262C68.3219 12.938 68.0339 12.554 67.8659 12.11C67.7099 11.654 67.6319 11.15 67.6319 10.598V4.46C67.6319 3.908 67.7099 3.41 67.8659 2.966C68.0339 2.51 68.3219 2.12 68.7299 1.796C69.1499 1.472 69.7259 1.22 70.4579 1.04C71.1899 0.86 72.1139 0.77 73.2299 0.77C74.3459 0.77 75.2639 0.86 75.9839 1.04C76.7159 1.22 77.2859 1.472 77.6939 1.796C78.1139 2.12 78.4019 2.51 78.5579 2.966C78.7259 3.41 78.8099 3.908 78.8099 4.46V10.598ZM71.7179 9.95C71.7179 10.19 71.8079 10.394 71.9879 10.562C72.1679 10.718 72.5819 10.796 73.2299 10.796C73.8779 10.796 74.2919 10.718 74.4719 10.562C74.6519 10.394 74.7419 10.19 74.7419 9.95V5.108C74.7419 4.88 74.6519 4.688 74.4719 4.532C74.2919 4.364 73.8779 4.28 73.2299 4.28C72.5819 4.28 72.1679 4.364 71.9879 4.532C71.8079 4.688 71.7179 4.88 71.7179 5.108V9.95ZM90.4074 1.04H93.0894C93.3174 1.04 93.4794 1.094 93.5754 1.202C93.6834 1.298 93.7374 1.46 93.7374 1.688V8.672C93.7374 9.056 93.7194 9.416 93.6834 9.752C93.6594 10.076 93.5694 10.46 93.4134 10.904L92.5134 13.352C92.4534 13.532 92.3634 13.688 92.2434 13.82C92.1354 13.94 91.9854 14 91.7934 14H89.3994C89.2074 14 89.0334 13.958 88.8774 13.874C88.7214 13.79 88.6194 13.652 88.5714 13.46L87.7434 10.526C87.7074 10.406 87.6594 10.328 87.5994 10.292C87.5514 10.244 87.4914 10.22 87.4194 10.22H87.2574C87.1854 10.22 87.1194 10.244 87.0594 10.292C87.0114 10.328 86.9694 10.406 86.9334 10.526L86.0874 13.46C86.0394 13.64 85.9494 13.778 85.8174 13.874C85.6854 13.958 85.5234 14 85.3314 14H82.9554C82.7634 14 82.5954 13.94 82.4514 13.82C82.3194 13.7 82.2234 13.544 82.1634 13.352L81.2634 10.868C81.1074 10.424 81.0114 10.04 80.9754 9.716C80.9514 9.38 80.9394 9.02 80.9394 8.636V1.688C80.9394 1.46 80.9874 1.298 81.0834 1.202C81.1914 1.094 81.3594 1.04 81.5874 1.04H84.3594C84.5874 1.04 84.7494 1.094 84.8454 1.202C84.9534 1.298 85.0074 1.46 85.0074 1.688V8.312L86.0514 6.044C86.1474 5.84 86.2734 5.696 86.4294 5.612C86.5854 5.528 86.7774 5.486 87.0054 5.486H87.7614C87.9894 5.486 88.1814 5.528 88.3374 5.612C88.4934 5.696 88.6194 5.84 88.7154 6.044L89.7594 8.312V1.688C89.7594 1.46 89.8074 1.298 89.9034 1.202C90.0114 1.094 90.1794 1.04 90.4074 1.04Z" fill="#A98C5C"/>
</svg>
