<svg width="182" height="13" viewBox="0 0 182 13" fill="none" xmlns="http://www.w3.org/2000/svg">
<path d="M3.68 13H0.889997C0.661997 13 0.493997 12.952 0.385997 12.856C0.289997 12.748 0.241997 12.58 0.241997 12.352V0.688C0.241997 0.46 0.289997 0.298 0.385997 0.202C0.493997 0.0939995 0.661997 0.0399995 0.889997 0.0399995H6.398C8.03 0.0399995 9.146 0.364 9.746 1.012C10.346 1.66 10.646 2.506 10.646 3.55V5.854C10.646 6.898 10.346 7.744 9.746 8.392C9.146 9.04 8.03 9.364 6.398 9.364H4.328V12.352C4.328 12.58 4.274 12.748 4.166 12.856C4.07 12.952 3.908 13 3.68 13ZM4.292 3.406V6.124H5.912C6.26 6.124 6.488 6.034 6.596 5.854C6.704 5.674 6.758 5.47 6.758 5.242V4.288C6.758 4.06 6.704 3.856 6.596 3.676C6.488 3.496 6.26 3.406 5.912 3.406H4.292ZM22.3215 13H13.1595C12.9315 13 12.7635 12.952 12.6555 12.856C12.5595 12.748 12.5115 12.58 12.5115 12.352V0.688C12.5115 0.46 12.5595 0.298 12.6555 0.202C12.7635 0.0939995 12.9315 0.0399995 13.1595 0.0399995H15.9495C16.1775 0.0399995 16.3395 0.0939995 16.4355 0.202C16.5435 0.298 16.5975 0.46 16.5975 0.688V9.598H19.0635V6.682C19.0635 6.454 19.1115 6.292 19.2075 6.196C19.3155 6.088 19.4835 6.034 19.7115 6.034H22.3215C22.5495 6.034 22.7115 6.088 22.8075 6.196C22.9155 6.292 22.9695 6.454 22.9695 6.682V12.352C22.9695 12.58 22.9155 12.748 22.8075 12.856C22.7115 12.952 22.5495 13 22.3215 13ZM29.7252 3.82L28.8792 6.556H31.7052L30.8592 3.82C30.8112 3.712 30.7572 3.634 30.6972 3.586C30.6492 3.538 30.5892 3.514 30.5172 3.514H30.0672C29.9952 3.514 29.9292 3.538 29.8692 3.586C29.8212 3.634 29.7732 3.712 29.7252 3.82ZM28.6992 12.352C28.6992 12.58 28.6452 12.748 28.5372 12.856C28.4412 12.952 28.2792 13 28.0512 13H25.4052C25.1772 13 25.0092 12.952 24.9012 12.856C24.8052 12.748 24.7572 12.58 24.7572 12.352V7.6C24.7572 7.24 24.8112 6.826 24.9192 6.358C25.0392 5.89 25.2192 5.344 25.4592 4.72L27.0252 0.633999C27.0972 0.429999 27.2052 0.279999 27.3492 0.184C27.5052 0.0879996 27.7032 0.0399995 27.9432 0.0399995H32.7852C33.0132 0.0399995 33.1992 0.0879996 33.3432 0.184C33.4992 0.279999 33.6132 0.429999 33.6852 0.633999L35.2512 4.72C35.4912 5.344 35.6652 5.89 35.7732 6.358C35.8932 6.826 35.9532 7.24 35.9532 7.6V12.352C35.9532 12.58 35.8992 12.748 35.7912 12.856C35.6952 12.952 35.5332 13 35.3052 13H32.5872C32.3472 13 32.1672 12.952 32.0472 12.856C31.9392 12.748 31.8852 12.58 31.8852 12.352V9.832H28.6992V12.352ZM44.2886 13H41.3726C41.1446 13 40.9766 12.952 40.8686 12.856C40.7726 12.748 40.7246 12.58 40.7246 12.352V10.048L37.9706 6.358C37.6946 5.986 37.5086 5.662 37.4126 5.386C37.3286 5.11 37.2866 4.696 37.2866 4.144V0.688C37.2866 0.46 37.3346 0.298 37.4306 0.202C37.5386 0.0939995 37.7066 0.0399995 37.9346 0.0399995H40.7066C40.9346 0.0399995 41.0966 0.0939995 41.1926 0.202C41.3006 0.298 41.3546 0.46 41.3546 0.688V3.64C41.3546 3.76 41.3606 3.886 41.3726 4.018C41.3846 4.15 41.4326 4.276 41.5166 4.396L42.3446 5.692C42.4046 5.8 42.4646 5.878 42.5246 5.926C42.5966 5.974 42.6806 5.998 42.7766 5.998H42.9566C43.0526 5.998 43.1306 5.974 43.1906 5.926C43.2626 5.878 43.3286 5.8 43.3886 5.692L44.2166 4.396C44.3006 4.276 44.3486 4.15 44.3606 4.018C44.3726 3.886 44.3786 3.76 44.3786 3.64V0.688C44.3786 0.46 44.4266 0.298 44.5226 0.202C44.6306 0.0939995 44.7986 0.0399995 45.0266 0.0399995H47.7086C47.9366 0.0399995 48.0986 0.0939995 48.1946 0.202C48.3026 0.298 48.3566 0.46 48.3566 0.688V4.144C48.3566 4.696 48.3086 5.11 48.2126 5.386C48.1166 5.662 47.9366 5.986 47.6726 6.358L44.9366 10.066V12.352C44.9366 12.58 44.8826 12.748 44.7746 12.856C44.6786 12.952 44.5166 13 44.2886 13ZM63.5832 0.0399995H66.2652C66.4932 0.0399995 66.6552 0.0939995 66.7512 0.202C66.8592 0.298 66.9132 0.46 66.9132 0.688V7.672C66.9132 8.056 66.8952 8.416 66.8592 8.752C66.8352 9.076 66.7452 9.46 66.5892 9.904L65.6892 12.352C65.6292 12.532 65.5392 12.688 65.4192 12.82C65.3112 12.94 65.1612 13 64.9692 13H62.5752C62.3832 13 62.2092 12.958 62.0532 12.874C61.8972 12.79 61.7952 12.652 61.7472 12.46L60.9192 9.526C60.8832 9.406 60.8352 9.328 60.7752 9.292C60.7272 9.244 60.6672 9.22 60.5952 9.22H60.4332C60.3612 9.22 60.2952 9.244 60.2352 9.292C60.1872 9.328 60.1452 9.406 60.1092 9.526L59.2632 12.46C59.2152 12.64 59.1252 12.778 58.9932 12.874C58.8612 12.958 58.6992 13 58.5072 13H56.1312C55.9392 13 55.7712 12.94 55.6272 12.82C55.4952 12.7 55.3992 12.544 55.3392 12.352L54.4392 9.868C54.2832 9.424 54.1872 9.04 54.1512 8.716C54.1272 8.38 54.1152 8.02 54.1152 7.636V0.688C54.1152 0.46 54.1632 0.298 54.2592 0.202C54.3672 0.0939995 54.5352 0.0399995 54.7632 0.0399995H57.5352C57.7632 0.0399995 57.9252 0.0939995 58.0212 0.202C58.1292 0.298 58.1832 0.46 58.1832 0.688V7.312L59.2272 5.044C59.3232 4.84 59.4492 4.696 59.6052 4.612C59.7612 4.528 59.9532 4.486 60.1812 4.486H60.9372C61.1652 4.486 61.3572 4.528 61.5132 4.612C61.6692 4.696 61.7952 4.84 61.8912 5.044L62.9352 7.312V0.688C62.9352 0.46 62.9832 0.298 63.0792 0.202C63.1872 0.0939995 63.3552 0.0399995 63.5832 0.0399995ZM69.5961 13C69.3681 13 69.2001 12.952 69.0921 12.856C68.9961 12.748 68.9481 12.58 68.9481 12.352V10.21C68.9481 9.982 68.9961 9.82 69.0921 9.724C69.2001 9.616 69.3681 9.562 69.5961 9.562H71.3781V3.514H69.5961C69.3681 3.514 69.2001 3.466 69.0921 3.37C68.9961 3.262 68.9481 3.094 68.9481 2.866V0.688C68.9481 0.46 68.9961 0.298 69.0921 0.202C69.2001 0.0939995 69.3681 0.0399995 69.5961 0.0399995H77.2641C77.4921 0.0399995 77.6541 0.0939995 77.7501 0.202C77.8581 0.298 77.9121 0.46 77.9121 0.688V2.866C77.9121 3.094 77.8581 3.262 77.7501 3.37C77.6541 3.466 77.4921 3.514 77.2641 3.514H75.5181V9.562H77.2641C77.4921 9.562 77.6541 9.616 77.7501 9.724C77.8581 9.82 77.9121 9.982 77.9121 10.21V12.352C77.9121 12.58 77.8581 12.748 77.7501 12.856C77.6541 12.952 77.4921 13 77.2641 13H69.5961ZM86.2546 13H83.3386C83.1106 13 82.9426 12.952 82.8346 12.856C82.7386 12.748 82.6906 12.58 82.6906 12.352V3.514H80.0446C79.8166 3.514 79.6486 3.466 79.5406 3.37C79.4446 3.262 79.3966 3.094 79.3966 2.866V0.688C79.3966 0.46 79.4446 0.298 79.5406 0.202C79.6486 0.0939995 79.8166 0.0399995 80.0446 0.0399995H89.5486C89.7766 0.0399995 89.9386 0.0939995 90.0346 0.202C90.1426 0.298 90.1966 0.46 90.1966 0.688V2.866C90.1966 3.094 90.1426 3.262 90.0346 3.37C89.9386 3.466 89.7766 3.514 89.5486 3.514H86.9026V12.352C86.9026 12.58 86.8486 12.748 86.7406 12.856C86.6446 12.952 86.4826 13 86.2546 13ZM95.3851 13H92.5951C92.3671 13 92.1991 12.952 92.0911 12.856C91.9951 12.748 91.9471 12.58 91.9471 12.352V0.688C91.9471 0.46 91.9951 0.298 92.0911 0.202C92.1991 0.0939995 92.3671 0.0399995 92.5951 0.0399995H95.3851C95.6131 0.0399995 95.7751 0.0939995 95.8711 0.202C95.9791 0.298 96.0331 0.46 96.0331 0.688V4.594H99.0391V0.688C99.0391 0.46 99.0871 0.298 99.1831 0.202C99.2911 0.0939995 99.4591 0.0399995 99.6871 0.0399995H102.477C102.705 0.0399995 102.867 0.0939995 102.963 0.202C103.071 0.298 103.125 0.46 103.125 0.688V12.352C103.125 12.58 103.071 12.748 102.963 12.856C102.867 12.952 102.705 13 102.477 13H99.6871C99.4591 13 99.2911 12.952 99.1831 12.856C99.0871 12.748 99.0391 12.58 99.0391 12.352V8.356H96.0331V12.352C96.0331 12.58 95.9791 12.748 95.8711 12.856C95.7751 12.952 95.6131 13 95.3851 13ZM113.086 13H110.296C110.068 13 109.9 12.952 109.792 12.856C109.696 12.748 109.648 12.58 109.648 12.352V0.688C109.648 0.46 109.696 0.298 109.792 0.202C109.9 0.0939995 110.068 0.0399995 110.296 0.0399995H118.324C118.552 0.0399995 118.714 0.0939995 118.81 0.202C118.918 0.298 118.972 0.46 118.972 0.688V2.83C118.972 3.058 118.918 3.226 118.81 3.334C118.714 3.43 118.552 3.478 118.324 3.478H113.734V5.35H116.866C117.094 5.35 117.256 5.404 117.352 5.512C117.46 5.608 117.514 5.77 117.514 5.998V8.158C117.514 8.386 117.46 8.554 117.352 8.662C117.256 8.758 117.094 8.806 116.866 8.806H113.734V12.352C113.734 12.58 113.68 12.748 113.572 12.856C113.476 12.952 113.314 13 113.086 13ZM124.843 3.28V5.584H126.193C126.505 5.584 126.715 5.506 126.823 5.35C126.931 5.182 126.985 4.978 126.985 4.738V4.126C126.985 3.886 126.931 3.688 126.823 3.532C126.715 3.364 126.505 3.28 126.193 3.28H124.843ZM124.195 13H121.423C121.195 13 121.027 12.952 120.919 12.856C120.823 12.748 120.775 12.58 120.775 12.352V0.688C120.775 0.46 120.823 0.298 120.919 0.202C121.027 0.0939995 121.195 0.0399995 121.423 0.0399995H127.417C128.761 0.0399995 129.685 0.321999 130.189 0.885999C130.705 1.438 130.963 2.158 130.963 3.046V3.874C130.963 4.378 130.885 4.81 130.729 5.17C130.585 5.518 130.327 5.77 129.955 5.926C130.603 5.998 131.125 6.262 131.521 6.718C131.929 7.174 132.133 7.78 132.133 8.536V12.352C132.133 12.58 132.079 12.748 131.971 12.856C131.875 12.952 131.713 13 131.485 13H128.695C128.467 13 128.299 12.952 128.191 12.856C128.095 12.748 128.047 12.58 128.047 12.352V9.598C128.047 9.334 127.993 9.142 127.885 9.022C127.789 8.89 127.615 8.824 127.363 8.824H124.843V12.352C124.843 12.58 124.789 12.748 124.681 12.856C124.585 12.952 124.423 13 124.195 13ZM134.512 13C134.284 13 134.116 12.952 134.008 12.856C133.912 12.748 133.864 12.58 133.864 12.352V10.21C133.864 9.982 133.912 9.82 134.008 9.724C134.116 9.616 134.284 9.562 134.512 9.562H136.294V3.514H134.512C134.284 3.514 134.116 3.466 134.008 3.37C133.912 3.262 133.864 3.094 133.864 2.866V0.688C133.864 0.46 133.912 0.298 134.008 0.202C134.116 0.0939995 134.284 0.0399995 134.512 0.0399995H142.18C142.408 0.0399995 142.57 0.0939995 142.666 0.202C142.774 0.298 142.828 0.46 142.828 0.688V2.866C142.828 3.094 142.774 3.262 142.666 3.37C142.57 3.466 142.408 3.514 142.18 3.514H140.434V9.562H142.18C142.408 9.562 142.57 9.616 142.666 9.724C142.774 9.82 142.828 9.982 142.828 10.21V12.352C142.828 12.58 142.774 12.748 142.666 12.856C142.57 12.952 142.408 13 142.18 13H134.512ZM154.051 13H145.699C145.471 13 145.303 12.952 145.195 12.856C145.099 12.748 145.051 12.58 145.051 12.352V0.688C145.051 0.46 145.099 0.298 145.195 0.202C145.303 0.0939995 145.471 0.0399995 145.699 0.0399995H154.051C154.279 0.0399995 154.441 0.0939995 154.537 0.202C154.645 0.298 154.699 0.46 154.699 0.688V2.794C154.699 3.022 154.645 3.19 154.537 3.298C154.441 3.394 154.279 3.442 154.051 3.442H149.083V4.828H152.593C152.821 4.828 152.983 4.882 153.079 4.99C153.187 5.086 153.241 5.248 153.241 5.476V7.402C153.241 7.63 153.187 7.798 153.079 7.906C152.983 8.002 152.821 8.05 152.593 8.05H149.083V9.598H154.051C154.279 9.598 154.441 9.652 154.537 9.76C154.645 9.856 154.699 10.018 154.699 10.246V12.352C154.699 12.58 154.645 12.748 154.537 12.856C154.441 12.952 154.279 13 154.051 13ZM160.176 13H157.476C157.248 13 157.08 12.952 156.972 12.856C156.876 12.748 156.828 12.58 156.828 12.352V0.688C156.828 0.46 156.876 0.298 156.972 0.202C157.08 0.0939995 157.248 0.0399995 157.476 0.0399995H159.348C159.576 0.0399995 159.768 0.0759994 159.924 0.147999C160.092 0.22 160.254 0.346 160.41 0.526L163.902 4.522V0.688C163.902 0.46 163.95 0.298 164.046 0.202C164.154 0.0939995 164.322 0.0399995 164.55 0.0399995H167.25C167.478 0.0399995 167.64 0.0939995 167.736 0.202C167.844 0.298 167.898 0.46 167.898 0.688V12.352C167.898 12.58 167.844 12.748 167.736 12.856C167.64 12.952 167.478 13 167.25 13H164.55C164.322 13 164.154 12.952 164.046 12.856C163.95 12.748 163.902 12.58 163.902 12.352V10.138L160.824 6.412V12.352C160.824 12.58 160.77 12.748 160.662 12.856C160.566 12.952 160.404 13 160.176 13ZM177.095 13H171.029C170.801 13 170.633 12.952 170.525 12.856C170.429 12.748 170.381 12.58 170.381 12.352V0.688C170.381 0.46 170.429 0.298 170.525 0.202C170.633 0.0939995 170.801 0.0399995 171.029 0.0399995H177.095C178.595 0.0399995 179.705 0.34 180.425 0.94C181.157 1.54 181.523 2.464 181.523 3.712V9.328C181.523 10.576 181.157 11.5 180.425 12.1C179.705 12.7 178.595 13 177.095 13ZM174.467 3.478V9.598H176.609C176.897 9.598 177.107 9.526 177.239 9.382C177.383 9.238 177.455 9.016 177.455 8.716V4.342C177.455 4.042 177.383 3.826 177.239 3.694C177.107 3.55 176.897 3.478 176.609 3.478H174.467Z" fill="#A98C5C"/>
</svg>
