<svg width="105" height="16" viewBox="0 0 105 16" fill="none" xmlns="http://www.w3.org/2000/svg">
<path d="M7.01 15.62H4.238C4.01 15.62 3.842 15.566 3.734 15.458C3.638 15.362 3.59 15.2 3.59 14.972V13.982C2.198 13.778 1.256 13.364 0.763999 12.74C0.283999 12.104 0.0439987 11.336 0.0439987 10.436V4.46C0.0439987 3.908 0.121999 3.41 0.277999 2.966C0.445999 2.51 0.733999 2.12 1.142 1.796C1.562 1.472 2.138 1.22 2.87 1.04C3.602 0.86 4.526 0.77 5.642 0.77C6.758 0.77 7.676 0.86 8.396 1.04C9.128 1.22 9.698 1.472 10.106 1.796C10.526 2.12 10.814 2.51 10.97 2.966C11.138 3.41 11.222 3.908 11.222 4.46V10.436C11.222 10.892 11.168 11.318 11.06 11.714C10.952 12.098 10.766 12.44 10.502 12.74C10.238 13.04 9.872 13.298 9.404 13.514C8.948 13.73 8.366 13.886 7.658 13.982V14.972C7.658 15.2 7.604 15.362 7.496 15.458C7.4 15.566 7.238 15.62 7.01 15.62ZM4.13 10.04C4.13 10.28 4.22 10.484 4.4 10.652C4.58 10.808 4.994 10.886 5.642 10.886C6.29 10.886 6.704 10.808 6.884 10.652C7.064 10.484 7.154 10.28 7.154 10.04V5.126C7.154 4.898 7.064 4.706 6.884 4.55C6.704 4.382 6.29 4.298 5.642 4.298C4.994 4.298 4.58 4.382 4.4 4.55C4.22 4.706 4.13 4.898 4.13 5.126V10.04ZM24.5475 10.598C24.5475 11.15 24.4635 11.654 24.2955 12.11C24.1395 12.554 23.8515 12.938 23.4315 13.262C23.0235 13.574 22.4595 13.82 21.7395 14C21.0195 14.18 20.1015 14.27 18.9855 14.27C17.8695 14.27 16.9515 14.18 16.2315 14C15.5115 13.82 14.9415 13.574 14.5215 13.262C14.1135 12.938 13.8255 12.554 13.6575 12.11C13.5015 11.654 13.4235 11.15 13.4235 10.598V1.688C13.4235 1.46 13.4715 1.298 13.5675 1.202C13.6755 1.094 13.8435 1.04 14.0715 1.04H16.8975C17.1255 1.04 17.2875 1.094 17.3835 1.202C17.4915 1.298 17.5455 1.46 17.5455 1.688V9.896C17.5455 10.136 17.6355 10.34 17.8155 10.508C17.9955 10.664 18.3975 10.742 19.0215 10.742C19.6575 10.742 20.0655 10.664 20.2455 10.508C20.4255 10.34 20.5155 10.136 20.5155 9.896V1.688C20.5155 1.46 20.5635 1.298 20.6595 1.202C20.7675 1.094 20.9355 1.04 21.1635 1.04H23.8995C24.1275 1.04 24.2895 1.094 24.3855 1.202C24.4935 1.298 24.5475 1.46 24.5475 1.688V10.598ZM27.3032 14C27.0752 14 26.9072 13.952 26.7992 13.856C26.7032 13.748 26.6552 13.58 26.6552 13.352V11.21C26.6552 10.982 26.7032 10.82 26.7992 10.724C26.9072 10.616 27.0752 10.562 27.3032 10.562H29.0852V4.514H27.3032C27.0752 4.514 26.9072 4.466 26.7992 4.37C26.7032 4.262 26.6552 4.094 26.6552 3.866V1.688C26.6552 1.46 26.7032 1.298 26.7992 1.202C26.9072 1.094 27.0752 1.04 27.3032 1.04H34.9712C35.1992 1.04 35.3612 1.094 35.4572 1.202C35.5652 1.298 35.6192 1.46 35.6192 1.688V3.866C35.6192 4.094 35.5652 4.262 35.4572 4.37C35.3612 4.466 35.1992 4.514 34.9712 4.514H33.2252V10.562H34.9712C35.1992 10.562 35.3612 10.616 35.4572 10.724C35.5652 10.82 35.6192 10.982 35.6192 11.21V13.352C35.6192 13.58 35.5652 13.748 35.4572 13.856C35.3612 13.952 35.1992 14 34.9712 14H27.3032ZM43.9616 14H41.0456C40.8176 14 40.6496 13.952 40.5416 13.856C40.4456 13.748 40.3976 13.58 40.3976 13.352V4.514H37.7516C37.5236 4.514 37.3556 4.466 37.2476 4.37C37.1516 4.262 37.1036 4.094 37.1036 3.866V1.688C37.1036 1.46 37.1516 1.298 37.2476 1.202C37.3556 1.094 37.5236 1.04 37.7516 1.04H47.2556C47.4836 1.04 47.6456 1.094 47.7416 1.202C47.8496 1.298 47.9036 1.46 47.9036 1.688V3.866C47.9036 4.094 47.8496 4.262 47.7416 4.37C47.6456 4.466 47.4836 4.514 47.2556 4.514H44.6096V13.352C44.6096 13.58 44.5556 13.748 44.4476 13.856C44.3516 13.952 44.1896 14 43.9616 14ZM63.4213 14H57.7513C56.2513 14 55.1353 13.7 54.4033 13.1C53.6833 12.5 53.3233 11.576 53.3233 10.328V4.712C53.3233 3.464 53.6833 2.54 54.4033 1.94C55.1353 1.34 56.2513 1.04 57.7513 1.04H62.2513C62.4793 1.04 62.6413 1.094 62.7373 1.202C62.8453 1.298 62.8993 1.46 62.8993 1.688V3.866C62.8993 4.094 62.8453 4.262 62.7373 4.37C62.6413 4.466 62.4793 4.514 62.2513 4.514H58.5073C58.1353 4.514 57.8593 4.592 57.6793 4.748C57.4993 4.892 57.4093 5.114 57.4093 5.414V9.716C57.4093 10.016 57.4753 10.238 57.6073 10.382C57.7513 10.526 57.9613 10.598 58.2373 10.598H59.9833V7.79C59.9833 7.562 60.0313 7.4 60.1273 7.304C60.2353 7.196 60.4033 7.142 60.6313 7.142H63.4213C63.6493 7.142 63.8113 7.196 63.9073 7.304C64.0153 7.4 64.0693 7.562 64.0693 7.79V13.352C64.0693 13.58 64.0153 13.748 63.9073 13.856C63.8113 13.952 63.6493 14 63.4213 14ZM70.9634 4.82L70.1174 7.556H72.9434L72.0974 4.82C72.0494 4.712 71.9954 4.634 71.9354 4.586C71.8874 4.538 71.8274 4.514 71.7554 4.514H71.3054C71.2334 4.514 71.1674 4.538 71.1074 4.586C71.0594 4.634 71.0114 4.712 70.9634 4.82ZM69.9374 13.352C69.9374 13.58 69.8834 13.748 69.7754 13.856C69.6794 13.952 69.5174 14 69.2894 14H66.6434C66.4154 14 66.2474 13.952 66.1394 13.856C66.0434 13.748 65.9954 13.58 65.9954 13.352V8.6C65.9954 8.24 66.0494 7.826 66.1574 7.358C66.2774 6.89 66.4574 6.344 66.6974 5.72L68.2634 1.634C68.3354 1.43 68.4434 1.28 68.5874 1.184C68.7434 1.088 68.9414 1.04 69.1814 1.04H74.0234C74.2514 1.04 74.4374 1.088 74.5814 1.184C74.7374 1.28 74.8514 1.43 74.9234 1.634L76.4894 5.72C76.7294 6.344 76.9034 6.89 77.0114 7.358C77.1314 7.826 77.1914 8.24 77.1914 8.6V13.352C77.1914 13.58 77.1374 13.748 77.0294 13.856C76.9334 13.952 76.7714 14 76.5434 14H73.8254C73.5854 14 73.4054 13.952 73.2854 13.856C73.1774 13.748 73.1234 13.58 73.1234 13.352V10.832H69.9374V13.352ZM82.7439 14H80.0619C79.8339 14 79.6659 13.952 79.5579 13.856C79.4619 13.748 79.4139 13.58 79.4139 13.352V1.688C79.4139 1.46 79.4619 1.298 79.5579 1.202C79.6659 1.094 79.8339 1.04 80.0619 1.04H82.9599C83.1519 1.04 83.3079 1.082 83.4279 1.166C83.5599 1.25 83.6799 1.388 83.7879 1.58L85.4079 4.514C85.4679 4.622 85.5159 4.7 85.5519 4.748C85.5999 4.796 85.6599 4.82 85.7319 4.82H85.8939C85.9659 4.82 86.0199 4.796 86.0559 4.748C86.1039 4.7 86.1579 4.622 86.2179 4.514L87.8199 1.58C87.9279 1.388 88.0419 1.25 88.1619 1.166C88.2939 1.082 88.4559 1.04 88.6479 1.04H91.5639C91.7919 1.04 91.9539 1.094 92.0499 1.202C92.1579 1.298 92.2119 1.46 92.2119 1.688V13.352C92.2119 13.58 92.1579 13.748 92.0499 13.856C91.9539 13.952 91.7919 14 91.5639 14H88.7919C88.5639 14 88.3959 13.952 88.2879 13.856C88.1919 13.748 88.1439 13.58 88.1439 13.352V7.016L87.0819 8.978C86.9739 9.182 86.8419 9.332 86.6859 9.428C86.5419 9.512 86.3559 9.554 86.1279 9.554H85.4079C85.1799 9.554 84.9879 9.512 84.8319 9.428C84.6879 9.332 84.5619 9.182 84.4539 8.978L83.3919 7.016V13.352C83.3919 13.58 83.3379 13.748 83.2299 13.856C83.1339 13.952 82.9719 14 82.7439 14ZM103.689 14H95.3373C95.1093 14 94.9413 13.952 94.8333 13.856C94.7373 13.748 94.6893 13.58 94.6893 13.352V1.688C94.6893 1.46 94.7373 1.298 94.8333 1.202C94.9413 1.094 95.1093 1.04 95.3373 1.04H103.689C103.917 1.04 104.079 1.094 104.175 1.202C104.283 1.298 104.337 1.46 104.337 1.688V3.794C104.337 4.022 104.283 4.19 104.175 4.298C104.079 4.394 103.917 4.442 103.689 4.442H98.7213V5.828H102.231C102.459 5.828 102.621 5.882 102.717 5.99C102.825 6.086 102.879 6.248 102.879 6.476V8.402C102.879 8.63 102.825 8.798 102.717 8.906C102.621 9.002 102.459 9.05 102.231 9.05H98.7213V10.598H103.689C103.917 10.598 104.079 10.652 104.175 10.76C104.283 10.856 104.337 11.018 104.337 11.246V13.352C104.337 13.58 104.283 13.748 104.175 13.856C104.079 13.952 103.917 14 103.689 14Z" fill="#A98C5C"/>
</svg>
