<svg width="74" height="13" viewBox="0 0 74 13" fill="none" xmlns="http://www.w3.org/2000/svg">
<path d="M4.31 3.28V5.584H5.66C5.972 5.584 6.182 5.506 6.29 5.35C6.398 5.182 6.452 4.978 6.452 4.738V4.126C6.452 3.886 6.398 3.688 6.29 3.532C6.182 3.364 5.972 3.28 5.66 3.28H4.31ZM3.662 13H0.890001C0.662001 13 0.494001 12.952 0.386001 12.856C0.290001 12.748 0.242001 12.58 0.242001 12.352V0.688C0.242001 0.46 0.290001 0.298 0.386001 0.202C0.494001 0.0939995 0.662001 0.0399995 0.890001 0.0399995H6.884C8.228 0.0399995 9.152 0.321999 9.656 0.885999C10.172 1.438 10.43 2.158 10.43 3.046V3.874C10.43 4.378 10.352 4.81 10.196 5.17C10.052 5.518 9.794 5.77 9.422 5.926C10.07 5.998 10.592 6.262 10.988 6.718C11.396 7.174 11.6 7.78 11.6 8.536V12.352C11.6 12.58 11.546 12.748 11.438 12.856C11.342 12.952 11.18 13 10.952 13H8.162C7.934 13 7.766 12.952 7.658 12.856C7.562 12.748 7.514 12.58 7.514 12.352V9.598C7.514 9.334 7.46 9.142 7.352 9.022C7.256 8.89 7.082 8.824 6.83 8.824H4.31V12.352C4.31 12.58 4.256 12.748 4.148 12.856C4.052 12.952 3.89 13 3.662 13ZM22.619 13H14.267C14.039 13 13.871 12.952 13.763 12.856C13.667 12.748 13.619 12.58 13.619 12.352V0.688C13.619 0.46 13.667 0.298 13.763 0.202C13.871 0.0939995 14.039 0.0399995 14.267 0.0399995H22.619C22.847 0.0399995 23.009 0.0939995 23.105 0.202C23.213 0.298 23.267 0.46 23.267 0.688V2.794C23.267 3.022 23.213 3.19 23.105 3.298C23.009 3.394 22.847 3.442 22.619 3.442H17.651V4.828H21.161C21.389 4.828 21.551 4.882 21.647 4.99C21.755 5.086 21.809 5.248 21.809 5.476V7.402C21.809 7.63 21.755 7.798 21.647 7.906C21.551 8.002 21.389 8.05 21.161 8.05H17.651V9.598H22.619C22.847 9.598 23.009 9.652 23.105 9.76C23.213 9.856 23.267 10.018 23.267 10.246V12.352C23.267 12.58 23.213 12.748 23.105 12.856C23.009 12.952 22.847 13 22.619 13ZM28.8343 13H26.0443C25.8163 13 25.6483 12.952 25.5403 12.856C25.4443 12.748 25.3963 12.58 25.3963 12.352V0.688C25.3963 0.46 25.4443 0.298 25.5403 0.202C25.6483 0.0939995 25.8163 0.0399995 26.0443 0.0399995H31.5523C33.1843 0.0399995 34.3003 0.364 34.9003 1.012C35.5003 1.66 35.8003 2.506 35.8003 3.55V5.854C35.8003 6.898 35.5003 7.744 34.9003 8.392C34.3003 9.04 33.1843 9.364 31.5523 9.364H29.4823V12.352C29.4823 12.58 29.4283 12.748 29.3203 12.856C29.2243 12.952 29.0623 13 28.8343 13ZM29.4463 3.406V6.124H31.0663C31.4143 6.124 31.6423 6.034 31.7503 5.854C31.8583 5.674 31.9123 5.47 31.9123 5.242V4.288C31.9123 4.06 31.8583 3.856 31.7503 3.676C31.6423 3.496 31.4143 3.406 31.0663 3.406H29.4463ZM47.4758 13H38.3138C38.0858 13 37.9178 12.952 37.8098 12.856C37.7138 12.748 37.6658 12.58 37.6658 12.352V0.688C37.6658 0.46 37.7138 0.298 37.8098 0.202C37.9178 0.0939995 38.0858 0.0399995 38.3138 0.0399995H41.1038C41.3318 0.0399995 41.4938 0.0939995 41.5898 0.202C41.6978 0.298 41.7518 0.46 41.7518 0.688V9.598H44.2178V6.682C44.2178 6.454 44.2658 6.292 44.3618 6.196C44.4698 6.088 44.6378 6.034 44.8658 6.034H47.4758C47.7038 6.034 47.8658 6.088 47.9618 6.196C48.0698 6.292 48.1238 6.454 48.1238 6.682V12.352C48.1238 12.58 48.0698 12.748 47.9618 12.856C47.8658 12.952 47.7038 13 47.4758 13ZM54.8795 3.82L54.0335 6.556H56.8595L56.0135 3.82C55.9655 3.712 55.9115 3.634 55.8515 3.586C55.8035 3.538 55.7435 3.514 55.6715 3.514H55.2215C55.1495 3.514 55.0835 3.538 55.0235 3.586C54.9755 3.634 54.9275 3.712 54.8795 3.82ZM53.8535 12.352C53.8535 12.58 53.7995 12.748 53.6915 12.856C53.5955 12.952 53.4335 13 53.2055 13H50.5595C50.3315 13 50.1635 12.952 50.0555 12.856C49.9595 12.748 49.9115 12.58 49.9115 12.352V7.6C49.9115 7.24 49.9655 6.826 50.0735 6.358C50.1935 5.89 50.3735 5.344 50.6135 4.72L52.1795 0.633999C52.2515 0.429999 52.3595 0.279999 52.5035 0.184C52.6595 0.0879996 52.8575 0.0399995 53.0975 0.0399995H57.9395C58.1675 0.0399995 58.3535 0.0879996 58.4975 0.184C58.6535 0.279999 58.7675 0.429999 58.8395 0.633999L60.4055 4.72C60.6455 5.344 60.8195 5.89 60.9275 6.358C61.0475 6.826 61.1075 7.24 61.1075 7.6V12.352C61.1075 12.58 61.0535 12.748 60.9455 12.856C60.8495 12.952 60.6875 13 60.4595 13H57.7415C57.5015 13 57.3215 12.952 57.2015 12.856C57.0935 12.748 57.0395 12.58 57.0395 12.352V9.832H53.8535V12.352ZM69.4429 13H66.5269C66.2989 13 66.1309 12.952 66.0229 12.856C65.9269 12.748 65.8789 12.58 65.8789 12.352V10.048L63.1249 6.358C62.8489 5.986 62.6629 5.662 62.5669 5.386C62.4829 5.11 62.4409 4.696 62.4409 4.144V0.688C62.4409 0.46 62.4889 0.298 62.5849 0.202C62.6929 0.0939995 62.8609 0.0399995 63.0889 0.0399995H65.8609C66.0889 0.0399995 66.2509 0.0939995 66.3469 0.202C66.4549 0.298 66.5089 0.46 66.5089 0.688V3.64C66.5089 3.76 66.5149 3.886 66.5269 4.018C66.5389 4.15 66.5869 4.276 66.6709 4.396L67.4989 5.692C67.5589 5.8 67.6189 5.878 67.6789 5.926C67.7509 5.974 67.8349 5.998 67.9309 5.998H68.1109C68.2069 5.998 68.2849 5.974 68.3449 5.926C68.4169 5.878 68.4829 5.8 68.5429 5.692L69.3709 4.396C69.4549 4.276 69.5029 4.15 69.5149 4.018C69.5269 3.886 69.5329 3.76 69.5329 3.64V0.688C69.5329 0.46 69.5809 0.298 69.6769 0.202C69.7849 0.0939995 69.9529 0.0399995 70.1809 0.0399995H72.8629C73.0909 0.0399995 73.2529 0.0939995 73.3489 0.202C73.4569 0.298 73.5109 0.46 73.5109 0.688V4.144C73.5109 4.696 73.4629 5.11 73.3669 5.386C73.2709 5.662 73.0909 5.986 72.8269 6.358L70.0909 10.066V12.352C70.0909 12.58 70.0369 12.748 69.9289 12.856C69.8329 12.952 69.6709 13 69.4429 13Z" fill="#A98C5C"/>
</svg>
