<svg width="64" height="12" viewBox="0 0 64 12" fill="none" xmlns="http://www.w3.org/2000/svg">
<path d="M5.08927 11H0.665266C0.487932 11 0.357266 10.9627 0.273266 10.888C0.198599 10.804 0.161266 10.6733 0.161266 10.496V8.858C0.161266 8.68067 0.198599 8.55467 0.273266 8.48C0.357266 8.396 0.487932 8.354 0.665266 8.354H4.43127C4.5526 8.354 4.64127 8.31667 4.69727 8.242C4.7626 8.158 4.79527 8.06 4.79527 7.948C4.79527 7.78933 4.7626 7.67267 4.69727 7.598C4.64127 7.52333 4.5526 7.48133 4.43127 7.472L2.33127 7.178C1.67793 7.08467 1.1506 6.87 0.749266 6.534C0.357266 6.198 0.161266 5.638 0.161266 4.854V3.384C0.161266 2.59067 0.417932 1.984 0.931266 1.564C1.4446 1.13467 2.15393 0.92 3.05927 0.92H6.97927C7.1566 0.92 7.2826 0.962 7.35727 1.046C7.44127 1.12067 7.48327 1.24667 7.48327 1.424V3.09C7.48327 3.26733 7.44127 3.398 7.35727 3.482C7.2826 3.55667 7.1566 3.594 6.97927 3.594H3.71727C3.59593 3.594 3.5026 3.636 3.43727 3.72C3.37193 3.79467 3.33927 3.89267 3.33927 4.014C3.33927 4.13533 3.37193 4.238 3.43727 4.322C3.5026 4.406 3.59593 4.45267 3.71727 4.462L5.80327 4.742C6.4566 4.83533 6.98393 5.05 7.38527 5.386C7.7866 5.722 7.98727 6.282 7.98727 7.066V8.536C7.98727 9.32933 7.72593 9.94067 7.20327 10.37C6.68993 10.79 5.98527 11 5.08927 11ZM18.0587 8.354C18.0587 8.78333 17.9934 9.17533 17.8627 9.53C17.7414 9.87533 17.5174 10.174 17.1907 10.426C16.8734 10.6687 16.4301 10.86 15.8607 11C15.3007 11.14 14.5867 11.21 13.7187 11.21C12.8507 11.21 12.1321 11.14 11.5627 11C10.9934 10.86 10.5454 10.6687 10.2187 10.426C9.9014 10.174 9.6774 9.87533 9.54673 9.53C9.4254 9.17533 9.36473 8.78333 9.36473 8.354V3.58C9.36473 3.15067 9.4254 2.76333 9.54673 2.418C9.6774 2.06333 9.9014 1.76 10.2187 1.508C10.5454 1.256 10.9934 1.06 11.5627 0.92C12.1321 0.78 12.8507 0.71 13.7187 0.71C14.5867 0.71 15.3007 0.78 15.8607 0.92C16.4301 1.06 16.8734 1.256 17.1907 1.508C17.5174 1.76 17.7414 2.06333 17.8627 2.418C17.9934 2.76333 18.0587 3.15067 18.0587 3.58V8.354ZM12.5427 7.85C12.5427 8.03667 12.6127 8.19533 12.7527 8.326C12.8927 8.44733 13.2147 8.508 13.7187 8.508C14.2227 8.508 14.5447 8.44733 14.6847 8.326C14.8247 8.19533 14.8947 8.03667 14.8947 7.85V4.084C14.8947 3.90667 14.8247 3.75733 14.6847 3.636C14.5447 3.50533 14.2227 3.44 13.7187 3.44C13.2147 3.44 12.8927 3.50533 12.7527 3.636C12.6127 3.75733 12.5427 3.90667 12.5427 4.084V7.85ZM23.005 3.44V5.232H24.055C24.2977 5.232 24.461 5.17133 24.545 5.05C24.629 4.91933 24.671 4.76067 24.671 4.574V4.098C24.671 3.91133 24.629 3.75733 24.545 3.636C24.461 3.50533 24.2977 3.44 24.055 3.44H23.005ZM22.501 11H20.345C20.1677 11 20.037 10.9627 19.953 10.888C19.8783 10.804 19.841 10.6733 19.841 10.496V1.424C19.841 1.24667 19.8783 1.12067 19.953 1.046C20.037 0.962 20.1677 0.92 20.345 0.92H25.007C26.0523 0.92 26.771 1.13933 27.163 1.578C27.5643 2.00733 27.765 2.56733 27.765 3.258V3.902C27.765 4.294 27.7043 4.63 27.583 4.91C27.471 5.18067 27.2703 5.37667 26.981 5.498C27.485 5.554 27.891 5.75933 28.199 6.114C28.5163 6.46867 28.675 6.94 28.675 7.528V10.496C28.675 10.6733 28.633 10.804 28.549 10.888C28.4743 10.9627 28.3483 11 28.171 11H26.001C25.8237 11 25.693 10.9627 25.609 10.888C25.5343 10.804 25.497 10.6733 25.497 10.496V8.354C25.497 8.14867 25.455 7.99933 25.371 7.906C25.2963 7.80333 25.161 7.752 24.965 7.752H23.005V10.496C23.005 10.6733 22.963 10.804 22.879 10.888C22.8043 10.9627 22.6783 11 22.501 11ZM33.4093 3.44V5.232H34.4593C34.702 5.232 34.8653 5.17133 34.9493 5.05C35.0333 4.91933 35.0753 4.76067 35.0753 4.574V4.098C35.0753 3.91133 35.0333 3.75733 34.9493 3.636C34.8653 3.50533 34.702 3.44 34.4593 3.44H33.4093ZM32.9053 11H30.7493C30.572 11 30.4413 10.9627 30.3573 10.888C30.2826 10.804 30.2453 10.6733 30.2453 10.496V1.424C30.2453 1.24667 30.2826 1.12067 30.3573 1.046C30.4413 0.962 30.572 0.92 30.7493 0.92H35.4113C36.4566 0.92 37.1753 1.13933 37.5673 1.578C37.9686 2.00733 38.1693 2.56733 38.1693 3.258V3.902C38.1693 4.294 38.1086 4.63 37.9873 4.91C37.8753 5.18067 37.6746 5.37667 37.3853 5.498C37.8893 5.554 38.2953 5.75933 38.6033 6.114C38.9206 6.46867 39.0793 6.94 39.0793 7.528V10.496C39.0793 10.6733 39.0373 10.804 38.9533 10.888C38.8786 10.9627 38.7526 11 38.5753 11H36.4053C36.228 11 36.0973 10.9627 36.0133 10.888C35.9386 10.804 35.9013 10.6733 35.9013 10.496V8.354C35.9013 8.14867 35.8593 7.99933 35.7753 7.906C35.7006 7.80333 35.5653 7.752 35.3693 7.752H33.4093V10.496C33.4093 10.6733 33.3673 10.804 33.2833 10.888C33.2086 10.9627 33.0826 11 32.9053 11ZM45.3358 11H43.0678C42.8904 11 42.7598 10.9627 42.6758 10.888C42.6011 10.804 42.5638 10.6733 42.5638 10.496V8.704L40.4218 5.834C40.2071 5.54467 40.0624 5.29267 39.9878 5.078C39.9224 4.86333 39.8898 4.54133 39.8898 4.112V1.424C39.8898 1.24667 39.9271 1.12067 40.0018 1.046C40.0858 0.962 40.2164 0.92 40.3938 0.92H42.5498C42.7271 0.92 42.8531 0.962 42.9278 1.046C43.0118 1.12067 43.0538 1.24667 43.0538 1.424V3.72C43.0538 3.81333 43.0584 3.91133 43.0678 4.014C43.0771 4.11667 43.1144 4.21467 43.1798 4.308L43.8238 5.316C43.8704 5.4 43.9171 5.46067 43.9638 5.498C44.0198 5.53533 44.0851 5.554 44.1598 5.554H44.2998C44.3744 5.554 44.4351 5.53533 44.4818 5.498C44.5378 5.46067 44.5891 5.4 44.6358 5.316L45.2798 4.308C45.3451 4.21467 45.3824 4.11667 45.3918 4.014C45.4011 3.91133 45.4058 3.81333 45.4058 3.72V1.424C45.4058 1.24667 45.4431 1.12067 45.5178 1.046C45.6018 0.962 45.7324 0.92 45.9098 0.92H47.9958C48.1731 0.92 48.2991 0.962 48.3738 1.046C48.4578 1.12067 48.4998 1.24667 48.4998 1.424V4.112C48.4998 4.54133 48.4624 4.86333 48.3878 5.078C48.3131 5.29267 48.1731 5.54467 47.9678 5.834L45.8398 8.718V10.496C45.8398 10.6733 45.7978 10.804 45.7138 10.888C45.6391 10.9627 45.5131 11 45.3358 11ZM52.5356 11H49.7076C49.5303 11 49.3996 10.9627 49.3156 10.888C49.2409 10.804 49.2036 10.6733 49.2036 10.496V7.654C49.2036 7.47667 49.2409 7.35067 49.3156 7.276C49.3996 7.192 49.5303 7.15 49.7076 7.15H52.5356C52.7129 7.15 52.8389 7.192 52.9136 7.276C52.9976 7.35067 53.0396 7.47667 53.0396 7.654V10.496C53.0396 10.6733 52.9976 10.804 52.9136 10.888C52.8389 10.9627 52.7129 11 52.5356 11ZM57.9086 11H55.0806C54.9033 11 54.7726 10.9627 54.6886 10.888C54.614 10.804 54.5766 10.6733 54.5766 10.496V7.654C54.5766 7.47667 54.614 7.35067 54.6886 7.276C54.7726 7.192 54.9033 7.15 55.0806 7.15H57.9086C58.086 7.15 58.212 7.192 58.2866 7.276C58.3706 7.35067 58.4126 7.47667 58.4126 7.654V10.496C58.4126 10.6733 58.3706 10.804 58.2866 10.888C58.212 10.9627 58.086 11 57.9086 11ZM63.2817 11H60.4537C60.2764 11 60.1457 10.9627 60.0617 10.888C59.987 10.804 59.9497 10.6733 59.9497 10.496V7.654C59.9497 7.47667 59.987 7.35067 60.0617 7.276C60.1457 7.192 60.2764 7.15 60.4537 7.15H63.2817C63.459 7.15 63.585 7.192 63.6597 7.276C63.7437 7.35067 63.7857 7.47667 63.7857 7.654V10.496C63.7857 10.6733 63.7437 10.804 63.6597 10.888C63.585 10.9627 63.459 11 63.2817 11Z" fill="#AD9161"/>
</svg>
