<svg width="246" height="49" viewBox="0 0 246 49" fill="none" xmlns="http://www.w3.org/2000/svg">
<path d="M79.4211 14.7708C79.1722 14.7708 78.9887 14.7194 78.8708 14.6164C78.766 14.5007 78.7136 14.3205 78.7136 14.0761V11.7795C78.7136 11.5351 78.766 11.3614 78.8708 11.2584C78.9887 11.1427 79.1722 11.0848 79.4211 11.0848H81.3666V4.60034H79.4211C79.1722 4.60034 78.9887 4.54888 78.8708 4.44595C78.766 4.33016 78.7136 4.15004 78.7136 3.90558V1.57042C78.7136 1.32597 78.766 1.15228 78.8708 1.04935C78.9887 0.933561 79.1722 0.875664 79.4211 0.875664H87.7926C88.0416 0.875664 88.2184 0.933561 88.3232 1.04935C88.4411 1.15228 88.5001 1.32597 88.5001 1.57042V3.90558C88.5001 4.15004 88.4411 4.33016 88.3232 4.44595C88.2184 4.54888 88.0416 4.60034 87.7926 4.60034H85.8864V11.0848H87.7926C88.0416 11.0848 88.2184 11.1427 88.3232 11.2584C88.4411 11.3614 88.5001 11.5351 88.5001 11.7795V14.0761C88.5001 14.3205 88.4411 14.5007 88.3232 14.6164C88.2184 14.7194 88.0416 14.7708 87.7926 14.7708H79.4211Z" fill="#AD9161"/>
<path d="M97.608 14.7708H94.4244C94.1755 14.7708 93.9921 14.7194 93.8742 14.6164C93.7694 14.5007 93.717 14.3205 93.717 14.0761V4.60034H90.8282C90.5793 4.60034 90.3959 4.54888 90.2779 4.44595C90.1731 4.33016 90.1207 4.15004 90.1207 3.90558V1.57042C90.1207 1.32597 90.1731 1.15228 90.2779 1.04935C90.3959 0.933561 90.5793 0.875664 90.8282 0.875664H101.204C101.453 0.875664 101.63 0.933561 101.735 1.04935C101.853 1.15228 101.912 1.32597 101.912 1.57042V3.90558C101.912 4.15004 101.853 4.33016 101.735 4.44595C101.63 4.54888 101.453 4.60034 101.204 4.60034H98.3154V14.0761C98.3154 14.3205 98.2565 14.5007 98.1386 14.6164C98.0338 14.7194 97.8569 14.7708 97.608 14.7708Z" fill="#AD9161"/>
<path d="M106.024 8.11273H104.511C104.262 8.11273 104.078 8.06127 103.96 7.95834C103.856 7.84255 103.803 7.66243 103.803 7.41797V6.64602C103.803 6.40157 103.856 6.22788 103.96 6.12495C104.078 6.00916 104.262 5.95126 104.511 5.95126H105.867C106.037 5.95126 106.168 5.90623 106.26 5.81617C106.351 5.71324 106.397 5.57815 106.397 5.41089V5.12141H104.255C104.006 5.12141 103.823 5.06995 103.705 4.96702C103.6 4.85123 103.548 4.6711 103.548 4.42665V1.57042C103.548 1.32597 103.6 1.15228 103.705 1.04935C103.823 0.933561 104.006 0.875664 104.255 0.875664H108.225C108.474 0.875664 108.651 0.933561 108.755 1.04935C108.873 1.15228 108.932 1.32597 108.932 1.57042V5.19861C108.932 6.17641 108.664 6.90977 108.126 7.39867C107.602 7.87471 106.902 8.11273 106.024 8.11273Z" fill="#AD9161"/>
<path d="M117.737 14.7708H111.527C111.278 14.7708 111.094 14.7194 110.976 14.6164C110.872 14.5007 110.819 14.3205 110.819 14.0761V11.8181C110.819 11.5737 110.872 11.4 110.976 11.297C111.094 11.1813 111.278 11.1234 111.527 11.1234H116.813C116.983 11.1234 117.108 11.0719 117.186 10.969C117.278 10.8532 117.324 10.7181 117.324 10.5637C117.324 10.345 117.278 10.1841 117.186 10.0812C117.108 9.97829 116.983 9.92039 116.813 9.90753L113.865 9.50225C112.948 9.37359 112.208 9.07767 111.645 8.6145C111.094 8.15133 110.819 7.37938 110.819 6.29864V4.27226C110.819 3.17866 111.179 2.34238 111.9 1.76341C112.621 1.17158 113.616 0.875664 114.887 0.875664H120.39C120.638 0.875664 120.815 0.933561 120.92 1.04935C121.038 1.15228 121.097 1.32597 121.097 1.57042V3.86699C121.097 4.11144 121.038 4.29156 120.92 4.40735C120.815 4.51028 120.638 4.56174 120.39 4.56174H115.811C115.64 4.56174 115.509 4.61964 115.418 4.73543C115.326 4.83836 115.28 4.97345 115.28 5.14071C115.28 5.30797 115.326 5.44949 115.418 5.56528C115.509 5.68108 115.64 5.74541 115.811 5.75827L118.739 6.14425C119.656 6.27291 120.396 6.56883 120.959 7.032C121.523 7.49517 121.804 8.26712 121.804 9.34786V11.3742C121.804 12.4678 121.438 13.3106 120.704 13.9024C119.983 14.4814 118.994 14.7708 117.737 14.7708Z" fill="#AD9161"/>
<path d="M132.023 14.7708H129.075C128.827 14.7708 128.643 14.7194 128.525 14.6164C128.42 14.5007 128.368 14.3205 128.368 14.0761V1.57042C128.368 1.32597 128.42 1.15228 128.525 1.04935C128.643 0.933561 128.827 0.875664 129.075 0.875664H131.119C131.368 0.875664 131.578 0.914262 131.748 0.991457C131.932 1.06865 132.108 1.20375 132.279 1.39673L136.091 5.68108V1.57042C136.091 1.32597 136.144 1.15228 136.248 1.04935C136.366 0.933561 136.55 0.875664 136.799 0.875664H139.746C139.995 0.875664 140.172 0.933561 140.277 1.04935C140.395 1.15228 140.454 1.32597 140.454 1.57042V14.0761C140.454 14.3205 140.395 14.5007 140.277 14.6164C140.172 14.7194 139.995 14.7708 139.746 14.7708H136.799C136.55 14.7708 136.366 14.7194 136.248 14.6164C136.144 14.5007 136.091 14.3205 136.091 14.0761V11.7023L132.731 7.70746V14.0761C132.731 14.3205 132.672 14.5007 132.554 14.6164C132.449 14.7194 132.272 14.7708 132.023 14.7708Z" fill="#AD9161"/>
<path d="M155.152 11.1234C155.152 11.7152 155.06 12.2556 154.877 12.7445C154.706 13.2205 154.392 13.6322 153.933 13.9796C153.488 14.3141 152.866 14.5778 152.066 14.7708C151.28 14.9638 150.278 15.0603 149.06 15.0603C147.841 15.0603 146.833 14.9638 146.033 14.7708C145.234 14.5778 144.605 14.3141 144.147 13.9796C143.701 13.6322 143.387 13.2205 143.204 12.7445C143.033 12.2556 142.948 11.7152 142.948 11.1234V4.54245C142.948 3.95061 143.033 3.41668 143.204 2.94064C143.387 2.45174 143.701 2.0336 144.147 1.68622C144.605 1.33884 145.234 1.06865 146.033 0.875664C146.833 0.682676 147.841 0.586182 149.06 0.586182C150.278 0.586182 151.28 0.682676 152.066 0.875664C152.866 1.06865 153.488 1.33884 153.933 1.68622C154.392 2.0336 154.706 2.45174 154.877 2.94064C155.06 3.41668 155.152 3.95061 155.152 4.54245V11.1234ZM147.409 10.4286C147.409 10.6859 147.507 10.9046 147.704 11.0848C147.9 11.252 148.352 11.3356 149.06 11.3356C149.767 11.3356 150.219 11.252 150.416 11.0848C150.612 10.9046 150.71 10.6859 150.71 10.4286V5.2372C150.71 4.99275 150.612 4.7869 150.416 4.61964C150.219 4.43952 149.767 4.34946 149.06 4.34946C148.352 4.34946 147.9 4.43952 147.704 4.61964C147.507 4.7869 147.409 4.99275 147.409 5.2372V10.4286Z" fill="#AD9161"/>
<path d="M164.239 14.7708H161.055C160.807 14.7708 160.623 14.7194 160.505 14.6164C160.4 14.5007 160.348 14.3205 160.348 14.0761V4.60034H157.459C157.21 4.60034 157.027 4.54888 156.909 4.44595C156.804 4.33016 156.752 4.15004 156.752 3.90558V1.57042C156.752 1.32597 156.804 1.15228 156.909 1.04935C157.027 0.933561 157.21 0.875664 157.459 0.875664H167.835C168.084 0.875664 168.261 0.933561 168.366 1.04935C168.484 1.15228 168.543 1.32597 168.543 1.57042V3.90558C168.543 4.15004 168.484 4.33016 168.366 4.44595C168.261 4.54888 168.084 4.60034 167.835 4.60034H164.946V14.0761C164.946 14.3205 164.888 14.5007 164.77 14.6164C164.665 14.7194 164.488 14.7708 164.239 14.7708Z" fill="#AD9161"/>
<path d="M141.471 43.4297H128.807C125.457 43.4297 122.964 42.7584 121.329 41.4159C119.721 40.0733 118.917 38.0058 118.917 35.2134V22.6473C118.917 19.8549 119.721 17.7874 121.329 16.4448C122.964 15.1023 125.457 14.431 128.807 14.431H138.858C139.367 14.431 139.729 14.5519 139.943 14.7935C140.184 15.0083 140.305 15.3708 140.305 15.881V20.7543C140.305 21.2645 140.184 21.6404 139.943 21.8821C139.729 22.0969 139.367 22.2043 138.858 22.2043H130.495C129.665 22.2043 129.048 22.3788 128.646 22.7279C128.244 23.0501 128.043 23.5468 128.043 24.2181V33.844C128.043 34.5153 128.19 35.012 128.485 35.3342C128.807 35.6564 129.276 35.8175 129.892 35.8175H133.792V29.5345C133.792 29.0243 133.899 28.6618 134.114 28.447C134.355 28.2054 134.73 28.0846 135.239 28.0846H141.471C141.98 28.0846 142.342 28.2054 142.556 28.447C142.798 28.6618 142.918 29.0243 142.918 29.5345V41.9797C142.918 42.4899 142.798 42.8658 142.556 43.1075C142.342 43.3223 141.98 43.4297 141.471 43.4297Z" fill="white"/>
<path d="M162.364 22.889L160.474 29.0109H166.786L164.897 22.889C164.79 22.6473 164.669 22.4728 164.535 22.3654C164.428 22.258 164.294 22.2043 164.133 22.2043H163.128C162.967 22.2043 162.82 22.258 162.686 22.3654C162.578 22.4728 162.471 22.6473 162.364 22.889ZM160.072 41.9797C160.072 42.4899 159.952 42.8658 159.711 43.1075C159.496 43.3223 159.134 43.4297 158.625 43.4297H152.715C152.206 43.4297 151.831 43.3223 151.59 43.1075C151.375 42.8658 151.268 42.4899 151.268 41.9797V31.3469C151.268 30.5414 151.389 29.615 151.63 28.5679C151.898 27.5207 152.3 26.299 152.836 24.9028L156.334 15.7601C156.494 15.3037 156.736 14.968 157.057 14.7532C157.406 14.5384 157.848 14.431 158.384 14.431H169.199C169.708 14.431 170.123 14.5384 170.445 14.7532C170.793 14.968 171.048 15.3037 171.209 15.7601L174.706 24.9028C175.242 26.299 175.631 27.5207 175.872 28.5679C176.14 29.615 176.274 30.5414 176.274 31.3469V41.9797C176.274 42.4899 176.154 42.8658 175.912 43.1075C175.698 43.3223 175.336 43.4297 174.827 43.4297H168.756C168.22 43.4297 167.818 43.3223 167.55 43.1075C167.309 42.8658 167.188 42.4899 167.188 41.9797V36.3411H160.072V41.9797Z" fill="white"/>
<path d="M192.627 43.4297H186.637C186.127 43.4297 185.752 43.3223 185.511 43.1075C185.297 42.8658 185.189 42.4899 185.189 41.9797V15.881C185.189 15.3708 185.297 15.0083 185.511 14.7935C185.752 14.5519 186.127 14.431 186.637 14.431H193.109C193.538 14.431 193.887 14.525 194.155 14.713C194.45 14.9009 194.718 15.2097 194.959 15.6393L198.577 22.2043C198.711 22.4459 198.818 22.6205 198.899 22.7279C199.006 22.8353 199.14 22.889 199.301 22.889H199.663C199.823 22.889 199.944 22.8353 200.024 22.7279C200.132 22.6205 200.252 22.4459 200.386 22.2043L203.964 15.6393C204.206 15.2097 204.46 14.9009 204.728 14.713C205.023 14.525 205.385 14.431 205.814 14.431H212.327C212.836 14.431 213.198 14.5519 213.412 14.7935C213.653 15.0083 213.774 15.3708 213.774 15.881V41.9797C213.774 42.4899 213.653 42.8658 213.412 43.1075C213.198 43.3223 212.836 43.4297 212.327 43.4297H206.135C205.626 43.4297 205.251 43.3223 205.01 43.1075C204.795 42.8658 204.688 42.4899 204.688 41.9797V27.8026L202.316 32.1927C202.075 32.6491 201.78 32.9848 201.432 33.1996C201.11 33.3875 200.694 33.4815 200.185 33.4815H198.577C198.068 33.4815 197.639 33.3875 197.291 33.1996C196.969 32.9848 196.688 32.6491 196.446 32.1927L194.074 27.8026V41.9797C194.074 42.4899 193.954 42.8658 193.712 43.1075C193.498 43.3223 193.136 43.4297 192.627 43.4297Z" fill="white"/>
<path d="M243.419 43.4297H224.764C224.255 43.4297 223.88 43.3223 223.639 43.1074C223.424 42.8658 223.317 42.4899 223.317 41.9797V15.881C223.317 15.3708 223.424 15.0083 223.639 14.7935C223.88 14.5519 224.255 14.431 224.764 14.431H243.419C243.928 14.431 244.29 14.5519 244.504 14.7935C244.745 15.0083 244.866 15.3708 244.866 15.881V20.5932C244.866 21.1034 244.745 21.4793 244.504 21.721C244.29 21.9358 243.928 22.0432 243.419 22.0432H232.323V25.1444H240.162C240.672 25.1444 241.033 25.2652 241.248 25.5069C241.489 25.7217 241.61 26.0842 241.61 26.5943V30.9039C241.61 31.414 241.489 31.7899 241.248 32.0316C241.033 32.2464 240.672 32.3538 240.162 32.3538H232.323V35.8175H243.419C243.928 35.8175 244.29 35.9383 244.504 36.18C244.745 36.3948 244.866 36.7573 244.866 37.2674V41.9797C244.866 42.4899 244.745 42.8658 244.504 43.1074C244.29 43.3223 243.928 43.4297 243.419 43.4297Z" fill="white"/>
<path fill-rule="evenodd" clip-rule="evenodd" d="M121.17 41.6105L121.168 41.6092C119.485 40.2042 118.666 38.0541 118.666 35.2133V22.6473C118.666 19.8065 119.485 17.6564 121.168 16.2514L121.17 16.2501C122.869 14.8545 125.43 14.1793 128.807 14.1793H138.858C139.392 14.1793 139.837 14.3035 140.121 14.6152C140.432 14.9 140.556 15.3461 140.556 15.8809V20.7543C140.556 21.2987 140.428 21.7523 140.121 22.06C139.836 22.3455 139.391 22.456 138.858 22.456H130.495C129.693 22.456 129.147 22.6257 128.811 22.918L128.807 22.9213L128.803 22.9244C128.478 23.1852 128.294 23.5983 128.294 24.218V33.844C128.294 34.4815 128.434 34.9033 128.667 35.16C128.927 35.4178 129.321 35.5658 129.892 35.5658H133.541V29.5344C133.541 29.0003 133.651 28.5544 133.936 28.269C134.243 27.9612 134.696 27.8328 135.239 27.8328H141.471C142.005 27.8328 142.45 27.957 142.734 28.2688C143.045 28.5536 143.169 28.9996 143.169 29.5344V41.9797C143.169 42.524 143.041 42.9776 142.734 43.2854C142.449 43.5709 142.004 43.6813 141.471 43.6813H128.807C125.43 43.6813 122.869 43.0061 121.17 41.6105ZM142.556 28.447C142.342 28.2053 141.98 28.0845 141.471 28.0845H135.239C134.73 28.0845 134.355 28.2053 134.114 28.447C133.899 28.6618 133.792 29.0243 133.792 29.5344V35.8175H129.892C129.276 35.8175 128.807 35.6564 128.485 35.3342C128.19 35.012 128.043 34.5152 128.043 33.844V24.218C128.043 23.5468 128.244 23.05 128.646 22.7278C129.048 22.3788 129.665 22.2042 130.495 22.2042H138.858C139.367 22.2042 139.729 22.0968 139.943 21.882C140.184 21.6404 140.305 21.2645 140.305 20.7543V15.8809C140.305 15.3708 140.184 15.0083 139.943 14.7935C139.729 14.5518 139.367 14.431 138.858 14.431H128.807C125.457 14.431 122.964 15.1023 121.329 16.4448C119.721 17.7873 118.917 19.8548 118.917 22.6473V35.2133C118.917 38.0058 119.721 40.0733 121.329 41.4158C122.964 42.7584 125.457 43.4296 128.807 43.4296H141.471C141.98 43.4296 142.342 43.3222 142.556 43.1074C142.798 42.8658 142.918 42.4898 142.918 41.9797V29.5344C142.918 29.0243 142.798 28.6618 142.556 28.447ZM164.367 22.5532L164.357 22.5433C164.3 22.4862 164.232 22.456 164.133 22.456H163.128C163.032 22.456 162.943 22.4851 162.854 22.5532C162.782 22.6289 162.695 22.7641 162.6 22.9778L160.815 28.7591H166.446L164.661 22.9779C164.564 22.763 164.466 22.6327 164.378 22.5619L164.367 22.5532ZM164.897 22.8889L166.786 29.0109H160.474L162.364 22.8889C162.471 22.6473 162.578 22.4727 162.686 22.3653C162.82 22.2579 162.967 22.2042 163.128 22.2042H164.133C164.294 22.2042 164.428 22.2579 164.535 22.3653C164.669 22.4727 164.79 22.6473 164.897 22.8889ZM151.412 43.2857L151.402 43.2746C151.128 42.9667 151.017 42.5176 151.017 41.9797V31.3469C151.017 30.5172 151.141 29.5712 151.385 28.5112L151.386 28.5053C151.657 27.4459 152.063 26.2147 152.601 24.8126L151.412 43.2857ZM152.601 24.8126L156.098 15.6731C156.272 15.1798 156.541 14.7951 156.918 14.5437L156.922 14.5412L156.925 14.5388C157.324 14.2931 157.815 14.1793 158.384 14.1793H169.199C169.74 14.1793 170.207 14.2931 170.58 14.5412C170.983 14.791 171.269 15.1757 171.445 15.6732L174.941 24.8124C175.479 26.2143 175.872 27.4468 176.116 28.5082C176.388 29.5681 176.526 30.5152 176.526 31.3469V41.9797C176.526 42.524 176.397 42.9776 176.09 43.2854C175.805 43.5709 175.36 43.6813 174.827 43.6813H168.756C168.193 43.6813 167.725 43.5697 167.393 43.304L167.382 43.2953L167.373 43.2854C167.065 42.9776 166.937 42.524 166.937 41.9797V36.5928H160.324V41.9797C160.324 42.524 160.195 42.9776 159.888 43.2854C159.603 43.5709 159.158 43.6813 158.625 43.6813H152.715C152.178 43.6813 151.73 43.5693 151.423 43.2956L151.412 43.2857L152.601 24.8126ZM160.072 36.3411H167.188V41.9797C167.188 42.4898 167.309 42.8658 167.55 43.1074C167.818 43.3222 168.22 43.4296 168.756 43.4296H174.827C175.336 43.4296 175.698 43.3222 175.912 43.1074C176.154 42.8658 176.274 42.4898 176.274 41.9797V31.3469C176.274 30.5413 176.14 29.615 175.872 28.5678C175.631 27.5206 175.242 26.2989 174.706 24.9027L171.209 15.7601C171.048 15.3036 170.793 14.968 170.445 14.7532C170.123 14.5384 169.708 14.431 169.199 14.431H158.384C157.848 14.431 157.406 14.5384 157.057 14.7532C156.736 14.968 156.494 15.3036 156.334 15.7601L152.836 24.9027C152.3 26.2989 151.898 27.5206 151.63 28.5678C151.389 29.615 151.268 30.5413 151.268 31.3469V41.9797C151.268 42.4898 151.375 42.8658 151.59 43.1074C151.831 43.3222 152.206 43.4296 152.715 43.4296H158.625C159.134 43.4296 159.496 43.3222 159.711 43.1074C159.952 42.8658 160.072 42.4898 160.072 41.9797V36.3411ZM185.333 43.2857L185.323 43.2746C185.05 42.9667 184.938 42.5176 184.938 41.9797V15.8809C184.938 15.3467 185.048 14.9009 185.333 14.6155C185.641 14.3077 186.093 14.1793 186.637 14.1793H193.109C193.572 14.1793 193.973 14.2802 194.294 14.5035C194.633 14.7211 194.925 15.066 195.178 15.5159L195.179 15.5176L198.797 22.082C198.922 22.3088 199.019 22.466 199.088 22.5611C199.143 22.6109 199.209 22.6372 199.301 22.6372H199.663C199.762 22.6372 199.8 22.6078 199.823 22.5768L199.834 22.5625L199.847 22.5498C199.929 22.4673 200.036 22.3171 200.166 22.0822C200.166 22.0821 200.166 22.0823 200.166 22.0822L203.744 15.5186L203.745 15.5158C203.996 15.0685 204.274 14.7244 204.584 14.5067L204.589 14.5035L204.593 14.5005C204.937 14.2816 205.348 14.1793 205.814 14.1793H212.327C212.86 14.1793 213.306 14.3035 213.59 14.6152C213.901 14.9001 214.025 15.3461 214.025 15.8809V41.9797C214.025 42.524 213.897 42.9776 213.59 43.2854C213.305 43.5709 212.86 43.6813 212.327 43.6813H206.135C205.598 43.6813 205.15 43.5693 204.843 43.2956L204.832 43.2857L204.822 43.2746C204.549 42.9667 204.437 42.5176 204.437 41.9797V28.7964L202.538 32.3104C202.538 32.3108 202.538 32.3112 202.537 32.3116C202.281 32.797 201.958 33.1704 201.563 33.4139L201.558 33.417C201.186 33.6342 200.723 33.7332 200.185 33.7332H198.577C198.038 33.7332 197.565 33.6337 197.171 33.4212L197.161 33.4156L197.151 33.409C196.785 33.1647 196.479 32.7926 196.225 32.3116C196.225 32.3112 196.224 32.3108 196.224 32.3104L194.326 28.7964V41.9797C194.326 42.524 194.197 42.9776 193.89 43.2854C193.605 43.5709 193.16 43.6813 192.627 43.6813H186.637C186.1 43.6813 185.651 43.5693 185.344 43.2956L185.333 43.2857ZM194.074 27.8026L196.446 32.1926C196.688 32.6491 196.969 32.9847 197.291 33.1995C197.639 33.3875 198.068 33.4815 198.577 33.4815H200.185C200.694 33.4815 201.11 33.3875 201.431 33.1995C201.78 32.9847 202.075 32.6491 202.316 32.1926L204.688 27.8026V41.9797C204.688 42.4898 204.795 42.8658 205.01 43.1074C205.251 43.3222 205.626 43.4296 206.135 43.4296H212.327C212.836 43.4296 213.198 43.3222 213.412 43.1074C213.653 42.8658 213.774 42.4898 213.774 41.9797V15.8809C213.774 15.3708 213.653 15.0083 213.412 14.7935C213.198 14.5518 212.836 14.431 212.327 14.431H205.814C205.385 14.431 205.023 14.525 204.728 14.7129C204.46 14.9009 204.205 15.2097 203.964 15.6393L200.386 22.2042C200.252 22.4459 200.132 22.6204 200.024 22.7278C199.944 22.8352 199.823 22.8889 199.663 22.8889H199.301C199.14 22.8889 199.006 22.8352 198.899 22.7278C198.818 22.6204 198.711 22.4459 198.577 22.2042L194.959 15.6393C194.718 15.2097 194.45 14.9009 194.155 14.7129C193.887 14.525 193.538 14.431 193.109 14.431H186.637C186.127 14.431 185.752 14.5518 185.511 14.7935C185.297 15.0083 185.189 15.3708 185.189 15.8809V41.9797C185.189 42.4898 185.297 42.8658 185.511 43.1074C185.752 43.3222 186.127 43.4296 186.637 43.4296H192.627C193.136 43.4296 193.498 43.3222 193.712 43.1074C193.954 42.8658 194.074 42.4898 194.074 41.9797V27.8026ZM223.461 43.2857L223.451 43.2746C223.178 42.9667 223.066 42.5176 223.066 41.9797V15.8809C223.066 15.3467 223.176 14.9009 223.461 14.6155C223.768 14.3077 224.221 14.1793 224.764 14.1793H243.419C243.953 14.1793 244.398 14.3035 244.682 14.6152C244.993 14.9 245.117 15.3461 245.117 15.8809V20.5932C245.117 21.1375 244.989 21.5912 244.682 21.8989C244.397 22.1844 243.952 22.2948 243.419 22.2948H232.574V24.8926H240.162C240.696 24.8926 241.141 25.0168 241.426 25.3286C241.737 25.6134 241.861 26.0594 241.861 26.5943V30.9038C241.861 31.4482 241.733 31.9018 241.425 32.2095C241.14 32.495 240.695 32.6055 240.162 32.6055H232.574V35.5657H243.419C243.953 35.5657 244.398 35.6899 244.682 36.0017C244.993 36.2865 245.117 36.7325 245.117 37.2674V41.9797C245.117 42.524 244.989 42.9776 244.682 43.2854C244.397 43.5709 243.952 43.6813 243.419 43.6813H224.764C224.227 43.6813 223.779 43.5693 223.472 43.2955L223.461 43.2857ZM244.504 36.18C244.29 35.9383 243.928 35.8175 243.419 35.8175H232.323V32.3537H240.162C240.672 32.3537 241.033 32.2463 241.248 32.0315C241.489 31.7899 241.61 31.414 241.61 30.9038V26.5943C241.61 26.0841 241.489 25.7217 241.248 25.5068C241.033 25.2652 240.672 25.1444 240.162 25.1444H232.323V22.0431H243.419C243.928 22.0431 244.29 21.9357 244.504 21.7209C244.745 21.4793 244.866 21.1034 244.866 20.5932V15.8809C244.866 15.3708 244.745 15.0083 244.504 14.7935C244.29 14.5518 243.928 14.431 243.419 14.431H224.764C224.255 14.431 223.88 14.5518 223.639 14.7935C223.424 15.0083 223.317 15.3708 223.317 15.8809V41.9797C223.317 42.4898 223.424 42.8657 223.639 43.1074C223.88 43.3222 224.255 43.4296 224.764 43.4296H243.419C243.928 43.4296 244.29 43.3222 244.504 43.1074C244.745 42.8657 244.866 42.4898 244.866 41.9797V37.2674C244.866 36.7572 244.745 36.3948 244.504 36.18Z" fill="white"/>
<path d="M16.9949 22.8743L15.0962 28.9856H21.4386L19.5399 22.8743C19.4322 22.633 19.311 22.4588 19.1763 22.3516C19.0686 22.2444 18.9339 22.1908 18.7724 22.1908H17.7624C17.6008 22.1908 17.4527 22.2444 17.3181 22.3516C17.2103 22.4588 17.1026 22.633 16.9949 22.8743ZM14.6922 41.9319C14.6922 42.4412 14.5711 42.8164 14.3287 43.0577C14.1132 43.2721 13.7496 43.3793 13.238 43.3793H7.29957C6.78788 43.3793 6.41084 43.2721 6.16845 43.0577C5.953 42.8164 5.84528 42.4412 5.84528 41.9319V31.3175C5.84528 30.5134 5.96647 29.5887 6.20885 28.5433C6.47816 27.498 6.88214 26.2784 7.42076 24.8846L10.9353 15.7578C11.0969 15.3022 11.3393 14.9671 11.6625 14.7527C12.0126 14.5382 12.4569 14.431 12.9956 14.431H23.8624C24.3741 14.431 24.7915 14.5382 25.1147 14.7527C25.4648 14.9671 25.7207 15.3022 25.8823 15.7578L29.3968 24.8846C29.9354 26.2784 30.3259 27.498 30.5683 28.5433C30.8376 29.5887 30.9723 30.5134 30.9723 31.3175V41.9319C30.9723 42.4412 30.8511 42.8164 30.6087 43.0577C30.3933 43.2721 30.0297 43.3793 29.518 43.3793H23.418C22.8794 43.3793 22.4754 43.2721 22.2061 43.0577C21.9637 42.8164 21.8425 42.4412 21.8425 41.9319V36.3031H14.6922V41.9319Z" fill="white"/>
<path fill-rule="evenodd" clip-rule="evenodd" d="M18.9673 22.5871L18.955 22.5748C18.9101 22.5302 18.8569 22.5054 18.7724 22.5054H17.7624C17.6814 22.5054 17.6055 22.5289 17.5276 22.587C17.4636 22.6555 17.3819 22.7811 17.2891 22.986L15.5229 28.6709H21.0119L19.2457 22.9862C19.1512 22.7789 19.0586 22.6598 18.9809 22.5979L18.9673 22.5871ZM19.5399 22.8742L21.4386 28.9855H15.0962L16.9949 22.8742C17.1026 22.633 17.2103 22.4588 17.3181 22.3516C17.4527 22.2443 17.6008 22.1907 17.7624 22.1907H18.7724C18.934 22.1907 19.0686 22.2443 19.1763 22.3516C19.311 22.4588 19.4322 22.633 19.5399 22.8742ZM5.9467 43.2812L5.93438 43.2674C5.64487 42.9433 5.53119 42.4762 5.53119 41.9318V31.3175C5.53119 30.483 5.65679 29.5335 5.90291 28.4721L5.90464 28.4646C6.17792 27.4039 6.58636 26.1722 7.12786 24.7709L10.6408 15.6484C10.8195 15.1464 11.0975 14.7501 11.489 14.4903L11.4938 14.4872L11.4986 14.4842C11.9112 14.2315 12.4168 14.1163 12.9956 14.1163H23.8624C24.4141 14.1163 24.8955 14.2314 25.2834 14.4871C25.7016 14.7449 25.9961 15.1412 26.1767 15.6483L29.6897 24.7709C30.2311 26.172 30.6266 27.4051 30.8734 28.4684C31.1466 29.5298 31.2864 30.4805 31.2864 31.3175V41.9318C31.2864 42.4844 31.1554 42.957 30.8301 43.2808C30.5265 43.583 30.0592 43.6939 29.518 43.6939H23.418C22.8462 43.6939 22.3593 43.5815 22.0107 43.3039L21.9971 43.2931L21.9848 43.2808C21.6594 42.957 21.5285 42.4844 21.5285 41.9318V36.6177H15.0063V41.9318C15.0063 42.4844 14.8754 42.957 14.55 43.2808C14.2464 43.583 13.7792 43.6939 13.238 43.6939H7.29957C6.75366 43.6939 6.28565 43.5811 5.96055 43.2935L5.9467 43.2812ZM14.6922 36.303H21.8425V41.9318C21.8425 42.4411 21.9637 42.8164 22.2061 43.0576C22.4754 43.272 22.8794 43.3793 23.418 43.3793H29.518C30.0297 43.3793 30.3933 43.272 30.6087 43.0576C30.8511 42.8164 30.9723 42.4411 30.9723 41.9318V31.3175C30.9723 30.5134 30.8376 29.5886 30.5683 28.5433C30.3259 27.4979 29.9354 26.2783 29.3968 24.8845L25.8823 15.7578C25.7207 15.3021 25.4648 14.9671 25.1147 14.7526C24.7915 14.5382 24.3741 14.431 23.8624 14.431H12.9956C12.4569 14.431 12.0126 14.5382 11.6625 14.7526C11.3393 14.9671 11.0969 15.3021 10.9353 15.7578L7.42077 24.8845C6.88214 26.2783 6.47817 27.4979 6.20885 28.5433C5.96647 29.5886 5.84528 30.5134 5.84528 31.3175V41.9318C5.84528 42.4411 5.953 42.8164 6.16845 43.0576C6.41084 43.272 6.78788 43.3793 7.29957 43.3793H13.238C13.7497 43.3793 14.1132 43.272 14.3287 43.0576C14.5711 42.8164 14.6922 42.4411 14.6922 41.9318V36.303Z" fill="white"/>
<path d="M68.6025 43.4045H55.9385C52.5882 43.4045 50.0956 42.7332 48.4607 41.3907C46.8526 40.0481 46.0485 37.9806 46.0485 35.1882V22.6221C46.0485 19.8297 46.8526 17.7622 48.4607 16.4196C50.0956 15.0771 52.5882 14.4058 55.9385 14.4058H65.9893C66.4986 14.4058 66.8604 14.5267 67.0748 14.7683C67.316 14.9831 67.4366 15.3456 67.4366 15.8558V20.7291C67.4366 21.2393 67.316 21.6152 67.0748 21.8569C66.8604 22.0717 66.4986 22.1791 65.9893 22.1791H57.6271C56.7962 22.1791 56.1797 22.3536 55.7777 22.7027C55.3757 23.0249 55.1747 23.5216 55.1747 24.1929V33.8188C55.1747 34.4901 55.3221 34.9868 55.6169 35.309C55.9385 35.6312 56.4076 35.7923 57.024 35.7923H60.9237V29.5093C60.9237 28.9991 61.0309 28.6366 61.2453 28.4218C61.4866 28.1802 61.8618 28.0594 62.371 28.0594H68.6025C69.1118 28.0594 69.4736 28.1802 69.688 28.4218C69.9292 28.6366 70.0499 28.9991 70.0499 29.5093V41.9545C70.0499 42.4647 69.9292 42.8406 69.688 43.0822C69.4736 43.2971 69.1118 43.4045 68.6025 43.4045Z" fill="white"/>
<path d="M103.527 35.7923C103.527 37.0274 103.339 38.1552 102.964 39.1755C102.615 40.169 101.972 41.0282 101.034 41.7531C100.123 42.4513 98.8496 43.0017 97.2147 43.4045C95.6066 43.8072 93.5562 44.0086 91.0636 44.0086C88.571 44.0086 86.5072 43.8072 84.8723 43.4045C83.2374 43.0017 81.9508 42.4513 81.0128 41.7531C80.1015 41.0282 79.4582 40.169 79.083 39.1755C78.7346 38.1552 78.5604 37.0274 78.5604 35.7923V22.0582C78.5604 20.8231 78.7346 19.7088 79.083 18.7154C79.4582 17.695 80.1015 16.8224 81.0128 16.0974C81.9508 15.3725 83.2374 14.8086 84.8723 14.4058C86.5072 14.0031 88.571 13.8017 91.0636 13.8017C93.5562 13.8017 95.6066 14.0031 97.2147 14.4058C98.8496 14.8086 100.123 15.3725 101.034 16.0974C101.972 16.8224 102.615 17.695 102.964 18.7154C103.339 19.7088 103.527 20.8231 103.527 22.0582V35.7923ZM87.6865 34.3424C87.6865 34.8794 87.8875 35.3359 88.2896 35.7118C88.6916 36.0608 89.6163 36.2354 91.0636 36.2354C92.5109 36.2354 93.4356 36.0608 93.8376 35.7118C94.2396 35.3359 94.4407 34.8794 94.4407 34.3424V23.5082C94.4407 22.998 94.2396 22.5684 93.8376 22.2194C93.4356 21.8434 92.5109 21.6555 91.0636 21.6555C89.6163 21.6555 88.6916 21.8434 88.2896 22.2194C87.8875 22.5684 87.6865 22.998 87.6865 23.5082V34.3424Z" fill="white"/>
<path fill-rule="evenodd" clip-rule="evenodd" d="M48.2615 41.634L48.2596 41.6324C46.5579 40.2118 45.7344 38.0411 45.7344 35.1882V22.6221C45.7344 19.7693 46.5579 17.5985 48.2596 16.1779L48.2615 16.1763C49.9772 14.7675 52.5555 14.0912 55.9385 14.0912H65.9893C66.5296 14.0912 66.9955 14.2164 67.2971 14.5456C67.6257 14.8477 67.7507 15.3144 67.7507 15.8558V20.7292C67.7507 21.2821 67.6205 21.7551 67.2968 22.0794C66.9943 22.3825 66.5285 22.4938 65.9893 22.4938H57.627C56.8313 22.4938 56.3038 22.6623 55.9834 22.9405L55.9787 22.9445L55.9739 22.9484C55.6676 23.1938 55.4887 23.5861 55.4887 24.1929V33.8188C55.4887 34.4477 55.6269 34.8509 55.8438 35.0914C56.0882 35.3332 56.4641 35.4777 57.0239 35.4777H60.6096V29.5093C60.6096 28.9691 60.7206 28.5025 61.0232 28.1994C61.3469 27.8751 61.8191 27.7447 62.371 27.7447H68.6025C69.1429 27.7447 69.6087 27.8699 69.9103 28.1991C70.2389 28.5012 70.3639 28.9679 70.3639 29.5093V41.9545C70.3639 42.5074 70.2338 42.9805 69.9101 43.3048C69.6075 43.6079 69.1417 43.7191 68.6025 43.7191H55.9385C52.5555 43.7191 49.9772 43.0429 48.2615 41.634ZM69.688 28.4219C69.4735 28.1802 69.1117 28.0594 68.6025 28.0594H62.371C61.8617 28.0594 61.4865 28.1802 61.2453 28.4219C61.0309 28.6367 60.9237 28.9991 60.9237 29.5093V35.7923H57.0239C56.4075 35.7923 55.9385 35.6312 55.6168 35.309C55.322 34.9868 55.1746 34.4901 55.1746 33.8188V24.1929C55.1746 23.5216 55.3756 23.0249 55.7776 22.7027C56.1797 22.3536 56.7961 22.1791 57.627 22.1791H65.9893C66.4985 22.1791 66.8603 22.0717 67.0748 21.8569C67.316 21.6152 67.4366 21.2393 67.4366 20.7292V15.8558C67.4366 15.3456 67.316 14.9831 67.0748 14.7683C66.8603 14.5267 66.4985 14.4059 65.9893 14.4059H55.9385C52.5882 14.4059 50.0956 15.0771 48.4607 16.4196C46.8525 17.7622 46.0485 19.8297 46.0485 22.6221V35.1882C46.0485 37.9807 46.8525 40.0482 48.4607 41.3907C50.0956 42.7332 52.5882 43.4045 55.9385 43.4045H68.6025C69.1117 43.4045 69.4735 43.2971 69.688 43.0823C69.9292 42.8406 70.0498 42.4647 70.0498 41.9545V29.5093C70.0498 28.9991 69.9292 28.6367 69.688 28.4219ZM101.226 42.0023L101.225 42.0031C100.267 42.7367 98.9492 43.3011 97.2908 43.7097C95.6486 44.121 93.5703 44.3233 91.0635 44.3233C88.5565 44.3233 86.4654 44.121 84.7972 43.71C83.1382 43.3013 81.8084 42.7373 80.8254 42.0058L80.8213 42.0027L80.8174 41.9996C79.8662 41.2429 79.1864 40.3385 78.7892 39.2869L78.7874 39.2821L78.7858 39.2774C78.4247 38.2199 78.2462 37.0572 78.2462 35.7923V22.0583C78.2462 20.7936 78.4246 19.6433 78.7866 18.6111L78.7882 18.6066C79.1848 17.5282 79.8644 16.6092 80.8174 15.851L80.8208 15.8483C81.8049 15.0878 83.1364 14.5094 84.7972 14.1003C86.4654 13.6894 88.5565 13.4871 91.0635 13.4871C93.5701 13.4871 95.6482 13.6893 97.2903 14.1005C98.9497 14.5093 100.269 15.0876 101.228 15.8496C102.207 16.607 102.889 17.5269 103.259 18.6087C103.649 19.6419 103.841 20.7931 103.841 22.0583V35.7923C103.841 37.0586 103.648 38.2229 103.259 39.2818C102.888 40.3389 102.205 41.2455 101.226 42.0023ZM102.964 39.1755C103.339 38.1552 103.527 37.0275 103.527 35.7923V22.0583C103.527 20.8231 103.339 19.7088 102.964 18.7154C102.615 17.695 101.972 16.8224 101.034 16.0974C100.123 15.3725 98.8495 14.8086 97.2146 14.4059C95.6065 14.0031 93.5561 13.8017 91.0635 13.8017C88.5709 13.8017 86.5072 14.0031 84.8722 14.4059C83.2373 14.8086 81.9508 15.3725 81.0127 16.0974C80.1014 16.8224 79.4582 17.695 79.083 18.7154C78.7345 19.7088 78.5603 20.8231 78.5603 22.0583V35.7923C78.5603 37.0275 78.7345 38.1552 79.083 39.1755C79.4582 40.169 80.1014 41.0282 81.0127 41.7532C81.9508 42.4513 83.2373 43.0017 84.8722 43.4045C86.5072 43.8072 88.5709 44.0086 91.0635 44.0086C93.5561 44.0086 95.6065 43.8072 97.2146 43.4045C98.8495 43.0017 100.123 42.4513 101.034 41.7532C101.972 41.0282 102.615 40.169 102.964 39.1755ZM88.2895 22.2194C87.8875 22.5684 87.6864 22.998 87.6864 23.5082V34.3424C87.6864 34.8794 87.8875 35.3359 88.2895 35.7118C88.6915 36.0608 89.6162 36.2354 91.0635 36.2354C92.5108 36.2354 93.4355 36.0608 93.8375 35.7118C94.2396 35.3359 94.4406 34.8794 94.4406 34.3424V23.5082C94.4406 22.998 94.2396 22.5684 93.8375 22.2194C93.4355 21.8435 92.5108 21.6555 91.0635 21.6555C89.6162 21.6555 88.6915 21.8435 88.2895 22.2194ZM93.6278 35.4775C93.9649 35.1603 94.1265 34.7877 94.1265 34.3424V23.5082C94.1265 23.0938 93.9685 22.7495 93.6318 22.4572L93.6275 22.4534L93.6232 22.4494C93.4852 22.3203 93.2214 22.1945 92.7801 22.1048C92.3461 22.0166 91.776 21.9702 91.0635 21.9702C90.351 21.9702 89.7809 22.0166 89.347 22.1048C88.9057 22.1945 88.6419 22.3203 88.5038 22.4494L88.4996 22.4534L88.4952 22.4572C88.1585 22.7495 88.0005 23.0938 88.0005 23.5082V34.3424C88.0005 34.7877 88.1621 35.1603 88.4992 35.4775C88.6382 35.596 88.9029 35.7123 89.3427 35.7953C89.7785 35.8775 90.3502 35.9207 91.0635 35.9207C91.7769 35.9207 92.3485 35.8775 92.7844 35.7953C93.2241 35.7123 93.4888 35.596 93.6278 35.4775Z" fill="white"/>
<path d="M10.5503 31.1757V32.4243H26.2295V31.1757C26.2295 30.4508 26.1625 29.7795 26.0285 29.1619C25.9213 28.5444 25.7739 27.9671 25.5863 27.4301L22.8123 20.8651C22.5175 20.167 22.2092 19.5897 21.8876 19.1332C21.566 18.6499 21.0299 18.4083 20.2795 18.4083H16.3396C15.5355 18.4083 14.9726 18.6499 14.651 19.1332C14.3294 19.5897 14.0346 20.1536 13.7665 20.8248L11.1935 27.4301C11.0059 27.9671 10.8451 28.5444 10.7111 29.1619C10.6039 29.7795 10.5503 30.4508 10.5503 31.1757ZM16.9828 22.8386C17.09 22.597 17.1972 22.4224 17.3044 22.315C17.4384 22.2076 17.5859 22.1539 17.7467 22.1539H18.7517C18.9126 22.1539 19.0466 22.2076 19.1538 22.315C19.2878 22.4224 19.4084 22.597 19.5156 22.8386L21.4052 28.9605H15.0933L16.9828 22.8386ZM26.2295 39.7545V32.827H10.5503V39.7545H10.1483V31.1757C10.1483 30.4239 10.2019 29.7392 10.3091 29.1216C10.4431 28.4772 10.6173 27.8597 10.8317 27.269L13.4047 20.6637C13.6995 19.9119 14.0346 19.2809 14.4098 18.7707C14.785 18.2606 15.4283 18.0055 16.3396 18.0055H20.2795C21.1639 18.0055 21.7804 18.2606 22.1288 18.7707C22.504 19.2809 22.8525 19.9253 23.1741 20.704L25.9481 27.269C26.1625 27.8597 26.3234 28.4772 26.4306 29.1216C26.5646 29.7392 26.6316 30.4239 26.6316 31.1757V39.7545H26.2295ZM14.6912 41.9294V36.2908H21.8072V41.9294C21.8072 42.4395 21.9278 42.8154 22.169 43.0571C22.437 43.2719 22.8391 43.3793 23.3751 43.3793H29.4458C29.955 43.3793 30.3169 43.2719 30.5313 43.0571C30.7725 42.8154 30.8931 42.4395 30.8931 41.9294V31.2965C30.8931 30.491 30.7591 29.5647 30.4911 28.5175C30.2499 27.4703 29.8612 26.2486 29.3252 24.8524L25.8275 15.7098C25.6667 15.2533 25.4121 14.9177 25.0637 14.7029C24.742 14.4881 24.3266 14.3807 23.8174 14.3807H13.0027C12.4666 14.3807 12.0244 14.4881 11.676 14.7029C11.3544 14.9177 11.1131 15.2533 10.9523 15.7098L7.45464 24.8524C6.91859 26.2486 6.51656 27.4703 6.24854 28.5175C6.00732 29.5647 5.88671 30.491 5.88671 31.2965V41.9294C5.88671 42.4395 5.99392 42.8154 6.20834 43.0571C6.44956 43.2719 6.82479 43.3793 7.33403 43.3793H13.2439C13.7531 43.3793 14.115 43.2719 14.3294 43.0571C14.5706 42.8154 14.6912 42.4395 14.6912 41.9294ZM9.30399 47.7694C9.19678 47.8768 9.02256 47.9708 8.78135 48.0513C8.56693 48.1319 8.32571 48.1721 8.05769 48.1721H2.14781C1.50456 48.1721 1.03552 48.0245 0.740698 47.7291C0.445874 47.4337 0.298462 46.9639 0.298462 46.3194V35.6866C0.298462 34.8542 0.419072 33.9145 0.660291 32.8673C0.928313 31.7933 1.34375 30.5313 1.90659 29.0814L5.36407 19.979C5.44448 19.7374 5.53828 19.536 5.64549 19.3749C5.7795 19.1869 5.91351 19.0258 6.04752 18.8916L6.08773 18.8513L11.2337 14.5418C11.4482 14.3538 11.7028 14.2196 11.9976 14.139C12.2924 14.0316 12.6275 13.9779 13.0027 13.9779H23.8174C24.4338 13.9779 24.9296 14.1122 25.3049 14.3807C25.7069 14.6223 26.0017 15.0117 26.1893 15.5487L29.687 24.6913C30.2499 26.1412 30.6519 27.4032 30.8931 28.4772C31.1611 29.5244 31.2952 30.4642 31.2952 31.2965V41.9294C31.2952 42.2784 31.2416 42.5738 31.1343 42.8154C31.0539 43.0571 30.9199 43.2585 30.7323 43.4196L25.5059 47.7694C25.3987 47.8768 25.2245 47.9708 24.9833 48.0513C24.7688 48.1319 24.5276 48.1721 24.2596 48.1721H18.1889C17.5189 48.1721 17.023 48.011 16.7014 47.6888C16.3798 47.3935 16.2189 46.937 16.2189 46.3194V41.0836H15.0933V41.9294C15.0933 42.2784 15.0396 42.5738 14.9324 42.8154C14.852 43.0571 14.718 43.2585 14.5304 43.4196L9.30399 47.7694Z" fill="#AD9161"/>
<path d="M63.383 48.1721H50.719C47.2079 48.1721 44.6081 47.2592 42.9195 45.4334C41.2578 43.6075 40.4269 41.2447 40.4269 38.3448V26.987C40.4269 25.5102 40.6414 24.2348 41.0702 23.1608C41.499 22.0868 42.1289 21.1873 42.9598 20.4623L48.146 16.0723C48.9768 15.3741 50.0355 14.8506 51.322 14.5015C52.6353 14.1524 54.1631 13.9779 55.9052 13.9779H65.956C66.5993 13.9779 67.0683 14.1256 67.3631 14.421C67.6579 14.7163 67.8054 15.1862 67.8054 15.8306V20.704C67.8054 21.053 67.7517 21.3484 67.6445 21.5901C67.5641 21.8317 67.4301 22.0331 67.2425 22.1942L62.0161 26.544C61.9089 26.6514 61.7347 26.7454 61.4934 26.8259C61.279 26.9065 61.0378 26.9467 60.7698 26.9467H55.5434V32.7465C55.5702 32.6928 55.6104 32.6391 55.664 32.5854C55.7444 32.5048 55.8114 32.4377 55.865 32.384L61.0512 27.9939C61.1852 27.8865 61.3594 27.806 61.5738 27.7523C61.8151 27.6717 62.0697 27.6314 62.3377 27.6314H68.5692C69.2125 27.6314 69.6815 27.7791 69.9763 28.0745C70.2711 28.3698 70.4186 28.8397 70.4186 29.4841V41.9294C70.4186 42.2784 70.365 42.5738 70.2577 42.8154C70.1773 43.0571 70.0433 43.2585 69.8557 43.4196L64.6293 47.7694C64.5221 47.8768 64.3479 47.9708 64.1067 48.0513C63.8922 48.1319 63.651 48.1721 63.383 48.1721ZM68.5692 43.3793C69.0785 43.3793 69.4403 43.2719 69.6547 43.0571C69.8959 42.8154 70.0165 42.4395 70.0165 41.9294V29.4841C70.0165 28.974 69.8959 28.6115 69.6547 28.3967C69.4403 28.155 69.0785 28.0342 68.5692 28.0342H62.3377C61.8285 28.0342 61.4532 28.155 61.212 28.3967C60.9976 28.6115 60.8904 28.974 60.8904 29.4841V35.7672H56.9907C56.3742 35.7672 55.9052 35.6061 55.5836 35.2839C55.2887 34.9616 55.1413 34.4649 55.1413 33.7936V24.1677C55.1413 23.4964 55.3423 22.9997 55.7444 22.6775C56.1464 22.3284 56.7629 22.1539 57.5937 22.1539H65.956C66.4652 22.1539 66.8271 22.0465 67.0415 21.8317C67.2827 21.5901 67.4033 21.2141 67.4033 20.704V15.8306C67.4033 15.3204 67.2827 14.958 67.0415 14.7432C66.8271 14.5015 66.4652 14.3807 65.956 14.3807H55.9052C52.5549 14.3807 50.0623 15.0519 48.4274 16.3945C46.8193 17.737 46.0152 19.8045 46.0152 22.597V35.163C46.0152 37.9555 46.8193 40.023 48.4274 41.3655C50.0623 42.708 52.5549 43.3793 55.9052 43.3793H68.5692ZM57.6339 39.7545C56.1598 39.7545 54.9537 39.6605 54.0156 39.4725C53.0776 39.2846 52.3405 38.9892 51.8045 38.5865C51.2684 38.1569 50.8932 37.6199 50.6788 36.9754C50.4912 36.3042 50.3974 35.4987 50.3974 34.5589V23.2816C50.3974 21.3753 50.8262 20.0193 51.6839 19.2138C52.5415 18.4083 54.2569 18.0055 56.8299 18.0055H63.785V18.4083H56.8299C54.4713 18.4083 52.8765 18.7842 52.0457 19.536C51.2148 20.261 50.7994 21.5095 50.7994 23.2816V34.5589C50.7994 36.3042 51.255 37.5393 52.1663 38.2643C53.1044 38.9892 54.9269 39.3517 57.6339 39.3517H65.2323V31.659H65.6344V39.7545H57.6339Z" fill="#AD9161"/>
<path d="M96.2539 46.2389C95.3158 47.0444 94.0025 47.662 92.3139 48.0916C90.6254 48.548 88.4544 48.7763 85.801 48.7763C83.1744 48.7763 81.0168 48.4943 79.3283 47.9305C77.6666 47.3935 76.3532 46.6685 75.3884 45.7556C74.4503 44.8427 73.7936 43.7955 73.4184 42.6141C73.07 41.4326 72.8958 40.2109 72.8958 38.949V26.4232C72.8958 25.188 73.07 24.0469 73.4184 22.9997C73.7668 21.9257 74.3967 21.0128 75.308 20.261L80.5344 15.9112C81.4725 15.1056 82.7724 14.4881 84.4341 14.0585C86.1226 13.602 88.307 13.3738 90.9872 13.3738C93.6138 13.3738 95.758 13.5886 97.4197 14.0182C99.1083 14.4478 100.422 15.0519 101.36 15.8306C102.325 16.5824 102.981 17.4953 103.33 18.5694C103.678 19.6165 103.852 20.7711 103.852 22.0331V35.7672C103.852 37.0023 103.678 38.1434 103.33 39.1906C102.981 40.2378 102.351 41.1373 101.44 41.8891L96.2539 46.2389ZM103.45 35.7672V22.0331C103.45 20.798 103.263 19.6837 102.887 18.6902C102.539 17.6699 101.896 16.7972 100.958 16.0723C100.046 15.3473 98.7733 14.7834 97.1383 14.3807C95.5302 13.9779 93.4798 13.7765 90.9872 13.7765C88.4946 13.7765 86.4309 13.9779 84.7959 14.3807C83.161 14.7834 81.8745 15.3473 80.9364 16.0723C80.0251 16.7972 79.3819 17.6699 79.0067 18.6902C78.6582 19.6837 78.484 20.798 78.484 22.0331V35.7672C78.484 37.0023 78.6582 38.13 79.0067 39.1503C79.3819 40.1438 80.0251 41.003 80.9364 41.728C81.8745 42.4261 83.161 42.9765 84.7959 43.3793C86.4309 43.7821 88.4946 43.9834 90.9872 43.9834C93.4798 43.9834 95.5302 43.7821 97.1383 43.3793C98.7733 42.9765 100.046 42.4261 100.958 41.728C101.896 41.003 102.539 40.1438 102.887 39.1503C103.263 38.13 103.45 37.0023 103.45 35.7672ZM99.0681 34.8408C99.0681 36.4519 98.4918 37.7675 97.3393 38.7879C96.1868 39.7813 94.0427 40.2781 90.9068 40.2781C87.771 40.2781 85.6402 39.7813 84.5145 38.7879C83.3888 37.7675 82.826 36.4519 82.826 34.8408V22.9594C82.826 21.3484 83.3888 20.0461 84.5145 19.0527C85.6402 18.0324 87.771 17.5222 90.9068 17.5222C94.0427 17.5222 96.1868 18.0324 97.3393 19.0527C98.4918 20.0461 99.0681 21.3484 99.0681 22.9594V34.8408ZM83.228 34.8408C83.228 36.3445 83.764 37.5662 84.8361 38.5059C85.9082 39.4188 87.9318 39.8753 90.9068 39.8753C93.8819 39.8753 95.9188 39.4188 97.0177 38.5059C98.1166 37.5662 98.666 36.3445 98.666 34.8408V22.9594C98.666 21.4558 98.1166 20.2475 97.0177 19.3346C95.9188 18.3948 93.8819 17.925 90.9068 17.925C87.9318 17.925 85.9082 18.3948 84.8361 19.3346C83.764 20.2475 83.228 21.4558 83.228 22.9594V34.8408ZM87.6102 34.3172V23.483C87.6102 22.9729 87.8112 22.5433 88.2132 22.1942C88.6152 21.8183 89.5399 21.6303 90.9872 21.6303C92.4345 21.6303 93.3592 21.8183 93.7612 22.1942C94.1633 22.5433 94.3643 22.9729 94.3643 23.483V34.3172C94.3643 34.8542 94.1633 35.3107 93.7612 35.6866C93.3592 36.0357 92.4345 36.2102 90.9872 36.2102C89.5399 36.2102 88.6152 36.0357 88.2132 35.6866C87.8112 35.3107 87.6102 34.8542 87.6102 34.3172ZM88.0122 34.3172C88.0122 34.5857 88.0658 34.8274 88.173 35.0422C88.2802 35.2302 88.4812 35.3913 88.776 35.5255V27.8731C88.776 27.6046 88.7224 27.3764 88.6152 27.1884C88.508 26.9736 88.307 26.8125 88.0122 26.7051V34.3172Z" fill="#AD9161"/>
<path d="M136.291 48.1721H123.627C120.116 48.1721 117.516 47.2592 115.827 45.4334C114.165 43.6075 113.335 41.2447 113.335 38.3448V26.987C113.335 25.5102 113.549 24.2348 113.978 23.1608C114.407 22.0868 115.037 21.1873 115.867 20.4623L121.054 16.0723C121.884 15.3741 122.943 14.8506 124.23 14.5015C125.543 14.1524 127.071 13.9779 128.813 13.9779H138.864C139.507 13.9779 139.976 14.1256 140.271 14.421C140.566 14.7163 140.713 15.1862 140.713 15.8306V20.704C140.713 21.053 140.659 21.3484 140.552 21.5901C140.472 21.8317 140.338 22.0331 140.15 22.1942L134.924 26.544C134.816 26.6514 134.642 26.7454 134.401 26.8259C134.187 26.9065 133.945 26.9467 133.677 26.9467H128.451V32.7465C128.478 32.6928 128.518 32.6391 128.572 32.5854C128.652 32.5048 128.719 32.4377 128.773 32.384L133.959 27.9939C134.093 27.8865 134.267 27.806 134.481 27.7523C134.723 27.6717 134.977 27.6314 135.245 27.6314H141.477C142.12 27.6314 142.589 27.7791 142.884 28.0745C143.179 28.3698 143.326 28.8397 143.326 29.4841V41.9294C143.326 42.2784 143.273 42.5738 143.165 42.8154C143.085 43.0571 142.951 43.2585 142.763 43.4196L137.537 47.7694C137.43 47.8768 137.256 47.9708 137.014 48.0513C136.8 48.1319 136.559 48.1721 136.291 48.1721ZM141.477 43.3793C141.986 43.3793 142.348 43.2719 142.562 43.0571C142.804 42.8154 142.924 42.4395 142.924 41.9294V29.4841C142.924 28.974 142.804 28.6115 142.562 28.3967C142.348 28.155 141.986 28.0342 141.477 28.0342H135.245C134.736 28.0342 134.361 28.155 134.12 28.3967C133.905 28.6115 133.798 28.974 133.798 29.4841V35.7672H129.898C129.282 35.7672 128.813 35.6061 128.491 35.2839C128.196 34.9616 128.049 34.4649 128.049 33.7936V24.1677C128.049 23.4964 128.25 22.9997 128.652 22.6775C129.054 22.3284 129.67 22.1539 130.501 22.1539H138.864C139.373 22.1539 139.735 22.0465 139.949 21.8317C140.19 21.5901 140.311 21.2141 140.311 20.704V15.8306C140.311 15.3204 140.19 14.958 139.949 14.7432C139.735 14.5015 139.373 14.3807 138.864 14.3807H128.813C125.463 14.3807 122.97 15.0519 121.335 16.3945C119.727 17.737 118.923 19.8045 118.923 22.597V35.163C118.923 37.9555 119.727 40.023 121.335 41.3655C122.97 42.708 125.463 43.3793 128.813 43.3793H141.477ZM130.542 39.7545C129.067 39.7545 127.861 39.6605 126.923 39.4725C125.985 39.2846 125.248 38.9892 124.712 38.5865C124.176 38.1569 123.801 37.6199 123.586 36.9754C123.399 36.3042 123.305 35.4987 123.305 34.5589V23.2816C123.305 21.3753 123.734 20.0193 124.591 19.2138C125.449 18.4083 127.164 18.0055 129.737 18.0055H136.693V18.4083H129.737C127.379 18.4083 125.784 18.7842 124.953 19.536C124.122 20.261 123.707 21.5095 123.707 23.2816V34.5589C123.707 36.3042 124.163 37.5393 125.074 38.2643C126.012 38.9892 127.835 39.3517 130.542 39.3517H138.14V31.659H138.542V39.7545H130.542Z" fill="#AD9161"/>
<path d="M155.894 31.1757V32.4243H171.574V31.1757C171.574 30.4508 171.507 29.7795 171.373 29.1619C171.265 28.5444 171.118 27.9671 170.93 27.4301L168.156 20.8651C167.862 20.167 167.553 19.5897 167.232 19.1332C166.91 18.6499 166.374 18.4083 165.624 18.4083H161.684C160.88 18.4083 160.317 18.6499 159.995 19.1332C159.674 19.5897 159.379 20.1536 159.111 20.8248L156.538 27.4301C156.35 27.9671 156.189 28.5444 156.055 29.1619C155.948 29.7795 155.894 30.4508 155.894 31.1757ZM162.327 22.8386C162.434 22.597 162.541 22.4224 162.649 22.315C162.783 22.2076 162.93 22.1539 163.091 22.1539H164.096C164.257 22.1539 164.391 22.2076 164.498 22.315C164.632 22.4224 164.753 22.597 164.86 22.8386L166.749 28.9605H160.437L162.327 22.8386ZM171.574 39.7545V32.827H155.894V39.7545H155.492V31.1757C155.492 30.4239 155.546 29.7392 155.653 29.1216C155.787 28.4772 155.961 27.8597 156.176 27.269L158.749 20.6637C159.044 19.9119 159.379 19.2809 159.754 18.7707C160.129 18.2606 160.772 18.0055 161.684 18.0055H165.624C166.508 18.0055 167.124 18.2606 167.473 18.7707C167.848 19.2809 168.197 19.9253 168.518 20.704L171.292 27.269C171.507 27.8597 171.667 28.4772 171.775 29.1216C171.909 29.7392 171.976 30.4239 171.976 31.1757V39.7545H171.574ZM160.035 41.9294V36.2908H167.151V41.9294C167.151 42.4395 167.272 42.8154 167.513 43.0571C167.781 43.2719 168.183 43.3793 168.719 43.3793H174.79C175.299 43.3793 175.661 43.2719 175.875 43.0571C176.117 42.8154 176.237 42.4395 176.237 41.9294V31.2965C176.237 30.491 176.103 29.5647 175.835 28.5175C175.594 27.4703 175.205 26.2486 174.669 24.8524L171.172 15.7098C171.011 15.2533 170.756 14.9177 170.408 14.7029C170.086 14.4881 169.671 14.3807 169.161 14.3807H158.347C157.811 14.3807 157.369 14.4881 157.02 14.7029C156.698 14.9177 156.457 15.2533 156.296 15.7098L152.799 24.8524C152.263 26.2486 151.861 27.4703 151.593 28.5175C151.351 29.5647 151.231 30.491 151.231 31.2965V41.9294C151.231 42.4395 151.338 42.8154 151.552 43.0571C151.794 43.2719 152.169 43.3793 152.678 43.3793H158.588C159.097 43.3793 159.459 43.2719 159.674 43.0571C159.915 42.8154 160.035 42.4395 160.035 41.9294ZM154.648 47.7694C154.541 47.8768 154.367 47.9708 154.125 48.0513C153.911 48.1319 153.67 48.1721 153.402 48.1721H147.492C146.849 48.1721 146.38 48.0245 146.085 47.7291C145.79 47.4337 145.643 46.9639 145.643 46.3194V35.6866C145.643 34.8542 145.763 33.9145 146.004 32.8673C146.272 31.7933 146.688 30.5313 147.251 29.0814L150.708 19.979C150.789 19.7374 150.882 19.536 150.99 19.3749C151.124 19.1869 151.258 19.0258 151.392 18.8916L151.432 18.8513L156.578 14.5418C156.792 14.3538 157.047 14.2196 157.342 14.139C157.637 14.0316 157.972 13.9779 158.347 13.9779H169.161C169.778 13.9779 170.274 14.1122 170.649 14.3807C171.051 14.6223 171.346 15.0117 171.533 15.5487L175.031 24.6913C175.594 26.1412 175.996 27.4032 176.237 28.4772C176.505 29.5244 176.639 30.4642 176.639 31.2965V41.9294C176.639 42.2784 176.586 42.5738 176.478 42.8154C176.398 43.0571 176.264 43.2585 176.076 43.4196L170.85 47.7694C170.743 47.8768 170.569 47.9708 170.327 48.0513C170.113 48.1319 169.872 48.1721 169.604 48.1721H163.533C162.863 48.1721 162.367 48.011 162.046 47.6888C161.724 47.3935 161.563 46.937 161.563 46.3194V41.0836H160.437V41.9294C160.437 42.2784 160.384 42.5738 160.277 42.8154C160.196 43.0571 160.062 43.2585 159.875 43.4196L154.648 47.7694Z" fill="#AD9161"/>
<path d="M199.357 27.8731C199.84 27.8731 200.188 27.7657 200.403 27.5509C200.617 27.3361 200.952 26.8796 201.408 26.1815L206.312 18.6902C206.473 18.4217 206.647 18.2472 206.835 18.1666C207.049 18.0592 207.264 18.0055 207.478 18.0055H208.162C208.537 18.0055 208.805 18.1129 208.966 18.3277C209.153 18.5157 209.247 18.8244 209.247 19.2541V39.7545H208.845V19.2541C208.845 19.0393 208.792 18.8513 208.684 18.6902C208.604 18.5022 208.43 18.4083 208.162 18.4083H207.559C207.371 18.4083 207.21 18.4351 207.076 18.4888C206.942 18.5425 206.795 18.7036 206.634 18.9721L201.729 26.3829C201.247 27.1079 200.872 27.6046 200.604 27.8731C200.362 28.1416 199.947 28.2759 199.357 28.2759C198.768 28.2759 198.339 28.1416 198.071 27.8731C197.83 27.6046 197.468 27.1079 196.985 26.3829L192.08 18.9721C191.92 18.7036 191.759 18.5425 191.598 18.4888C191.464 18.4351 191.303 18.4083 191.116 18.4083H190.513C190.245 18.4083 190.07 18.5022 189.99 18.6902C189.909 18.8513 189.869 19.0393 189.869 19.2541V39.7545H189.467V19.2541C189.467 18.8244 189.548 18.5157 189.708 18.3277C189.896 18.1129 190.164 18.0055 190.513 18.0055H191.196C191.41 18.0055 191.625 18.0592 191.839 18.1666C192.054 18.2472 192.241 18.4217 192.402 18.6902L197.307 26.1815C197.763 26.8796 198.098 27.3361 198.312 27.5509C198.526 27.7657 198.875 27.8731 199.357 27.8731ZM192.643 43.3793C193.153 43.3793 193.514 43.2719 193.729 43.0571C193.97 42.8154 194.091 42.4395 194.091 41.9294V27.7523L196.463 32.1423C196.704 32.5988 196.985 32.9344 197.307 33.1492C197.655 33.3372 198.084 33.4312 198.593 33.4312H200.202C200.711 33.4312 201.126 33.3372 201.448 33.1492C201.796 32.9344 202.091 32.5988 202.332 32.1423L204.704 27.7523V41.9294C204.704 42.4395 204.811 42.8154 205.026 43.0571C205.267 43.2719 205.642 43.3793 206.152 43.3793H212.343C212.852 43.3793 213.214 43.2719 213.428 43.0571C213.67 42.8154 213.79 42.4395 213.79 41.9294V15.8306C213.79 15.3204 213.67 14.958 213.428 14.7432C213.214 14.5015 212.852 14.3807 212.343 14.3807H205.83C205.401 14.3807 205.039 14.4747 204.744 14.6626C204.476 14.8506 204.222 15.1593 203.981 15.589L200.403 22.1539C200.269 22.3956 200.148 22.5701 200.041 22.6775C199.96 22.7849 199.84 22.8386 199.679 22.8386H199.317C199.156 22.8386 199.022 22.7849 198.915 22.6775C198.835 22.5701 198.727 22.3956 198.593 22.1539L194.975 15.589C194.734 15.1593 194.466 14.8506 194.171 14.6626C193.903 14.4747 193.555 14.3807 193.126 14.3807H186.653C186.144 14.3807 185.769 14.5015 185.527 14.7432C185.313 14.958 185.206 15.3204 185.206 15.8306V41.9294C185.206 42.4395 185.313 42.8154 185.527 43.0571C185.769 43.2719 186.144 43.3793 186.653 43.3793H192.643ZM193.93 43.4196L188.703 47.7694C188.596 47.8768 188.422 47.9708 188.181 48.0513C187.966 48.1319 187.725 48.1721 187.457 48.1721H181.467C180.824 48.1721 180.355 48.0245 180.06 47.7291C179.765 47.4337 179.617 46.9639 179.617 46.3194V20.2207C179.617 19.8716 179.658 19.5763 179.738 19.3346C179.845 19.093 179.993 18.8916 180.18 18.7305L185.367 14.3404C185.501 14.233 185.675 14.1524 185.889 14.0987C186.13 14.0182 186.385 13.9779 186.653 13.9779H193.126C193.635 13.9779 194.05 14.0853 194.372 14.3001C194.72 14.5149 195.042 14.8774 195.337 15.3876L198.071 20.4221L198.433 19.7776C198.54 19.5897 198.647 19.4152 198.754 19.2541C198.888 19.0661 199.022 18.9184 199.156 18.811L204.342 14.4612C204.557 14.3001 204.771 14.1793 204.986 14.0987C205.227 14.0182 205.508 13.9779 205.83 13.9779H212.343C212.986 13.9779 213.455 14.1256 213.75 14.421C214.045 14.7163 214.192 15.1862 214.192 15.8306V41.9294C214.192 42.2784 214.139 42.5738 214.031 42.8154C213.951 43.0571 213.817 43.2585 213.629 43.4196L208.403 47.7694C208.296 47.8768 208.122 47.9708 207.88 48.0513C207.666 48.1319 207.425 48.1721 207.157 48.1721H200.965C200.295 48.1721 199.813 48.0245 199.518 47.7291C199.25 47.4337 199.116 46.9639 199.116 46.3194V35.6866L196.744 37.6601C196.53 37.8481 196.275 37.9958 195.98 38.1032C195.712 38.1837 195.391 38.224 195.015 38.224H194.493V41.9294C194.493 42.2784 194.439 42.5738 194.332 42.8154C194.251 43.0571 194.117 43.2585 193.93 43.4196Z" fill="#AD9161"/>
<path d="M238.283 48.1721H219.628C218.985 48.1721 218.516 48.0245 218.221 47.7291C217.927 47.4337 217.779 46.9639 217.779 46.3194V20.2207C217.779 19.8716 217.819 19.5763 217.9 19.3346C218.007 19.093 218.154 18.8916 218.342 18.7305L223.528 14.3404C223.662 14.233 223.836 14.1524 224.051 14.0987C224.292 14.0182 224.547 13.9779 224.815 13.9779H243.469C244.112 13.9779 244.581 14.1256 244.876 14.421C245.171 14.7163 245.318 15.1862 245.318 15.8306V20.5429C245.318 20.8919 245.265 21.1873 245.158 21.429C245.077 21.6706 244.943 21.872 244.755 22.0331L241.298 24.8927C241.566 25.0269 241.754 25.2283 241.861 25.4968C241.995 25.7653 242.062 26.1144 242.062 26.544V30.8535C242.062 31.2026 242.008 31.4979 241.901 31.7396C241.821 31.9812 241.687 32.1826 241.499 32.3437L237.921 35.3644H243.469C244.112 35.3644 244.581 35.5121 244.876 35.8074C245.171 36.1028 245.318 36.5727 245.318 37.2171V41.9294C245.318 42.2784 245.265 42.5738 245.158 42.8154C245.077 43.0571 244.943 43.2585 244.755 43.4196L239.529 47.7694C239.422 47.8768 239.248 47.9708 239.006 48.0513C238.792 48.1319 238.551 48.1721 238.283 48.1721ZM243.469 43.3793C243.978 43.3793 244.34 43.2719 244.554 43.0571C244.796 42.8154 244.916 42.4395 244.916 41.9294V37.2171C244.916 36.7069 244.796 36.3445 244.554 36.1296C244.34 35.888 243.978 35.7672 243.469 35.7672H232.373V32.3034H240.213C240.722 32.3034 241.084 32.196 241.298 31.9812C241.539 31.7396 241.66 31.3637 241.66 30.8535V26.544C241.66 26.0338 241.539 25.6713 241.298 25.4565C241.084 25.2149 240.722 25.0941 240.213 25.0941H232.373V21.9928H243.469C243.978 21.9928 244.34 21.8854 244.554 21.6706C244.796 21.429 244.916 21.053 244.916 20.5429V15.8306C244.916 15.3204 244.796 14.958 244.554 14.7432C244.34 14.5015 243.978 14.3807 243.469 14.3807H224.815C224.305 14.3807 223.93 14.5015 223.689 14.7432C223.475 14.958 223.367 15.3204 223.367 15.8306V41.9294C223.367 42.4395 223.475 42.8154 223.689 43.0571C223.93 43.2719 224.305 43.3793 224.815 43.3793H243.469ZM241.298 39.3517V39.7545H227.75V18.0055H241.298V18.4083H228.152V28.5175H238.042V28.9203H228.152V39.3517H241.298Z" fill="#AD9161"/>
</svg>
