<svg width="109" height="19" viewBox="0 0 109 19" fill="none" xmlns="http://www.w3.org/2000/svg">
<path d="M9.68553 18H5.79753C5.49353 18 5.26953 17.936 5.12553 17.808C4.99753 17.664 4.93353 17.44 4.93353 17.136V14.064L1.26153 9.144C0.893529 8.648 0.645529 8.216 0.517529 7.848C0.405529 7.48 0.349529 6.928 0.349529 6.192V1.584C0.349529 1.28 0.413529 1.064 0.541529 0.935999C0.685529 0.791999 0.909529 0.719999 1.21353 0.719999H4.90953C5.21353 0.719999 5.42953 0.791999 5.55753 0.935999C5.70153 1.064 5.77353 1.28 5.77353 1.584V5.52C5.77353 5.68 5.78153 5.848 5.79753 6.024C5.81353 6.2 5.87753 6.368 5.98953 6.528L7.09353 8.256C7.17353 8.4 7.25353 8.504 7.33353 8.568C7.42953 8.632 7.54153 8.664 7.66953 8.664H7.90953C8.03753 8.664 8.14153 8.632 8.22153 8.568C8.31753 8.504 8.40553 8.4 8.48553 8.256L9.58953 6.528C9.70153 6.368 9.76553 6.2 9.78153 6.024C9.79753 5.848 9.80553 5.68 9.80553 5.52V1.584C9.80553 1.28 9.86953 1.064 9.99753 0.935999C10.1415 0.791999 10.3655 0.719999 10.6695 0.719999H14.2455C14.5495 0.719999 14.7655 0.791999 14.8935 0.935999C15.0375 1.064 15.1095 1.28 15.1095 1.584V6.192C15.1095 6.928 15.0455 7.48 14.9175 7.848C14.7895 8.216 14.5495 8.648 14.1975 9.144L10.5495 14.088V17.136C10.5495 17.44 10.4775 17.664 10.3335 17.808C10.2055 17.936 9.98953 18 9.68553 18ZM32.4874 13.464C32.4874 14.2 32.3754 14.872 32.1514 15.48C31.9434 16.072 31.5594 16.584 30.9994 17.016C30.4554 17.432 29.6954 17.76 28.7194 18C27.7594 18.24 26.5354 18.36 25.0474 18.36C23.5594 18.36 22.3274 18.24 21.3514 18C20.3754 17.76 19.6074 17.432 19.0474 17.016C18.5034 16.584 18.1194 16.072 17.8954 15.48C17.6874 14.872 17.5834 14.2 17.5834 13.464V5.28C17.5834 4.544 17.6874 3.88 17.8954 3.288C18.1194 2.68 18.5034 2.16 19.0474 1.728C19.6074 1.296 20.3754 0.959999 21.3514 0.719999C22.3274 0.48 23.5594 0.36 25.0474 0.36C26.5354 0.36 27.7594 0.48 28.7194 0.719999C29.6954 0.959999 30.4554 1.296 30.9994 1.728C31.5594 2.16 31.9434 2.68 32.1514 3.288C32.3754 3.88 32.4874 4.544 32.4874 5.28V13.464ZM23.0314 12.6C23.0314 12.92 23.1514 13.192 23.3914 13.416C23.6314 13.624 24.1834 13.728 25.0474 13.728C25.9114 13.728 26.4634 13.624 26.7034 13.416C26.9434 13.192 27.0634 12.92 27.0634 12.6V6.144C27.0634 5.84 26.9434 5.584 26.7034 5.376C26.4634 5.152 25.9114 5.04 25.0474 5.04C24.1834 5.04 23.6314 5.152 23.3914 5.376C23.1514 5.584 23.0314 5.84 23.0314 6.144V12.6ZM50.2547 13.464C50.2547 14.2 50.1427 14.872 49.9187 15.48C49.7107 16.072 49.3267 16.584 48.7667 17.016C48.2227 17.432 47.4707 17.76 46.5107 18C45.5507 18.24 44.3267 18.36 42.8387 18.36C41.3507 18.36 40.1267 18.24 39.1667 18C38.2067 17.76 37.4467 17.432 36.8867 17.016C36.3427 16.584 35.9587 16.072 35.7347 15.48C35.5267 14.872 35.4227 14.2 35.4227 13.464V1.584C35.4227 1.28 35.4867 1.064 35.6147 0.935999C35.7587 0.791999 35.9827 0.719999 36.2867 0.719999H40.0547C40.3587 0.719999 40.5747 0.791999 40.7027 0.935999C40.8467 1.064 40.9187 1.28 40.9187 1.584V12.528C40.9187 12.848 41.0387 13.12 41.2787 13.344C41.5187 13.552 42.0547 13.656 42.8867 13.656C43.7347 13.656 44.2787 13.552 44.5187 13.344C44.7587 13.12 44.8787 12.848 44.8787 12.528V1.584C44.8787 1.28 44.9427 1.064 45.0707 0.935999C45.2147 0.791999 45.4387 0.719999 45.7427 0.719999H49.3907C49.6947 0.719999 49.9107 0.791999 50.0387 0.935999C50.1827 1.064 50.2547 1.28 50.2547 1.584V13.464ZM71.2476 0.719999H74.8236C75.1276 0.719999 75.3436 0.791999 75.4716 0.935999C75.6156 1.064 75.6876 1.28 75.6876 1.584V10.896C75.6876 11.408 75.6636 11.888 75.6156 12.336C75.5836 12.768 75.4636 13.28 75.2556 13.872L74.0556 17.136C73.9756 17.376 73.8556 17.584 73.6956 17.76C73.5516 17.92 73.3516 18 73.0956 18H69.9036C69.6476 18 69.4156 17.944 69.2076 17.832C68.9996 17.72 68.8636 17.536 68.7996 17.28L67.6956 13.368C67.6476 13.208 67.5836 13.104 67.5036 13.056C67.4396 12.992 67.3596 12.96 67.2636 12.96H67.0476C66.9516 12.96 66.8636 12.992 66.7836 13.056C66.7196 13.104 66.6636 13.208 66.6156 13.368L65.4876 17.28C65.4236 17.52 65.3036 17.704 65.1276 17.832C64.9516 17.944 64.7356 18 64.4796 18H61.3116C61.0556 18 60.8316 17.92 60.6396 17.76C60.4636 17.6 60.3356 17.392 60.2556 17.136L59.0556 13.824C58.8476 13.232 58.7196 12.72 58.6716 12.288C58.6396 11.84 58.6236 11.36 58.6236 10.848V1.584C58.6236 1.28 58.6876 1.064 58.8156 0.935999C58.9596 0.791999 59.1836 0.719999 59.4876 0.719999H63.1836C63.4876 0.719999 63.7036 0.791999 63.8316 0.935999C63.9756 1.064 64.0476 1.28 64.0476 1.584V10.416L65.4396 7.392C65.5676 7.12 65.7356 6.928 65.9436 6.816C66.1516 6.704 66.4076 6.648 66.7116 6.648H67.7196C68.0236 6.648 68.2796 6.704 68.4876 6.816C68.6956 6.928 68.8636 7.12 68.9916 7.392L70.3836 10.416V1.584C70.3836 1.28 70.4476 1.064 70.5756 0.935999C70.7196 0.791999 70.9436 0.719999 71.2476 0.719999ZM79.2649 18C78.9609 18 78.7369 17.936 78.5929 17.808C78.4649 17.664 78.4009 17.44 78.4009 17.136V14.28C78.4009 13.976 78.4649 13.76 78.5929 13.632C78.7369 13.488 78.9609 13.416 79.2649 13.416H81.6409V5.352H79.2649C78.9609 5.352 78.7369 5.288 78.5929 5.16C78.4649 5.016 78.4009 4.792 78.4009 4.488V1.584C78.4009 1.28 78.4649 1.064 78.5929 0.935999C78.7369 0.791999 78.9609 0.719999 79.2649 0.719999H89.4889C89.7929 0.719999 90.0089 0.791999 90.1369 0.935999C90.2809 1.064 90.3529 1.28 90.3529 1.584V4.488C90.3529 4.792 90.2809 5.016 90.1369 5.16C90.0089 5.288 89.7929 5.352 89.4889 5.352H87.1609V13.416H89.4889C89.7929 13.416 90.0089 13.488 90.1369 13.632C90.2809 13.76 90.3529 13.976 90.3529 14.28V17.136C90.3529 17.44 90.2809 17.664 90.1369 17.808C90.0089 17.936 89.7929 18 89.4889 18H79.2649ZM97.7802 18H94.1802C93.8762 18 93.6522 17.936 93.5082 17.808C93.3802 17.664 93.3162 17.44 93.3162 17.136V1.584C93.3162 1.28 93.3802 1.064 93.5082 0.935999C93.6522 0.791999 93.8762 0.719999 94.1802 0.719999H96.6762C96.9802 0.719999 97.2362 0.767999 97.4442 0.863999C97.6682 0.96 97.8842 1.128 98.0922 1.368L102.748 6.696V1.584C102.748 1.28 102.812 1.064 102.94 0.935999C103.084 0.791999 103.308 0.719999 103.612 0.719999H107.212C107.516 0.719999 107.732 0.791999 107.86 0.935999C108.004 1.064 108.076 1.28 108.076 1.584V17.136C108.076 17.44 108.004 17.664 107.86 17.808C107.732 17.936 107.516 18 107.212 18H103.612C103.308 18 103.084 17.936 102.94 17.808C102.812 17.664 102.748 17.44 102.748 17.136V14.184L98.6442 9.216V17.136C98.6442 17.44 98.5722 17.664 98.4282 17.808C98.3002 17.936 98.0842 18 97.7802 18Z" fill="#165470"/>
</svg>
