<svg width="122" height="19" viewBox="0 0 122 19" fill="none" xmlns="http://www.w3.org/2000/svg">
<path d="M9.61131 18H5.72331C5.41931 18 5.19531 17.936 5.05131 17.808C4.92331 17.664 4.85931 17.44 4.85931 17.136V14.064L1.18731 9.144C0.819314 8.648 0.571314 8.216 0.443314 7.848C0.331314 7.48 0.275314 6.928 0.275314 6.192V1.584C0.275314 1.28 0.339314 1.064 0.467314 0.935999C0.611314 0.791999 0.835314 0.719999 1.13931 0.719999H4.83531C5.13931 0.719999 5.35531 0.791999 5.48331 0.935999C5.62731 1.064 5.69931 1.28 5.69931 1.584V5.52C5.69931 5.68 5.70731 5.848 5.72331 6.024C5.73931 6.2 5.80331 6.368 5.91531 6.528L7.01931 8.256C7.09931 8.4 7.17931 8.504 7.25931 8.568C7.35531 8.632 7.46731 8.664 7.59531 8.664H7.83531C7.96331 8.664 8.06731 8.632 8.14731 8.568C8.24331 8.504 8.33131 8.4 8.41131 8.256L9.51531 6.528C9.62731 6.368 9.69131 6.2 9.70731 6.024C9.72331 5.848 9.73131 5.68 9.73131 5.52V1.584C9.73131 1.28 9.79531 1.064 9.92331 0.935999C10.0673 0.791999 10.2913 0.719999 10.5953 0.719999H14.1713C14.4753 0.719999 14.6913 0.791999 14.8193 0.935999C14.9633 1.064 15.0353 1.28 15.0353 1.584V6.192C15.0353 6.928 14.9713 7.48 14.8433 7.848C14.7153 8.216 14.4753 8.648 14.1233 9.144L10.4753 14.088V17.136C10.4753 17.44 10.4033 17.664 10.2593 17.808C10.1313 17.936 9.91531 18 9.61131 18ZM32.4132 13.464C32.4132 14.2 32.3012 14.872 32.0772 15.48C31.8692 16.072 31.4852 16.584 30.9252 17.016C30.3812 17.432 29.6212 17.76 28.6452 18C27.6852 18.24 26.4612 18.36 24.9732 18.36C23.4852 18.36 22.2532 18.24 21.2772 18C20.3012 17.76 19.5332 17.432 18.9732 17.016C18.4292 16.584 18.0452 16.072 17.8212 15.48C17.6132 14.872 17.5092 14.2 17.5092 13.464V5.28C17.5092 4.544 17.6132 3.88 17.8212 3.288C18.0452 2.68 18.4292 2.16 18.9732 1.728C19.5332 1.296 20.3012 0.959999 21.2772 0.719999C22.2532 0.48 23.4852 0.36 24.9732 0.36C26.4612 0.36 27.6852 0.48 28.6452 0.719999C29.6212 0.959999 30.3812 1.296 30.9252 1.728C31.4852 2.16 31.8692 2.68 32.0772 3.288C32.3012 3.88 32.4132 4.544 32.4132 5.28V13.464ZM22.9572 12.6C22.9572 12.92 23.0772 13.192 23.3172 13.416C23.5572 13.624 24.1092 13.728 24.9732 13.728C25.8372 13.728 26.3892 13.624 26.6292 13.416C26.8692 13.192 26.9892 12.92 26.9892 12.6V6.144C26.9892 5.84 26.8692 5.584 26.6292 5.376C26.3892 5.152 25.8372 5.04 24.9732 5.04C24.1092 5.04 23.5572 5.152 23.3172 5.376C23.0772 5.584 22.9572 5.84 22.9572 6.144V12.6ZM50.1805 13.464C50.1805 14.2 50.0685 14.872 49.8445 15.48C49.6365 16.072 49.2525 16.584 48.6925 17.016C48.1485 17.432 47.3965 17.76 46.4365 18C45.4765 18.24 44.2525 18.36 42.7645 18.36C41.2765 18.36 40.0525 18.24 39.0925 18C38.1325 17.76 37.3725 17.432 36.8125 17.016C36.2685 16.584 35.8845 16.072 35.6605 15.48C35.4525 14.872 35.3485 14.2 35.3485 13.464V1.584C35.3485 1.28 35.4125 1.064 35.5405 0.935999C35.6845 0.791999 35.9085 0.719999 36.2125 0.719999H39.9805C40.2845 0.719999 40.5005 0.791999 40.6285 0.935999C40.7725 1.064 40.8445 1.28 40.8445 1.584V12.528C40.8445 12.848 40.9645 13.12 41.2045 13.344C41.4445 13.552 41.9805 13.656 42.8125 13.656C43.6605 13.656 44.2045 13.552 44.4445 13.344C44.6845 13.12 44.8045 12.848 44.8045 12.528V1.584C44.8045 1.28 44.8685 1.064 44.9965 0.935999C45.1405 0.791999 45.3645 0.719999 45.6685 0.719999H49.3165C49.6205 0.719999 49.8365 0.791999 49.9645 0.935999C50.1085 1.064 50.1805 1.28 50.1805 1.584V13.464ZM71.8454 18H59.6294C59.3254 18 59.1014 17.936 58.9574 17.808C58.8294 17.664 58.7654 17.44 58.7654 17.136V1.584C58.7654 1.28 58.8294 1.064 58.9574 0.935999C59.1014 0.791999 59.3254 0.719999 59.6294 0.719999H63.3494C63.6534 0.719999 63.8694 0.791999 63.9974 0.935999C64.1414 1.064 64.2134 1.28 64.2134 1.584V13.464H67.5014V9.576C67.5014 9.272 67.5654 9.056 67.6934 8.928C67.8374 8.784 68.0614 8.712 68.3654 8.712H71.8454C72.1494 8.712 72.3654 8.784 72.4934 8.928C72.6374 9.056 72.7094 9.272 72.7094 9.576V17.136C72.7094 17.44 72.6374 17.664 72.4934 17.808C72.3654 17.936 72.1494 18 71.8454 18ZM90.0929 13.464C90.0929 14.2 89.9809 14.872 89.7569 15.48C89.5489 16.072 89.1649 16.584 88.6049 17.016C88.0609 17.432 87.3009 17.76 86.3249 18C85.3649 18.24 84.1409 18.36 82.6529 18.36C81.1649 18.36 79.9329 18.24 78.9569 18C77.9809 17.76 77.2129 17.432 76.6529 17.016C76.1089 16.584 75.7249 16.072 75.5009 15.48C75.2929 14.872 75.1889 14.2 75.1889 13.464V5.28C75.1889 4.544 75.2929 3.88 75.5009 3.288C75.7249 2.68 76.1089 2.16 76.6529 1.728C77.2129 1.296 77.9809 0.959999 78.9569 0.719999C79.9329 0.48 81.1649 0.36 82.6529 0.36C84.1409 0.36 85.3649 0.48 86.3249 0.719999C87.3009 0.959999 88.0609 1.296 88.6049 1.728C89.1649 2.16 89.5489 2.68 89.7569 3.288C89.9809 3.88 90.0929 4.544 90.0929 5.28V13.464ZM80.6369 12.6C80.6369 12.92 80.7569 13.192 80.9969 13.416C81.2369 13.624 81.7889 13.728 82.6529 13.728C83.5169 13.728 84.0689 13.624 84.3089 13.416C84.5489 13.192 84.6689 12.92 84.6689 12.6V6.144C84.6689 5.84 84.5489 5.584 84.3089 5.376C84.0689 5.152 83.5169 5.04 82.6529 5.04C81.7889 5.04 81.2369 5.152 80.9969 5.376C80.7569 5.584 80.6369 5.84 80.6369 6.144V12.6ZM101.164 18H93.5802C93.2762 18 93.0522 17.936 92.9082 17.808C92.7802 17.664 92.7162 17.44 92.7162 17.136V14.328C92.7162 14.024 92.7802 13.808 92.9082 13.68C93.0522 13.536 93.2762 13.464 93.5802 13.464H100.036C100.244 13.464 100.396 13.4 100.492 13.272C100.604 13.128 100.66 12.96 100.66 12.768C100.66 12.496 100.604 12.296 100.492 12.168C100.396 12.04 100.244 11.968 100.036 11.952L96.4362 11.448C95.3162 11.288 94.4122 10.92 93.7242 10.344C93.0522 9.768 92.7162 8.808 92.7162 7.464V4.944C92.7162 3.584 93.1562 2.544 94.0362 1.824C94.9162 1.088 96.1322 0.719999 97.6842 0.719999H104.404C104.708 0.719999 104.924 0.791999 105.052 0.935999C105.196 1.064 105.268 1.28 105.268 1.584V4.44C105.268 4.744 105.196 4.968 105.052 5.112C104.924 5.24 104.708 5.304 104.404 5.304H98.8122C98.6042 5.304 98.4442 5.376 98.3322 5.52C98.2202 5.648 98.1642 5.816 98.1642 6.024C98.1642 6.232 98.2202 6.408 98.3322 6.552C98.4442 6.696 98.6042 6.776 98.8122 6.792L102.388 7.272C103.508 7.432 104.412 7.8 105.1 8.376C105.788 8.952 106.132 9.912 106.132 11.256V13.776C106.132 15.136 105.684 16.184 104.788 16.92C103.908 17.64 102.7 18 101.164 18ZM120.758 18H109.622C109.318 18 109.094 17.936 108.95 17.808C108.822 17.664 108.758 17.44 108.758 17.136V1.584C108.758 1.28 108.822 1.064 108.95 0.935999C109.094 0.791999 109.318 0.719999 109.622 0.719999H120.758C121.062 0.719999 121.278 0.791999 121.406 0.935999C121.55 1.064 121.622 1.28 121.622 1.584V4.392C121.622 4.696 121.55 4.92 121.406 5.064C121.278 5.192 121.062 5.256 120.758 5.256H114.134V7.104H118.814C119.118 7.104 119.334 7.176 119.462 7.32C119.606 7.448 119.678 7.664 119.678 7.968V10.536C119.678 10.84 119.606 11.064 119.462 11.208C119.334 11.336 119.118 11.4 118.814 11.4H114.134V13.464H120.758C121.062 13.464 121.278 13.536 121.406 13.68C121.55 13.808 121.622 14.024 121.622 14.328V17.136C121.622 17.44 121.55 17.664 121.406 17.808C121.278 17.936 121.062 18 120.758 18Z" fill="#CC564E"/>
</svg>
